<svg width="48" height="48" viewBox="0 0 48 48" fill="none" xmlns="http://www.w3.org/2000/svg">
<path d="M26.5174 15.5505L27.5061 14.5618C29.1442 12.9237 31.8001 12.9237 33.4381 14.5618C35.0762 16.1999 35.0762 18.8558 33.4381 20.4938L32.4495 21.4825M26.5174 15.5505C26.5174 15.5505 26.641 17.6514 28.4948 19.5052C30.3485 21.3589 32.4495 21.4825 32.4495 21.4825M26.5174 15.5505L17.4281 24.6398C16.8125 25.2555 16.5047 25.5633 16.2399 25.9027C15.9277 26.303 15.6599 26.7362 15.4415 27.1946C15.2563 27.5832 15.1186 27.9962 14.8433 28.8221L13.6766 32.3221M32.4495 21.4825L23.3601 30.5718C22.7445 31.1875 22.4367 31.4953 22.0973 31.76C21.6969 32.0723 21.2637 32.34 20.8053 32.5585C20.4168 32.7437 20.0038 32.8813 19.1778 33.1567L15.6778 34.3233M15.6778 34.3233L14.8223 34.6085C14.4158 34.744 13.9677 34.6382 13.6647 34.3352C13.3618 34.0323 13.256 33.5842 13.3915 33.1777L13.6766 32.3221M15.6778 34.3233L13.6766 32.3221" stroke="#424242" stroke-width="1.5"/>
</svg>
