<svg width="48" height="48" viewBox="0 0 48 48" fill="none" xmlns="http://www.w3.org/2000/svg">
<path d="M25.3333 17.9167C24.9191 17.9167 24.5833 18.2525 24.5833 18.6667C24.5833 19.0809 24.9191 19.4167 25.3333 19.4167V18.6667V17.9167ZM25.3333 21.9167C24.9191 21.9167 24.5833 22.2525 24.5833 22.6667C24.5833 23.0809 24.9191 23.4167 25.3333 23.4167L25.3333 22.6667L25.3333 21.9167ZM35.4167 21.3333C35.4167 20.9191 35.0809 20.5833 34.6667 20.5833C34.2525 20.5833 33.9167 20.9191 33.9167 21.3333H34.6667H35.4167ZM14.0833 21.3333C14.0833 20.9191 13.7476 20.5833 13.3333 20.5833C12.9191 20.5833 12.5833 20.9191 12.5833 21.3333H13.3333H14.0833ZM23.25 37.3333C23.25 37.7475 23.5858 38.0833 24 38.0833C24.4142 38.0833 24.75 37.7475 24.75 37.3333H24H23.25ZM30.6667 18.6667H29.9167V22.6667H30.6667H31.4167V18.6667H30.6667ZM17.3333 22.6667H18.0833V18.6667H17.3333H16.5833V22.6667H17.3333ZM24 29.3333V28.5833C20.7323 28.5833 18.0833 25.9344 18.0833 22.6667H17.3333H16.5833C16.5833 26.7628 19.9039 30.0833 24 30.0833V29.3333ZM30.6667 22.6667H29.9167C29.9167 25.9344 27.2677 28.5833 24 28.5833V29.3333V30.0833C28.0961 30.0833 31.4167 26.7628 31.4167 22.6667H30.6667ZM24 12V12.75C27.2677 12.75 29.9167 15.399 29.9167 18.6667H30.6667H31.4167C31.4167 14.5706 28.0961 11.25 24 11.25V12ZM24 12V11.25C19.9039 11.25 16.5833 14.5706 16.5833 18.6667H17.3333H18.0833C18.0833 15.399 20.7323 12.75 24 12.75V12ZM25.3333 18.6667V19.4167H30.6667V18.6667V17.9167H25.3333V18.6667ZM25.3333 22.6667L25.3333 23.4167L30.6667 23.4167L30.6667 22.6667L30.6667 21.9167L25.3333 21.9167L25.3333 22.6667ZM34.6667 21.3333H33.9167V22.6667H34.6667H35.4167V21.3333H34.6667ZM13.3333 22.6667H14.0833V21.3333H13.3333H12.5833V22.6667H13.3333ZM24 33.3333V32.5833C18.5232 32.5833 14.0833 28.1435 14.0833 22.6667H13.3333H12.5833C12.5833 28.9719 17.6948 34.0833 24 34.0833V33.3333ZM34.6667 22.6667H33.9167C33.9167 28.1435 29.4768 32.5833 24 32.5833V33.3333V34.0833C30.3053 34.0833 35.4167 28.9719 35.4167 22.6667H34.6667ZM24 33.3333H23.25V37.3333H24H24.75V33.3333H24Z" fill="#424242"/>
</svg>
