<svg width="32" height="32" viewBox="0 0 32 32" fill="none" xmlns="http://www.w3.org/2000/svg">
<rect width="32" height="32" rx="16" fill="#424242"/>
<path d="M27.6667 16C27.6667 22.4433 22.4433 27.6667 16 27.6667C9.55669 27.6667 4.33334 22.4433 4.33334 16C4.33334 9.55668 9.55669 4.33333 16 4.33333C22.4433 4.33333 27.6667 9.55668 27.6667 16Z" fill="#BE8B00"/>
<path d="M16 21.8333V14.8333M16 11.9167V11.3333M27.6667 16C27.6667 22.4433 22.4433 27.6667 16 27.6667C9.55669 27.6667 4.33334 22.4433 4.33334 16C4.33334 9.55668 9.55669 4.33333 16 4.33333C22.4433 4.33333 27.6667 9.55668 27.6667 16Z" stroke="#424242" stroke-width="2" stroke-linecap="round"/>
</svg>
