<svg width="32" height="32" viewBox="0 0 32 32" fill="none" xmlns="http://www.w3.org/2000/svg">
<path d="M24 16.7501C24.4142 16.7501 24.75 16.4143 24.75 16.0001C24.75 15.5859 24.4142 15.2501 24 15.2501V16.0001V16.7501ZM8 15.2501C7.58579 15.2501 7.25 15.5859 7.25 16.0001C7.25 16.4143 7.58579 16.7501 8 16.7501V16.0001V15.2501ZM16.75 8C16.75 7.58579 16.4142 7.25 16 7.25C15.5858 7.25 15.25 7.58579 15.25 8L16 8L16.75 8ZM15.25 24C15.25 24.4142 15.5858 24.75 16 24.75C16.4142 24.75 16.75 24.4142 16.75 24H16H15.25ZM24 16.0001V15.2501H16V16.0001V16.7501H24V16.0001ZM16 16.0001V15.2501H8V16.0001V16.7501H16V16.0001ZM16 8L15.25 8L15.25 16.0001L16 16.0001L16.75 16.0001L16.75 8L16 8ZM16 16.0001H15.25V24H16H16.75V16.0001H16Z" fill="#424242"/>
</svg>
