<svg width="32" height="32" viewBox="0 0 32 32" fill="none" xmlns="http://www.w3.org/2000/svg">
<path d="M28.6667 23.3333C28.6667 26.647 25.9804 29.3333 22.6667 29.3333C19.353 29.3333 16.6667 26.647 16.6667 23.3333C16.6667 20.0196 19.353 17.3333 22.6667 17.3333C25.9804 17.3333 28.6667 20.0196 28.6667 23.3333Z" fill="#96BFFF"/>
<path d="M27.1223 6.03177L27.6593 5.50819V5.50819L27.1223 6.03177ZM27.8111 14.6325C27.8111 15.0467 28.1469 15.3825 28.5611 15.3825C28.9753 15.3825 29.3111 15.0467 29.3111 14.6325H27.8111ZM5.43875 6.03177L4.90175 5.50819H4.90175L5.43875 6.03177ZM9.39027 4.55612C9.39027 4.97034 9.72606 5.30612 10.1403 5.30612C10.5545 5.30612 10.8903 4.97034 10.8903 4.55612H9.39027ZM10.8903 2.66681C10.8903 2.2526 10.5545 1.91681 10.1403 1.91681C9.72606 1.91681 9.39027 2.2526 9.39027 2.66681H10.8903ZM21.6708 4.55612C21.6708 4.97034 22.0066 5.30612 22.4208 5.30612C22.835 5.30612 23.1708 4.97034 23.1708 4.55612H21.6708ZM23.1708 2.66681C23.1708 2.2526 22.835 1.91681 22.4208 1.91681C22.0066 1.91681 21.6708 2.2526 21.6708 2.66681H23.1708ZM4.61403 10.1038C4.19981 10.1038 3.86403 10.4396 3.86403 10.8538C3.86403 11.268 4.19981 11.6038 4.61403 11.6038V10.1038ZM27.9471 11.6038C28.3613 11.6038 28.6971 11.268 28.6971 10.8538C28.6971 10.4396 28.3613 10.1038 27.9471 10.1038V11.6038ZM15.3333 27.9779C15.7475 27.9779 16.0833 27.6421 16.0833 27.2279C16.0833 26.8137 15.7475 26.4779 15.3333 26.4779V27.9779ZM22.6667 23.3333H21.9167C21.9167 23.5322 21.9957 23.723 22.1363 23.8637L22.6667 23.3333ZM23.4167 20.6667C23.4167 20.2525 23.0809 19.9167 22.6667 19.9167C22.2525 19.9167 21.9167 20.2525 21.9167 20.6667H23.4167ZM23.803 25.5303C24.0959 25.8232 24.5708 25.8232 24.8637 25.5303C25.1566 25.2374 25.1566 24.7626 24.8637 24.4697L23.803 25.5303ZM16.6025 17.0307C16.2512 17.2502 16.1445 17.7129 16.364 18.0642C16.5835 18.4154 17.0462 18.5222 17.3975 18.3027L16.6025 17.0307ZM20.0642 16.636C20.4154 16.4165 20.5222 15.9538 20.3027 15.6025C20.0831 15.2512 19.6204 15.1445 19.2692 15.364L20.0642 16.636ZM27.9358 18.3027C28.2871 18.5222 28.7498 18.4154 28.9693 18.0642C29.1889 17.7129 29.0821 17.2502 28.7308 17.0307L27.9358 18.3027ZM26.0642 15.364C25.7129 15.1445 25.2502 15.2512 25.0307 15.6025C24.8111 15.9538 24.9179 16.4165 25.2692 16.636L26.0642 15.364ZM13.8244 4.55612V5.30612H18.7366V4.55612V3.80612H13.8244V4.55612ZM4 17.1515H4.75V14.6325H4H3.25V17.1515H4ZM13.8244 27.2279V26.4779C11.4871 26.4779 9.81139 26.4762 8.53685 26.3005C7.28587 26.128 6.53338 25.8006 5.97576 25.2287L5.43875 25.7522L4.90175 26.2758C5.78288 27.1795 6.90759 27.59 8.33194 27.7864C9.73273 27.9796 11.5305 27.9779 13.8244 27.9779V27.2279ZM4 17.1515H3.25C3.25 19.5059 3.24848 21.3452 3.43621 22.7773C3.62651 24.229 4.02321 25.3747 4.90175 26.2758L5.43875 25.7522L5.97576 25.2287C5.41555 24.6541 5.09287 23.8745 4.92348 22.5823C4.75152 21.2704 4.75 19.5472 4.75 17.1515H4ZM18.7366 4.55612V5.30612C21.074 5.30612 22.7497 5.3078 24.0242 5.48355C25.2752 5.65605 26.0277 5.98342 26.5853 6.55534L27.1223 6.03177L27.6593 5.50819C26.7782 4.60447 25.6535 4.19402 24.2291 3.99761C22.8283 3.80445 21.0306 3.80612 18.7366 3.80612V4.55612ZM28.5611 14.6325H29.3111C29.3111 12.2781 29.3126 10.4388 29.1249 9.00674C28.9346 7.55501 28.5379 6.40927 27.6593 5.50819L27.1223 6.03177L26.5853 6.55534C27.1455 7.12992 27.4682 7.9095 27.6376 9.2017C27.8096 10.5136 27.8111 12.2368 27.8111 14.6325H28.5611ZM13.8244 4.55612V3.80612C11.5305 3.80612 9.73273 3.80445 8.33194 3.99761C6.90759 4.19402 5.78288 4.60447 4.90175 5.50819L5.43875 6.03177L5.97575 6.55534C6.53338 5.98342 7.28587 5.65605 8.53685 5.48355C9.81139 5.3078 11.4871 5.30612 13.8244 5.30612V4.55612ZM4 14.6325H4.75C4.75 12.2368 4.75152 10.5136 4.92348 9.2017C5.09287 7.9095 5.41555 7.12992 5.97575 6.55534L5.43875 6.03177L4.90175 5.50819C4.02321 6.40927 3.62651 7.55502 3.43621 9.00674C3.24848 10.4388 3.25 12.2781 3.25 14.6325H4ZM10.1403 4.55612H10.8903V2.66681H10.1403H9.39027V4.55612H10.1403ZM22.4208 4.55612H23.1708V2.66681H22.4208H21.6708V4.55612H22.4208ZM4.61403 10.8538V11.6038H27.9471V10.8538V10.1038H4.61403V10.8538ZM13.8244 27.2279V27.9779H15.3333V27.2279V26.4779H13.8244V27.2279ZM28.6667 23.3333H27.9167C27.9167 26.2328 25.5662 28.5833 22.6667 28.5833V29.3333V30.0833C26.3946 30.0833 29.4167 27.0613 29.4167 23.3333H28.6667ZM22.6667 29.3333V28.5833C19.7672 28.5833 17.4167 26.2328 17.4167 23.3333H16.6667H15.9167C15.9167 27.0613 18.9387 30.0833 22.6667 30.0833V29.3333ZM16.6667 23.3333H17.4167C17.4167 20.4338 19.7672 18.0833 22.6667 18.0833V17.3333V16.5833C18.9387 16.5833 15.9167 19.6054 15.9167 23.3333H16.6667ZM22.6667 17.3333V18.0833C25.5662 18.0833 27.9167 20.4338 27.9167 23.3333H28.6667H29.4167C29.4167 19.6054 26.3946 16.5833 22.6667 16.5833V17.3333ZM22.6667 23.3333H23.4167V20.6667H22.6667H21.9167V23.3333H22.6667ZM22.6667 23.3333L22.1363 23.8637L23.803 25.5303L24.3333 25L24.8637 24.4697L23.197 22.803L22.6667 23.3333ZM17 17.6667L17.3975 18.3027L20.0642 16.636L19.6667 16L19.2692 15.364L16.6025 17.0307L17 17.6667ZM28.3333 17.6667L28.7308 17.0307L26.0642 15.364L25.6667 16L25.2692 16.636L27.9358 18.3027L28.3333 17.6667Z" fill="#F2F7FF"/>
</svg>
