<svg width="24" height="24" viewBox="0 0 24 24" fill="none" xmlns="http://www.w3.org/2000/svg">
<path d="M18.7491 9.70957V9.00496C18.7491 5.13623 15.7274 2 12 2C8.27256 2 5.25087 5.13623 5.25087 9.00496V9.70957C5.25087 10.5552 5.00972 11.3818 4.5578 12.0854L3.45036 13.8095C2.43882 15.3843 3.21105 17.5249 4.97036 18.0229C9.57274 19.3257 14.4273 19.3257 19.0296 18.0229C20.789 17.5249 21.5612 15.3843 20.5496 13.8095L19.4422 12.0854C18.9903 11.3818 18.7491 10.5552 18.7491 9.70957Z" fill="#F8FAFF"/>
<path d="M19.4422 12.0854L19.0215 12.3556V12.3556L19.4422 12.0854ZM20.5496 13.8095L20.9703 13.5393L20.5496 13.8095ZM3.45036 13.8095L3.02967 13.5393H3.02967L3.45036 13.8095ZM4.5578 12.0854L4.97849 12.3556L4.5578 12.0854ZM19.0296 18.0229L18.8935 17.5418L19.0296 18.0229ZM4.97036 18.0229L5.10654 17.5418H5.10654L4.97036 18.0229ZM7.9682 18.8245C7.87129 18.566 7.58311 18.4349 7.32453 18.5318C7.06595 18.6287 6.93489 18.9169 7.0318 19.1755L7.5 19L7.9682 18.8245ZM16.9682 19.1755C17.0651 18.9169 16.934 18.6287 16.6755 18.5318C16.4169 18.4349 16.1287 18.566 16.0318 18.8245L16.5 19L16.9682 19.1755ZM18.7491 9.00496H18.2491V9.70957H18.7491H19.2491V9.00496H18.7491ZM19.4422 12.0854L19.0215 12.3556L20.1289 14.0797L20.5496 13.8095L20.9703 13.5393L19.8629 11.8152L19.4422 12.0854ZM3.45036 13.8095L3.87105 14.0797L4.97849 12.3556L4.5578 12.0854L4.13711 11.8152L3.02967 13.5393L3.45036 13.8095ZM5.25087 9.70957H5.75087V9.00496H5.25087H4.75087V9.70957H5.25087ZM19.0296 18.0229L18.8935 17.5418C14.3801 18.8194 9.61988 18.8194 5.10654 17.5418L4.97036 18.0229L4.83418 18.504C9.5256 19.832 14.4744 19.832 19.1658 18.504L19.0296 18.0229ZM4.5578 12.0854L4.97849 12.3556C5.4828 11.5705 5.75087 10.6498 5.75087 9.70957H5.25087H4.75087C4.75087 10.4605 4.53663 11.1932 4.13711 11.8152L4.5578 12.0854ZM18.7491 9.70957H18.2491C18.2491 10.6498 18.5172 11.5705 19.0215 12.3556L19.4422 12.0854L19.8629 11.8152C19.4634 11.1932 19.2491 10.4605 19.2491 9.70957H18.7491ZM3.45036 13.8095L3.02967 13.5393C1.84631 15.3816 2.73497 17.9098 4.83418 18.504L4.97036 18.0229L5.10654 17.5418C3.68712 17.14 3.03134 15.3871 3.87105 14.0797L3.45036 13.8095ZM20.5496 13.8095L20.1289 14.0797C20.9687 15.3871 20.3129 17.14 18.8935 17.5418L19.0296 18.0229L19.1658 18.504C21.265 17.9098 22.1537 15.3816 20.9703 13.5393L20.5496 13.8095ZM12 2V2.5C15.4339 2.5 18.2491 5.39468 18.2491 9.00496H18.7491H19.2491C19.2491 4.87778 16.021 1.5 12 1.5V2ZM12 2V1.5C7.97905 1.5 4.75087 4.87778 4.75087 9.00496H5.25087H5.75087C5.75087 5.39468 8.56607 2.5 12 2.5V2ZM7.5 19L7.0318 19.1755C7.76281 21.126 9.72216 22.5 12 22.5V22V21.5C10.1228 21.5 8.54725 20.3696 7.9682 18.8245L7.5 19ZM12 22V22.5C14.2778 22.5 16.2372 21.126 16.9682 19.1755L16.5 19L16.0318 18.8245C15.4528 20.3696 13.8772 21.5 12 21.5V22Z" fill="#2372EC"/>
</svg>
