<svg width="32" height="32" viewBox="0 0 32 32" fill="none" xmlns="http://www.w3.org/2000/svg">
<path d="M25.9229 16.1138L25.2919 16.5192L25.2919 16.5192L25.9229 16.1138ZM27.3995 18.4127L28.0306 18.0073L28.0306 18.0073L27.3995 18.4127ZM4.60048 18.4127L3.96944 18.0073L3.96944 18.0073L4.60048 18.4127ZM6.07706 16.1138L6.7081 16.5192L6.7081 16.5192L6.07706 16.1138ZM25.3729 24.0305L25.1686 23.3089L25.1686 23.3089L25.3729 24.0305ZM6.62715 24.0305L6.83142 23.3089L6.83142 23.3089L6.62715 24.0305ZM10.7023 25.0701C10.5569 24.6822 10.1247 24.4856 9.7368 24.631C9.34893 24.7764 9.15234 25.2086 9.2977 25.5965L10 25.3333L10.7023 25.0701ZM22.7023 25.5965C22.8477 25.2086 22.6511 24.7764 22.2632 24.631C21.8753 24.4856 21.4431 24.6822 21.2977 25.0701L22 25.3333L22.7023 25.5965ZM24.9988 12.0066H24.2488V12.946H24.9988H25.7488V12.0066H24.9988ZM25.9229 16.1138L25.2919 16.5192L26.7685 18.818L27.3995 18.4127L28.0306 18.0073L26.554 15.7085L25.9229 16.1138ZM4.60048 18.4127L5.23152 18.818L6.7081 16.5192L6.07706 16.1138L5.44603 15.7085L3.96944 18.0073L4.60048 18.4127ZM7.00116 12.946H7.75116V12.0066H7.00116H6.25116V12.946H7.00116ZM25.3729 24.0305L25.1686 23.3089C19.1656 25.0081 12.8344 25.0081 6.83142 23.3089L6.62715 24.0305L6.42288 24.7522C12.6929 26.527 19.3071 26.527 25.5771 24.7522L25.3729 24.0305ZM6.07706 16.1138L6.7081 16.5192C7.38925 15.4587 7.75116 14.2155 7.75116 12.946H7.00116H6.25116C6.25116 13.9315 5.96999 14.8928 5.44603 15.7085L6.07706 16.1138ZM24.9988 12.946H24.2488C24.2488 14.2155 24.6108 15.4587 25.2919 16.5192L25.9229 16.1138L26.554 15.7085C26.03 14.8928 25.7488 13.9315 25.7488 12.946H24.9988ZM4.60048 18.4127L3.96944 18.0073C2.36299 20.5083 3.56728 23.9438 6.42288 24.7522L6.62715 24.0305L6.83142 23.3089C4.99551 22.7892 4.14054 20.5165 5.23152 18.818L4.60048 18.4127ZM27.3995 18.4127L26.7685 18.818C27.8595 20.5165 27.0045 22.7892 25.1686 23.3089L25.3729 24.0305L25.5771 24.7522C28.4327 23.9438 29.637 20.5083 28.0306 18.0073L27.3995 18.4127ZM16 2.66663V3.41663C20.5297 3.41663 24.2488 7.23593 24.2488 12.0066H24.9988H25.7488C25.7488 6.4606 21.4102 1.91663 16 1.91663V2.66663ZM16 2.66663V1.91663C10.5898 1.91663 6.25116 6.4606 6.25116 12.0066H7.00116H7.75116C7.75116 7.23593 11.4703 3.41663 16 3.41663V2.66663ZM10 25.3333L9.2977 25.5965C10.285 28.231 12.9295 30.0833 16 30.0833V29.3333V28.5833C13.5304 28.5833 11.4617 27.0964 10.7023 25.0701L10 25.3333ZM16 29.3333V30.0833C19.0705 30.0833 21.715 28.231 22.7023 25.5965L22 25.3333L21.2977 25.0701C20.5383 27.0964 18.4696 28.5833 16 28.5833V29.3333Z" fill="white"/>
</svg>
