<svg width="48" height="48" viewBox="0 0 48 48" fill="none" xmlns="http://www.w3.org/2000/svg">
<g clip-path="url(#clip0_5145_5014)">
<path fill-rule="evenodd" clip-rule="evenodd" d="M10.3431 31.2818H5.9247C4.97486 31.2818 4.96608 29.8406 5.84375 29.6607L9.74071 29.6408C9.87481 29.052 10.1702 28.4358 10.3807 27.8331L11.749 24.1022C11.9783 23.5077 12.0738 22.6662 12.8537 22.6662C13.7524 22.6662 13.7724 23.7529 14.0989 25.0869C14.356 26.1381 14.6009 27.1397 14.8415 28.1231C14.9999 28.7691 16.2564 33.629 16.2678 34.1536H16.4685C16.5039 33.7212 17.3265 31.2553 17.5308 30.5206C17.8754 29.2798 18.2187 28.1221 18.6161 26.9111C18.8224 26.2827 18.8587 25.5824 19.3934 25.3363C20.4294 24.8593 20.8128 26.63 21.3031 27.8826C21.5088 28.4083 21.7497 29.1263 21.9917 29.6407L26.5124 29.6387C26.8085 29.6636 26.9163 29.7046 27.0934 29.8657C27.7574 30.4704 27.2936 31.2818 26.6109 31.2818H21.1881C20.7334 31.2818 20.5346 30.4876 20.3992 30.1389L19.7823 28.7175C19.5235 29.8521 17.1127 37.8259 16.8925 38.074C16.7652 38.2172 16.4776 38.3588 16.2677 38.3588C15.417 38.3588 15.2243 36.6603 15.0225 35.8356C14.757 34.7506 14.5157 33.7643 14.2595 32.7177C14.003 31.6711 13.7617 30.6847 13.4962 29.5997L12.7533 26.4613C12.4611 26.6796 12.5955 26.5946 12.4595 26.982L11.2324 30.344C11.0754 30.7899 10.9749 31.2818 10.3431 31.2818L10.3431 31.2818ZM3.37423e-05 30.4615C3.37423e-05 33.6522 0.322576 35.4496 1.47683 38.1835C3.79988 43.6857 9.72067 47.9998 15.6651 47.9998C19.1326 47.9998 21.6416 47.4652 24.2435 45.8898C24.8121 45.5451 25.2137 45.3225 25.7225 44.9387C29.0926 42.3993 31.507 38.9387 32.3082 34.5367C32.4598 33.7041 32.4915 33.2373 32.5355 32.3075C32.5576 31.8431 32.658 31.7353 32.6424 31.1792C32.5935 29.4208 32.1835 27.3845 31.8324 25.846C30.6733 25.7474 28.3218 23.6357 27.4888 22.7949C25.4676 20.7546 23.9999 17.2298 23.9999 13.6408C23.9999 13.1116 24.2139 12.9019 24.02 12.499C23.972 12.3991 23.5685 11.8828 23.4555 11.7353C21.4871 9.16311 18.9594 5.72858 17.5723 2.87229C17.4256 2.56994 17.2931 2.31691 17.1367 1.98382C16.956 1.59945 16.398 0.364276 16.3682 -0.000244141H16.1674C16.1078 0.728486 14.745 3.2722 14.3599 3.99959L5.96776 15.9411C2.97431 20.02 0 25.1984 0 30.4614L3.37423e-05 30.4615Z" fill="#E86457"/>
<path fill-rule="evenodd" clip-rule="evenodd" d="M29.1212 13.6411C29.1212 15.6427 29.6669 17.2909 30.769 18.7272C30.9954 19.0226 31.6317 19.5932 31.6317 20C31.6317 20.8277 30.7586 21.1727 30.1449 20.5961C28.8777 19.4047 27.5145 16.5447 27.5145 14.6666C27.5145 12.6286 27.4893 11.5268 28.4177 9.64064C29.3945 7.65727 30.7755 6.21077 32.7348 5.229C35.4377 3.8748 38.7518 4.01968 41.3721 5.43572C42.3508 4.76654 42.778 5.16876 42.778 6.46149C44.394 7.56663 45.5522 9.79279 46.0127 11.7732C46.7145 14.7915 45.7099 18.2608 43.7113 20.4406C42.7511 21.4879 42.0752 20.4582 42.0752 20.1026C42.0752 19.1519 44.5858 18.0481 44.5858 13.6411C44.5858 11.2635 43.1426 8.73101 41.774 7.79488C41.3941 8.52819 40.8147 9.31548 40.348 10.0309C39.8386 10.8112 39.3609 11.5463 38.8619 12.3077C40.0475 13.701 39.0335 16.41 37.1548 16.41H36.5521C34.5905 16.41 33.4074 13.3701 35.2732 11.8218C35.6945 11.4721 36.7244 11.0259 37.456 11.3845C37.8219 10.8261 40.2376 7.34165 40.3681 6.76907C39.4911 6.56036 38.7741 5.94874 36.8536 5.94874C32.7195 5.94874 29.1211 9.47353 29.1211 13.641L29.1212 13.6411ZM25.707 13.2306C25.707 16.1259 26.1151 18.054 27.6745 20.3497C28.4155 21.4409 29.2692 22.3122 30.3107 23.0928C34.3971 26.1569 40.2369 25.9501 44.0611 22.5411C45.0955 21.6196 44.5643 22.127 45.4148 21.1545C46.8822 19.4764 47.9999 16.7012 47.9999 14.3589C47.9999 10.8202 47.1685 8.62514 45.0641 6.17806C44.5369 5.56509 43.998 5.05107 43.3211 4.57344C40.0721 2.28145 35.7295 1.69795 32.1661 3.5202C31.4863 3.86787 31.1064 4.08092 30.506 4.49138C30.0056 4.83343 29.1043 5.58891 28.7332 6.06492C27.7512 7.32452 27.8031 6.91472 26.8114 8.92256C26.3159 9.92545 25.707 11.7362 25.707 13.2307V13.2306Z" fill="#96BFFF"/>
<path fill-rule="evenodd" clip-rule="evenodd" d="M35.9502 13.7437C35.9502 15.1634 37.7577 15.0046 37.7577 13.8462C37.7577 13.3124 37.0121 12.5505 36.2916 13.1694C36.1847 13.2614 35.9502 13.6259 35.9502 13.7437H35.9502Z" fill="#F04248"/>
</g>
<defs>
<clipPath id="clip0_5145_5014">
<rect width="48" height="48" fill="white"/>
</clipPath>
</defs>
</svg>
