<svg width="156" height="64" viewBox="0 0 156 64" fill="none" xmlns="http://www.w3.org/2000/svg">
<rect width="156" height="64" rx="8" fill="white" fill-opacity="0.6"/>
<rect x="8.25" y="8.25" width="47.5" height="47.5" rx="23.75" fill="#2372EC"/>
<rect x="8.25" y="8.25" width="47.5" height="47.5" rx="23.75" stroke="#E4EFFF" stroke-width="0.5"/>
<g opacity="0.5">
<path d="M42.6667 38.6671C44.1395 38.6671 45.3333 37.4234 45.3333 35.8892C45.3333 34.9294 44.2893 33.6483 43.5079 32.8236C43.0452 32.3355 42.2881 32.3355 41.8255 32.8236C41.044 33.6483 40 34.9294 40 35.8892C40 37.4234 41.1939 38.6671 42.6667 38.6671Z" fill="white"/>
<path d="M37.704 30.0903L39.7104 26.6272L28.4969 20.1914L19.5346 35.6611C17.7479 38.7449 18.8082 42.6884 21.9028 44.4689C24.9974 46.2493 28.9544 45.1928 30.7411 42.1088L32.2335 39.5329L37.704 30.0903Z" fill="white"/>
</g>
<path d="M28.3919 17.8058C27.9164 17.5248 27.3032 17.6823 27.0221 18.1578C26.7411 18.6332 26.8987 19.2464 27.3741 19.5275L28.4886 20.1864L28.4964 20.1909L39.7099 26.6267L40.8348 27.2723C41.3137 27.5472 41.9249 27.3818 42.1999 26.9028C42.4748 26.4238 42.3093 25.8126 41.8303 25.5377L29.5008 18.4614L28.3919 17.8058Z" fill="white"/>
<path d="M33.2361 37.8021L33.2337 37.8008L29.7501 35.7964C29.2715 35.5211 28.6601 35.6859 28.3847 36.1645C28.1093 36.6432 28.2741 37.2545 28.7528 37.53L32.2336 39.5328L33.2361 37.8021Z" fill="white"/>
<path d="M35.4196 34.0334L35.4172 34.0319L29.8132 30.8077C29.3345 30.5323 28.7232 30.697 28.4478 31.1758C28.1723 31.6545 28.3371 32.2658 28.8158 32.5413L34.4171 35.7639L35.4196 34.0334Z" fill="white"/>
<path d="M37.7017 30.0885L34.2911 28.1261C33.8123 27.8506 33.2009 28.0154 32.9255 28.4941C32.6501 28.9728 32.8149 29.5842 33.2936 29.8596L36.7016 31.8204L37.7017 30.0885Z" fill="white"/>
<path d="M128 32H144M144 32L138 26M144 32L138 38" stroke="white" stroke-linecap="round" stroke-linejoin="round"/>
</svg>
