<svg width="32" height="32" viewBox="0 0 32 32" fill="none" xmlns="http://www.w3.org/2000/svg">
<path d="M2.66663 15.6582C2.66663 10.501 2.66663 7.92233 4.22872 6.32018C5.79082 4.71803 8.30498 4.71803 13.3333 4.71803H18.6666C23.6949 4.71803 26.2091 4.71803 27.7712 6.32018C29.3333 7.92233 29.3333 10.501 29.3333 15.6582V18.3932C29.3333 23.5505 29.3333 26.1291 27.7712 27.7313C26.2091 29.3334 23.6949 29.3334 18.6666 29.3334H13.3333C8.30498 29.3334 5.79082 29.3334 4.22872 27.7313C2.66663 26.1291 2.66663 23.5505 2.66663 18.3932V15.6582Z" fill="#96BFFF"/>
<path d="M8.83329 4.71803C8.83329 4.99417 9.05715 5.21803 9.33329 5.21803C9.60944 5.21803 9.83329 4.99417 9.83329 4.71803H9.33329H8.83329ZM9.83329 2.66675C9.83329 2.39061 9.60944 2.16675 9.33329 2.16675C9.05715 2.16675 8.83329 2.39061 8.83329 2.66675H9.33329H9.83329ZM22.1666 4.71803C22.1666 4.99417 22.3905 5.21803 22.6666 5.21803C22.9428 5.21803 23.1666 4.99417 23.1666 4.71803H22.6666H22.1666ZM23.1666 2.66675C23.1666 2.39061 22.9428 2.16675 22.6666 2.16675C22.3905 2.16675 22.1666 2.39061 22.1666 2.66675H22.6666H23.1666ZM3.33329 11.0556C3.05715 11.0556 2.83329 11.2795 2.83329 11.5556C2.83329 11.8318 3.05715 12.0556 3.33329 12.0556V11.5556V11.0556ZM28.6666 12.0556C28.9428 12.0556 29.1666 11.8318 29.1666 11.5556C29.1666 11.2795 28.9428 11.0556 28.6666 11.0556V11.5556V12.0556ZM13.3333 4.71803V5.21803H18.6666V4.71803V4.21803H13.3333V4.71803ZM29.3333 15.6582H28.8333V18.3932H29.3333H29.8333V15.6582H29.3333ZM18.6666 29.3334V28.8334H13.3333V29.3334V29.8334H18.6666V29.3334ZM2.66663 18.3932H3.16663V15.6582H2.66663H2.16663V18.3932H2.66663ZM13.3333 29.3334V28.8334C10.8046 28.8334 8.95974 28.8323 7.54948 28.6378C6.15493 28.4455 5.25994 28.0727 4.58672 27.3822L4.22872 27.7313L3.87072 28.0803C4.75961 28.992 5.90274 29.4202 7.41288 29.6285C8.9073 29.8345 10.8336 29.8334 13.3333 29.8334V29.3334ZM2.66663 18.3932H2.16663C2.16663 20.9581 2.16562 22.9308 2.36613 24.4604C2.56836 26.0032 2.98356 27.1704 3.87072 28.0803L4.22872 27.7313L4.58672 27.3822C3.91179 26.69 3.54594 25.7668 3.35765 24.3304C3.16764 22.8809 3.16663 20.9857 3.16663 18.3932H2.66663ZM29.3333 18.3932H28.8333C28.8333 20.9857 28.8323 22.8809 28.6423 24.3304C28.454 25.7668 28.0881 26.69 27.4132 27.3822L27.7712 27.7313L28.1292 28.0803C29.0164 27.1704 29.4316 26.0032 29.6338 24.4604C29.8343 22.9308 29.8333 20.9581 29.8333 18.3932H29.3333ZM18.6666 29.3334V29.8334C21.1663 29.8334 23.0926 29.8345 24.587 29.6285C26.0972 29.4202 27.2403 28.992 28.1292 28.0803L27.7712 27.7313L27.4132 27.3822C26.74 28.0727 25.845 28.4455 24.4504 28.6378C23.0402 28.8323 21.1953 28.8334 18.6666 28.8334V29.3334ZM18.6666 4.71803V5.21803C21.1953 5.21803 23.0402 5.21915 24.4504 5.41361C25.845 5.60591 26.74 5.97875 27.4132 6.66923L27.7712 6.32018L28.1292 5.97113C27.2403 5.05946 26.0972 4.63122 24.587 4.42299C23.0926 4.21691 21.1663 4.21803 18.6666 4.21803V4.71803ZM29.3333 15.6582H29.8333C29.8333 13.0934 29.8343 11.1207 29.6338 9.59104C29.4316 8.04829 29.0164 6.88104 28.1292 5.97113L27.7712 6.32018L27.4132 6.66923C28.0881 7.36147 28.454 8.28461 28.6423 9.72102C28.8323 11.1705 28.8333 13.0658 28.8333 15.6582H29.3333ZM13.3333 4.71803V4.21803C10.8336 4.21803 8.9073 4.21691 7.41288 4.42299C5.90274 4.63122 4.75961 5.05946 3.87072 5.97113L4.22872 6.32018L4.58672 6.66923C5.25994 5.97875 6.15493 5.60591 7.54948 5.41361C8.95974 5.21915 10.8046 5.21803 13.3333 5.21803V4.71803ZM2.66663 15.6582H3.16663C3.16663 13.0658 3.16764 11.1705 3.35765 9.72102C3.54594 8.28461 3.91179 7.36147 4.58672 6.66923L4.22872 6.32018L3.87072 5.97113C2.98356 6.88104 2.56836 8.04829 2.36613 9.59104C2.16562 11.1207 2.16663 13.0934 2.16663 15.6582H2.66663ZM9.33329 4.71803H9.83329V2.66675H9.33329H8.83329V4.71803H9.33329ZM22.6666 4.71803H23.1666V2.66675H22.6666H22.1666V4.71803H22.6666ZM3.33329 11.5556V12.0556H28.6666V11.5556V11.0556H3.33329V11.5556Z" fill="#0D47A1"/>
</svg>
