<svg width="24" height="24" viewBox="0 0 24 24" fill="none" xmlns="http://www.w3.org/2000/svg">
<path d="M21.25 13.7949C21.25 14.2091 21.5858 14.5449 22 14.5449C22.4142 14.5449 22.75 14.2091 22.75 13.7949H22H21.25ZM14 22.75C14.4142 22.75 14.75 22.4142 14.75 22C14.75 21.5858 14.4142 21.25 14 21.25V22V22.75ZM3.17157 20.7984L3.70857 20.2748H3.70857L3.17157 20.7984ZM20.8284 4.74007L20.2914 5.26365L20.8284 4.74007ZM3.17157 4.74007L3.70857 5.26365L3.17157 4.74007ZM6.25 3.53846C6.25 3.95267 6.58579 4.28846 7 4.28846C7.41421 4.28846 7.75 3.95267 7.75 3.53846H7H6.25ZM7.75 2C7.75 1.58579 7.41421 1.25 7 1.25C6.58579 1.25 6.25 1.58579 6.25 2H7H7.75ZM16.25 3.53846C16.25 3.95267 16.5858 4.28846 17 4.28846C17.4142 4.28846 17.75 3.95267 17.75 3.53846H17H16.25ZM17.75 2C17.75 1.58579 17.4142 1.25 17 1.25C16.5858 1.25 16.25 1.58579 16.25 2H17H17.75ZM2.5 7.91667C2.08579 7.91667 1.75 8.25245 1.75 8.66667C1.75 9.08088 2.08579 9.41667 2.5 9.41667V8.66667V7.91667ZM21.5 9.41667C21.9142 9.41667 22.25 9.08088 22.25 8.66667C22.25 8.25245 21.9142 7.91667 21.5 7.91667V8.66667V9.41667ZM15.3719 17.2916L14.7052 17.6352C14.8276 17.8727 15.067 18.0271 15.3337 18.0407L15.3719 17.2916ZM17.4619 18.149C17.8755 18.1701 18.228 17.8518 18.249 17.4381C18.2701 17.0245 17.9518 16.672 17.5381 16.651L17.5 17.4L17.4619 18.149ZM15.1667 15.2564C14.9769 14.8882 14.5246 14.7436 14.1564 14.9333C13.7882 15.1231 13.6436 15.5754 13.8333 15.9436L14.5 15.6L15.1667 15.2564ZM20.3103 16.7269C20.5273 17.0797 20.9892 17.1899 21.342 16.973C21.6949 16.7561 21.8051 16.2942 21.5882 15.9413L20.9492 16.3341L20.3103 16.7269ZM21.3034 18.7084L21.9496 18.3277C21.8221 18.1112 21.5947 17.973 21.3439 17.9594L21.3034 18.7084ZM19.3405 17.8511C18.9269 17.8287 18.5735 18.1459 18.5511 18.5595C18.5287 18.9731 18.8459 19.3265 19.2595 19.3489L19.3 18.6L19.3405 17.8511ZM21.6538 20.7807C21.8641 21.1376 22.3238 21.2564 22.6807 21.0462C23.0376 20.8359 23.1564 20.3762 22.9462 20.0193L22.3 20.4L21.6538 20.7807ZM16.365 19.2731C16.148 18.9203 15.6861 18.8101 15.3333 19.027C14.9804 19.2439 14.8702 19.7058 15.0871 20.0587L15.726 19.6659L16.365 19.2731ZM10 3.53846V4.28846H14V3.53846V2.78846H10V3.53846ZM22 11.7436H21.25V13.7949H22H22.75V11.7436H22ZM14 22V21.25H10V22V22.75H14V22ZM2 13.7949H2.75V11.7436H2H1.25V13.7949H2ZM10 22V21.25C8.09265 21.25 6.7395 21.2483 5.71336 21.1068C4.7108 20.9686 4.13261 20.7097 3.70857 20.2748L3.17157 20.7984L2.63457 21.322C3.38211 22.0887 4.33252 22.4306 5.50846 22.5928C6.66084 22.7517 8.13611 22.75 10 22.75V22ZM2 13.7949H1.25C1.25 15.7082 1.24848 17.2167 1.40281 18.394C1.55971 19.5909 1.88962 20.5579 2.63457 21.322L3.17157 20.7984L3.70857 20.2748C3.28196 19.8373 3.02608 19.2364 2.89008 18.199C2.75152 17.1419 2.75 15.7495 2.75 13.7949H2ZM14 3.53846V4.28846C15.9073 4.28846 17.2605 4.29014 18.2866 4.43163C19.2892 4.56988 19.8674 4.82874 20.2914 5.26365L20.8284 4.74007L21.3654 4.2165C20.6179 3.4498 19.6675 3.10785 18.4915 2.94569C17.3392 2.78679 15.8639 2.78846 14 2.78846V3.53846ZM22 11.7436H22.75C22.75 9.83031 22.7515 8.32176 22.5972 7.14448C22.4403 5.94753 22.1104 4.98056 21.3654 4.2165L20.8284 4.74007L20.2914 5.26365C20.718 5.70121 20.9739 6.30202 21.1099 7.33944C21.2485 8.39653 21.25 9.78894 21.25 11.7436H22ZM10 3.53846V2.78846C8.13611 2.78846 6.66084 2.78679 5.50846 2.94569C4.33252 3.10785 3.38211 3.4498 2.63457 4.2165L3.17157 4.74007L3.70857 5.26365C4.13261 4.82874 4.71079 4.56988 5.71336 4.43163C6.7395 4.29014 8.09265 4.28846 10 4.28846V3.53846ZM2 11.7436H2.75C2.75 9.78894 2.75152 8.39653 2.89008 7.33944C3.02608 6.30202 3.28196 5.70121 3.70857 5.26365L3.17157 4.74007L2.63457 4.2165C1.88962 4.98056 1.55971 5.94753 1.40281 7.14448C1.24848 8.32176 1.25 9.83031 1.25 11.7436H2ZM7 3.53846H7.75V2H7H6.25V3.53846H7ZM17 3.53846H17.75V2H17H16.25V3.53846H17ZM2.5 8.66667V9.41667H21.5V8.66667V7.91667H2.5V8.66667ZM15.3719 17.2916L15.3337 18.0407L17.4619 18.149L17.5 17.4L17.5381 16.651L15.41 16.5426L15.3719 17.2916ZM15.3719 17.2916L16.0385 16.948L15.1667 15.2564L14.5 15.6L13.8333 15.9436L14.7052 17.6352L15.3719 17.2916ZM20.9492 16.3341L21.5882 15.9413C21.2943 15.4633 20.4245 14.25 18.4314 14.25V15V15.75C19.6705 15.75 20.1399 16.4497 20.3103 16.7269L20.9492 16.3341ZM18.4314 15V14.25C17.308 14.25 16.532 14.6377 15.9486 15.2137C15.4301 15.7256 15.0438 16.4317 14.7478 16.8756L15.3719 17.2916L15.9959 17.7077C16.4083 17.0891 16.6295 16.6494 17.0025 16.2811C17.3106 15.9769 17.7102 15.75 18.4314 15.75V15ZM21.3034 18.7084L21.3439 17.9594L19.3405 17.8511L19.3 18.6L19.2595 19.3489L21.2629 19.4573L21.3034 18.7084ZM21.3034 18.7084L20.6572 19.089L21.6538 20.7807L22.3 20.4L22.9462 20.0193L21.9496 18.3277L21.3034 18.7084ZM15.726 19.6659L15.0871 20.0587C15.381 20.5367 16.2508 21.75 18.2439 21.75V21V20.25C17.0048 20.25 16.5354 19.5503 16.365 19.2731L15.726 19.6659ZM18.2439 21V21.75C19.3673 21.75 20.1433 21.3623 20.7267 20.7863C21.2452 20.2744 21.6315 19.5683 21.9274 19.1244L21.3034 18.7084L20.6794 18.2923C20.267 18.9109 20.0458 19.3506 19.6728 19.7189C19.3647 20.0231 18.9651 20.25 18.2439 20.25V21Z" fill="#2372EC"/>
</svg>
