<svg width="32" height="32" viewBox="0 0 32 32" fill="none" xmlns="http://www.w3.org/2000/svg">
<path d="M19.4085 20.7304L18.8013 21.3698C18.8013 21.3698 17.3578 22.8895 13.4178 18.7414C9.47781 14.5933 10.9213 13.0736 10.9213 13.0736L11.3037 12.671C12.2458 11.6792 12.3346 10.0868 11.5126 8.9243L9.83133 6.54632C8.81404 5.10749 6.84827 4.91743 5.68226 6.14502L3.58946 8.34834C3.0113 8.95704 2.62386 9.7461 2.67084 10.6214C2.79104 12.8608 3.74795 17.6789 9.08747 23.3004C14.7498 29.2618 20.0628 29.4987 22.2354 29.2843C22.9226 29.2165 23.5202 28.8459 24.0018 28.3388L25.8959 26.3447C27.1744 24.9987 26.8139 22.691 25.1781 21.7495L22.6308 20.2833C21.5567 19.665 20.248 19.8466 19.4085 20.7304Z" fill="#96BFFF"/>
<path d="M19.7547 11.6668C19.7547 10.7464 20.4616 10.0002 21.3337 10.0002C22.2057 10.0002 22.9126 10.7464 22.9126 11.6668V13.6668C22.9126 14.5873 22.2057 15.3335 21.3337 15.3335C20.4616 15.3335 19.7547 14.5873 19.7547 13.6668V11.6668Z" fill="#96BFFF"/>
<path d="M18.8013 21.3698L19.1638 21.7141L18.8013 21.3698ZM19.4085 20.7304L19.046 20.3861L19.4085 20.7304ZM22.6308 20.2833L22.3813 20.7166L22.6308 20.2833ZM25.1781 21.7495L25.4275 21.3161L25.1781 21.7495ZM25.8959 26.3447L25.5334 26.0004L25.8959 26.3447ZM24.0018 28.3388L24.3644 28.6832L24.0018 28.3388ZM22.2354 29.2843L22.2845 29.7819L22.2354 29.2843ZM9.08747 23.3004L8.72494 23.6448L9.08747 23.3004ZM2.67084 10.6214L2.17156 10.6482L2.17156 10.6482L2.67084 10.6214ZM10.9213 13.0736L10.5587 12.7293V12.7293L10.9213 13.0736ZM11.3037 12.671L11.6662 13.0153L11.3037 12.671ZM11.5126 8.9243L11.9209 8.63564L11.5126 8.9243ZM9.83133 6.54632L9.42307 6.83497L9.42307 6.83497L9.83133 6.54632ZM5.68226 6.14502L6.04479 6.48936L6.04479 6.48936L5.68226 6.14502ZM3.58946 8.34834L3.22693 8.004L3.22693 8.004L3.58946 8.34834ZM13.4178 18.7414L13.7804 18.397L13.4178 18.7414ZM15.3337 14.8335C15.0575 14.8335 14.8337 15.0574 14.8337 15.3335C14.8337 15.6096 15.0575 15.8335 15.3337 15.8335V15.3335V14.8335ZM18.4916 10.5002C18.7677 10.5002 18.9916 10.2763 18.9916 10.0002C18.9916 9.72402 18.7677 9.50016 18.4916 9.50016V10.0002V10.5002ZM24.1758 14.8335C23.8996 14.8335 23.6758 15.0574 23.6758 15.3335C23.6758 15.6096 23.8996 15.8335 24.1758 15.8335V15.3335V14.8335ZM27.3337 10.5002C27.6098 10.5002 27.8337 10.2763 27.8337 10.0002C27.8337 9.72402 27.6098 9.50016 27.3337 9.50016V10.0002V10.5002ZM18.8013 21.3698L19.1638 21.7141L19.7711 21.0748L19.4085 20.7304L19.046 20.3861L18.4388 21.0254L18.8013 21.3698ZM22.6308 20.2833L22.3813 20.7166L24.9287 22.1828L25.1781 21.7495L25.4275 21.3161L22.8802 19.8499L22.6308 20.2833ZM25.8959 26.3447L25.5334 26.0004L23.6393 27.9945L24.0018 28.3388L24.3644 28.6832L26.2584 26.6891L25.8959 26.3447ZM22.2354 29.2843L22.1862 28.7867C20.1433 28.9884 14.9906 28.7893 9.45 22.9561L9.08747 23.3004L8.72494 23.6448C14.5091 29.7343 19.9823 30.0091 22.2845 29.7819L22.2354 29.2843ZM9.08747 23.3004L9.45 22.9561C4.19615 17.4248 3.28425 12.7208 3.17012 10.5946L2.67084 10.6214L2.17156 10.6482C2.29783 13.0007 3.29974 17.933 8.72494 23.6448L9.08747 23.3004ZM10.9213 13.0736L11.2838 13.4179L11.6662 13.0153L11.3037 12.671L10.9412 12.3266L10.5587 12.7293L10.9213 13.0736ZM11.5126 8.9243L11.9209 8.63564L10.2396 6.25766L9.83133 6.54632L9.42307 6.83497L11.1044 9.21295L11.5126 8.9243ZM5.68226 6.14502L5.31973 5.80068L3.22693 8.004L3.58946 8.34834L3.95199 8.69269L6.04479 6.48936L5.68226 6.14502ZM10.9213 13.0736C10.5587 12.7293 10.5583 12.7297 10.5578 12.7302C10.5576 12.7304 10.5572 12.7309 10.5568 12.7313C10.5562 12.732 10.5555 12.7327 10.5548 12.7334C10.5534 12.7349 10.5519 12.7366 10.5503 12.7383C10.5472 12.7417 10.5437 12.7456 10.54 12.75C10.5324 12.7586 10.5237 12.7691 10.5139 12.7814C10.4945 12.806 10.4711 12.8379 10.4458 12.8775C10.395 12.9568 10.3367 13.0664 10.2862 13.2082C10.1842 13.4949 10.1201 13.8971 10.1973 14.4244C10.3503 15.4684 11.0521 16.9767 13.0553 19.0857L13.4178 18.7414L13.7804 18.397C11.8436 16.358 11.2971 15.0324 11.1868 14.2795C11.1324 13.9084 11.1828 13.6714 11.2284 13.5435C11.2516 13.478 11.2753 13.4365 11.2881 13.4165C11.2945 13.4064 11.2983 13.4017 11.2981 13.402C11.298 13.4021 11.2968 13.4035 11.2945 13.4062C11.2934 13.4075 11.2919 13.4092 11.2901 13.4111C11.2892 13.4121 11.2883 13.4132 11.2872 13.4143C11.2867 13.4149 11.2861 13.4155 11.2856 13.4161C11.2853 13.4164 11.2848 13.4168 11.2847 13.417C11.2842 13.4175 11.2838 13.4179 10.9213 13.0736ZM13.4178 18.7414L13.0553 19.0857C15.0555 21.1916 16.4952 21.9403 17.5069 22.1046C18.0204 22.188 18.4152 22.1189 18.6976 22.0075C18.8368 21.9526 18.9438 21.8894 19.0208 21.8348C19.0593 21.8075 19.0902 21.7825 19.1138 21.7617C19.1257 21.7513 19.1357 21.742 19.144 21.734C19.1482 21.73 19.1519 21.7263 19.1552 21.723C19.1569 21.7213 19.1584 21.7197 19.1598 21.7183C19.1605 21.7175 19.1612 21.7168 19.1619 21.7161C19.1622 21.7158 19.1627 21.7153 19.1629 21.7151C19.1633 21.7146 19.1638 21.7141 18.8013 21.3698C18.4388 21.0254 18.4392 21.0249 18.4397 21.0245C18.4398 21.0243 18.4402 21.0239 18.4405 21.0236C18.4411 21.023 18.4417 21.0224 18.4422 21.0218C18.4433 21.0207 18.4443 21.0197 18.4452 21.0187C18.4471 21.0168 18.4487 21.0153 18.45 21.014C18.4526 21.0115 18.4541 21.0102 18.4544 21.0099C18.455 21.0094 18.451 21.0129 18.4423 21.0191C18.425 21.0314 18.3884 21.0545 18.3307 21.0773C18.2194 21.1212 18.007 21.1728 17.6672 21.1176C16.9722 21.0047 15.7201 20.4392 13.7804 18.397L13.4178 18.7414ZM9.83133 6.54632L10.2396 6.25766C9.05522 4.58253 6.72019 4.32625 5.31973 5.80068L5.68226 6.14502L6.04479 6.48936C6.97635 5.5086 8.57286 5.63246 9.42307 6.83497L9.83133 6.54632ZM2.67084 10.6214L3.17012 10.5946C3.13235 9.89075 3.44198 9.22963 3.95199 8.69269L3.58946 8.34834L3.22693 8.004C2.58061 8.68445 2.11538 9.60144 2.17156 10.6482L2.67084 10.6214ZM24.0018 28.3388L23.6393 27.9945C23.2125 28.4439 22.719 28.7341 22.1862 28.7867L22.2354 29.2843L22.2845 29.7819C23.1261 29.6988 23.828 29.2479 24.3644 28.6832L24.0018 28.3388ZM11.3037 12.671L11.6662 13.0153C12.7823 11.8403 12.8724 9.98133 11.9209 8.63564L11.5126 8.9243L11.1044 9.21295C11.7968 10.1922 11.7092 11.518 10.9412 12.3266L11.3037 12.671ZM25.1781 21.7495L24.9287 22.1828C26.2938 22.9686 26.5811 24.8973 25.5334 26.0004L25.8959 26.3447L26.2584 26.6891C27.7677 25.1001 27.3341 22.4135 25.4275 21.3161L25.1781 21.7495ZM19.4085 20.7304L19.7711 21.0748C20.4478 20.3623 21.5025 20.2107 22.3813 20.7166L22.6308 20.2833L22.8802 19.8499C21.6108 19.1193 20.0483 19.3309 19.046 20.3861L19.4085 20.7304ZM17.2284 12.6668V12.1668H16.5968V12.6668V13.1668H17.2284V12.6668ZM15.3337 15.3335V15.8335H17.2284V15.3335V14.8335H15.3337V15.3335ZM17.2284 15.3335V15.8335C18.2273 15.8335 18.9916 14.9869 18.9916 14.0002H18.4916H17.9916C17.9916 14.4862 17.6247 14.8335 17.2284 14.8335V15.3335ZM17.2284 12.6668V13.1668C17.6247 13.1668 17.9916 13.5141 17.9916 14.0002H18.4916H18.9916C18.9916 13.0135 18.2273 12.1668 17.2284 12.1668V12.6668ZM22.9126 11.6668H22.4126V13.6668H22.9126H23.4126V11.6668H22.9126ZM19.7547 13.6668H20.2547V11.6668H19.7547H19.2547V13.6668H19.7547ZM21.3337 15.3335V14.8335C20.7629 14.8335 20.2547 14.337 20.2547 13.6668H19.7547H19.2547C19.2547 14.8376 20.1604 15.8335 21.3337 15.8335V15.3335ZM22.9126 13.6668H22.4126C22.4126 14.337 21.9044 14.8335 21.3337 14.8335V15.3335V15.8335C22.507 15.8335 23.4126 14.8376 23.4126 13.6668H22.9126ZM21.3337 10.0002V10.5002C21.9044 10.5002 22.4126 10.9967 22.4126 11.6668H22.9126H23.4126C23.4126 10.496 22.507 9.50016 21.3337 9.50016V10.0002ZM21.3337 10.0002V9.50016C20.1604 9.50016 19.2547 10.496 19.2547 11.6668H19.7547H20.2547C20.2547 10.9967 20.7629 10.5002 21.3337 10.5002V10.0002ZM18.4916 10.0002V9.50016H16.5968V10.0002V10.5002H18.4916V10.0002ZM16.5968 10.0002V9.50016C15.5979 9.50016 14.8337 10.3468 14.8337 11.3335H15.3337H15.8337C15.8337 10.8474 16.2005 10.5002 16.5968 10.5002V10.0002ZM16.5968 12.6668V12.1668C16.2005 12.1668 15.8337 11.8195 15.8337 11.3335H15.3337H14.8337C14.8337 12.3202 15.5979 13.1668 16.5968 13.1668V12.6668ZM26.0705 12.6668V12.1668H25.4389V12.6668V13.1668H26.0705V12.6668ZM24.1758 15.3335V15.8335H26.0705V15.3335V14.8335H24.1758V15.3335ZM26.0705 15.3335V15.8335C27.0694 15.8335 27.8337 14.9869 27.8337 14.0002H27.3337H26.8337C26.8337 14.4862 26.4669 14.8335 26.0705 14.8335V15.3335ZM26.0705 12.6668V13.1668C26.4669 13.1668 26.8337 13.5141 26.8337 14.0002H27.3337H27.8337C27.8337 13.0135 27.0694 12.1668 26.0705 12.1668V12.6668ZM27.3337 10.0002V9.50016H25.4389V10.0002V10.5002H27.3337V10.0002ZM25.4389 10.0002V9.50016C24.44 9.50016 23.6758 10.3468 23.6758 11.3335H24.1758H24.6758C24.6758 10.8474 25.0426 10.5002 25.4389 10.5002V10.0002ZM25.4389 12.6668V12.1668C25.0426 12.1668 24.6758 11.8195 24.6758 11.3335H24.1758H23.6758C23.6758 12.3202 24.44 13.1668 25.4389 13.1668V12.6668Z" fill="#0D47A1"/>
</svg>
