<svg width="24" height="24" viewBox="0 0 24 24" fill="none" xmlns="http://www.w3.org/2000/svg">
<path d="M15 13C15 14.6569 13.6569 16 12 16C10.3431 16 9 14.6569 9 13C9 11.3431 10.3431 10 12 10C13.6569 10 15 11.3431 15 13Z" fill="#96BFFF"/>
<path d="M9.77778 21H14.2222C17.3433 21 18.9038 21 20.0248 20.2646C20.51 19.9462 20.9267 19.5371 21.251 19.0607C22 17.9601 22 16.4279 22 13.3636C22 10.2994 22 8.76721 21.251 7.6666C20.9267 7.19014 20.51 6.78104 20.0248 6.46268C19.3044 5.99013 18.4027 5.82123 17.022 5.76086C16.3631 5.76086 15.7959 5.27068 15.6667 4.63636C15.4728 3.68489 14.6219 3 13.6337 3H10.3663C9.37805 3 8.52715 3.68489 8.33333 4.63636C8.20412 5.27068 7.63685 5.76086 6.978 5.76086C5.59733 5.82123 4.69555 5.99013 3.97524 6.46268C3.48995 6.78104 3.07328 7.19014 2.74902 7.6666C2 8.76721 2 10.2994 2 13.3636C2 16.4279 2 17.9601 2.74902 19.0607C3.07328 19.5371 3.48995 19.9462 3.97524 20.2646C5.09624 21 6.65675 21 9.77778 21Z" fill="#96BFFF"/>
<path d="M3.97524 20.2646L3.70098 20.6827H3.70098L3.97524 20.2646ZM2.74902 19.0607L2.33567 19.342H2.33567L2.74902 19.0607ZM21.251 19.0607L21.6643 19.342L21.251 19.0607ZM20.0248 20.2646L20.299 20.6827H20.299L20.0248 20.2646ZM21.251 7.6666L21.6643 7.38529V7.38529L21.251 7.6666ZM20.0248 6.46268L20.299 6.04461L20.299 6.04461L20.0248 6.46268ZM2.74902 7.6666L2.33567 7.38529H2.33567L2.74902 7.6666ZM3.97524 6.46268L3.70098 6.04461L3.70098 6.04461L3.97524 6.46268ZM8.33333 4.63636L8.82327 4.73617V4.73617L8.33333 4.63636ZM6.978 5.76086V5.26086H6.96707L6.95615 5.26133L6.978 5.76086ZM15.6667 4.63636L16.1566 4.53656L16.1566 4.53656L15.6667 4.63636ZM17.022 5.76086L17.0438 5.26133L17.0329 5.26086H17.022V5.76086ZM19 10.5C19.2761 10.5 19.5 10.2761 19.5 10C19.5 9.72386 19.2761 9.5 19 9.5V10V10.5ZM18 9.5C17.7239 9.5 17.5 9.72386 17.5 10C17.5 10.2761 17.7239 10.5 18 10.5V10V9.5ZM15 13H14.5C14.5 14.3807 13.3807 15.5 12 15.5V16V16.5C13.933 16.5 15.5 14.933 15.5 13H15ZM12 16V15.5C10.6193 15.5 9.5 14.3807 9.5 13H9H8.5C8.5 14.933 10.067 16.5 12 16.5V16ZM9 13H9.5C9.5 11.6193 10.6193 10.5 12 10.5V10V9.5C10.067 9.5 8.5 11.067 8.5 13H9ZM12 10V10.5C13.3807 10.5 14.5 11.6193 14.5 13H15H15.5C15.5 11.067 13.933 9.5 12 9.5V10ZM14.2222 21V20.5H9.77778V21V21.5H14.2222V21ZM9.77778 21V20.5C8.20704 20.5 7.06595 20.4994 6.17619 20.4105C5.29433 20.3225 4.71469 20.1517 4.24951 19.8465L3.97524 20.2646L3.70098 20.6827C4.35679 21.1129 5.1179 21.3098 6.07681 21.4056C7.02781 21.5006 8.22748 21.5 9.77778 21.5V21ZM2 13.3636H1.5C1.5 14.8852 1.49937 16.0647 1.59629 17.0001C1.69412 17.9443 1.89558 18.6953 2.33567 19.342L2.74902 19.0607L3.16238 18.7794C2.85344 18.3254 2.68039 17.7601 2.59097 16.897C2.50063 16.0251 2.5 14.9064 2.5 13.3636H2ZM3.97524 20.2646L4.24951 19.8465C3.81871 19.5639 3.44944 19.2012 3.16238 18.7794L2.74902 19.0607L2.33567 19.342C2.69713 19.8731 3.16119 20.3285 3.70098 20.6827L3.97524 20.2646ZM22 13.3636H21.5C21.5 14.9064 21.4994 16.0251 21.409 16.897C21.3196 17.7601 21.1466 18.3254 20.8376 18.7794L21.251 19.0607L21.6643 19.342C22.1044 18.6953 22.3059 17.9443 22.4037 17.0001C22.5006 16.0647 22.5 14.8852 22.5 13.3636H22ZM14.2222 21V21.5C15.7725 21.5 16.9722 21.5006 17.9232 21.4056C18.8821 21.3098 19.6432 21.1129 20.299 20.6827L20.0248 20.2646L19.7505 19.8465C19.2853 20.1517 18.7057 20.3225 17.8238 20.4105C16.934 20.4994 15.793 20.5 14.2222 20.5V21ZM21.251 19.0607L20.8376 18.7794C20.5506 19.2012 20.1813 19.5639 19.7505 19.8465L20.0248 20.2646L20.299 20.6827C20.8388 20.3285 21.3029 19.8731 21.6643 19.342L21.251 19.0607ZM22 13.3636H22.5C22.5 11.8421 22.5006 10.6626 22.4037 9.72721C22.3059 8.783 22.1044 8.03195 21.6643 7.38529L21.251 7.6666L20.8376 7.94791C21.1466 8.40187 21.3196 8.9672 21.409 9.83027C21.4994 10.7022 21.5 11.8209 21.5 13.3636H22ZM20.0248 6.46268L19.7505 6.88074C20.1813 7.16336 20.5506 7.52611 20.8376 7.94791L21.251 7.6666L21.6643 7.38529C21.3029 6.85416 20.8388 6.39873 20.299 6.04461L20.0248 6.46268ZM2 13.3636H2.5C2.5 11.8209 2.50063 10.7022 2.59097 9.83027C2.68039 8.9672 2.85344 8.40187 3.16238 7.94791L2.74902 7.6666L2.33567 7.38529C1.89558 8.03195 1.69412 8.78299 1.59629 9.72721C1.49937 10.6626 1.5 11.8421 1.5 13.3636H2ZM3.97524 6.46268L3.70098 6.04461C3.16119 6.39873 2.69713 6.85416 2.33567 7.38529L2.74902 7.6666L3.16238 7.94791C3.44944 7.52611 3.81871 7.16336 4.24951 6.88074L3.97524 6.46268ZM10.3663 3V3.5H13.6337V3V2.5H10.3663V3ZM8.33333 4.63636L7.8434 4.53656C7.75926 4.94959 7.38754 5.26086 6.978 5.26086V5.76086V6.26086C7.88617 6.26086 8.64898 5.59177 8.82327 4.73617L8.33333 4.63636ZM15.6667 4.63636L15.1767 4.73616C15.351 5.59177 16.1138 6.26086 17.022 6.26086V5.76086V5.26086C16.6125 5.26086 16.2407 4.94959 16.1566 4.53656L15.6667 4.63636ZM13.6337 3V3.5C14.3905 3.5 15.0316 4.02363 15.1767 4.73617L15.6667 4.63636L16.1566 4.53656C15.9141 3.34615 14.8534 2.5 13.6337 2.5V3ZM10.3663 3V2.5C9.14661 2.5 8.08589 3.34615 7.8434 4.53656L8.33333 4.63636L8.82327 4.73617C8.96842 4.02363 9.6095 3.5 10.3663 3.5V3ZM17.022 5.76086L17.0002 6.26038C18.3656 6.32009 19.15 6.48678 19.7505 6.88074L20.0248 6.46268L20.299 6.04461C19.4589 5.49349 18.4397 5.32237 17.0438 5.26133L17.022 5.76086ZM6.978 5.76086L6.95615 5.26133C5.56031 5.32237 4.54107 5.49349 3.70098 6.04461L3.97524 6.46268L4.24951 6.88074C4.85004 6.48678 5.63436 6.32009 6.99984 6.26038L6.978 5.76086ZM19 10V9.5H18V10V10.5H19V10Z" fill="#424242"/>
</svg>
