<svg width="118" height="115" viewBox="0 0 118 115" fill="none" xmlns="http://www.w3.org/2000/svg">
<path d="M58.5087 114.009C90.265 114.009 116.009 88.7092 116.009 57.5002C116.009 26.2911 90.265 0.991455 58.5087 0.991455C26.7524 0.991455 1.00867 26.2911 1.00867 57.5002C1.00867 88.7092 26.7524 114.009 58.5087 114.009Z" stroke="#D9D9D9" stroke-width="0.98276"/>
<path d="M58.5088 115C90.8222 115 117.018 89.2565 117.018 57.5C117.018 25.7435 90.8222 0 58.5088 0C26.1954 0 0 25.7435 0 57.5C0 89.2565 26.1954 115 58.5088 115Z" fill="#F9F9F9"/>
<path fill-rule="evenodd" clip-rule="evenodd" d="M33.4912 41.5857H103.241V98.6334C103.241 101.432 100.97 103.702 98.168 103.702H38.5637C35.7622 103.702 33.4912 101.432 33.4912 98.6334V41.5857Z" fill="white"/>
<path d="M35.9199 46.8824H35.886C35.8933 46.9183 35.8989 46.9546 35.903 46.9914C35.907 46.9546 35.9127 46.9183 35.9199 46.8824ZM38.3248 46.8824H38.2905C38.2978 46.9183 38.3035 46.9546 38.3075 46.9914C38.3115 46.9546 38.3176 46.9183 38.3248 46.8824ZM40.7294 46.8824H40.6955C40.7027 46.9183 40.7084 46.9546 40.7124 46.9914C40.7164 46.9546 40.7221 46.9183 40.7294 46.8824ZM43.1339 46.8824H43.1C43.1072 46.9183 43.1129 46.9546 43.1169 46.9914C43.1209 46.9546 43.1266 46.9183 43.1339 46.8824ZM45.5388 46.8824H45.5045C45.5117 46.9183 45.5178 46.9546 45.5218 46.9914C45.5259 46.9546 45.5315 46.9183 45.5388 46.8824ZM47.9433 46.8824H47.9094C47.9167 46.9183 47.9223 46.9546 47.9263 46.9914C47.9304 46.9546 47.936 46.9183 47.9433 46.8824ZM50.3482 46.8824H50.3139C50.3212 46.9183 50.3268 46.9546 50.3308 46.9914C50.3349 46.9546 50.3409 46.9183 50.3482 46.8824ZM52.7527 46.8824H52.7184C52.7257 46.9183 52.7317 46.9546 52.7358 46.9914C52.7398 46.9546 52.7454 46.9183 52.7527 46.8824ZM55.1572 46.8824H55.1233C55.1306 46.9183 55.1362 46.9546 55.1403 46.9914C55.1443 46.9546 55.1499 46.9183 55.1572 46.8824ZM57.5621 46.8824H57.5278C57.5351 46.9183 57.5407 46.9546 57.5448 46.9914C57.5488 46.9546 57.5549 46.9183 57.5621 46.8824ZM59.9666 46.8824H59.9327C59.94 46.9183 59.9457 46.9546 59.9497 46.9914C59.9537 46.9546 59.9594 46.9183 59.9666 46.8824ZM62.3711 46.8824H62.3372C62.3445 46.9183 62.3502 46.9546 62.3542 46.9914C62.3582 46.9546 62.3639 46.9183 62.3711 46.8824ZM64.7761 46.8824H64.7418C64.749 46.9183 64.7551 46.9546 64.7591 46.9914C64.7631 46.9546 64.7688 46.9183 64.7761 46.8824ZM67.1806 46.8824H67.1467C67.1539 46.9183 67.1596 46.9546 67.1636 46.9914C67.1676 46.9546 67.1733 46.9183 67.1806 46.8824ZM69.5855 46.8824H69.5512C69.5584 46.9183 69.5641 46.9546 69.5681 46.9914C69.5722 46.9546 69.5782 46.9183 69.5855 46.8824ZM71.99 46.8824H71.9557C71.9629 46.9183 71.969 46.9546 71.973 46.9914C71.9771 46.9546 71.9827 46.9183 71.99 46.8824ZM74.3945 46.8824H74.3606C74.3679 46.9183 74.3735 46.9546 74.3775 46.9914C74.3816 46.9546 74.3872 46.9183 74.3945 46.8824ZM76.7994 46.8824H76.7651C76.7724 46.9183 76.778 46.9546 76.7821 46.9914C76.7861 46.9546 76.7921 46.9183 76.7994 46.8824ZM79.2039 46.8824H79.1696C79.1769 46.9183 79.1829 46.9546 79.187 46.9914C79.191 46.9546 79.1966 46.9183 79.2039 46.8824ZM81.6084 46.8824H81.5745C81.5818 46.9183 81.5874 46.9546 81.5915 46.9914C81.5955 46.9546 81.6012 46.9183 81.6084 46.8824ZM84.0133 46.8824H83.979C83.9863 46.9183 83.9919 46.9546 83.996 46.9914C84 46.9546 84.0061 46.9183 84.0133 46.8824ZM86.4178 46.8824H86.3839C86.3912 46.9183 86.3969 46.9546 86.4009 46.9914C86.4049 46.9546 86.4106 46.9183 86.4178 46.8824ZM88.8224 46.8824H88.7885C88.7957 46.9183 88.8014 46.9546 88.8054 46.9914C88.8094 46.9546 88.8151 46.9183 88.8224 46.8824ZM91.2273 46.8824H91.193C91.2002 46.9183 91.2063 46.9546 91.2103 46.9914C91.2144 46.9546 91.22 46.9183 91.2273 46.8824ZM93.6318 46.8824H93.5979C93.6051 46.9183 93.6108 46.9546 93.6148 46.9914C93.6189 46.9546 93.6245 46.9183 93.6318 46.8824ZM96.0367 46.8824H96.0024C96.0097 46.9183 96.0153 46.9546 96.0193 46.9914C96.0234 46.9546 96.0294 46.9183 96.0367 46.8824ZM98.4412 46.8824H98.4069C98.4142 46.9183 98.4202 46.9546 98.4242 46.9914C98.4283 46.9546 98.4339 46.9183 98.4412 46.8824ZM103.157 46.6827C103.211 46.8191 103.241 46.9676 103.241 47.1229C103.241 47.7879 102.699 48.327 102.031 48.327C101.408 48.327 100.895 47.8577 100.829 47.2549C100.763 47.8577 100.25 48.327 99.6263 48.327C99.0029 48.327 98.49 47.8577 98.4242 47.2549C98.3585 47.8577 97.8452 48.327 97.2218 48.327C96.5984 48.327 96.0851 47.8577 96.0193 47.2549C95.9536 47.8577 95.4407 48.327 94.8173 48.327C94.1939 48.327 93.6806 47.8577 93.6148 47.2549C93.5491 47.8577 93.0358 48.327 92.4124 48.327C91.7889 48.327 91.2761 47.8577 91.2103 47.2549C91.1445 47.8577 90.6313 48.327 90.0079 48.327C89.3844 48.327 88.8712 47.8577 88.8054 47.2549C88.7396 47.8577 88.2268 48.327 87.6034 48.327C86.9799 48.327 86.4667 47.8577 86.4009 47.2549C86.3351 47.8577 85.8219 48.327 85.1984 48.327C84.575 48.327 84.0618 47.8577 83.996 47.2549C83.9302 47.8577 83.4174 48.327 82.7939 48.327C82.1705 48.327 81.6572 47.8577 81.5915 47.2549C81.5257 47.8577 81.0124 48.327 80.389 48.327C79.7656 48.327 79.2527 47.8577 79.187 47.2549C79.1212 47.8577 78.6079 48.327 77.9845 48.327C77.3611 48.327 76.8478 47.8577 76.7821 47.2549C76.7163 47.8577 76.2034 48.327 75.58 48.327C74.9566 48.327 74.4433 47.8577 74.3775 47.2549C74.3118 47.8577 73.7985 48.327 73.1751 48.327C72.5517 48.327 72.0388 47.8577 71.973 47.2549C71.9073 47.8577 71.394 48.327 70.7706 48.327C70.1472 48.327 69.6339 47.8577 69.5681 47.2549C69.5024 47.8577 68.9895 48.327 68.3661 48.327C67.7426 48.327 67.2294 47.8577 67.1636 47.2549C67.0978 47.8577 66.5846 48.327 65.9612 48.327C65.3377 48.327 64.8249 47.8577 64.7591 47.2549C64.6933 47.8577 64.1801 48.327 63.5567 48.327C62.9332 48.327 62.42 47.8577 62.3542 47.2549C62.2884 47.8577 61.7752 48.327 61.1517 48.327C60.5283 48.327 60.0155 47.8577 59.9497 47.2549C59.8839 47.8577 59.3706 48.327 58.7472 48.327C58.1238 48.327 57.6105 47.8577 57.5448 47.2549C57.479 47.8577 56.9661 48.327 56.3427 48.327C55.7193 48.327 55.206 47.8577 55.1403 47.2549C55.0745 47.8577 54.5612 48.327 53.9378 48.327C53.3144 48.327 52.8015 47.8577 52.7358 47.2549C52.67 47.8577 52.1567 48.327 51.5333 48.327C50.9099 48.327 50.3966 47.8577 50.3308 47.2549C50.2651 47.8577 49.7522 48.327 49.1288 48.327C48.5054 48.327 47.9921 47.8577 47.9263 47.2549C47.8606 47.8577 47.3473 48.327 46.7239 48.327C46.1005 48.327 45.5876 47.8577 45.5218 47.2549C45.4561 47.8577 44.9428 48.327 44.3194 48.327C43.6959 48.327 43.1827 47.8577 43.1169 47.2549C43.0511 47.8577 42.5383 48.327 41.9149 48.327C41.2914 48.327 40.7782 47.8577 40.7124 47.2549C40.6466 47.8577 40.1334 48.327 39.5099 48.327C38.8865 48.327 38.3733 47.8577 38.3075 47.2549C38.2417 47.8577 37.7289 48.327 37.1054 48.327C36.482 48.327 35.9688 47.8577 35.903 47.2549C35.8372 47.8577 35.3239 48.327 34.7005 48.327C34.0327 48.327 33.4912 47.7879 33.4912 47.1229C33.4912 47.0406 33.4997 46.9603 33.5154 46.8824H33.4912V36.5421C33.4912 33.743 35.7622 31.4736 38.5637 31.4736H98.0845C100.886 31.4736 103.157 33.743 103.157 36.5421V46.6827ZM100.846 46.8824H100.812C100.819 46.9183 100.825 46.9546 100.829 46.9914C100.833 46.9546 100.838 46.9183 100.846 46.8824Z" fill="#2372EC"/>
<path d="M42.3684 42.2445C43.7689 42.2445 44.9048 41.1098 44.9048 39.7101C44.9048 38.3103 43.7689 37.176 42.3684 37.176C40.9678 37.176 39.8319 38.3103 39.8319 39.7101C39.8319 41.1098 40.9678 42.2445 42.3684 42.2445Z" fill="#768288"/>
<path d="M94.3634 42.2445C95.7639 42.2445 96.8998 41.1098 96.8998 39.7101C96.8998 38.3103 95.7639 37.176 94.3634 37.176C92.9628 37.176 91.8269 38.3103 91.8269 39.7101C91.8269 41.1098 92.9628 42.2445 94.3634 42.2445Z" fill="#F9F9F9"/>
<path d="M42.0424 96.7324H107.664C108.347 96.7324 108.907 97.2727 108.932 97.9547C109.061 101.592 108.4 103.485 106.948 103.632C104.539 103.877 35.552 103.377 37.9932 103.632C39.4838 103.788 40.4127 101.872 40.7794 97.8836C40.8396 97.2316 41.3871 96.7324 42.0424 96.7324Z" fill="#96BFFF"/>
<path fill-rule="evenodd" clip-rule="evenodd" d="M91.743 85.228H94.9977C95.6981 85.228 96.2655 85.7953 96.2655 86.495V89.763C96.2655 90.4627 95.6981 91.03 94.9977 91.03H91.743C91.0425 91.03 90.4747 90.4627 90.4747 89.763V86.495C90.4747 85.7953 91.0425 85.228 91.743 85.228ZM83.5392 85.228H86.7935C87.494 85.228 88.0617 85.7953 88.0617 86.495V89.763C88.0617 90.4627 87.494 91.03 86.7935 91.03H83.5392C82.8387 91.03 82.271 90.4627 82.271 89.763V86.495C82.271 85.7953 82.8387 85.228 83.5392 85.228ZM67.1313 85.228H70.386C71.0865 85.228 71.6543 85.7953 71.6543 86.495V89.763C71.6543 90.4627 71.0865 91.03 70.386 91.03H67.1313C66.4308 91.03 65.8631 90.4627 65.8631 89.763V86.495C65.8631 85.7953 66.4308 85.228 67.1313 85.228ZM59.4102 85.228H62.6649C63.3654 85.228 63.9327 85.7953 63.9327 86.495V89.763C63.9327 90.4627 63.3654 91.03 62.6649 91.03H59.4102C58.7097 91.03 58.142 90.4627 58.142 89.763V86.495C58.142 85.7953 58.7097 85.228 59.4102 85.228ZM51.2065 85.228H54.4608C55.1613 85.228 55.729 85.7953 55.729 86.495V89.763C55.729 90.4627 55.1613 91.03 54.4608 91.03H51.2065C50.506 91.03 49.9382 90.4627 49.9382 89.763V86.495C49.9382 85.7953 50.506 85.228 51.2065 85.228ZM43.0023 85.228H46.257C46.9575 85.228 47.5253 85.7953 47.5253 86.495V89.763C47.5253 90.4627 46.9575 91.03 46.257 91.03H43.0023C42.3018 91.03 41.7345 90.4627 41.7345 89.763V86.495C41.7345 85.7953 42.3018 85.228 43.0023 85.228ZM75.3351 77.4915H78.5898C79.2903 77.4915 79.858 78.0592 79.858 78.7589V82.0265C79.858 82.7262 79.2903 83.2939 78.5898 83.2939H75.3351C74.6346 83.2939 74.0673 82.7262 74.0673 82.0265V78.7589C74.0673 78.0592 74.6346 77.4915 75.3351 77.4915ZM67.1313 77.4915H70.386C71.0865 77.4915 71.6543 78.0592 71.6543 78.7589V82.0265C71.6543 82.7262 71.0865 83.2939 70.386 83.2939H67.1313C66.4308 83.2939 65.8631 82.7262 65.8631 82.0265V78.7589C65.8631 78.0592 66.4308 77.4915 67.1313 77.4915ZM59.4102 77.4915H62.6649C63.3654 77.4915 63.9327 78.0592 63.9327 78.7589V82.0265C63.9327 82.7262 63.3654 83.2939 62.6649 83.2939H59.4102C58.7097 83.2939 58.142 82.7262 58.142 82.0265V78.7589C58.142 78.0592 58.7097 77.4915 59.4102 77.4915ZM51.2065 77.4915H54.4608C55.1613 77.4915 55.729 78.0592 55.729 78.7589V82.0265C55.729 82.7262 55.1613 83.2939 54.4608 83.2939H51.2065C50.506 83.2939 49.9382 82.7262 49.9382 82.0265V78.7589C49.9382 78.0592 50.506 77.4915 51.2065 77.4915ZM43.0023 77.4915H46.257C46.9575 77.4915 47.5253 78.0592 47.5253 78.7589V82.0265C47.5253 82.7262 46.9575 83.2939 46.257 83.2939H43.0023C42.3018 83.2939 41.7345 82.7262 41.7345 82.0265V78.7589C41.7345 78.0592 42.3018 77.4915 43.0023 77.4915ZM75.3351 69.7554H78.5898C79.2903 69.7554 79.858 70.3228 79.858 71.0224V74.2905C79.858 74.9901 79.2903 75.5575 78.5898 75.5575H75.3351C74.6346 75.5575 74.0673 74.9901 74.0673 74.2905V71.0224C74.0673 70.3228 74.6346 69.7554 75.3351 69.7554ZM67.1313 69.7554H70.386C71.0865 69.7554 71.6543 70.3228 71.6543 71.0224V74.2905C71.6543 74.9901 71.0865 75.5575 70.386 75.5575H67.1313C66.4308 75.5575 65.8631 74.9901 65.8631 74.2905V71.0224C65.8631 70.3228 66.4308 69.7554 67.1313 69.7554ZM59.4102 69.7554H62.6649C63.3654 69.7554 63.9327 70.3228 63.9327 71.0224V74.2905C63.9327 74.9901 63.3654 75.5575 62.6649 75.5575H59.4102C58.7097 75.5575 58.142 74.9901 58.142 74.2905V71.0224C58.142 70.3228 58.7097 69.7554 59.4102 69.7554ZM51.2065 69.7554H54.4608C55.1613 69.7554 55.729 70.3228 55.729 71.0224V74.2905C55.729 74.9901 55.1613 75.5575 54.4608 75.5575H51.2065C50.506 75.5575 49.9382 74.9901 49.9382 74.2905V71.0224C49.9382 70.3228 50.506 69.7554 51.2065 69.7554ZM43.0023 69.7554H46.257C46.9575 69.7554 47.5253 70.3228 47.5253 71.0224V74.2905C47.5253 74.9901 46.9575 75.5575 46.257 75.5575H43.0023C42.3018 75.5575 41.7345 74.9901 41.7345 74.2905V71.0224C41.7345 70.3228 42.3018 69.7554 43.0023 69.7554ZM75.3351 62.0189H78.5898C79.2903 62.0189 79.858 62.5863 79.858 63.286V66.554C79.858 67.2537 79.2903 67.821 78.5898 67.821H75.3351C74.6346 67.821 74.0673 67.2537 74.0673 66.554V63.286C74.0673 62.5863 74.6346 62.0189 75.3351 62.0189ZM67.1313 62.0189H70.386C71.0865 62.0189 71.6543 62.5863 71.6543 63.286V66.554C71.6543 67.2537 71.0865 67.821 70.386 67.821H67.1313C66.4308 67.821 65.8631 67.2537 65.8631 66.554V63.286C65.8631 62.5863 66.4308 62.0189 67.1313 62.0189ZM59.4102 62.0189H62.6649C63.3654 62.0189 63.9327 62.5863 63.9327 63.286V66.554C63.9327 67.2537 63.3654 67.821 62.6649 67.821H59.4102C58.7097 67.821 58.142 67.2537 58.142 66.554V63.286C58.142 62.5863 58.7097 62.0189 59.4102 62.0189ZM51.2065 62.0189H54.4608C55.1613 62.0189 55.729 62.5863 55.729 63.286V66.554C55.729 67.2537 55.1613 67.821 54.4608 67.821H51.2065C50.506 67.821 49.9382 67.2537 49.9382 66.554V63.286C49.9382 62.5863 50.506 62.0189 51.2065 62.0189ZM43.0023 62.0189H46.257C46.9575 62.0189 47.5253 62.5863 47.5253 63.286V66.554C47.5253 67.2537 46.9575 67.821 46.257 67.821H43.0023C42.3018 67.821 41.7345 67.2537 41.7345 66.554V63.286C41.7345 62.5863 42.3018 62.0189 43.0023 62.0189ZM91.743 54.2825H94.9977C95.6981 54.2825 96.2655 54.8502 96.2655 55.5499V58.8175C96.2655 59.5172 95.6981 60.0849 94.9977 60.0849H91.743C91.0425 60.0849 90.4747 59.5172 90.4747 58.8175V55.5499C90.4747 54.8502 91.0425 54.2825 91.743 54.2825ZM83.5392 54.2825H86.7935C87.494 54.2825 88.0617 54.8502 88.0617 55.5499V58.8175C88.0617 59.5172 87.494 60.0849 86.7935 60.0849H83.5392C82.8387 60.0849 82.271 59.5172 82.271 58.8175V55.5499C82.271 54.8502 82.8387 54.2825 83.5392 54.2825ZM75.3351 54.2825H78.5898C79.2903 54.2825 79.858 54.8502 79.858 55.5499V58.8175C79.858 59.5172 79.2903 60.0849 78.5898 60.0849H75.3351C74.6346 60.0849 74.0673 59.5172 74.0673 58.8175V55.5499C74.0673 54.8502 74.6346 54.2825 75.3351 54.2825ZM67.1313 54.2825H70.386C71.0865 54.2825 71.6543 54.8502 71.6543 55.5499V58.8175C71.6543 59.5172 71.0865 60.0849 70.386 60.0849H67.1313C66.4308 60.0849 65.8631 59.5172 65.8631 58.8175V55.5499C65.8631 54.8502 66.4308 54.2825 67.1313 54.2825ZM59.4102 54.2825H62.6649C63.3654 54.2825 63.9327 54.8502 63.9327 55.5499V58.8175C63.9327 59.5172 63.3654 60.0849 62.6649 60.0849H59.4102C58.7097 60.0849 58.142 59.5172 58.142 58.8175V55.5499C58.142 54.8502 58.7097 54.2825 59.4102 54.2825ZM51.2065 54.2825H54.4608C55.1613 54.2825 55.729 54.8502 55.729 55.5499V58.8175C55.729 59.5172 55.1613 60.0849 54.4608 60.0849H51.2065C50.506 60.0849 49.9382 59.5172 49.9382 58.8175V55.5499C49.9382 54.8502 50.506 54.2825 51.2065 54.2825ZM43.0023 54.2825H46.257C46.9575 54.2825 47.5253 54.8502 47.5253 55.5499V58.8175C47.5253 59.5172 46.9575 60.0849 46.257 60.0849H43.0023C42.3018 60.0849 41.7345 59.5172 41.7345 58.8175V55.5499C41.7345 54.8502 42.3018 54.2825 43.0023 54.2825Z" fill="#F8FAFF"/>
<path d="M91.743 85.5446C91.2176 85.5446 90.7919 85.9699 90.7919 86.4949V89.7629C90.7919 90.2879 91.2176 90.7132 91.743 90.7132H94.9977C95.523 90.7132 95.9487 90.2879 95.9487 89.7629V86.4949C95.9487 85.9699 95.523 85.5446 94.9977 85.5446H91.743ZM83.5392 85.5446C83.0139 85.5446 82.5878 85.9699 82.5878 86.4949V89.7629C82.5878 90.2879 83.0139 90.7132 83.5392 90.7132H86.7935C87.3189 90.7132 87.7446 90.2879 87.7446 89.7629V86.4949C87.7446 85.9699 87.3189 85.5446 86.7935 85.5446H83.5392ZM67.1314 85.5446C66.606 85.5446 66.1803 85.9699 66.1803 86.4949V89.7629C66.1803 90.2879 66.606 90.7132 67.1314 90.7132H70.3861C70.9114 90.7132 71.3371 90.2879 71.3371 89.7629V86.4949C71.3371 85.9699 70.9114 85.5446 70.3861 85.5446H67.1314ZM59.4102 85.5446C58.8848 85.5446 58.4591 85.9699 58.4591 86.4949V89.7629C58.4591 90.2879 58.8848 90.7132 59.4102 90.7132H62.6649C63.1903 90.7132 63.616 90.2879 63.616 89.7629V86.4949C63.616 85.9699 63.1903 85.5446 62.6649 85.5446H59.4102ZM51.2065 85.5446C50.6811 85.5446 50.2554 85.9699 50.2554 86.4949V89.7629C50.2554 90.2879 50.6811 90.7132 51.2065 90.7132H54.4608C54.9861 90.7132 55.4123 90.2879 55.4123 89.7629V86.4949C55.4123 85.9699 54.9861 85.5446 54.4608 85.5446H51.2065ZM43.0023 85.5446C42.477 85.5446 42.0513 85.9699 42.0513 86.4949V89.7629C42.0513 90.2879 42.477 90.7132 43.0023 90.7132H46.257C46.7824 90.7132 47.2081 90.2879 47.2081 89.7629V86.4949C47.2081 85.9699 46.7824 85.5446 46.257 85.5446H43.0023ZM75.3351 77.8081C74.8097 77.8081 74.384 78.2338 74.384 78.7588V82.0264C74.384 82.5514 74.8097 82.9771 75.3351 82.9771H78.5898C79.1152 82.9771 79.5409 82.5514 79.5409 82.0264V78.7588C79.5409 78.2338 79.1152 77.8081 78.5898 77.8081H75.3351ZM67.1314 77.8081C66.606 77.8081 66.1803 78.2338 66.1803 78.7588V82.0264C66.1803 82.5514 66.606 82.9771 67.1314 82.9771H70.3861C70.9114 82.9771 71.3371 82.5514 71.3371 82.0264V78.7588C71.3371 78.2338 70.9114 77.8081 70.3861 77.8081H67.1314ZM59.4102 77.8081C58.8848 77.8081 58.4591 78.2338 58.4591 78.7588V82.0264C58.4591 82.5514 58.8848 82.9771 59.4102 82.9771H62.6649C63.1903 82.9771 63.616 82.5514 63.616 82.0264V78.7588C63.616 78.2338 63.1903 77.8081 62.6649 77.8081H59.4102ZM51.2065 77.8081C50.6811 77.8081 50.2554 78.2338 50.2554 78.7588V82.0264C50.2554 82.5514 50.6811 82.9771 51.2065 82.9771H54.4608C54.9861 82.9771 55.4123 82.5514 55.4123 82.0264V78.7588C55.4123 78.2338 54.9861 77.8081 54.4608 77.8081H51.2065ZM43.0023 77.8081C42.477 77.8081 42.0513 78.2338 42.0513 78.7588V82.0264C42.0513 82.5514 42.477 82.9771 43.0023 82.9771H46.257C46.7824 82.9771 47.2081 82.5514 47.2081 82.0264V78.7588C47.2081 78.2338 46.7824 77.8081 46.257 77.8081H43.0023ZM75.3351 70.0721C74.8097 70.0721 74.384 70.4974 74.384 71.0223V74.2903C74.384 74.8153 74.8097 75.2406 75.3351 75.2406H78.5898C79.1152 75.2406 79.5409 74.8153 79.5409 74.2903V71.0223C79.5409 70.4974 79.1152 70.0721 78.5898 70.0721H75.3351ZM67.1314 70.0721C66.606 70.0721 66.1803 70.4974 66.1803 71.0223V74.2903C66.1803 74.8153 66.606 75.2406 67.1314 75.2406H70.3861C70.9114 75.2406 71.3371 74.8153 71.3371 74.2903V71.0223C71.3371 70.4974 70.9114 70.0721 70.3861 70.0721H67.1314ZM59.4102 70.0721C58.8848 70.0721 58.4591 70.4974 58.4591 71.0223V74.2903C58.4591 74.8153 58.8848 75.2406 59.4102 75.2406H62.6649C63.1903 75.2406 63.616 74.8153 63.616 74.2903V71.0223C63.616 70.4974 63.1903 70.0721 62.6649 70.0721H59.4102ZM51.2065 70.0721C50.6811 70.0721 50.2554 70.4974 50.2554 71.0223V74.2903C50.2554 74.8153 50.6811 75.2406 51.2065 75.2406H54.4608C54.9861 75.2406 55.4123 74.8153 55.4123 74.2903V71.0223C55.4123 70.4974 54.9861 70.0721 54.4608 70.0721H51.2065ZM43.0023 70.0721C42.477 70.0721 42.0513 70.4974 42.0513 71.0223V74.2903C42.0513 74.8153 42.477 75.2406 43.0023 75.2406H46.257C46.7824 75.2406 47.2081 74.8153 47.2081 74.2903V71.0223C47.2081 70.4974 46.7824 70.0721 46.257 70.0721H43.0023ZM75.3351 62.3356C74.8097 62.3356 74.384 62.7609 74.384 63.2859V66.5539C74.384 67.0788 74.8097 67.5041 75.3351 67.5041H78.5898C79.1152 67.5041 79.5409 67.0788 79.5409 66.5539V63.2859C79.5409 62.7609 79.1152 62.3356 78.5898 62.3356H75.3351ZM67.1314 62.3356C66.606 62.3356 66.1803 62.7609 66.1803 63.2859V66.5539C66.1803 67.0788 66.606 67.5041 67.1314 67.5041H70.3861C70.9114 67.5041 71.3371 67.0788 71.3371 66.5539V63.2859C71.3371 62.7609 70.9114 62.3356 70.3861 62.3356H67.1314ZM59.4102 62.3356C58.8848 62.3356 58.4591 62.7609 58.4591 63.2859V66.5539C58.4591 67.0788 58.8848 67.5041 59.4102 67.5041H62.6649C63.1903 67.5041 63.616 67.0788 63.616 66.5539V63.2859C63.616 62.7609 63.1903 62.3356 62.6649 62.3356H59.4102ZM51.2065 62.3356C50.6811 62.3356 50.2554 62.7609 50.2554 63.2859V66.5539C50.2554 67.0788 50.6811 67.5041 51.2065 67.5041H54.4608C54.9861 67.5041 55.4123 67.0788 55.4123 66.5539V63.2859C55.4123 62.7609 54.9861 62.3356 54.4608 62.3356H51.2065ZM43.0023 62.3356C42.477 62.3356 42.0513 62.7609 42.0513 63.2859V66.5539C42.0513 67.0788 42.477 67.5041 43.0023 67.5041H46.257C46.7824 67.5041 47.2081 67.0788 47.2081 66.5539V63.2859C47.2081 62.7609 46.7824 62.3356 46.257 62.3356H43.0023ZM91.743 54.5991C91.2176 54.5991 90.7919 55.0248 90.7919 55.5498V58.8174C90.7919 59.3424 91.2176 59.7681 91.743 59.7681H94.9977C95.523 59.7681 95.9487 59.3424 95.9487 58.8174V55.5498C95.9487 55.0248 95.523 54.5991 94.9977 54.5991H91.743ZM83.5392 54.5991C83.0139 54.5991 82.5878 55.0248 82.5878 55.5498V58.8174C82.5878 59.3424 83.0139 59.7681 83.5392 59.7681H86.7935C87.3189 59.7681 87.7446 59.3424 87.7446 58.8174V55.5498C87.7446 55.0248 87.3189 54.5991 86.7935 54.5991H83.5392ZM75.3351 54.5991C74.8097 54.5991 74.384 55.0248 74.384 55.5498V58.8174C74.384 59.3424 74.8097 59.7681 75.3351 59.7681H78.5898C79.1152 59.7681 79.5409 59.3424 79.5409 58.8174V55.5498C79.5409 55.0248 79.1152 54.5991 78.5898 54.5991H75.3351ZM67.1314 54.5991C66.606 54.5991 66.1803 55.0248 66.1803 55.5498V58.8174C66.1803 59.3424 66.606 59.7681 67.1314 59.7681H70.3861C70.9114 59.7681 71.3371 59.3424 71.3371 58.8174V55.5498C71.3371 55.0248 70.9114 54.5991 70.3861 54.5991H67.1314ZM59.4102 54.5991C58.8848 54.5991 58.4591 55.0248 58.4591 55.5498V58.8174C58.4591 59.3424 58.8848 59.7681 59.4102 59.7681H62.6649C63.1903 59.7681 63.616 59.3424 63.616 58.8174V55.5498C63.616 55.0248 63.1903 54.5991 62.6649 54.5991H59.4102ZM51.2065 54.5991C50.6811 54.5991 50.2554 55.0248 50.2554 55.5498V58.8174C50.2554 59.3424 50.6811 59.7681 51.2065 59.7681H54.4608C54.9861 59.7681 55.4123 59.3424 55.4123 58.8174V55.5498C55.4123 55.0248 54.9861 54.5991 54.4608 54.5991H51.2065ZM43.0023 54.5991C42.477 54.5991 42.0513 55.0248 42.0513 55.5498V58.8174C42.0513 59.3424 42.477 59.7681 43.0023 59.7681H46.257C46.7824 59.7681 47.2081 59.3424 47.2081 58.8174V55.5498C47.2081 55.0248 46.7824 54.5991 46.257 54.5991H43.0023Z" stroke="#F2F7FF" stroke-miterlimit="10"/>
<path d="M101.923 66.2273C96.451 60.6089 80.3323 60.9345 78.2333 69.5086C76.7695 75.4875 98.7482 91.0363 98.4163 72.5156C98.2774 64.7692 97.3777 63.4696 95.0415 58.1526" stroke="#F04248" stroke-miterlimit="10"/>
<rect x="85.1404" y="66.1755" width="10.0877" height="10.0877" rx="5.04386" fill="#EB8B85"/>
<path d="M33.0875 19.4985C45.0497 19.4985 54.7466 29.1956 54.7467 41.1577C54.7467 53.1199 45.0498 62.8169 33.0875 62.8169C21.1254 62.8168 11.4283 53.1199 11.4283 41.1577C11.4285 29.1957 21.1255 19.4987 33.0875 19.4985Z" fill="#FFF8F8" stroke="#F04248" stroke-width="1.35"/>
<path d="M33.0878 63.4922C45.4228 63.4922 55.422 53.493 55.422 41.1579C55.422 28.8229 45.4228 18.8237 33.0878 18.8237C20.7527 18.8237 10.7535 28.8229 10.7535 41.1579C10.7535 53.493 20.7527 63.4922 33.0878 63.4922Z" stroke="#F04248" stroke-width="1.35" stroke-miterlimit="10"/>
<path fill-rule="evenodd" clip-rule="evenodd" d="M29.9801 50.1482C29.9801 49.3201 30.2077 48.6251 30.6622 48.0637C31.1168 47.5024 31.7908 47.2223 32.6838 47.2223C33.5768 47.2223 34.2547 47.5024 34.7178 48.0637C35.1809 48.6251 35.4128 49.3201 35.4128 50.1482C35.4128 50.9762 35.1809 51.661 34.7178 52.2041C34.2547 52.7472 33.5768 53.0188 32.6838 53.0188C31.7908 53.0188 31.1168 52.7472 30.6622 52.2041C30.2077 51.661 29.9801 50.9762 29.9801 50.1482ZM34.0545 44.313C33.4464 43.3459 32.9935 42.8624 32.6962 42.8624C32.3989 42.8624 31.9465 43.3459 31.3384 44.313L29.9801 29.8042H35.5142L34.0545 44.313Z" fill="#F04248"/>
</svg>
