<svg width="32" height="32" viewBox="0 0 32 32" fill="none" xmlns="http://www.w3.org/2000/svg">
<path d="M13.3334 29.3334C19.2245 29.3334 24.0001 24.5578 24.0001 18.6667C24.0001 12.7757 19.2245 8.00008 13.3334 8.00008C7.44237 8.00008 2.66675 12.7757 2.66675 18.6667C2.66675 20.3141 3.04019 21.8742 3.70701 23.267C3.9362 23.7458 4.01668 24.2882 3.87948 24.8009L3.44209 26.4357C3.09735 27.7241 4.27609 28.9027 5.56455 28.5581L7.19927 28.1206C7.71199 27.9835 8.25436 28.0639 8.73309 28.2931C10.1259 28.9599 11.6861 29.3334 13.3334 29.3334Z" fill="#96BFFF"/>
<path d="M24.0001 19.3358C24.0887 19.2989 24.1766 19.2605 24.2637 19.2207C24.7465 19.0002 25.2882 18.9177 25.8009 19.0549L26.4357 19.2247C27.7241 19.5694 28.9027 18.3907 28.5581 17.1023L28.3882 16.4675C28.251 15.9549 28.3335 15.4131 28.5541 14.9303C29.0545 13.8347 29.3334 12.6166 29.3334 11.3334C29.3334 6.54695 25.4533 2.66675 20.6667 2.66675C18.433 2.66675 16.3966 3.5118 14.8599 4.89965C13.9179 5.75041 13.1636 6.80514 12.6667 7.99421" fill="#96BFFF"/>
<path d="M24.0001 19.3358C24.0887 19.2989 24.1766 19.2605 24.2637 19.2207C24.7465 19.0002 25.2882 18.9177 25.8009 19.0549L26.4357 19.2247C27.7241 19.5694 28.9027 18.3907 28.5581 17.1023L28.3882 16.4675C28.251 15.9549 28.3335 15.4131 28.5541 14.9303C29.0545 13.8347 29.3334 12.6166 29.3334 11.3334C29.3334 6.54695 25.4533 2.66675 20.6667 2.66675C18.433 2.66675 16.3966 3.5118 14.8599 4.89965C13.9179 5.75041 13.1636 6.80514 12.6667 7.99421M13.3334 29.3334C19.2245 29.3334 24.0001 24.5578 24.0001 18.6667C24.0001 12.7757 19.2245 8.00008 13.3334 8.00008C7.44237 8.00008 2.66675 12.7757 2.66675 18.6667C2.66675 20.3141 3.04019 21.8742 3.70701 23.267C3.9362 23.7458 4.01668 24.2882 3.87948 24.8009L3.44209 26.4357C3.09735 27.7241 4.27609 28.9027 5.56455 28.5581L7.19927 28.1206C7.71199 27.9835 8.25436 28.0639 8.73309 28.2931C10.1259 28.9599 11.6861 29.3334 13.3334 29.3334Z" stroke="#0D47A1"/>
</svg>
