<svg width="115" height="115" viewBox="0 0 115 115" fill="none" xmlns="http://www.w3.org/2000/svg">
<mask id="mask0_3171_27149" style="mask-type:luminance" maskUnits="userSpaceOnUse" x="0" y="0" width="115" height="115">
<path d="M115 0H0V115H115V0Z" fill="white"/>
</mask>
<g mask="url(#mask0_3171_27149)">
<path d="M57.5 14.375C81.3007 14.375 100.625 33.6993 100.625 57.5C100.625 81.3007 81.3007 100.625 57.5 100.625C33.6993 100.625 14.375 81.3007 14.375 57.5C14.375 33.6993 33.6993 14.375 57.5 14.375Z" fill="#EB8B85"/>
<path d="M62.8879 63.2499V54.1891C62.812 53.3168 62.0685 52.6659 61.2146 52.7263C60.3607 52.6659 59.6167 53.3168 59.5408 54.1891V63.2499H54.7246V54.1891C54.6487 53.3168 53.9046 52.6659 53.0508 52.7263C52.1969 52.6659 51.4534 53.3168 51.3775 54.1891V63.2499H44.3177L43.2137 47.0091H41.1724C40.0454 47.0091 39.1323 46.2213 39.1323 45.2501C39.1323 44.2784 40.0454 43.4912 41.1724 43.4912H73.8272C74.9542 43.4912 75.8679 44.2784 75.8679 45.2501C75.8679 46.2213 74.9542 47.0091 73.8272 47.0091H71.7866L70.6826 63.2499H62.8879Z" fill="white"/>
<path d="M70.7752 61.8906L69.8885 74.9288C69.8132 76.0494 68.9208 76.9183 67.8472 76.9154H47.1524C46.0789 76.9183 45.1871 76.0494 45.1117 74.9288L44.2251 61.8906H51.3775V67.9764C51.4534 68.8493 52.1969 69.4996 53.0508 69.4392C53.9046 69.4996 54.6487 68.8493 54.7246 67.9764V61.8906H59.5408V67.9764C59.6167 68.8493 60.3608 69.4996 61.2146 69.4392C62.0685 69.4996 62.812 68.8493 62.8879 67.9764V61.8906H70.7752Z" fill="white"/>
<path d="M68.7602 26.958L67.3908 28.9136L59.9639 23.7132L58.5948 25.6684L66.0218 30.8688L63.991 33.769L48.343 22.8122C47.6205 22.3063 47.4093 21.3609 47.8714 20.7009L48.0384 20.4623C48.5006 19.8023 49.4612 19.6775 50.1837 20.1834L56.0403 24.2842L57.8276 21.7317C58.1301 21.2996 58.5862 21.0012 59.0959 20.9028C59.6056 20.8044 60.1265 20.9126 60.5448 21.2055L68.7602 26.958Z" fill="white"/>
<path d="M66.4048 25.3096L73.1549 30.036C74.0253 30.6455 74.2198 31.8694 73.5897 32.7693L71.8024 35.3218L77.659 39.4226C78.3815 39.9285 78.5928 40.874 78.1307 41.5339L77.9636 41.7725C77.5015 42.4325 76.5408 42.5573 75.8183 42.0514L61.6356 32.1206L63.6664 29.2204L69.6285 33.3951L70.9975 31.4399L65.0354 27.2652L66.4048 25.3096Z" fill="white"/>
</g>
</svg>
