<svg width="24" height="24" viewBox="0 0 24 24" fill="none" xmlns="http://www.w3.org/2000/svg">
<path d="M8 3.5C8 2.67157 8.67157 2 9.5 2H14.5C15.3284 2 16 2.67157 16 3.5V4.5C16 5.32843 15.3284 6 14.5 6H9.5C8.67157 6 8 5.32843 8 4.5V3.5Z" fill="#F8FAFF"/>
<path d="M20.1213 4.87868L19.7678 5.23223L20.1213 4.87868ZM3.87868 4.87868L3.52513 4.52513H3.52513L3.87868 4.87868ZM8 13.5C7.72386 13.5 7.5 13.7239 7.5 14C7.5 14.2761 7.72386 14.5 8 14.5V14V13.5ZM16 14.5C16.2761 14.5 16.5 14.2761 16.5 14C16.5 13.7239 16.2761 13.5 16 13.5V14V14.5ZM7 10C6.72386 10 6.5 10.2239 6.5 10.5C6.5 10.7761 6.72386 11 7 11V10.5V10ZM17 11C17.2761 11 17.5 10.7761 17.5 10.5C17.5 10.2239 17.2761 10 17 10V10.5V11ZM9 17C8.72386 17 8.5 17.2239 8.5 17.5C8.5 17.7761 8.72386 18 9 18V17.5V17ZM15 18C15.2761 18 15.5 17.7761 15.5 17.5C15.5 17.2239 15.2761 17 15 17V17.5V18ZM21 10H20.5V16H21H21.5V10H21ZM15 22V21.5H9V22V22.5H15V22ZM3 16H3.5V10H3H2.5V16H3ZM9 22V21.5C7.57165 21.5 6.55069 21.4989 5.77481 21.3946C5.01331 21.2922 4.56319 21.0987 4.23223 20.7678L3.87868 21.1213L3.52513 21.4749C4.07285 22.0226 4.76917 22.2684 5.64156 22.3857C6.49956 22.5011 7.59992 22.5 9 22.5V22ZM3 16H2.5C2.5 17.4001 2.49894 18.5004 2.61429 19.3584C2.73158 20.2308 2.9774 20.9272 3.52513 21.4749L3.87868 21.1213L4.23223 20.7678C3.90128 20.4368 3.70776 19.9867 3.60538 19.2252C3.50106 18.4493 3.5 17.4283 3.5 16H3ZM21 16H20.5C20.5 17.4283 20.4989 18.4493 20.3946 19.2252C20.2922 19.9867 20.0987 20.4368 19.7678 20.7678L20.1213 21.1213L20.4749 21.4749C21.0226 20.9272 21.2684 20.2308 21.3857 19.3584C21.5011 18.5004 21.5 17.4001 21.5 16H21ZM15 22V22.5C16.4001 22.5 17.5004 22.5011 18.3584 22.3857C19.2308 22.2684 19.9272 22.0226 20.4749 21.4749L20.1213 21.1213L19.7678 20.7678C19.4368 21.0987 18.9867 21.2922 18.2252 21.3946C17.4493 21.4989 16.4283 21.5 15 21.5V22ZM21 10H21.5C21.5 8.59992 21.5011 7.49956 21.3857 6.64156C21.2684 5.76917 21.0226 5.07285 20.4749 4.52513L20.1213 4.87868L19.7678 5.23223C20.0987 5.56319 20.2922 6.01331 20.3946 6.77481C20.4989 7.55069 20.5 8.57165 20.5 10H21ZM3 10H3.5C3.5 8.57165 3.50106 7.55069 3.60538 6.77481C3.70776 6.01331 3.90128 5.56319 4.23223 5.23223L3.87868 4.87868L3.52513 4.52513C2.9774 5.07285 2.73158 5.76917 2.61429 6.64156C2.49894 7.49956 2.5 8.59992 2.5 10H3ZM16 4.00174L15.9972 4.50173C17.0887 4.50781 17.8849 4.53578 18.4978 4.64838C19.0965 4.75835 19.4774 4.94187 19.7678 5.23223L20.1213 4.87868L20.4749 4.52513C19.9969 4.04711 19.4046 3.79821 18.6785 3.66483C17.9666 3.53408 17.0863 3.50778 16.0028 3.50175L16 4.00174ZM8 4.00174L7.99722 3.50175C6.91369 3.50778 6.03336 3.53408 5.32152 3.66483C4.59538 3.79821 4.00314 4.04711 3.52513 4.52513L3.87868 4.87868L4.23223 5.23223C4.5226 4.94187 4.90351 4.75835 5.50218 4.64838C6.11515 4.53578 6.91128 4.50781 8.00278 4.50173L8 4.00174ZM8 14V14.5H16V14V13.5H8V14ZM7 10.5V11H17V10.5V10H7V10.5ZM9 17.5V18H15V17.5V17H9V17.5ZM9.5 2V2.5H14.5V2V1.5H9.5V2ZM16 3.5H15.5V4.5H16H16.5V3.5H16ZM14.5 6V5.5H9.5V6V6.5H14.5V6ZM8 4.5H8.5V3.5H8H7.5V4.5H8ZM9.5 6V5.5C8.94772 5.5 8.5 5.05228 8.5 4.5H8H7.5C7.5 5.60457 8.39543 6.5 9.5 6.5V6ZM16 4.5H15.5C15.5 5.05228 15.0523 5.5 14.5 5.5V6V6.5C15.6046 6.5 16.5 5.60457 16.5 4.5H16ZM14.5 2V2.5C15.0523 2.5 15.5 2.94772 15.5 3.5H16H16.5C16.5 2.39543 15.6046 1.5 14.5 1.5V2ZM9.5 2V1.5C8.39543 1.5 7.5 2.39543 7.5 3.5H8H8.5C8.5 2.94772 8.94772 2.5 9.5 2.5V2Z" fill="#2372EC"/>
</svg>
