<svg width="24" height="24" viewBox="0 0 24 24" fill="none" xmlns="http://www.w3.org/2000/svg">
<path d="M6 19C4.34315 19 3 17.6569 3 16V10C3 6.22876 3 4.34315 4.17157 3.17157C5.34315 2 7.22876 2 11 2H15C16.6569 2 18 3.34315 18 5M12 22H15C17.8284 22 19.2426 22 20.1213 21.1213C21 20.2426 21 18.8284 21 16V11C21 8.17157 21 6.75736 20.1213 5.87868C19.2426 5 17.8284 5 15 5H12C9.17157 5 7.75736 5 6.87868 5.87868C6 6.75736 6 8.17157 6 11V16C6 18.8284 6 20.2426 6.87868 21.1213C7.75736 22 9.17157 22 12 22Z" stroke="#424242" stroke-linecap="round"/>
</svg>
