<svg width="156" height="64" viewBox="0 0 156 64" fill="none" xmlns="http://www.w3.org/2000/svg">
<rect width="156" height="64" rx="8" fill="white" fill-opacity="0.6"/>
<rect x="8.25" y="8.25" width="47.5" height="47.5" rx="23.75" fill="#3E77AF"/>
<rect x="8.25" y="8.25" width="47.5" height="47.5" rx="23.75" stroke="#E4EFFF" stroke-width="0.5"/>
<g opacity="0.5">
<path d="M39.7392 28.1465L35.8535 24.2606C34.7875 23.1947 34.2544 22.6617 33.6484 22.4411C33.0056 22.2071 32.3011 22.2071 31.6583 22.4411C31.0521 22.6617 30.5192 23.1947 29.4532 24.2606L23.3959 30.3179C20.5555 33.1583 20.5555 37.7635 23.3959 40.6039C26.2363 43.4443 30.8415 43.4443 33.6819 40.6039L39.7392 34.5466C40.8052 33.4807 41.3381 32.9477 41.5588 32.3415C41.7927 31.6989 41.7927 30.9942 41.5588 30.3515C41.3381 29.7454 40.8052 29.2124 39.7392 28.1465Z" fill="white"/>
<path fill-rule="evenodd" clip-rule="evenodd" d="M38.0748 20.3107C38.4889 19.8964 39.1607 19.8964 39.5748 20.3107L43.6892 24.4251C44.1035 24.8393 44.1035 25.511 43.6892 25.9252C43.2751 26.3395 42.6033 26.3395 42.1891 25.9252L38.0748 21.8108C37.6605 21.3966 37.6605 20.7249 38.0748 20.3107Z" fill="white"/>
</g>
<path d="M39.6389 34.6463L29.3529 24.3604L27.8529 25.8605L38.1388 36.1465L39.6389 34.6463Z" fill="white"/>
<path d="M22.701 39.7998C22.9101 40.0805 23.142 40.3495 23.3968 40.6043C23.6516 40.859 23.9205 41.0909 24.2011 41.2999L21.8108 43.6901C21.3966 44.1043 20.725 44.1043 20.3107 43.6901C19.8965 43.2759 19.8964 42.6042 20.3107 42.1899L22.701 39.7998Z" fill="white"/>
<path d="M38.5457 26.9529L37.0456 25.4528L39.3812 23.1172L40.8813 24.6173L38.5457 26.9529Z" fill="white"/>
<path d="M36.4895 37.7968L32.4087 33.716C31.9944 33.3017 31.3228 33.3017 30.9085 33.716C30.4943 34.1302 30.4943 34.8018 30.9085 35.2161L34.9893 39.2969L36.4895 37.7968Z" fill="white"/>
<path d="M34.1752 40.1112L31.8472 37.7834C31.4331 37.3691 30.7613 37.3691 30.3472 37.7834C29.9329 38.1976 29.9329 38.8692 30.3472 39.2835L32.5764 41.5128C32.9668 41.2518 33.3376 40.9488 33.6823 40.6042L34.1752 40.1112Z" fill="white"/>
<path d="M128 32H144M144 32L138 26M144 32L138 38" stroke="white" stroke-linecap="round" stroke-linejoin="round"/>
</svg>
