<svg width="58" height="60" viewBox="0 0 58 60" fill="none" xmlns="http://www.w3.org/2000/svg">
<path d="M40.7749 26.63C35.218 26.63 30.6715 22.0834 30.6715 16.5265C30.6715 13.4232 32.0787 10.6087 34.3159 8.76839C33.0169 8.33538 31.6096 8.08288 30.2023 8.08288C27.5681 8.08288 24.9701 8.87664 22.7329 10.3922C22.7329 10.3922 19.9905 12.8098 15.5522 13.9645C15.1192 14.0727 14.6861 13.8202 14.5779 13.3872C14.4336 12.9542 14.7223 12.5212 15.1192 12.413C17.8255 11.6912 19.8462 10.4644 20.8926 9.74266C18.3307 8.22713 15.7327 8.04675 14.0006 8.04675C12.7016 8.04675 11.3665 8.26326 10.1036 8.66014C4.43833 10.4644 0.396879 15.913 0.0721228 22.2639C-1.31063e-07 22.5887 0 22.8412 0 23.0938C0 23.7794 -4.43597e-07 26.3052 0.396879 29.9858C0.757764 33.3777 1.94854 36.6614 3.75269 39.476C3.82495 39.5842 3.89707 39.6563 3.89707 39.8007C4.00532 40.4862 4.07745 41.1719 4.1857 41.8935L4.4022 44.0226C4.90747 48.7856 5.37647 52.9352 8.80454 58.2757C9.70655 59.6468 11.3303 60.2964 12.8459 59.8633C14.5058 59.3943 15.5883 57.8427 15.5883 56.0385V50.1568C15.5883 46.2597 18.5111 43.1204 22.0473 43.1204C23.9958 43.1204 25.8361 44.0585 27.0269 45.6463C28.0373 46.9092 28.5785 48.4969 28.5785 50.1568V56.0385C28.5785 57.8427 29.6611 59.3582 31.321 59.8633C32.9086 60.2964 34.4241 59.683 35.3263 58.2757C35.651 57.7706 35.9035 57.3735 36.12 56.9405C36.2644 56.724 36.3727 56.5075 36.5531 56.2189L36.6613 56.0745C38.9346 51.7444 39.3316 48.2083 39.7646 44.0947C39.9089 42.7957 40.0532 41.3163 40.3059 39.8367C40.3059 39.6925 40.3059 39.6202 40.4501 39.512C40.9554 38.7182 41.4605 37.8161 41.9657 36.7697C42.9399 34.6406 43.5173 32.3313 43.7699 30.058C43.9142 28.5064 44.0224 27.1712 44.0947 26.0887C43.0482 26.4857 41.9297 26.6661 40.7389 26.6661L40.7749 26.63Z" fill="#FFC487"/>
<path d="M52.1413 13.7479C51.8166 13.7479 51.5279 13.5314 51.4918 13.2067C51.4197 12.8459 51.6723 12.4851 52.0331 12.4129L56.1828 11.6912C56.5437 11.619 56.9044 11.8717 56.9767 12.2324C57.0488 12.5933 56.7962 12.9542 56.4354 13.0263L52.2857 13.7479C52.2857 13.7479 52.2136 13.7479 52.1775 13.7479H52.1413Z" fill="#FF6859"/>
<path d="M52.1417 14.5418C51.4201 14.5418 50.8067 14.0366 50.6984 13.3149C50.6262 12.918 50.6984 12.5571 50.9509 12.2324C51.1674 11.9076 51.5283 11.6911 51.8892 11.619L56.0388 10.8973C56.3997 10.8251 56.7965 10.8973 57.1213 11.1138C57.4461 11.3303 57.6626 11.6911 57.7348 12.0881C57.8069 12.485 57.7348 12.8819 57.4822 13.2066C57.2657 13.5314 56.9048 13.7479 56.5079 13.8201L52.1057 14.5779L52.1417 14.5418Z" fill="#FF6859"/>
<path d="M49.6516 8.66021C49.6516 8.66021 49.2909 8.58809 49.1826 8.47983C48.93 8.2272 48.93 7.79419 49.1826 7.54156L52.791 3.93325C53.0436 3.68062 53.4766 3.68062 53.7292 3.93325C53.9817 4.18575 53.9817 4.61875 53.7292 4.87139L50.1208 8.47983C50.1208 8.47983 49.8322 8.66021 49.6516 8.66021Z" fill="#FF6859"/>
<path d="M49.6513 9.4541C49.2544 9.4541 48.8935 9.30972 48.6049 9.02109C48.0275 8.4437 48.0275 7.50556 48.6049 6.92817L52.2134 3.31973C52.502 3.0311 52.8629 2.88672 53.2598 2.88672C53.6566 2.88672 54.0175 3.0311 54.3061 3.31973C54.8835 3.89712 54.8835 4.83526 54.3061 5.41264L50.6978 9.02109C50.4091 9.30972 50.0483 9.4541 49.6513 9.4541Z" fill="#FF6859"/>
<path d="M44.8888 6.17043C44.8888 6.17043 44.8528 6.17043 44.8166 6.17043C44.4557 6.17043 44.1671 5.80955 44.2033 5.44866L44.528 1.40734C44.528 1.04646 44.8888 0.793823 45.2496 0.793823C45.6105 0.793823 45.8992 1.15471 45.863 1.51559L45.5383 5.55691C45.5383 5.9178 45.2135 6.17043 44.8528 6.17043H44.8888Z" fill="#FF6859"/>
<path d="M44.8885 6.96418H44.7803C43.9865 6.89205 43.373 6.17042 43.4452 5.37653L43.77 1.33507C43.8421 0.577308 44.4916 0 45.2494 0H45.3215C45.7545 0 46.1154 0.216504 46.368 0.505172C46.6205 0.793812 46.7288 1.19083 46.7288 1.58771L46.404 5.62916C46.3319 6.38692 45.7185 6.96418 44.9246 6.96418H44.8885Z" fill="#FF6859"/>
<path d="M40.7753 23.0937C44.4024 23.0937 47.3426 20.1535 47.3426 16.5265C47.3426 12.8995 44.4024 9.95911 40.7753 9.95911C37.1483 9.95911 34.208 12.8995 34.208 16.5265C34.208 20.1535 37.1483 23.0937 40.7753 23.0937Z" fill="#FF6859"/>
</svg>
