<svg width="32" height="32" viewBox="0 0 32 32" fill="none" xmlns="http://www.w3.org/2000/svg">
<path d="M14.5208 18.5938C15.3732 17.8675 16.6268 17.8675 17.4791 18.5938C17.8443 18.9051 18.2984 19.0932 18.7768 19.1314C19.8931 19.2204 20.7795 20.1069 20.8686 21.2232C20.9068 21.7015 21.0949 22.1556 21.4061 22.5209C22.1325 23.3732 22.1325 24.6268 21.4061 25.4791C21.0949 25.8444 20.9068 26.2985 20.8686 26.7768C20.7795 27.8931 19.8931 28.7796 18.7768 28.8686C18.2984 28.9068 17.8443 29.0949 17.4791 29.4062C16.6268 30.1325 15.3732 30.1325 14.5208 29.4062C14.1556 29.0949 13.7015 28.9068 13.2231 28.8686C12.1068 28.7796 11.2204 27.8931 11.1313 26.7768C11.0932 26.2985 10.905 25.8444 10.5938 25.4791C9.86745 24.6268 9.86745 23.3732 10.5938 22.5209C10.905 22.1556 11.0932 21.7015 11.1313 21.2232C11.2204 20.1069 12.1068 19.2204 13.2231 19.1314C13.7015 19.0932 14.1556 18.9051 14.5208 18.5938Z" fill="#96BFFF"/>
<path d="M28.1617 22.8284L27.8082 22.4749L28.1617 22.8284ZM28.1617 3.83824L28.5153 3.48468V3.48468L28.1617 3.83824ZM3.8382 3.83824L3.48465 3.48468L3.48464 3.48468L3.8382 3.83824ZM3.8382 22.8284L4.19175 22.4749H4.19175L3.8382 22.8284ZM23.0928 23.9943L23.0944 24.4943L23.0981 24.4943L23.0928 23.9943ZM12 7.5C11.7238 7.5 11.5 7.72385 11.5 8C11.5 8.27614 11.7238 8.5 12 8.5V8V7.5ZM20 8.5C20.2761 8.5 20.5 8.27614 20.5 8C20.5 7.72385 20.2761 7.5 20 7.5V8V8.5ZM9.33329 12.1667C9.05715 12.1667 8.83329 12.3905 8.83329 12.6667C8.83329 12.9428 9.05715 13.1667 9.33329 13.1667V12.6667V12.1667ZM22.6666 13.1667C22.9428 13.1667 23.1666 12.9428 23.1666 12.6667C23.1666 12.3905 22.9428 12.1667 22.6666 12.1667V12.6667V13.1667ZM13.2231 19.1314L13.2629 19.6298L13.2231 19.1314ZM14.5208 18.5938L14.1965 18.2133L14.5208 18.5938ZM11.1313 21.2232L11.6297 21.2629L11.1313 21.2232ZM10.5938 22.5209L10.2132 22.1966L10.5938 22.5209ZM10.5938 25.4791L10.2132 25.8034L10.5938 25.4791ZM11.1313 26.7768L10.6329 26.8166L11.1313 26.7768ZM13.2231 28.8686L13.2629 28.3702L13.2231 28.8686ZM14.5208 29.4062L14.8451 29.0256L14.5208 29.4062ZM17.4791 29.4062L17.1548 29.0256L17.4791 29.4062ZM18.7768 28.8686L18.737 28.3702L18.7768 28.8686ZM20.8686 26.7768L20.3702 26.7371L20.8686 26.7768ZM21.4061 25.4791L21.0256 25.1548L21.4061 25.4791ZM21.4061 22.5209L21.0256 22.8452L21.4061 22.5209ZM20.8686 21.2232L20.3702 21.2629L20.8686 21.2232ZM18.7768 19.1314L18.8166 18.6329L18.7768 19.1314ZM17.4791 18.5938L17.8034 18.2133L17.4791 18.5938ZM14.3411 23.9011C14.1392 23.7127 13.8228 23.7236 13.6344 23.9255C13.446 24.1274 13.4569 24.4438 13.6588 24.6322L14 24.2667L14.3411 23.9011ZM15.1428 25.3333L14.8017 25.6989C14.9938 25.8782 15.2919 25.8782 15.484 25.6989L15.1428 25.3333ZM18.3411 23.0322C18.543 22.8438 18.5539 22.5274 18.3655 22.3255C18.1771 22.1236 17.8607 22.1127 17.6588 22.3011L18 22.6667L18.3411 23.0322ZM2.66663 16H3.16663V10.6667H2.66663H2.16663V16H2.66663ZM10.6666 2.66666V3.16666H21.3333V2.66666V2.16666H10.6666V2.66666ZM29.3333 10.6667H28.8333V16H29.3333H29.8333V10.6667H29.3333ZM29.3333 16H28.8333C28.8333 17.8997 28.8322 19.2743 28.6913 20.3225C28.5523 21.3563 28.2856 21.9975 27.8082 22.4749L28.1617 22.8284L28.5153 23.182C29.2094 22.4878 29.5285 21.6004 29.6824 20.4557C29.8344 19.3254 29.8333 17.8715 29.8333 16H29.3333ZM21.3333 2.66666V3.16666C23.233 3.16666 24.6076 3.16773 25.6558 3.30865C26.6896 3.44764 27.3308 3.71439 27.8082 4.19179L28.1617 3.83824L28.5153 3.48468C27.8211 2.79051 26.9337 2.47147 25.789 2.31757C24.6587 2.1656 23.2048 2.16666 21.3333 2.16666V2.66666ZM29.3333 10.6667H29.8333C29.8333 8.79518 29.8344 7.34127 29.6824 6.21095C29.5285 5.06625 29.2094 4.17885 28.5153 3.48468L28.1617 3.83824L27.8082 4.19179C28.2856 4.66919 28.5523 5.31039 28.6913 6.3442C28.8322 7.39239 28.8333 8.76691 28.8333 10.6667H29.3333ZM2.66663 10.6667H3.16663C3.16663 8.76691 3.16769 7.3924 3.30861 6.3442C3.44761 5.31039 3.71435 4.66919 4.19175 4.19179L3.8382 3.83824L3.48464 3.48468C2.79047 4.17886 2.47143 5.06625 2.31753 6.21095C2.16556 7.34127 2.16663 8.79518 2.16663 10.6667H2.66663ZM10.6666 2.66666V2.16666C8.79514 2.16666 7.34123 2.1656 6.21091 2.31757C5.06621 2.47147 4.17882 2.79051 3.48465 3.48468L3.8382 3.83824L4.19175 4.19179C4.66915 3.71439 5.31035 3.44764 6.34416 3.30865C7.39236 3.16773 8.76687 3.16666 10.6666 3.16666V2.66666ZM2.66663 16H2.16663C2.16663 17.8715 2.16556 19.3254 2.31753 20.4557C2.47143 21.6004 2.79047 22.4878 3.48465 23.182L3.8382 22.8284L4.19175 22.4749C3.71435 21.9975 3.44761 21.3563 3.30861 20.3225C3.16769 19.2743 3.16663 17.8997 3.16663 16H2.66663ZM23.0928 23.9943L23.0981 24.4943C24.4128 24.4803 25.4798 24.4326 26.3483 24.2558C27.2306 24.0761 27.94 23.7572 28.5153 23.182L28.1617 22.8284L27.8082 22.4749C27.4102 22.8728 26.9002 23.1229 26.1488 23.2759C25.3837 23.4317 24.4028 23.4804 23.0875 23.4943L23.0928 23.9943ZM9.33329 23.9977L9.33608 23.4977C7.88207 23.4896 6.80652 23.4526 5.97276 23.2994C5.15328 23.1489 4.61018 22.8933 4.19175 22.4749L3.8382 22.8284L3.48465 23.182C4.09073 23.7881 4.84516 24.109 5.79209 24.283C6.72474 24.4543 7.88448 24.4896 9.33051 24.4977L9.33329 23.9977ZM23.0928 23.9943L23.0913 23.4943L21.9984 23.4977L22 23.9977L22.0015 24.4977L23.0944 24.4943L23.0928 23.9943ZM12 8V8.5H20V8V7.5H12V8ZM9.33329 12.6667V13.1667H22.6666V12.6667V12.1667H9.33329V12.6667ZM13.2231 19.1314L13.2629 19.6298C13.8461 19.5832 14.3998 19.3539 14.8451 18.9744L14.5208 18.5938L14.1965 18.2133C13.9114 18.4563 13.5568 18.6031 13.1833 18.6329L13.2231 19.1314ZM11.1313 21.2232L11.6297 21.2629C11.6993 20.3914 12.3914 19.6993 13.2629 19.6298L13.2231 19.1314L13.1833 18.6329C11.8223 18.7416 10.7415 19.8223 10.6329 21.1834L11.1313 21.2232ZM10.5938 22.5209L10.9743 22.8452C11.3539 22.3999 11.5832 21.8462 11.6297 21.2629L11.1313 21.2232L10.6329 21.1834C10.6031 21.5569 10.4562 21.9114 10.2132 22.1966L10.5938 22.5209ZM10.5938 25.4791L10.9743 25.1548C10.4073 24.4894 10.4073 23.5106 10.9743 22.8452L10.5938 22.5209L10.2132 22.1966C9.32763 23.2358 9.32763 24.7642 10.2132 25.8034L10.5938 25.4791ZM11.1313 26.7768L11.6297 26.7371C11.5832 26.1538 11.3539 25.6001 10.9743 25.1548L10.5938 25.4791L10.2132 25.8034C10.4562 26.0886 10.6031 26.4431 10.6329 26.8166L11.1313 26.7768ZM13.2231 28.8686L13.2629 28.3702C12.3914 28.3007 11.6993 27.6086 11.6297 26.7371L11.1313 26.7768L10.6329 26.8166C10.7415 28.1777 11.8223 29.2584 13.1833 29.367L13.2231 28.8686ZM14.5208 29.4062L14.8451 29.0256C14.3998 28.6461 13.8461 28.4168 13.2629 28.3702L13.2231 28.8686L13.1833 29.367C13.5568 29.3968 13.9114 29.5437 14.1965 29.7867L14.5208 29.4062ZM17.4791 29.4062L17.1548 29.0256C16.4893 29.5927 15.5106 29.5927 14.8451 29.0256L14.5208 29.4062L14.1965 29.7867C15.2357 30.6723 16.7642 30.6723 17.8034 29.7867L17.4791 29.4062ZM18.7768 28.8686L18.737 28.3702C18.1538 28.4168 17.6001 28.6461 17.1548 29.0256L17.4791 29.4062L17.8034 29.7867C18.0885 29.5437 18.4431 29.3968 18.8166 29.367L18.7768 28.8686ZM20.8686 26.7768L20.3702 26.7371C20.3006 27.6086 19.6086 28.3007 18.737 28.3702L18.7768 28.8686L18.8166 29.367C20.1776 29.2584 21.2584 28.1777 21.367 26.8166L20.8686 26.7768ZM21.4061 25.4791L21.0256 25.1548C20.6461 25.6001 20.4167 26.1538 20.3702 26.7371L20.8686 26.7768L21.367 26.8166C21.3968 26.4431 21.5437 26.0886 21.7867 25.8034L21.4061 25.4791ZM21.4061 22.5209L21.0256 22.8452C21.5927 23.5106 21.5927 24.4894 21.0256 25.1548L21.4061 25.4791L21.7867 25.8034C22.6723 24.7642 22.6723 23.2358 21.7867 22.1966L21.4061 22.5209ZM20.8686 21.2232L20.3702 21.2629C20.4167 21.8462 20.6461 22.3999 21.0256 22.8452L21.4061 22.5209L21.7867 22.1966C21.5437 21.9114 21.3968 21.5569 21.367 21.1834L20.8686 21.2232ZM18.7768 19.1314L18.737 19.6298C19.6086 19.6993 20.3006 20.3914 20.3702 21.2629L20.8686 21.2232L21.367 21.1834C21.2584 19.8223 20.1776 18.7416 18.8166 18.6329L18.7768 19.1314ZM17.4791 18.5938L17.1548 18.9744C17.6001 19.3539 18.1538 19.5832 18.737 19.6298L18.7768 19.1314L18.8166 18.6329C18.4431 18.6031 18.0885 18.4563 17.8034 18.2133L17.4791 18.5938ZM17.4791 18.5938L17.8034 18.2133C16.7642 17.3277 15.2357 17.3277 14.1965 18.2133L14.5208 18.5938L14.8451 18.9744C15.5106 18.4073 16.4893 18.4073 17.1548 18.9744L17.4791 18.5938ZM14 24.2667L13.6588 24.6322L14.8017 25.6989L15.1428 25.3333L15.484 24.9678L14.3411 23.9011L14 24.2667ZM15.1428 25.3333L15.484 25.6989L18.3411 23.0322L18 22.6667L17.6588 22.3011L14.8017 24.9678L15.1428 25.3333Z" fill="#0D47A1"/>
</svg>
