<svg width="32" height="32" viewBox="0 0 32 32" fill="none" xmlns="http://www.w3.org/2000/svg">
<path d="M16.75 4C16.75 3.58579 16.4142 3.25 16 3.25C15.5858 3.25 15.25 3.58579 15.25 4H16H16.75ZM16 21.3333L15.4465 21.8394C15.5886 21.9948 15.7894 22.0833 16 22.0833C16.2106 22.0833 16.4114 21.9948 16.5535 21.8394L16 21.3333ZM21.8869 16.0061C22.1664 15.7004 22.1451 15.226 21.8394 14.9465C21.5337 14.667 21.0593 14.6882 20.7798 14.9939L21.3333 15.5L21.8869 16.0061ZM11.2202 14.9939C10.9407 14.6882 10.4663 14.667 10.1606 14.9465C9.85489 15.226 9.83365 15.7004 10.1131 16.0061L10.6667 15.5L11.2202 14.9939ZM20 28V27.25H12V28V28.75H20V28ZM12 28V27.25C10.0932 27.25 8.73851 27.2484 7.71085 27.1102C6.70476 26.975 6.12511 26.7213 5.7019 26.2981L5.17157 26.8284L4.64124 27.3588C5.38961 28.1071 6.33856 28.4392 7.51098 28.5969C8.66182 28.7516 10.1356 28.75 12 28.75V28ZM4 20H3.25C3.25 21.8644 3.24841 23.3382 3.40313 24.489C3.56076 25.6614 3.89288 26.6104 4.64124 27.3588L5.17157 26.8284L5.7019 26.2981C5.27869 25.8749 5.02502 25.2952 4.88976 24.2892C4.75159 23.2615 4.75 21.9068 4.75 20H4ZM28 20H27.25C27.25 21.9068 27.2484 23.2615 27.1102 24.2892C26.975 25.2952 26.7213 25.8749 26.2981 26.2981L26.8284 26.8284L27.3588 27.3588C28.1071 26.6104 28.4392 25.6614 28.5969 24.489C28.7516 23.3382 28.75 21.8644 28.75 20H28ZM20 28V28.75C21.8644 28.75 23.3382 28.7516 24.489 28.5969C25.6614 28.4392 26.6104 28.1071 27.3588 27.3588L26.8284 26.8284L26.2981 26.2981C25.8749 26.7213 25.2952 26.975 24.2892 27.1102C23.2615 27.2484 21.9068 27.25 20 27.25V28ZM16 4H15.25V21.3333H16H16.75V4H16ZM16 21.3333L16.5535 21.8394L21.8869 16.0061L21.3333 15.5L20.7798 14.9939L15.4465 20.8273L16 21.3333ZM16 21.3333L16.5535 20.8273L11.2202 14.9939L10.6667 15.5L10.1131 16.0061L15.4465 21.8394L16 21.3333Z" fill="#424242"/>
</svg>
