<svg width="24" height="24" viewBox="0 0 24 24" fill="none" xmlns="http://www.w3.org/2000/svg">
<path d="M2 12C2 7.28595 2 4.92893 3.46447 3.46447C4.92893 2 7.28595 2 12 2C16.714 2 19.0711 2 20.5355 3.46447C22 4.92893 22 7.28595 22 12C22 16.714 22 19.0711 20.5355 20.5355C19.0711 22 16.714 22 12 22C7.28595 22 4.92893 22 3.46447 20.5355C2 19.0711 2 16.714 2 12Z" fill="#96BFFF"/>
<path d="M12.5 7C12.5 6.72386 12.2761 6.5 12 6.5C11.7239 6.5 11.5 6.72386 11.5 7H12H12.5ZM12 14L11.6464 14.3536C11.8417 14.5488 12.1583 14.5488 12.3536 14.3536L12 14ZM15.3536 11.3536C15.5488 11.1583 15.5488 10.8417 15.3536 10.6464C15.1583 10.4512 14.8417 10.4512 14.6464 10.6464L15 11L15.3536 11.3536ZM9.35355 10.6464C9.15829 10.4512 8.84171 10.4512 8.64645 10.6464C8.45118 10.8417 8.45118 11.1583 8.64645 11.3536L9 11L9.35355 10.6464ZM16 17.5C16.2761 17.5 16.5 17.2761 16.5 17C16.5 16.7239 16.2761 16.5 16 16.5V17V17.5ZM8 16.5C7.72386 16.5 7.5 16.7239 7.5 17C7.5 17.2761 7.72386 17.5 8 17.5V17V16.5ZM12 7H11.5V14H12H12.5V7H12ZM12 14L12.3536 14.3536L15.3536 11.3536L15 11L14.6464 10.6464L11.6464 13.6464L12 14ZM12 14L12.3536 13.6464L9.35355 10.6464L9 11L8.64645 11.3536L11.6464 14.3536L12 14ZM12 22V21.5C9.62884 21.5 7.90077 21.4989 6.58026 21.3214C5.27414 21.1458 4.44187 20.8058 3.81802 20.182L3.46447 20.5355L3.11091 20.8891C3.95153 21.7297 5.03 22.122 6.44702 22.3125C7.84965 22.5011 9.65711 22.5 12 22.5V22ZM2 12H1.5C1.5 14.3429 1.49894 16.1504 1.68752 17.553C1.87803 18.97 2.2703 20.0485 3.11091 20.8891L3.46447 20.5355L3.81802 20.182C3.19417 19.5581 2.8542 18.7259 2.6786 17.4197C2.50106 16.0992 2.5 14.3712 2.5 12H2ZM22 12H21.5C21.5 14.3712 21.4989 16.0992 21.3214 17.4197C21.1458 18.7259 20.8058 19.5581 20.182 20.182L20.5355 20.5355L20.8891 20.8891C21.7297 20.0485 22.122 18.97 22.3125 17.553C22.5011 16.1504 22.5 14.3429 22.5 12H22ZM12 22V22.5C14.3429 22.5 16.1504 22.5011 17.553 22.3125C18.97 22.122 20.0485 21.7297 20.8891 20.8891L20.5355 20.5355L20.182 20.182C19.5581 20.8058 18.7259 21.1458 17.4197 21.3214C16.0992 21.4989 14.3712 21.5 12 21.5V22ZM12 2V2.5C14.3712 2.5 16.0992 2.50106 17.4197 2.6786C18.7259 2.8542 19.5581 3.19417 20.182 3.81802L20.5355 3.46447L20.8891 3.11091C20.0485 2.2703 18.97 1.87803 17.553 1.68752C16.1504 1.49894 14.3429 1.5 12 1.5V2ZM22 12H22.5C22.5 9.65711 22.5011 7.84965 22.3125 6.44702C22.122 5.03 21.7297 3.95153 20.8891 3.11091L20.5355 3.46447L20.182 3.81802C20.8058 4.44187 21.1458 5.27414 21.3214 6.58026C21.4989 7.90077 21.5 9.62884 21.5 12H22ZM12 2V1.5C9.65711 1.5 7.84965 1.49894 6.44702 1.68752C5.03 1.87803 3.95153 2.2703 3.11091 3.11091L3.46447 3.46447L3.81802 3.81802C4.44187 3.19417 5.27414 2.8542 6.58026 2.6786C7.90077 2.50106 9.62884 2.5 12 2.5V2ZM2 12H2.5C2.5 9.62884 2.50106 7.90077 2.6786 6.58026C2.8542 5.27414 3.19417 4.44187 3.81802 3.81802L3.46447 3.46447L3.11091 3.11091C2.2703 3.95153 1.87803 5.03 1.68752 6.44702C1.49894 7.84965 1.5 9.65711 1.5 12H2ZM16 17V16.5H8V17V17.5H16V17Z" fill="#424242"/>
</svg>
