<svg width="32" height="32" viewBox="0 0 32 32" fill="none" xmlns="http://www.w3.org/2000/svg">
<path d="M6.82344 14.195L12.2047 5.6589C13.0022 4.39376 13.401 3.76118 13.8227 3.42217C15.0761 2.41462 16.9232 2.41462 18.1766 3.42217C18.5983 3.76118 18.9971 4.39377 19.7947 5.6589L25.1759 14.195C27.6601 18.1355 26.9875 23.1576 23.542 26.3965C19.3765 30.3121 12.6229 30.3121 8.45737 26.3965C5.01181 23.1576 4.33929 18.1355 6.82344 14.195Z" fill="#96BFFF"/>
<path d="M10.6051 15.9998C8.48486 18.5835 9.05886 21.8762 11.9997 23.9998M12.2047 5.6589L6.82344 14.195C4.33929 18.1355 5.01181 23.1576 8.45737 26.3965C12.6229 30.3121 19.3765 30.3121 23.542 26.3965C26.9875 23.1576 27.6601 18.1355 25.1759 14.195L19.7947 5.6589C18.9971 4.39377 18.5983 3.76118 18.1766 3.42217C16.9232 2.41462 15.0761 2.41462 13.8227 3.42217C13.401 3.76118 13.0022 4.39376 12.2047 5.6589Z" stroke="#0D47A1" stroke-linecap="round"/>
</svg>
