<svg width="32" height="32" viewBox="0 0 32 32" fill="none" xmlns="http://www.w3.org/2000/svg">
<rect width="32" height="32" rx="16" fill="#424242"/>
<path d="M18.8782 7.24917L17.4537 6.03526C16.6163 5.32158 15.3837 5.32158 14.5463 6.03526L13.1217 7.24921C12.7628 7.55503 12.3166 7.73978 11.8465 7.77728L9.98239 7.92597C8.88557 8.01349 8.0132 8.88448 7.92568 9.9813L7.77643 11.8469C7.73892 12.317 7.55539 12.763 7.24956 13.1218L6.03509 14.5466C5.32141 15.384 5.32175 16.6155 6.03543 17.453L7.24881 18.8777C7.55463 19.2366 7.73994 19.6826 7.77745 20.1526L7.9267 22.0182C8.01423 23.1151 8.88408 23.9861 9.9809 24.0736L11.8471 24.2223C12.3171 24.2598 12.7631 24.4445 13.122 24.7503L14.5462 25.9643C15.3836 26.678 16.6163 26.6779 17.4537 25.9642L18.8779 24.7502C19.2367 24.4444 19.6828 24.26 20.1528 24.2225L22.019 24.0736C23.1158 23.9861 23.9857 23.1149 24.0732 22.018L24.2224 20.1525C24.2599 19.6825 24.4453 19.2361 24.7511 18.8772L25.9645 17.4529C26.6781 16.6155 26.678 15.3836 25.9643 14.5461L24.751 13.1221C24.4451 12.7632 24.2596 12.317 24.2221 11.8469L24.0738 9.98108C23.9862 8.88426 23.115 8.01361 22.0182 7.92608L20.1527 7.7774C19.6826 7.73989 19.2371 7.555 18.8782 7.24917Z" fill="#F04248"/>
<path d="M15.9999 11.8583V16.525M17.4537 6.03526L18.8782 7.24917C19.237 7.555 19.6826 7.73989 20.1527 7.7774L22.0182 7.92608C23.115 8.01361 23.9862 8.88426 24.0738 9.98108L24.2221 11.8469C24.2596 12.317 24.4451 12.7632 24.751 13.1221L25.9643 14.5461C26.678 15.3836 26.6781 16.6155 25.9645 17.4529L24.7511 18.8772C24.4453 19.2361 24.2599 19.6825 24.2224 20.1525L24.0732 22.018C23.9857 23.1149 23.1158 23.9861 22.019 24.0736L20.1528 24.2225C19.6828 24.26 19.2367 24.4444 18.8779 24.7502L17.4537 25.9642C16.6163 26.6779 15.3836 26.678 14.5462 25.9643L13.122 24.7503C12.7631 24.4445 12.3171 24.2598 11.8471 24.2223L9.9809 24.0736C8.88408 23.9861 8.01423 23.1151 7.9267 22.0182L7.77745 20.1526C7.73994 19.6826 7.55463 19.2366 7.24881 18.8777L6.03543 17.453C5.32175 16.6155 5.32141 15.384 6.03509 14.5466L7.24956 13.1218C7.55539 12.763 7.73892 12.317 7.77643 11.8469L7.92568 9.9813C8.0132 8.88448 8.88557 8.01349 9.98239 7.92596L11.8465 7.77728C12.3166 7.73978 12.7628 7.55503 13.1217 7.24921L14.5463 6.03526C15.3837 5.32158 16.6163 5.32158 17.4537 6.03526ZM16.0581 20.025V20.1417L15.9418 20.1412V20.025H16.0581Z" stroke="#424242" stroke-width="2" stroke-linecap="round" stroke-linejoin="round"/>
</svg>
