<svg width="40" height="40" viewBox="0 0 40 40" fill="none" xmlns="http://www.w3.org/2000/svg">
<path d="M14.512 9.15579L14.7757 9.58062L14.512 9.15579ZM25.488 9.15578L25.2243 9.58062L25.488 9.15578ZM28.1546 10.8108L28.4183 10.386H28.4183L28.1546 10.8108ZM11.8454 10.8108L12.109 11.2356L11.8454 10.8108ZM24 28.5C24.2761 28.5 24.5 28.2761 24.5 28C24.5 27.7238 24.2761 27.5 24 27.5V28.5ZM16 27.5C15.7239 27.5 15.5 27.7238 15.5 28C15.5 28.2761 15.7239 28.5 16 28.5V27.5ZM22.6667 33.3333V32.8333H17.3333V33.3333V33.8333H22.6667V33.3333ZM11.8454 10.8108L12.109 11.2356L14.7757 9.58062L14.512 9.15579L14.2484 8.73096L11.5817 10.386L11.8454 10.8108ZM25.488 9.15578L25.2243 9.58062L27.891 11.2356L28.1546 10.8108L28.4183 10.386L25.7516 8.73095L25.488 9.15578ZM6.66666 22.2999H7.16666V20.2719H6.66666H6.16666V22.2999H6.66666ZM33.3333 20.2719H32.8333V22.2999H33.3333H33.8333V20.2719H33.3333ZM14.512 9.15579L14.7757 9.58062C16.1213 8.74548 17.0988 8.13956 17.9234 7.73857C18.7377 7.34256 19.3641 7.16663 20 7.16663V6.66663V6.16663C19.1586 6.16663 18.3779 6.40555 17.4861 6.83926C16.6044 7.268 15.5766 7.90665 14.2484 8.73096L14.512 9.15579ZM25.488 9.15578L25.7516 8.73095C24.4234 7.90665 23.3956 7.26799 22.5139 6.83926C21.6221 6.40555 20.8414 6.16663 20 6.16663V6.66663V7.16663C20.6359 7.16663 21.2623 7.34256 22.0766 7.73857C22.9012 8.13956 23.8787 8.74548 25.2243 9.58062L25.488 9.15578ZM17.3333 33.3333V32.8333C14.8046 32.8333 12.96 32.8322 11.5501 32.6361C10.1563 32.4423 9.26166 32.0665 8.58824 31.37L8.22876 31.7175L7.86928 32.065C8.75796 32.9842 9.90141 33.4164 11.4123 33.6266C12.9071 33.8344 14.8338 33.8333 17.3333 33.8333V33.3333ZM6.66666 22.2999H6.16666C6.16666 24.8868 6.16567 26.8757 6.3661 28.4177C6.56817 29.9724 6.9829 31.1482 7.86928 32.065L8.22876 31.7175L8.58824 31.37C7.91253 30.671 7.5462 29.7386 7.35776 28.2888C7.16766 26.8262 7.16666 24.9142 7.16666 22.2999H6.66666ZM22.6667 33.3333V33.8333C25.1662 33.8333 27.0929 33.8344 28.5877 33.6266C30.0986 33.4164 31.242 32.9842 32.1307 32.065L31.7712 31.7175L31.4118 31.37C30.7383 32.0665 29.8437 32.4423 28.4499 32.6361C27.04 32.8322 25.1954 32.8333 22.6667 32.8333V33.3333ZM33.3333 22.2999H32.8333C32.8333 24.9142 32.8323 26.8262 32.6422 28.2888C32.4538 29.7386 32.0875 30.671 31.4118 31.37L31.7712 31.7175L32.1307 32.065C33.0171 31.1482 33.4318 29.9724 33.6339 28.4177C33.8343 26.8757 33.8333 24.8868 33.8333 22.2999H33.3333ZM28.1546 10.8108L27.891 11.2356C29.1639 12.0256 30.0879 12.5998 30.7828 13.1319C31.4686 13.6572 31.901 14.1196 32.2025 14.6704L32.6411 14.4303L33.0797 14.1902C32.6888 13.4762 32.1427 12.9139 31.3908 12.338C30.6479 11.7691 29.6748 11.1658 28.4183 10.386L28.1546 10.8108ZM33.3333 20.2719H33.8333C33.8333 18.7555 33.8338 17.584 33.7446 16.6343C33.6544 15.6746 33.47 14.9034 33.0797 14.1902L32.6411 14.4303L32.2025 14.6704C32.5044 15.2219 32.6661 15.8459 32.749 16.7279C32.8328 17.62 32.8333 18.737 32.8333 20.2719H33.3333ZM11.8454 10.8108L11.5817 10.386C10.3252 11.1658 9.35209 11.7691 8.6092 12.338C7.85725 12.9139 7.31116 13.4762 6.92034 14.1902L7.35893 14.4303L7.79753 14.6704C8.09897 14.1196 8.53137 13.6572 9.21722 13.1319C9.91212 12.5998 10.8361 12.0256 12.109 11.2356L11.8454 10.8108ZM6.66666 20.2719H7.16666C7.16666 18.737 7.16717 17.62 7.251 16.7279C7.33389 15.8459 7.49563 15.2219 7.79753 14.6704L7.35893 14.4303L6.92034 14.1902C6.52997 14.9034 6.34558 15.6746 6.25539 16.6343C6.16616 17.584 6.16666 18.7555 6.16666 20.2719H6.66666ZM24 28V27.5H16V28V28.5H24V28Z" fill="white"/>
</svg>
