<svg width="16" height="16" viewBox="0 0 16 16" fill="none" xmlns="http://www.w3.org/2000/svg">
<path d="M1.79258 4.46954C1.6838 4.21573 1.38986 4.09815 1.13605 4.20693C0.882233 4.31571 0.764657 4.60965 0.873435 4.86346L1.33301 4.6665L1.79258 4.46954ZM10.3911 8.88564L10.208 8.42038L10.208 8.42038L10.3911 8.88564ZM6.02731 9.15833C6.17791 8.92687 6.11237 8.61715 5.88091 8.46655C5.64945 8.31594 5.33973 8.38149 5.18912 8.61294L5.60822 8.88564L6.02731 9.15833ZM4.24725 10.0605C4.09664 10.2919 4.16219 10.6017 4.39365 10.7523C4.62511 10.9029 4.93483 10.8373 5.08543 10.6059L4.66634 10.3332L4.24725 10.0605ZM15.1259 4.86346C15.2347 4.60965 15.1171 4.31571 14.8633 4.20693C14.6095 4.09815 14.3155 4.21573 14.2068 4.46954L14.6663 4.6665L15.1259 4.86346ZM12.6663 7.41906L12.3242 7.0545L12.3242 7.0545L12.6663 7.41906ZM13.3128 8.77262C13.508 8.96788 13.8246 8.96788 14.0199 8.77262C14.2152 8.57735 14.2152 8.26077 14.0199 8.06551L13.6663 8.41906L13.3128 8.77262ZM7.49967 10.9998C7.49967 11.276 7.72353 11.4998 7.99967 11.4998C8.27582 11.4998 8.49967 11.276 8.49967 10.9998H7.99967H7.49967ZM10.9139 10.6059C11.0645 10.8373 11.3742 10.9029 11.6057 10.7523C11.8372 10.6017 11.9027 10.2919 11.7521 10.0605L11.333 10.3332L10.9139 10.6059ZM3.68656 7.77262C3.88182 7.57735 3.88182 7.26077 3.68656 7.06551C3.4913 6.87025 3.17472 6.87025 2.97945 7.06551L3.33301 7.41906L3.68656 7.77262ZM1.97945 8.06551C1.78419 8.26077 1.78419 8.57735 1.97945 8.77262C2.17472 8.96788 2.4913 8.96788 2.68656 8.77262L2.33301 8.41906L1.97945 8.06551ZM7.99967 9.33317V8.83317C5.85041 8.83317 4.30723 7.76291 3.28274 6.65961C2.77064 6.10812 2.39517 5.55506 2.14807 5.13993C2.0248 4.93284 1.93425 4.76138 1.87527 4.64342C1.8458 4.58447 1.82427 4.539 1.81052 4.50925C1.80365 4.49437 1.79874 4.48344 1.79575 4.47672C1.79426 4.47337 1.79325 4.47107 1.79272 4.46986C1.79246 4.46925 1.79231 4.46892 1.79229 4.46887C1.79228 4.46884 1.7923 4.46888 1.79235 4.469C1.79237 4.46905 1.79243 4.46919 1.79244 4.46922C1.79251 4.46937 1.79258 4.46954 1.33301 4.6665C0.873435 4.86346 0.873524 4.86367 0.873621 4.8639C0.873664 4.864 0.873768 4.86424 0.873854 4.86444C0.874024 4.86483 0.874226 4.8653 0.874459 4.86584C0.874924 4.86692 0.875514 4.86828 0.87623 4.86991C0.87766 4.87319 0.879591 4.87758 0.882025 4.88306C0.886893 4.894 0.893774 4.90927 0.902692 4.92858C0.920523 4.96718 0.946516 5.02197 0.980846 5.09063C1.04947 5.22788 1.15163 5.42101 1.28878 5.65141C1.56251 6.11128 1.97871 6.72488 2.54994 7.34006C3.69212 8.5701 5.48227 9.83317 7.99967 9.83317V9.33317ZM10.3911 8.88564L10.208 8.42038C9.56109 8.67501 8.82748 8.83317 7.99967 8.83317V9.33317V9.83317C8.95848 9.83317 9.81606 9.64933 10.5743 9.35089L10.3911 8.88564ZM5.60822 8.88564L5.18912 8.61294L4.24725 10.0605L4.66634 10.3332L5.08543 10.6059L6.02731 9.15833L5.60822 8.88564ZM14.6663 4.6665C14.2068 4.46954 14.2068 4.46944 14.2069 4.46935C14.2069 4.46932 14.2069 4.46923 14.2069 4.46919C14.207 4.46909 14.207 4.46901 14.207 4.46896C14.2071 4.46885 14.2071 4.46883 14.207 4.4689C14.207 4.46904 14.2068 4.46952 14.2064 4.47034C14.2057 4.47199 14.2044 4.475 14.2024 4.47933C14.1986 4.48799 14.1923 4.5019 14.1835 4.52067C14.166 4.55822 14.1387 4.61514 14.1014 4.68828C14.0268 4.83468 13.9124 5.04538 13.7566 5.29531C13.4443 5.79661 12.9705 6.44781 12.3242 7.0545L12.6663 7.41906L13.0085 7.78363C13.7346 7.10216 14.2608 6.37709 14.6053 5.82415C14.7781 5.54696 14.9064 5.31104 14.9923 5.14261C15.0352 5.05833 15.0677 4.99079 15.0899 4.94322C15.101 4.91943 15.1095 4.90062 15.1155 4.8872C15.1185 4.88049 15.1208 4.87512 15.1226 4.87115C15.1234 4.86916 15.1242 4.86752 15.1247 4.86624C15.125 4.8656 15.1252 4.86505 15.1254 4.86458C15.1255 4.86435 15.1256 4.86414 15.1257 4.86396C15.1257 4.86386 15.1258 4.86374 15.1258 4.86369C15.1259 4.86358 15.1259 4.86346 14.6663 4.6665ZM12.6663 7.41906L12.3242 7.0545C11.7515 7.592 11.0489 8.08939 10.208 8.42038L10.3911 8.88564L10.5743 9.35089C11.5567 8.96421 12.3641 8.38852 13.0085 7.78363L12.6663 7.41906ZM12.6663 7.41906L12.3128 7.77262L13.3128 8.77262L13.6663 8.41906L14.0199 8.06551L13.0199 7.06551L12.6663 7.41906ZM7.99967 9.33317H7.49967V10.9998H7.99967H8.49967V9.33317H7.99967ZM10.3911 8.88564L9.97204 9.15833L10.9139 10.6059L11.333 10.3332L11.7521 10.0605L10.8102 8.61294L10.3911 8.88564ZM3.33301 7.41906L2.97945 7.06551L1.97945 8.06551L2.33301 8.41906L2.68656 8.77262L3.68656 7.77262L3.33301 7.41906Z" fill="#2372EC"/>
</svg>
