<svg width="24" height="24" viewBox="0 0 24 24" fill="none" xmlns="http://www.w3.org/2000/svg">
<path d="M3.27489 15.2957C2.42496 14.1915 2 13.6394 2 12C2 10.3606 2.42496 9.80853 3.27489 8.70433C4.97196 6.49956 7.81811 4 12 4C16.1819 4 19.028 6.49956 20.7251 8.70433C21.575 9.80853 22 10.3606 22 12C22 13.6394 21.575 14.1915 20.7251 15.2957C19.028 17.5004 16.1819 20 12 20C7.81811 20 4.97196 17.5004 3.27489 15.2957Z" fill="#96BFFF"/>
<path d="M15 12C15 13.6569 13.6569 15 12 15C10.3431 15 9 13.6569 9 12C9 10.3431 10.3431 9 12 9C13.6569 9 15 10.3431 15 12Z" fill="#96BFFF"/>
<path d="M20.7251 8.70433L20.3289 9.00931L20.7251 8.70433ZM20.7251 15.2957L20.3289 14.9907L20.7251 15.2957ZM22 12H21.5H22ZM3.27489 8.70433L3.67111 9.00931L3.27489 8.70433ZM3.27489 15.2957L3.67111 14.9907L3.27489 15.2957ZM3.27489 8.70433L3.67111 9.00931C5.32308 6.86313 8.03961 4.5 12 4.5V4V3.5C7.59662 3.5 4.62085 6.13599 2.87868 8.39935L3.27489 8.70433ZM12 4V4.5C15.9604 4.5 18.6769 6.86313 20.3289 9.00931L20.7251 8.70433L21.1213 8.39935C19.3792 6.13598 16.4034 3.5 12 3.5V4ZM20.7251 15.2957L20.3289 14.9907C18.6769 17.1369 15.9604 19.5 12 19.5V20V20.5C16.4034 20.5 19.3792 17.864 21.1213 15.6006L20.7251 15.2957ZM12 20V19.5C8.03961 19.5 5.32308 17.1369 3.67111 14.9907L3.27489 15.2957L2.87868 15.6006C4.62085 17.864 7.59662 20.5 12 20.5V20ZM20.7251 8.70433L20.3289 9.00931C20.7629 9.5732 21.0404 9.93821 21.2239 10.3535C21.4 10.7522 21.5 11.2261 21.5 12H22H22.5C22.5 11.1346 22.3875 10.5127 22.1386 9.94942C21.8971 9.4028 21.5372 8.93965 21.1213 8.39935L20.7251 8.70433ZM20.7251 15.2957L21.1213 15.6006C21.5372 15.0603 21.8971 14.5972 22.1386 14.0506C22.3875 13.4873 22.5 12.8654 22.5 12H22H21.5C21.5 12.7739 21.4 13.2478 21.2239 13.6465C21.0404 14.0618 20.7629 14.4268 20.3289 14.9907L20.7251 15.2957ZM3.27489 8.70433L2.87868 8.39935C2.46279 8.93965 2.10285 9.4028 1.86137 9.94942C1.61251 10.5127 1.5 11.1346 1.5 12H2H2.5C2.5 11.2261 2.59997 10.7522 2.77608 10.3535C2.95956 9.93821 3.23707 9.5732 3.67111 9.00931L3.27489 8.70433ZM3.27489 15.2957L3.67111 14.9907C3.23707 14.4268 2.95956 14.0618 2.77608 13.6465C2.59997 13.2478 2.5 12.7739 2.5 12H2H1.5C1.5 12.8654 1.61251 13.4873 1.86137 14.0506C2.10285 14.5972 2.46279 15.0603 2.87868 15.6006L3.27489 15.2957ZM15 12H14.5C14.5 13.3807 13.3807 14.5 12 14.5V15V15.5C13.933 15.5 15.5 13.933 15.5 12H15ZM12 15V14.5C10.6193 14.5 9.5 13.3807 9.5 12H9H8.5C8.5 13.933 10.067 15.5 12 15.5V15ZM9 12H9.5C9.5 10.6193 10.6193 9.5 12 9.5V9V8.5C10.067 8.5 8.5 10.067 8.5 12H9ZM12 9V9.5C13.3807 9.5 14.5 10.6193 14.5 12H15H15.5C15.5 10.067 13.933 8.5 12 8.5V9Z" fill="#424242"/>
</svg>
