<svg width="24" height="24" viewBox="0 0 24 24" fill="none" xmlns="http://www.w3.org/2000/svg">
<path d="M9.44661 15.3975C9.11385 15.1508 8.64413 15.2206 8.39747 15.5534C8.15082 15.8862 8.22062 16.3559 8.55339 16.6025L9 16L9.44661 15.3975ZM22.75 14C22.75 13.5858 22.4142 13.25 22 13.25C21.5858 13.25 21.25 13.5858 21.25 14H22H22.75ZM14 21.25C13.5858 21.25 13.25 21.5858 13.25 22C13.25 22.4142 13.5858 22.75 14 22.75V22V21.25ZM10 22.75C10.4142 22.75 10.75 22.4142 10.75 22C10.75 21.5858 10.4142 21.25 10 21.25V22V22.75ZM2.75 14C2.75 13.5858 2.41421 13.25 2 13.25C1.58579 13.25 1.25 13.5858 1.25 14H2H2.75ZM10 2.75C10.4142 2.75 10.75 2.41421 10.75 2C10.75 1.58579 10.4142 1.25 10 1.25V2V2.75ZM1.25 10C1.25 10.4142 1.58579 10.75 2 10.75C2.41421 10.75 2.75 10.4142 2.75 10H2H1.25ZM14 1.25C13.5858 1.25 13.25 1.58579 13.25 2C13.25 2.41421 13.5858 2.75 14 2.75V2V1.25ZM21.25 10C21.25 10.4142 21.5858 10.75 22 10.75C22.4142 10.75 22.75 10.4142 22.75 10H22H21.25ZM12 17V16.25C11.0541 16.25 10.175 15.9373 9.44661 15.3975L9 16L8.55339 16.6025C9.5258 17.3233 10.715 17.75 12 17.75V17ZM15 16L14.5534 15.3975C13.825 15.9373 12.9459 16.25 12 16.25V17V17.75C13.285 17.75 14.4742 17.3233 15.4466 16.6025L15 16ZM16 10.5H15.25C15.25 10.7868 15.1711 11.0125 15.0831 11.1446C14.9915 11.282 14.9474 11.25 15 11.25V12V12.75C15.6049 12.75 16.0608 12.3822 16.3311 11.9767C16.605 11.5659 16.75 11.0416 16.75 10.5H16ZM15 12V11.25C15.0526 11.25 15.0085 11.282 14.9169 11.1446C14.8289 11.0125 14.75 10.7868 14.75 10.5H14H13.25C13.25 11.0416 13.395 11.5659 13.6689 11.9767C13.9392 12.3822 14.3951 12.75 15 12.75V12ZM14 10.5H14.75C14.75 10.2132 14.8289 9.98748 14.9169 9.85536C15.0085 9.71801 15.0526 9.75 15 9.75V9V8.25C14.3951 8.25 13.9392 8.61778 13.6689 9.02331C13.395 9.43409 13.25 9.95837 13.25 10.5H14ZM15 9V9.75C14.9474 9.75 14.9915 9.71801 15.0831 9.85536C15.1711 9.98748 15.25 10.2132 15.25 10.5H16H16.75C16.75 9.95837 16.605 9.43409 16.3311 9.02331C16.0608 8.61778 15.6049 8.25 15 8.25V9ZM10 10.5H9.25C9.25 10.7868 9.17115 11.0125 9.08307 11.1446C8.9915 11.282 8.94736 11.25 9 11.25V12V12.75C9.60493 12.75 10.0608 12.3822 10.3311 11.9767C10.605 11.5659 10.75 11.0416 10.75 10.5H10ZM9 12V11.25C9.05264 11.25 9.0085 11.282 8.91693 11.1446C8.82885 11.0125 8.75 10.7868 8.75 10.5H8H7.25C7.25 11.0416 7.395 11.5659 7.66886 11.9767C7.93921 12.3822 8.39507 12.75 9 12.75V12ZM8 10.5H8.75C8.75 10.2132 8.82885 9.98748 8.91693 9.85536C9.0085 9.71801 9.05264 9.75 9 9.75V9V8.25C8.39507 8.25 7.93921 8.61778 7.66886 9.02331C7.395 9.43409 7.25 9.95837 7.25 10.5H8ZM9 9V9.75C8.94736 9.75 8.9915 9.71801 9.08307 9.85536C9.17115 9.98748 9.25 10.2132 9.25 10.5H10H10.75C10.75 9.95837 10.605 9.43409 10.3311 9.02331C10.0608 8.61778 9.60493 8.25 9 8.25V9ZM22 14H21.25C21.25 15.9068 21.2484 17.2615 21.1102 18.2892C20.975 19.2952 20.7213 19.8749 20.2981 20.2981L20.8284 20.8284L21.3588 21.3588C22.1071 20.6104 22.4392 19.6614 22.5969 18.489C22.7516 17.3382 22.75 15.8644 22.75 14H22ZM14 22V22.75C15.8644 22.75 17.3382 22.7516 18.489 22.5969C19.6614 22.4392 20.6104 22.1071 21.3588 21.3588L20.8284 20.8284L20.2981 20.2981C19.8749 20.7213 19.2952 20.975 18.2892 21.1102C17.2615 21.2484 15.9068 21.25 14 21.25V22ZM10 22V21.25C8.09318 21.25 6.73851 21.2484 5.71085 21.1102C4.70476 20.975 4.12511 20.7213 3.7019 20.2981L3.17157 20.8284L2.64124 21.3588C3.38961 22.1071 4.33855 22.4392 5.51098 22.5969C6.66182 22.7516 8.13558 22.75 10 22.75V22ZM2 14H1.25C1.25 15.8644 1.24841 17.3382 1.40313 18.489C1.56076 19.6614 1.89288 20.6104 2.64124 21.3588L3.17157 20.8284L3.7019 20.2981C3.27869 19.8749 3.02502 19.2952 2.88976 18.2892C2.75159 17.2615 2.75 15.9068 2.75 14H2ZM10 2V1.25C8.13558 1.25 6.66182 1.24841 5.51098 1.40313C4.33855 1.56076 3.38961 1.89288 2.64124 2.64124L3.17157 3.17157L3.7019 3.7019C4.12511 3.27869 4.70476 3.02502 5.71085 2.88976C6.73851 2.75159 8.09318 2.75 10 2.75V2ZM2 10H2.75C2.75 8.09318 2.75159 6.73851 2.88976 5.71085C3.02502 4.70476 3.27869 4.12511 3.7019 3.7019L3.17157 3.17157L2.64124 2.64124C1.89288 3.38961 1.56076 4.33855 1.40313 5.51098C1.24841 6.66182 1.25 8.13558 1.25 10H2ZM14 2V2.75C15.9068 2.75 17.2615 2.75159 18.2892 2.88976C19.2952 3.02502 19.8749 3.27869 20.2981 3.7019L20.8284 3.17157L21.3588 2.64124C20.6104 1.89288 19.6614 1.56076 18.489 1.40313C17.3382 1.24841 15.8644 1.25 14 1.25V2ZM22 10H22.75C22.75 8.13558 22.7516 6.66182 22.5969 5.51098C22.4392 4.33855 22.1071 3.38961 21.3588 2.64124L20.8284 3.17157L20.2981 3.7019C20.7213 4.12511 20.975 4.70476 21.1102 5.71085C21.2484 6.73851 21.25 8.09318 21.25 10H22Z" fill="#2372EC"/>
</svg>
