<svg width="22" height="23" viewBox="0 0 22 23" fill="none" xmlns="http://www.w3.org/2000/svg">
<rect width="21.8182" height="22.4242" rx="3.63636" fill="#F69800"/>
<path opacity="0.5" d="M4.09091 9.69732C4.09091 6.84032 4.09091 5.41183 4.97846 4.52427C5.86603 3.63672 7.29452 3.63672 10.1515 3.63672H11.6667C14.5236 3.63672 15.9522 3.63672 16.8397 4.52427C17.7273 5.41183 17.7273 6.84032 17.7273 9.69732V12.7276C17.7273 15.5846 17.7273 17.0132 16.8397 17.9007C15.9522 18.7882 14.5236 18.7882 11.6667 18.7882H10.1515C7.29452 18.7882 5.86603 18.7882 4.97846 17.9007C4.09091 17.0132 4.09091 15.5846 4.09091 12.7276V9.69732Z" fill="white"/>
<path fill-rule="evenodd" clip-rule="evenodd" d="M10.9091 5.92773C11.2229 5.92773 11.4773 6.1906 11.4773 6.51486V7.49339H12.4243C12.7381 7.49339 12.9925 7.75626 12.9925 8.08051C12.9925 8.40477 12.7381 8.66763 12.4243 8.66763H11.4773V9.64617C11.4773 9.97042 11.2229 10.2333 10.9091 10.2333C10.5953 10.2333 10.3409 9.97042 10.3409 9.64617V8.66763H9.39395C9.08015 8.66763 8.82577 8.40477 8.82577 8.08051C8.82577 7.75626 9.08015 7.49339 9.39395 7.49339H10.3409V6.51486C10.3409 6.1906 10.5953 5.92773 10.9091 5.92773ZM7.31064 12.7775C7.31064 12.4532 7.56502 12.1904 7.87882 12.1904H13.9394C14.2532 12.1904 14.5076 12.4532 14.5076 12.7775C14.5076 13.1017 14.2532 13.3646 13.9394 13.3646H7.87882C7.56502 13.3646 7.31064 13.1017 7.31064 12.7775ZM8.06821 15.9088C8.06821 15.5845 8.3226 15.3217 8.6364 15.3217H13.1819C13.4956 15.3217 13.75 15.5845 13.75 15.9088C13.75 16.233 13.4956 16.4959 13.1819 16.4959H8.6364C8.3226 16.4959 8.06821 16.233 8.06821 15.9088Z" fill="white"/>
</svg>
