<svg width="48" height="48" viewBox="0 0 48 48" fill="none" xmlns="http://www.w3.org/2000/svg">
<path d="M20.6665 26.6666C22.8756 26.6666 24.6665 28.4574 24.6665 30.6666C24.6665 32.8757 22.8756 34.6666 20.6665 34.6666C18.4574 34.6666 16.6665 32.8757 16.6665 30.6666C16.6665 28.4574 18.4574 26.6666 20.6665 26.6666Z" fill="#96BFFF"/>
<path d="M27.3332 13.3333C25.124 13.3333 23.3332 15.1241 23.3332 17.3333C23.3332 19.5424 25.124 21.3333 27.3332 21.3333C29.5423 21.3333 31.3332 19.5424 31.3332 17.3333C31.3332 15.1241 29.5423 13.3333 27.3332 13.3333Z" fill="#96BFFF"/>
<path d="M27.9998 30.6113L37.3332 30.6113M19.9998 17.2779L10.6665 17.2779M10.6665 30.6113H13.3332M37.3332 17.2779L34.6665 17.2779M20.6665 26.6666C22.8756 26.6666 24.6665 28.4574 24.6665 30.6666C24.6665 32.8757 22.8756 34.6666 20.6665 34.6666C18.4574 34.6666 16.6665 32.8757 16.6665 30.6666C16.6665 28.4574 18.4574 26.6666 20.6665 26.6666ZM27.3332 13.3333C25.124 13.3333 23.3332 15.1241 23.3332 17.3333C23.3332 19.5424 25.124 21.3333 27.3332 21.3333C29.5423 21.3333 31.3332 19.5424 31.3332 17.3333C31.3332 15.1241 29.5423 13.3333 27.3332 13.3333Z" stroke="#424242" stroke-width="1.5" stroke-linecap="round"/>
</svg>
