<svg width="24" height="24" viewBox="0 0 24 24" fill="none" xmlns="http://www.w3.org/2000/svg">
<path d="M13.9392 3H10.56C5.85939 3 3.50911 3 3.06441 4.42378C2.61971 5.84755 4.49201 7.4159 8.23661 10.5526C9.3499 11.4852 9.90654 11.9514 10.2041 12.6095C10.5016 13.2675 10.5016 14.029 10.5016 15.552V19.2766C10.5016 19.8571 10.5016 20.1473 10.5675 20.3313C10.7393 20.8112 11.2054 21.0845 11.6679 20.9766C11.8452 20.9352 12.0677 20.7754 12.5128 20.4559C12.9497 20.1422 13.1681 19.9853 13.3485 19.8011C13.8073 19.3324 14.1133 18.7135 14.2201 18.0383C14.2621 17.773 14.2621 17.488 14.2621 16.9181V15.3295C14.2621 13.9124 14.2621 13.2039 14.5239 12.5802C14.7857 11.9565 15.2776 11.4929 16.2616 10.5656L16.463 10.3759C19.7472 7.28095 21.3893 5.73349 20.9216 4.36675C20.4539 3 18.2823 3 13.9392 3Z" stroke="#424242" stroke-linecap="round"/>
</svg>
