<svg width="115" height="21" viewBox="0 0 115 21" fill="none" xmlns="http://www.w3.org/2000/svg">
<path d="M6.69543 19.7983C5.31096 19.7983 4.11606 19.5255 3.11074 18.9797C2.11117 18.4282 1.34138 17.6441 0.801383 16.6273C0.267128 15.6047 0 14.3897 0 12.9823C0 11.615 0.27 10.4201 0.81 9.39758C1.35 8.36928 2.11117 7.57077 3.09351 7.00205C4.07585 6.42758 5.2334 6.14035 6.56617 6.14035C7.5083 6.14035 8.37 6.28684 9.15128 6.57982C9.93255 6.87279 10.6076 7.30652 11.1763 7.88099C11.745 8.45545 12.1873 9.16492 12.5033 10.0094C12.8193 10.8481 12.9772 11.8103 12.9772 12.8961V13.9474H1.47351V11.5001H9.05649C9.05074 11.052 8.94447 10.6528 8.73766 10.3024C8.53085 9.95194 8.24649 9.67907 7.88457 9.48375C7.5284 9.28269 7.11766 9.18216 6.65234 9.18216C6.18128 9.18216 5.75904 9.28843 5.38564 9.50099C5.01223 9.7078 4.71638 9.99216 4.49808 10.3541C4.27979 10.7102 4.16489 11.1152 4.1534 11.5691V14.0594C4.1534 14.5994 4.25968 15.0733 4.47223 15.4812C4.68479 15.8833 4.98638 16.1964 5.37702 16.4205C5.76766 16.6445 6.23298 16.7565 6.77298 16.7565C7.14638 16.7565 7.48532 16.7048 7.78979 16.6014C8.09425 16.498 8.35564 16.3458 8.57394 16.1447C8.79223 15.9436 8.95596 15.6966 9.06511 15.4036L12.9341 15.5157C12.7733 16.3831 12.42 17.1385 11.8743 17.7819C11.3343 18.4196 10.6248 18.9165 9.74585 19.2727C8.86691 19.6231 7.85011 19.7983 6.69543 19.7983Z" fill="#B8B8B8"/>
<path d="M31.1484 8.2946H26.8399C26.7824 7.85226 26.6647 7.45301 26.4866 7.09684C26.3085 6.74067 26.0729 6.4362 25.78 6.18343C25.487 5.93067 25.1394 5.73822 24.7373 5.60609C24.3409 5.46822 23.9015 5.39928 23.4189 5.39928C22.563 5.39928 21.8248 5.60897 21.2043 6.02833C20.5897 6.44769 20.1157 7.05375 19.7825 7.84652C19.4551 8.63928 19.2914 9.59865 19.2914 10.7246C19.2914 11.8965 19.458 12.8789 19.7911 13.6716C20.1301 14.4586 20.604 15.0532 21.2129 15.4553C21.8276 15.8517 22.5543 16.0499 23.3931 16.0499C23.8641 16.0499 24.2921 15.9896 24.677 15.869C25.0676 15.7483 25.4094 15.5731 25.7024 15.3433C26.0011 15.1078 26.2453 14.8234 26.4349 14.4902C26.6302 14.1513 26.7652 13.7693 26.8399 13.3442L31.1484 13.37C31.0737 14.1513 30.8468 14.9211 30.4676 15.6794C30.0942 16.4377 29.5801 17.1299 28.9252 17.7561C28.2703 18.3765 27.4718 18.8706 26.5297 19.2382C25.5933 19.6059 24.519 19.7897 23.3069 19.7897C21.7099 19.7897 20.2794 19.4393 19.0156 18.7384C17.7575 18.0318 16.7637 17.0035 16.0341 15.6535C15.3045 14.3035 14.9398 12.6606 14.9398 10.7246C14.9398 8.7829 15.3103 7.13705 16.0514 5.78705C16.7924 4.43705 17.7949 3.41163 19.0587 2.71077C20.3225 2.00992 21.7386 1.6595 23.3069 1.6595C24.3754 1.6595 25.3635 1.80886 26.2711 2.10758C27.1788 2.40056 27.9773 2.83141 28.6667 3.40014C29.356 3.96312 29.9161 4.65535 30.347 5.47684C30.7778 6.29833 31.045 7.23758 31.1484 8.2946Z" fill="#B8B8B8"/>
<path d="M37.8029 1.90077V19.5484H33.5891V1.90077H37.8029Z" fill="#B8B8B8"/>
<path d="M40.4849 19.5484V6.31269H44.6986V19.5484H40.4849ZM42.5961 4.77024C42.0044 4.77024 41.496 4.57492 41.0709 4.18429C40.6458 3.7879 40.4332 3.31109 40.4332 2.75386C40.4332 2.20237 40.6458 1.73131 41.0709 1.34067C41.496 0.944285 42.0044 0.746094 42.5961 0.746094C43.1935 0.746094 43.7019 0.944285 44.1213 1.34067C44.5464 1.73131 44.759 2.20237 44.759 2.75386C44.759 3.31109 44.5464 3.7879 44.1213 4.18429C43.7019 4.57492 43.1935 4.77024 42.5961 4.77024Z" fill="#B8B8B8"/>
<path d="M51.5944 11.9999V19.5484H47.3807V6.31269H51.3876V8.74269H51.5341C51.8271 7.93269 52.3269 7.2979 53.0335 6.83833C53.74 6.37301 54.5816 6.14035 55.5582 6.14035C56.4889 6.14035 57.296 6.35003 57.9796 6.76939C58.669 7.18301 59.2032 7.76322 59.5824 8.51003C59.9673 9.25109 60.1569 10.1185 60.1511 11.1124V19.5484H55.9374V11.9396C55.9431 11.2043 55.7564 10.6298 55.3773 10.2162C55.0039 9.80258 54.484 9.59577 53.8176 9.59577C53.3753 9.59577 52.9846 9.69343 52.6457 9.88875C52.3125 10.0783 52.054 10.3512 51.8702 10.7074C51.6921 11.0635 51.6002 11.4944 51.5944 11.9999Z" fill="#B8B8B8"/>
<path d="M62.7599 19.5484V6.31269H66.9736V19.5484H62.7599ZM64.8711 4.77024C64.2794 4.77024 63.771 4.57492 63.3459 4.18429C62.9208 3.7879 62.7082 3.31109 62.7082 2.75386C62.7082 2.20237 62.9208 1.73131 63.3459 1.34067C63.771 0.944285 64.2794 0.746094 64.8711 0.746094C65.4685 0.746094 65.9769 0.944285 66.3963 1.34067C66.8214 1.73131 67.034 2.20237 67.034 2.75386C67.034 3.31109 66.8214 3.7879 66.3963 4.18429C65.9769 4.57492 65.4685 4.77024 64.8711 4.77024Z" fill="#B8B8B8"/>
<path d="M75.8341 19.7983C74.4381 19.7983 73.2404 19.5111 72.2408 18.9366C71.247 18.3622 70.4829 17.5636 69.9487 16.5411C69.4144 15.5128 69.1473 14.3236 69.1473 12.9736C69.1473 11.6179 69.4144 10.4288 69.9487 9.4062C70.4887 8.3779 71.2556 7.57652 72.2494 7.00205C73.249 6.42758 74.441 6.14035 75.8255 6.14035C77.0491 6.14035 78.1147 6.36152 79.0224 6.80386C79.9358 7.2462 80.6481 7.87237 81.1594 8.68237C81.6764 9.48662 81.9493 10.4316 81.978 11.5174H78.04C77.9596 10.8395 77.7298 10.3081 77.3507 9.92322C76.9773 9.53833 76.489 9.34588 75.8858 9.34588C75.3975 9.34588 74.9695 9.48375 74.6019 9.7595C74.2342 10.0295 73.947 10.4316 73.7402 10.9659C73.5391 11.4944 73.4386 12.1493 73.4386 12.9306C73.4386 13.7118 73.5391 14.3725 73.7402 14.9125C73.947 15.4467 74.2342 15.8517 74.6019 16.1275C74.9695 16.3975 75.3975 16.5325 75.8858 16.5325C76.2764 16.5325 76.6211 16.4492 76.9198 16.2826C77.2243 16.116 77.4742 15.8718 77.6695 15.5501C77.8648 15.2227 77.9883 14.8263 78.04 14.361H81.978C81.9378 15.4525 81.6649 16.4061 81.1594 17.2218C80.6596 18.0376 79.9559 18.6724 79.0482 19.1262C78.1463 19.5743 77.0749 19.7983 75.8341 19.7983Z" fill="#B8B8B8"/>
<path d="M92.605 10.7849V14.0335H84.436V10.7849H92.605Z" fill="#B8B8B8"/>
<path d="M103.024 0C104.604 1.73306e-05 106.028 0.350986 107.297 1.05176C108.573 1.75261 109.584 2.77793 110.331 4.12793C111.077 5.47791 111.452 7.12377 111.452 9.06543C111.452 10.1906 111.325 11.2161 111.074 12.1426C110.37 10.9899 109.101 10.2207 107.652 10.2207C107.438 10.2207 107.228 10.2372 107.023 10.2695C107.068 9.89261 107.091 9.49129 107.091 9.06543C107.091 7.91649 106.928 6.94511 106.6 6.15234C106.278 5.35963 105.813 4.75942 105.204 4.35156C104.6 3.94381 103.874 3.74025 103.024 3.74023C102.179 3.74023 101.452 3.94369 100.843 4.35156C100.234 4.75941 99.7664 5.35976 99.439 6.15234C99.1173 6.94511 98.9565 7.91649 98.9565 9.06543C98.9566 10.2141 99.1173 11.1849 99.439 11.9775C99.7663 12.7701 100.235 13.3705 100.843 13.7783C101.452 14.1862 102.179 14.3906 103.024 14.3906C103.24 14.3906 103.449 14.377 103.649 14.3506C103.694 15.8141 104.522 17.0794 105.73 17.7412C104.885 17.9997 103.983 18.1299 103.024 18.1299C101.438 18.1299 100.01 17.7769 98.7407 17.0703C97.4713 16.3637 96.4631 15.3383 95.7163 13.9941C94.9753 12.6442 94.605 11.0012 94.605 9.06543C94.605 7.12392 94.9754 5.47785 95.7163 4.12793C96.463 2.77812 97.4714 1.7526 98.7407 1.05176C100.01 0.350907 101.438 0 103.024 0Z" fill="#B8B8B8"/>
<circle opacity="0.4" cx="103.768" cy="10.2256" r="2.00305" transform="rotate(-45 103.768 10.2256)" fill="#B8B8B8"/>
<circle cx="107.612" cy="14.0703" r="2.8615" transform="rotate(-45 107.612 14.0703)" fill="#B8B8B8"/>
<circle opacity="0.4" cx="111.052" cy="17.5107" r="1.43075" transform="rotate(-45 111.052 17.5107)" fill="#B8B8B8"/>
</svg>
