<svg width="32" height="32" viewBox="0 0 32 32" fill="none" xmlns="http://www.w3.org/2000/svg">
<rect width="32" height="32" rx="16" fill="#424242"/>
<path d="M16 27.6667C22.4433 27.6667 27.6666 22.4434 27.6666 16C27.6666 9.55672 22.4433 4.33337 16 4.33337C9.55666 4.33337 4.33331 9.55672 4.33331 16C4.33331 22.4434 9.55666 27.6667 16 27.6667Z" fill="#6DDB72"/>
<path d="M11.9166 16.5834L14.25 18.9167L20.0833 13.0834" fill="#6DDB72"/>
<path d="M12.6238 15.8763C12.2332 15.4857 11.6001 15.4857 11.2095 15.8763C10.819 16.2668 10.819 16.9 11.2095 17.2905L11.9166 16.5834L12.6238 15.8763ZM14.25 18.9167L13.5429 19.6238C13.9334 20.0143 14.5666 20.0143 14.9571 19.6238L14.25 18.9167ZM20.7904 13.7905C21.1809 13.4 21.1809 12.7668 20.7904 12.3763C20.3999 11.9857 19.7667 11.9857 19.3762 12.3763L20.0833 13.0834L20.7904 13.7905ZM27.6666 16H26.6666C26.6666 21.8911 21.891 26.6667 16 26.6667V27.6667V28.6667C22.9956 28.6667 28.6666 22.9956 28.6666 16H27.6666ZM16 27.6667V26.6667C10.1089 26.6667 5.33331 21.8911 5.33331 16H4.33331H3.33331C3.33331 22.9956 9.00437 28.6667 16 28.6667V27.6667ZM4.33331 16H5.33331C5.33331 10.109 10.1089 5.33337 16 5.33337V4.33337V3.33337C9.00437 3.33337 3.33331 9.00443 3.33331 16H4.33331ZM16 4.33337V5.33337C21.891 5.33337 26.6666 10.109 26.6666 16H27.6666H28.6666C28.6666 9.00443 22.9956 3.33337 16 3.33337V4.33337ZM11.9166 16.5834L11.2095 17.2905L13.5429 19.6238L14.25 18.9167L14.9571 18.2096L12.6238 15.8763L11.9166 16.5834ZM14.25 18.9167L14.9571 19.6238L20.7904 13.7905L20.0833 13.0834L19.3762 12.3763L13.5429 18.2096L14.25 18.9167Z" fill="#424242"/>
</svg>
