<svg width="148" height="32" viewBox="0 0 148 32" fill="none" xmlns="http://www.w3.org/2000/svg">
<g clip-path="url(#clip0_4282_25068)">
<path fill-rule="evenodd" clip-rule="evenodd" d="M137.19 26.0582C141.635 23.769 144.676 19.1347 144.676 13.7908C144.676 6.17433 138.5 0 130.882 0C123.263 0 117.088 6.17433 117.088 13.7908C117.088 21.4073 123.263 27.5817 130.882 27.5817C131.441 27.5817 131.647 27.5849 132.194 27.5194C135.234 32.9977 139.829 32.4805 142.351 31.0231C142.373 31.0084 142.393 30.9914 142.411 30.972C142.095 30.6462 141.844 30.2571 141.679 29.8256C141.246 29.9142 140.696 30.2286 140.058 30.3283C136.176 31.2862 134.106 28.4423 132.968 25.8117C132.968 25.8115 132.967 25.8119 132.967 25.8119C132.29 25.9284 131.593 25.9895 130.881 25.9895C124.143 25.9895 118.68 20.5279 118.68 13.7908C118.68 7.05375 124.143 1.59221 130.881 1.59221C137.62 1.59221 143.083 7.05375 143.083 13.7908C143.083 18.6534 140.237 22.8515 136.12 24.8112C135.607 25.0554 135.3 25.5731 135.594 26.0817C135.821 26.4744 136.204 26.5658 137.19 26.0582H137.19Z" fill="white"/>
<path d="M29.8652 6.47564C31.3192 6.47564 32.6357 6.80464 33.8146 7.46284C34.9936 8.12104 35.9171 9.04919 36.5852 10.2475C37.2532 11.4458 37.5873 12.8111 37.5873 14.3435C37.5873 15.8955 37.2534 17.2705 36.5852 18.469C35.9171 19.6673 34.9985 20.5957 33.8292 21.2537C32.6602 21.9119 31.3386 22.2409 29.865 22.2409C28.6073 22.2409 27.4727 21.9806 26.4608 21.4599C25.4489 20.9392 24.6186 20.1781 23.9702 19.1762V27.8102H21.8777V6.59353H23.8818V9.65805C24.5106 8.63648 25.3409 7.85068 26.3724 7.30067C27.4039 6.75065 28.5683 6.47564 29.8652 6.47564ZM29.7179 20.3844C30.7986 20.3844 31.7812 20.134 32.6654 19.6329C33.5497 19.1321 34.2422 18.4199 34.7434 17.4966C35.2444 16.5733 35.495 15.5222 35.495 14.3435C35.495 13.1648 35.2444 12.1188 34.7434 11.2052C34.2424 10.2916 33.5497 9.57959 32.6654 9.0688C31.7812 8.55802 30.7988 8.30263 29.7179 8.30263C28.6175 8.30263 27.6302 8.55802 26.7557 9.0688C25.8813 9.57959 25.1937 10.2918 24.6925 11.2052C24.1915 12.1188 23.9409 13.1648 23.9409 14.3435C23.9409 15.5222 24.1915 16.5733 24.6925 17.4966C25.1935 18.4199 25.8813 19.1321 26.7557 19.6329C27.63 20.1338 28.6175 20.3844 29.7179 20.3844ZM48.2865 22.2409C46.7538 22.2409 45.3833 21.9068 44.1748 21.2389C42.9664 20.571 42.0184 19.6329 41.3305 18.4247C40.6428 17.2165 40.299 15.8562 40.299 14.3435C40.299 12.8308 40.6428 11.4753 41.3305 10.277C42.0182 9.07871 42.9664 8.14551 44.1748 7.4776C45.3833 6.8097 46.7538 6.47564 48.2865 6.47564C49.6226 6.47564 50.8163 6.73589 51.8677 7.25658C52.9188 7.77728 53.7491 8.5384 54.3583 9.54036L52.7962 10.6012C52.2853 9.83499 51.6369 9.2603 50.8509 8.87731C50.065 8.49432 49.2102 8.30263 48.2867 8.30263C47.1668 8.30263 46.1596 8.55317 45.2656 9.05404C44.3716 9.55492 43.6741 10.2671 43.1731 11.1904C42.6721 12.1137 42.4215 13.1648 42.4215 14.3435C42.4215 15.5418 42.6721 16.5978 43.1731 17.5111C43.6741 18.4247 44.3716 19.1319 45.2656 19.6327C46.1596 20.1336 47.1668 20.3842 48.2867 20.3842C49.2102 20.3842 50.065 20.1975 50.8509 19.8242C51.6369 19.451 52.2853 18.8813 52.7962 18.1151L54.3583 19.176C53.7491 20.1779 52.9139 20.939 51.8529 21.4597C50.7919 21.9802 49.603 22.2407 48.2865 22.2407V22.2409ZM66.1185 6.47564C68.0638 6.47564 69.6112 7.04042 70.7607 8.16997C71.9101 9.29953 72.4849 10.9449 72.4849 13.1058V22.0935H70.3923V13.3122C70.3923 11.7012 69.9895 10.4736 69.1839 9.62873C68.3783 8.78409 67.2287 8.36167 65.7354 8.36167C64.0652 8.36167 62.7438 8.8577 61.7712 9.84975C60.7985 10.8418 60.3121 12.212 60.3121 13.9605V22.0935H58.2195V0.228516H60.3121V9.30458C60.8818 8.4009 61.6678 7.70347 62.67 7.2125C63.6722 6.72133 64.8216 6.47585 66.1185 6.47585V6.47564ZM83.5967 6.47564C85.6205 6.47564 87.1728 6.98158 88.2536 7.99324C89.3343 9.00491 89.8747 10.5029 89.8747 12.487V22.0935H87.8706V19.677C87.3989 20.4824 86.7064 21.1111 85.7926 21.5631C84.8788 22.0148 83.7933 22.2409 82.5356 22.2409C80.8065 22.2409 79.431 21.8284 78.4092 21.0031C77.3874 20.1781 76.8765 19.0878 76.8765 17.7322C76.8765 16.416 77.353 15.3552 78.306 14.5498C79.2591 13.7443 80.777 13.3415 82.8598 13.3415H87.782V12.3986C87.782 11.0628 87.4086 10.0461 86.6621 9.34867C85.9153 8.65124 84.8248 8.30263 83.3904 8.30263C82.4078 8.30263 81.4647 8.4646 80.5608 8.78894C79.6569 9.11309 78.8809 9.55998 78.2324 10.1298L77.2893 8.56793C78.0753 7.90002 79.0184 7.38438 80.1189 7.02081C81.2193 6.65743 82.3785 6.47564 83.5969 6.47564H83.5967ZM82.8598 20.5906C84.0388 20.5906 85.0507 20.3205 85.8957 19.7802C86.7405 19.2398 87.3694 18.4591 87.7822 17.4375V14.9034H82.9189C80.2663 14.9034 78.9399 15.8267 78.9399 17.6733C78.9399 18.577 79.2838 19.2892 79.9714 19.8097C80.6591 20.3302 81.622 20.5906 82.8598 20.5906ZM97.5674 9.62873C98.0586 8.58754 98.7906 7.80175 99.7632 7.27135C100.736 6.74094 101.939 6.47564 103.374 6.47564V8.50888L102.873 8.47936C101.242 8.47936 99.9647 8.98024 99.0412 9.98219C98.1177 10.9842 97.6559 12.3887 97.6559 14.1961V22.0935H95.5634V6.59353H97.5676V9.62873H97.5674ZM106.233 13.1943H113.955V15.0213H106.233V13.1943Z" fill="white"/>
<path fill-rule="evenodd" clip-rule="evenodd" d="M144.884 25.4346C146.605 25.4346 148 26.8294 148 28.55C148 30.2705 146.605 31.6655 144.884 31.6655C143.163 31.6655 141.768 30.2707 141.768 28.55C141.768 26.8294 143.163 25.4346 144.884 25.4346ZM144.884 26.3904C146.077 26.3904 147.044 27.3574 147.044 28.55C147.044 29.7427 146.077 30.7095 144.884 30.7095C143.691 30.7095 142.724 29.7427 142.724 28.55C142.724 27.3574 143.691 26.3904 144.884 26.3904Z" fill="#87AFFF"/>
<path d="M144.884 29.9838C145.676 29.9838 146.318 29.3417 146.318 28.5495C146.318 27.7574 145.676 27.1152 144.884 27.1152C144.092 27.1152 143.449 27.7574 143.449 28.5495C143.449 29.3417 144.092 29.9838 144.884 29.9838Z" fill="white"/>
<path fill-rule="evenodd" clip-rule="evenodd" d="M130.663 10.1377C131.238 10.1377 131.708 10.608 131.708 11.1829V13.2892H133.815C134.39 13.2892 134.861 13.7595 134.861 14.3344C134.861 14.9093 134.39 15.3796 133.815 15.3796H131.708V17.4859C131.708 18.0608 131.238 18.5311 130.663 18.5311C130.088 18.5311 129.618 18.0608 129.618 17.4859V15.3796H127.511C126.936 15.3796 126.465 14.9093 126.465 14.3344C126.465 13.7595 126.936 13.2892 127.511 13.2892H129.618V11.1829C129.618 10.608 130.088 10.1377 130.663 10.1377Z" fill="#87AFFF"/>
<path fill-rule="evenodd" clip-rule="evenodd" d="M0.946124 3.01909H3.5884C3.46928 3.23383 3.40132 3.48094 3.40132 3.74401C3.40132 4.03176 3.48262 4.3005 3.62339 4.5288H2.53869C2.2254 4.5288 1.96752 4.78682 1.96752 5.09984V14.7379C1.96752 19.5541 5.62857 21.7918 9.29103 21.7384C12.8469 21.6867 16.2946 19.484 16.2946 14.7379V5.02705C16.2946 4.71301 16.0365 4.456 15.7232 4.456H14.7336C14.8482 4.24429 14.9134 4.00183 14.9134 3.74401C14.9134 3.45081 14.829 3.17721 14.6832 2.94629H17.302C17.8222 2.94629 18.248 3.37215 18.248 3.89203V14.9093C18.248 26.9027 -3.24249e-05 26.6938 -3.24249e-05 14.9093V3.96483C-3.24249e-05 3.44474 0.425718 3.01909 0.945922 3.01909H0.946124Z" fill="white"/>
<path d="M4.89897 5.36966C5.81862 5.36966 6.56415 4.6243 6.56415 3.70485C6.56415 2.7854 5.81862 2.04004 4.89897 2.04004C3.97932 2.04004 3.23379 2.7854 3.23379 3.70485C3.23379 4.6243 3.97932 5.36966 4.89897 5.36966Z" fill="#87AFFF" stroke="#0D47A1" stroke-width="0.5" stroke-miterlimit="22.9256"/>
<path d="M13.368 5.36966C14.2876 5.36966 15.0331 4.6243 15.0331 3.70485C15.0331 2.7854 14.2876 2.04004 13.368 2.04004C12.4483 2.04004 11.7028 2.7854 11.7028 3.70485C11.7028 4.6243 12.4483 5.36966 13.368 5.36966Z" fill="#87AFFF" stroke="#0D47A1" stroke-width="0.5" stroke-miterlimit="22.9256"/>
</g>
<defs>
<clipPath id="clip0_4282_25068">
<rect width="148" height="32" fill="white"/>
</clipPath>
</defs>
</svg>
