<svg width="156" height="64" viewBox="0 0 156 64" fill="none" xmlns="http://www.w3.org/2000/svg">
<rect width="156" height="64" rx="8" fill="white" fill-opacity="0.6"/>
<rect x="8.25" y="8.25" width="47.5" height="47.5" rx="23.75" fill="#3EAF3F"/>
<rect x="8.25" y="8.25" width="47.5" height="47.5" rx="23.75" stroke="#E4EFFF" stroke-width="0.5"/>
<path opacity="0.5" d="M18.6667 32.0003C18.6667 25.7149 18.6667 22.5722 20.6193 20.6196C22.5719 18.667 25.7146 18.667 32 18.667C38.2854 18.667 41.4282 18.667 43.3807 20.6196C45.3334 22.5722 45.3334 25.7149 45.3334 32.0003C45.3334 38.2857 45.3334 41.4285 43.3807 43.381C41.4282 45.3337 38.2854 45.3337 32 45.3337C25.7146 45.3337 22.5719 45.3337 20.6193 43.381C18.6667 41.4285 18.6667 38.2857 18.6667 32.0003Z" fill="white"/>
<path d="M28.6412 30.1468C30.4961 30.1468 31.9999 28.643 31.9999 26.7881C31.9999 28.643 33.5036 30.1468 35.3585 30.1468C37.2135 30.1468 38.7172 28.643 38.7172 26.7881C38.7172 25.3867 37.8588 23.8023 36.6392 23.1113C35.9936 22.7456 35.3585 22.1562 35.3585 21.4143V18.6816H28.6412V21.4143C28.6412 22.1562 28.0061 22.7456 27.3605 23.1113C26.1409 23.8023 25.2825 25.3867 25.2825 26.7881C25.2825 28.643 26.7863 30.1468 28.6412 30.1468Z" fill="white"/>
<path d="M35.4093 45.3179V42.6466C35.4093 41.9046 36.0444 41.3153 36.69 40.9495C37.9096 40.2586 38.768 38.6742 38.768 37.2727C38.768 35.4178 37.2642 33.9141 35.4093 33.9141C33.5544 33.9141 32.0506 35.4178 32.0506 37.2727C32.0506 35.4178 30.5469 33.9141 28.692 33.9141C26.837 33.9141 25.3333 35.4178 25.3333 37.2727C25.3333 38.6742 26.1916 40.2586 27.4113 40.9495C28.0569 41.3153 28.692 41.9046 28.692 42.6466V45.3194L35.4093 45.3179Z" fill="white"/>
<path d="M128 32H144M144 32L138 26M144 32L138 38" stroke="white" stroke-linecap="round" stroke-linejoin="round"/>
</svg>
