<svg width="268" height="199" viewBox="0 0 268 199" fill="none" xmlns="http://www.w3.org/2000/svg">
<path d="M147.264 24.0562C140.412 22.5419 133.755 20.4498 127.675 17.304C126.395 16.6405 125.17 15.9223 123.976 15.1417C113.073 7.9836 166.261 9.76339 166.261 9.76339C166.261 9.76339 63.2584 -17.8622 28.919 19.8254C14.2545 35.9136 4.43651 56.4045 1.22889 77.9413C-5.25658 121.561 13.9033 168.039 59.3015 179.732C86.6638 186.781 43.6685 155.939 70.8356 152.887C78.1796 152.06 85.5392 152.091 92.8597 152.731C96.1454 153.012 99.4232 153.426 102.685 153.941C108.156 154.799 113.588 155.939 118.965 157.274C123.531 158.398 128.05 159.663 132.514 160.99C133.326 161.232 134.137 161.481 134.949 161.731C147.171 165.548 160.009 170.724 172.964 174.549C173.378 174.674 173.799 174.799 174.221 174.916C183.859 177.695 193.552 179.677 203.097 179.732C247.465 179.99 268.951 129.094 258.181 91.1335C247.481 53.4147 210.699 37.3655 175.306 29.3877C173.315 28.9428 171.333 28.5135 169.359 28.1154C167.415 27.7251 165.488 27.3582 163.568 27.0069C162.35 26.7805 161.141 26.5698 159.931 26.3668C158.604 26.1326 157.285 25.9141 155.974 25.7033C155.451 25.6174 154.928 25.5316 154.405 25.4457C152.009 25.0398 149.621 24.5792 147.264 24.0562Z" fill="#F9F9F9"/>
<path d="M61.4737 198.615C55.5796 198.615 49.9694 197.913 44.7395 196.516C37.4495 194.569 30.677 191.216 24.6113 186.549C17.248 180.886 11.0273 173.177 6.62031 164.259C2.18716 155.286 -0.101191 145.701 0.00343338 136.541C0.0831779 129.597 1.52623 123.137 4.29241 117.34C7.27996 111.078 11.759 105.73 17.6053 101.442C23.1963 97.3404 29.9701 93.8705 38.9232 90.5218C39.2569 90.3935 39.595 90.2697 39.928 90.1498C45.6294 88.0585 51.5547 86.2371 57.2849 84.4763C62.1148 82.9918 66.6775 81.5901 71.124 80.0373C71.7779 79.8064 72.4318 79.5741 73.0819 79.3375C77.0947 77.8739 80.5939 76.5125 83.7811 75.176C88.2347 73.3176 92.2589 71.4394 96.0841 69.4336C98.5695 68.1334 100.936 66.7905 103.118 65.4424C108.578 62.0841 113.278 58.5434 117.484 54.618C121.486 50.8871 125.375 46.9336 129.137 43.1102C140.668 31.3913 152.59 19.2737 168.759 12.693C185.449 5.89925 203.034 6.56146 219.613 14.6082C234.739 21.9506 247.861 34.9563 256.562 51.229C264.895 66.8256 268.498 85.1768 266.708 102.904C265.539 114.508 261.763 126.28 255.791 136.946C249.799 147.648 241.745 156.962 232.501 163.883C225.099 169.425 217.101 173.35 208.732 175.55C199.779 177.903 190.574 178.222 181.372 176.499C178.178 175.901 174.889 175.077 171.708 174.279C164.531 172.478 157.109 170.613 149.768 171.041C148.588 171.11 147.452 171.236 146.295 171.423C141.306 172.235 136.03 173.906 130.169 176.532C128.439 177.305 126.634 178.168 124.808 179.098L123.653 179.694C122.523 180.281 121.595 180.755 120.732 181.186C119.741 181.693 118.858 182.135 118.032 182.539C116.477 183.305 115.056 183.99 113.69 184.633C112.344 185.267 110.864 185.942 109.166 186.697C93.0857 193.819 79.0506 197.668 66.2577 198.466C64.6437 198.565 63.0482 198.615 61.4737 198.615ZM191.998 8.2036C184.204 8.2036 176.419 9.74686 168.817 12.841C152.678 19.4096 140.768 31.5151 129.249 43.2225C125.486 47.0472 121.595 51.0013 117.591 54.7347C113.377 58.6672 108.669 62.2149 103.199 65.5783C101.015 66.9276 98.6448 68.2725 96.1562 69.5752C92.3271 71.5829 88.2991 73.463 83.8411 75.3233C80.6519 76.6618 77.1502 78.0239 73.1355 79.488C72.4842 79.7253 71.8296 79.9569 71.1751 80.1885C66.7253 81.7426 62.162 83.1449 57.3302 84.6294C51.6019 86.3902 45.6792 88.2104 39.9809 90.3004C39.6486 90.4197 39.3117 90.5434 38.9787 90.6717C30.039 94.0159 23.2773 97.4788 17.6984 101.571C11.8745 105.843 7.41201 111.171 4.43531 117.408C1.6787 123.185 0.240752 129.623 0.161646 136.542C0.0570212 145.678 2.33963 155.238 6.76194 164.188C11.1581 173.086 17.3635 180.774 24.707 186.424C30.7567 191.077 37.5101 194.421 44.779 196.363C51.3895 198.128 58.6112 198.782 66.2456 198.306C79.0194 197.51 93.0372 193.665 109.099 186.55C110.795 185.795 112.275 185.121 113.62 184.488C114.985 183.845 116.404 183.16 117.96 182.395C118.784 181.992 119.667 181.549 120.657 181.044C121.519 180.612 122.447 180.138 123.577 179.551L124.733 178.955C126.562 178.024 128.368 177.16 130.101 176.386C135.975 173.754 141.263 172.079 146.266 171.266C147.429 171.078 148.57 170.952 149.756 170.882C157.124 170.455 164.555 172.321 171.744 174.124C174.923 174.922 178.21 175.746 181.4 176.344C190.576 178.062 199.758 177.744 208.688 175.397C217.038 173.203 225.017 169.286 232.403 163.756C241.629 156.849 249.668 147.553 255.649 136.87C261.611 126.223 265.379 114.473 266.547 102.89C268.333 85.1947 264.736 66.8753 256.418 51.3069C247.734 35.0635 234.636 22.082 219.539 14.7543C210.556 10.3899 201.272 8.2036 191.998 8.2036Z" fill="#96BFFF"/>
</svg>
