<svg width="268" height="201" viewBox="0 0 268 201" fill="none" xmlns="http://www.w3.org/2000/svg">
<path d="M147.264 26.2244C140.412 24.7101 133.755 22.618 127.675 19.4722C126.395 18.8087 125.17 18.0905 123.976 17.3099C113.073 10.1518 166.261 11.9316 166.261 11.9316C166.261 11.9316 63.2584 -15.694 28.919 21.9936C14.2545 38.0818 4.43651 58.5727 1.22889 80.1095C-5.25658 123.73 13.9033 170.207 59.3015 181.9C86.6638 188.949 43.6685 158.107 70.8356 155.055C78.1796 154.228 85.5392 154.259 92.8597 154.899C96.1454 155.18 99.4232 155.594 102.685 156.109C108.156 156.968 113.588 158.107 118.965 159.442C123.531 160.566 128.05 161.831 132.514 163.158C133.326 163.4 134.137 163.65 134.949 163.899C147.171 167.717 160.009 172.892 172.964 176.717C173.378 176.842 173.799 176.967 174.221 177.084C183.859 179.863 193.552 181.846 203.097 181.9C247.465 182.158 268.951 131.262 258.181 93.3017C247.481 55.5829 210.699 39.5337 175.306 31.556C173.315 31.111 171.333 30.6817 169.359 30.2836C167.415 29.8933 165.488 29.5264 163.568 29.1751C162.35 28.9487 161.141 28.738 159.931 28.535C158.604 28.3008 157.285 28.0823 155.974 27.8715C155.451 27.7857 154.928 27.6998 154.405 27.6139C152.009 27.208 149.621 26.7474 147.264 26.2244Z" fill="#F9F9F9"/>
<path d="M61.4737 200.783C55.5796 200.783 49.9694 200.081 44.7395 198.685C37.4495 196.737 30.677 193.384 24.6113 188.717C17.248 183.054 11.0273 175.346 6.62031 166.427C2.18716 157.454 -0.101191 147.869 0.00343338 138.709C0.0831779 131.765 1.52623 125.305 4.29241 119.508C7.27996 113.246 11.759 107.898 17.6053 103.61C23.1963 99.5086 29.9701 96.0387 38.9232 92.69C39.2569 92.5617 39.595 92.438 39.928 92.318C45.6294 90.2267 51.5547 88.4053 57.2849 86.6445C62.1148 85.16 66.6775 83.7583 71.124 82.2055C71.7779 81.9746 72.4318 81.7424 73.0819 81.5057C77.0947 80.0422 80.5939 78.6807 83.7811 77.3442C88.2347 75.4858 92.2589 73.6076 96.0841 71.6018C98.5695 70.3016 100.936 68.9587 103.118 67.6106C108.578 64.2524 113.278 60.7116 117.484 56.7862C121.486 53.0553 125.375 49.1018 129.137 45.2784C140.668 33.5595 152.59 21.4419 168.759 14.8612C185.449 8.06746 203.034 8.72967 219.613 16.7764C234.739 24.1188 247.861 37.1245 256.562 53.3973C264.895 68.9938 268.498 87.345 266.708 105.072C265.539 116.676 261.763 128.448 255.791 139.115C249.799 149.816 241.745 159.13 232.501 166.051C225.099 171.593 217.101 175.518 208.732 177.718C199.779 180.071 190.574 180.39 181.372 178.667C178.178 178.069 174.889 177.245 171.708 176.447C164.531 174.646 157.109 172.781 149.768 173.209C148.588 173.279 147.452 173.404 146.295 173.591C141.306 174.403 136.03 176.074 130.169 178.7C128.439 179.473 126.634 180.336 124.808 181.266L123.653 181.862C122.523 182.449 121.595 182.923 120.732 183.355C119.741 183.861 118.858 184.303 118.032 184.707C116.477 185.473 115.056 186.159 113.69 186.802C112.344 187.435 110.864 188.11 109.166 188.865C93.0857 195.987 79.0506 199.837 66.2577 200.634C64.6437 200.734 63.0482 200.783 61.4737 200.783ZM191.998 10.3718C184.204 10.3718 176.419 11.9151 168.817 15.0092C152.678 21.5778 140.768 33.6833 129.249 45.3907C125.486 49.2154 121.595 53.1695 117.591 56.9029C113.377 60.8354 108.669 64.3831 103.199 67.7465C101.015 69.0958 98.6448 70.4407 96.1562 71.7434C92.3271 73.7511 88.2991 75.6312 83.8411 77.4916C80.6519 78.83 77.1502 80.1921 73.1355 81.6562C72.4842 81.8936 71.8296 82.1251 71.1751 82.3567C66.7253 83.9108 62.162 85.3131 57.3302 86.7976C51.6019 88.5584 45.6792 90.3786 39.9809 92.4686C39.6486 92.5879 39.3117 92.7117 38.9787 92.8399C30.039 96.1841 23.2773 99.647 17.6984 103.739C11.8745 108.011 7.41201 113.339 4.43531 119.577C1.6787 125.353 0.240752 131.791 0.161646 138.711C0.0570212 147.846 2.33963 157.406 6.76194 166.357C11.1581 175.254 17.3635 182.943 24.707 188.592C30.7567 193.245 37.5101 196.589 44.779 198.531C51.3895 200.296 58.6112 200.951 66.2456 200.474C79.0194 199.678 93.0372 195.833 109.099 188.718C110.795 187.963 112.275 187.289 113.62 186.656C114.985 186.013 116.404 185.329 117.96 184.563C118.784 184.16 119.667 183.718 120.657 183.212C121.519 182.78 122.447 182.306 123.577 181.719L124.733 181.123C126.562 180.192 128.368 179.328 130.101 178.554C135.975 175.922 141.263 174.248 146.266 173.434C147.429 173.246 148.57 173.12 149.756 173.05C157.124 172.623 164.555 174.489 171.744 176.292C174.923 177.09 178.21 177.915 181.4 178.512C190.576 180.23 199.758 179.912 208.688 177.565C217.038 175.371 225.017 171.455 232.403 165.925C241.629 159.017 249.668 149.721 255.649 139.039C261.611 128.391 265.379 116.641 266.547 105.058C268.333 87.3629 264.736 69.0435 256.418 53.4751C247.734 37.2317 234.636 24.2502 219.539 16.9225C210.556 12.5581 201.272 10.3718 191.998 10.3718Z" fill="#96BFFF"/>
<path d="M208.512 156.83H33.6207C26.3389 156.83 20.4365 150.927 20.4365 143.646V13.1842C20.4365 5.90238 26.3398 0 33.6207 0H208.512C215.794 0 221.696 5.90327 221.696 13.1842V143.646C221.696 150.927 215.794 156.83 208.512 156.83Z" fill="#F2F7FF"/>
<path d="M33.3247 150.303C29.654 150.303 26.6681 147.316 26.6681 143.645V37.2856C26.6681 33.6148 29.654 30.6289 33.3247 30.6289H208.216C211.887 30.6289 214.874 33.6157 214.874 37.2856V143.645C214.874 147.316 211.887 150.303 208.216 150.303H33.3247Z" fill="white"/>
<path d="M52.2367 37.7922H32.5713V56.9403H52.2367V37.7922Z" fill="#F9F9F9"/>
<path d="M78.4573 37.7922H58.7919V56.9403H78.4573V37.7922Z" fill="#F9F9F9"/>
<path d="M104.678 37.7922H85.0122V56.9403H104.678V37.7922Z" fill="#FBB136"/>
<path d="M130.898 37.7922H111.233V56.9403H130.898V37.7922Z" fill="#F9F9F9"/>
<path d="M157.12 37.7922H137.455V56.9403H157.12V37.7922Z" fill="#F9F9F9"/>
<path d="M183.34 37.7922H163.675V56.9403H183.34V37.7922Z" fill="#F9F9F9"/>
<path d="M209.561 37.7922H189.896V56.9403H209.561V37.7922Z" fill="#96BFFF"/>
<path d="M52.2367 66.2104H32.5713V85.3585H52.2367V66.2104Z" fill="#F9F9F9"/>
<path d="M78.4573 66.2104H58.7919V85.3585H78.4573V66.2104Z" fill="#F9F9F9"/>
<path d="M104.678 66.2104H85.0122V85.3585H104.678V66.2104Z" fill="#F9F9F9"/>
<path d="M130.898 66.2104H111.233V85.3585H130.898V66.2104Z" fill="#F9F9F9"/>
<path d="M157.12 66.2104H137.455V85.3585H157.12V66.2104Z" fill="#F9F9F9"/>
<path d="M183.34 66.2104H163.675V85.3585H183.34V66.2104Z" fill="#F9F9F9"/>
<path d="M209.561 66.2104H189.896V85.3585H209.561V66.2104Z" fill="#F9F9F9"/>
<path d="M52.2367 94.6296H32.5713V113.778H52.2367V94.6296Z" fill="#F9F9F9"/>
<path d="M78.4573 94.6296H58.7919V113.778H78.4573V94.6296Z" fill="#F9F9F9"/>
<path d="M104.678 94.6296H85.0122V113.778H104.678V94.6296Z" fill="#F9F9F9"/>
<path d="M130.898 94.6296H111.233V113.778H130.898V94.6296Z" fill="#96BFFF"/>
<path d="M157.12 94.6296H137.455V113.778H157.12V94.6296Z" fill="#F9F9F9"/>
<path d="M183.34 94.6296H163.675V113.778H183.34V94.6296Z" fill="#96BFFF"/>
<path d="M209.561 94.6296H189.896V113.778H209.561V94.6296Z" fill="#F9F9F9"/>
<path d="M52.2367 123.048H32.5713V142.196H52.2367V123.048Z" fill="#F9F9F9"/>
<path d="M78.4573 123.048H58.7919V142.196H78.4573V123.048Z" fill="#96BFFF"/>
<path d="M104.678 123.048H85.0122V142.196H104.678V123.048Z" fill="#F9F9F9"/>
<path d="M130.898 123.048H111.233V142.196H130.898V123.048Z" fill="#F9F9F9"/>
<path d="M157.12 123.048H137.455V142.196H157.12V123.048Z" fill="#F9F9F9"/>
<path d="M183.34 123.048H163.675V142.196H183.34V123.048Z" fill="#F9F9F9"/>
<path d="M209.561 123.048H189.896V142.196H209.561V123.048Z" fill="#96BFFF"/>
<path d="M98.633 104.607H26.3338C23.1825 104.607 20.6285 101.91 20.6285 98.5832V74.1196C20.6285 70.7923 23.1831 68.0957 26.3338 68.0957H98.6323C101.783 68.0957 104.338 70.7929 104.338 74.1196V98.5832C104.338 101.911 101.784 104.607 98.633 104.607Z" fill="#407FFE"/>
<path d="M96.1915 83.5023H29.665C29.1008 83.5023 28.6432 82.6447 28.6432 81.5873C28.6432 80.5299 29.1008 79.6724 29.665 79.6724H96.1915C96.7558 79.6724 97.2134 80.5299 97.2134 81.5873C97.2134 82.6447 96.7558 83.5023 96.1915 83.5023Z" fill="white"/>
<path d="M96.1915 94.2823H29.665C29.1008 94.2823 28.6432 93.4247 28.6432 92.3673C28.6432 91.3099 29.1008 90.4524 29.665 90.4524H96.1915C96.7558 90.4524 97.2134 91.3099 97.2134 92.3673C97.2134 93.4247 96.7558 94.2823 96.1915 94.2823Z" fill="white"/>
<path d="M75.4241 68.2906L94.8027 44.3311L92.588 68.2906H75.4241Z" fill="#407FFE"/>
<path d="M213.427 113.512C229.4 113.512 242.369 126.481 242.369 142.454C242.369 158.427 229.4 171.396 213.427 171.396C197.454 171.396 184.485 158.427 184.485 142.454C184.485 126.481 197.454 113.512 213.427 113.512Z" fill="#FBB136"/>
<path d="M175.949 143.631C171.207 144.95 167.928 145.862 167.928 145.862M194.877 151.405C185.79 157.514 176.386 163.833 169.374 168.546M212.411 167.634C208.643 175.909 205.684 182.408 205.684 182.408M213.561 148.933C210.764 153.449 207.656 158.461 205.126 162.54M164.515 135.96C157.35 136.805 152.297 137.401 152.297 137.401M202.107 126.208C199.347 126.079 196.847 125.964 195.073 125.881" stroke="#2372EC" stroke-width="1.32942" stroke-linecap="round"/>
<path d="M229.826 126.353L171.094 141.446L185.705 148.552L190.423 165.384L200.346 156.045L209.079 160.768L229.826 126.353Z" fill="#96BFFF"/>
<path d="M229.798 126.371L184.381 147.997L190.42 165.391L190.868 150.616L229.798 126.371Z" fill="#0D47A1"/>
<path d="M39.8139 21.6497H37.9468L42.142 9.99191H44.1741L48.3693 21.6497H46.5023L43.2064 12.1094H43.1154L39.8139 21.6497ZM40.1269 17.0845H46.1835V18.5645H40.1269V17.0845ZM49.9162 24.9284V12.9063H51.5783V14.3237H51.7206C51.8193 14.1416 51.9616 13.931 52.1476 13.6919C52.3335 13.4528 52.5916 13.2441 52.9217 13.0657C53.2519 12.8836 53.6883 12.7925 54.2309 12.7925C54.9368 12.7925 55.5667 12.9709 56.1208 13.3276C56.6748 13.6843 57.1093 14.1985 57.4243 14.8702C57.7431 15.5419 57.9024 16.3502 57.9024 17.2951C57.9024 18.24 57.7449 19.0502 57.43 19.7257C57.115 20.3974 56.6824 20.9154 56.1321 21.2797C55.5819 21.6402 54.9538 21.8204 54.248 21.8204C53.7167 21.8204 53.2822 21.7312 52.9445 21.5529C52.6105 21.3745 52.3487 21.1658 52.1589 20.9267C51.9692 20.6877 51.8231 20.4752 51.7206 20.2892H51.6182V24.9284H49.9162ZM51.584 17.278C51.584 17.8928 51.6732 18.4316 51.8516 18.8946C52.0299 19.3576 52.288 19.72 52.6257 19.9818C52.9635 20.2399 53.3771 20.3689 53.8666 20.3689C54.3751 20.3689 54.8002 20.2342 55.1417 19.9647C55.4832 19.6915 55.7413 19.3215 55.9158 18.8548C56.0942 18.388 56.1834 17.8624 56.1834 17.278C56.1834 16.7012 56.0961 16.1832 55.9215 15.724C55.7508 15.2648 55.4927 14.9024 55.1474 14.6368C54.8058 14.3712 54.3789 14.2383 53.8666 14.2383C53.3733 14.2383 52.9559 14.3655 52.6143 14.6197C52.2766 14.874 52.0204 15.2288 51.8459 15.6842C51.6713 16.1396 51.584 16.6708 51.584 17.278ZM59.8093 24.9284V12.9063H61.4715V14.3237H61.6138C61.7125 14.1416 61.8548 13.931 62.0407 13.6919C62.2267 13.4528 62.4847 13.2441 62.8149 13.0657C63.145 12.8836 63.5814 12.7925 64.1241 12.7925C64.8299 12.7925 65.4599 12.9709 66.0139 13.3276C66.5679 13.6843 67.0025 14.1985 67.3174 14.8702C67.6362 15.5419 67.7956 16.3502 67.7956 17.2951C67.7956 18.24 67.6381 19.0502 67.3231 19.7257C67.0081 20.3974 66.5755 20.9154 66.0253 21.2797C65.475 21.6402 64.847 21.8204 64.1411 21.8204C63.6099 21.8204 63.1754 21.7312 62.8376 21.5529C62.5037 21.3745 62.2418 21.1658 62.0521 20.9267C61.8623 20.6877 61.7162 20.4752 61.6138 20.2892H61.5113V24.9284H59.8093ZM61.4772 17.278C61.4772 17.8928 61.5663 18.4316 61.7447 18.8946C61.9231 19.3576 62.1811 19.72 62.5189 19.9818C62.8566 20.2399 63.2702 20.3689 63.7598 20.3689C64.2683 20.3689 64.6933 20.2342 65.0348 19.9647C65.3764 19.6915 65.6344 19.3215 65.809 18.8548C65.9873 18.388 66.0765 17.8624 66.0765 17.278C66.0765 16.7012 65.9892 16.1832 65.8147 15.724C65.6439 15.2648 65.3859 14.9024 65.0405 14.6368C64.699 14.3712 64.2721 14.2383 63.7598 14.2383C63.2664 14.2383 62.849 14.3655 62.5075 14.6197C62.1697 14.874 61.9136 15.2288 61.739 15.6842C61.5645 16.1396 61.4772 16.6708 61.4772 17.278ZM73.3854 21.8261C72.5657 21.8261 71.8504 21.6383 71.2394 21.2626C70.6284 20.8869 70.1541 20.3613 69.8163 19.6858C69.4786 19.0103 69.3097 18.221 69.3097 17.3178C69.3097 16.4109 69.4786 15.6178 69.8163 14.9385C70.1541 14.2592 70.6284 13.7317 71.2394 13.356C71.8504 12.9803 72.5657 12.7925 73.3854 12.7925C74.2051 12.7925 74.9204 12.9803 75.5314 13.356C76.1423 13.7317 76.6167 14.2592 76.9544 14.9385C77.2922 15.6178 77.461 16.4109 77.461 17.3178C77.461 18.221 77.2922 19.0103 76.9544 19.6858C76.6167 20.3613 76.1423 20.8869 75.5314 21.2626C74.9204 21.6383 74.2051 21.8261 73.3854 21.8261ZM73.3911 20.3974C73.9223 20.3974 74.3625 20.257 74.7117 19.9761C75.0608 19.6953 75.3188 19.3215 75.4858 18.8548C75.6566 18.388 75.742 17.8738 75.742 17.3122C75.742 16.7543 75.6566 16.242 75.4858 15.7752C75.3188 15.3047 75.0608 14.9271 74.7117 14.6425C74.3625 14.3579 73.9223 14.2156 73.3911 14.2156C72.856 14.2156 72.412 14.3579 72.0591 14.6425C71.71 14.9271 71.45 15.3047 71.2792 15.7752C71.1123 16.242 71.0288 16.7543 71.0288 17.3122C71.0288 17.8738 71.1123 18.388 71.2792 18.8548C71.45 19.3215 71.71 19.6953 72.0591 19.9761C72.412 20.257 72.856 20.3974 73.3911 20.3974ZM79.3608 21.6497V12.9063H81.0628V21.6497H79.3608ZM80.2204 11.5573C79.9244 11.5573 79.6701 11.4586 79.4576 11.2613C79.2489 11.0602 79.1445 10.8211 79.1445 10.5441C79.1445 10.2632 79.2489 10.0242 79.4576 9.82684C79.6701 9.62571 79.9244 9.52515 80.2204 9.52515C80.5164 9.52515 80.7687 9.62571 80.9774 9.82684C81.1899 10.0242 81.2962 10.2632 81.2962 10.5441C81.2962 10.8211 81.1899 11.0602 80.9774 11.2613C80.7687 11.4586 80.5164 11.5573 80.2204 11.5573ZM85.0545 16.4583V21.6497H83.3525V12.9063H84.9862V14.3294H85.0944C85.2955 13.8664 85.6105 13.4945 86.0393 13.2137C86.4719 12.9329 87.0164 12.7925 87.6729 12.7925C88.2687 12.7925 88.7905 12.9177 89.2383 13.1682C89.6861 13.4149 90.0333 13.783 90.28 14.2725C90.5267 14.762 90.65 15.3673 90.65 16.0883V21.6497H88.948V16.2932C88.948 15.6595 88.7829 15.1643 88.4528 14.8076C88.1226 14.4471 87.6692 14.2668 87.0923 14.2668C86.6977 14.2668 86.3466 14.3522 86.0393 14.523C85.7357 14.6937 85.4947 14.9442 85.3164 15.2743C85.1418 15.6007 85.0545 15.9953 85.0545 16.4583ZM97.0139 12.9063V14.2725H92.2381V12.9063H97.0139ZM93.5189 10.8116H95.2209V19.0824C95.2209 19.4126 95.2702 19.6612 95.3689 19.8281C95.4675 19.9913 95.5947 20.1033 95.7503 20.164C95.9096 20.2209 96.0823 20.2494 96.2683 20.2494C96.4049 20.2494 96.5244 20.2399 96.6269 20.2209C96.7293 20.2019 96.809 20.1867 96.8659 20.1754L97.1733 21.5814C97.0747 21.6193 96.9343 21.6572 96.7521 21.6952C96.5699 21.7369 96.3423 21.7597 96.069 21.7635C95.6212 21.7711 95.2038 21.6914 94.8167 21.5244C94.4297 21.3575 94.1166 21.0994 93.8775 20.7503C93.6384 20.4012 93.5189 19.9629 93.5189 19.4354V10.8116ZM98.8967 21.6497V12.9063H100.53V14.3294H100.638C100.821 13.8475 101.119 13.4718 101.532 13.2023C101.946 12.9291 102.441 12.7925 103.018 12.7925C103.602 12.7925 104.092 12.9291 104.486 13.2023C104.885 13.4756 105.179 13.8513 105.369 14.3294H105.46C105.669 13.8626 106.001 13.4908 106.456 13.2137C106.911 12.9329 107.454 12.7925 108.084 12.7925C108.877 12.7925 109.524 13.0411 110.025 13.5382C110.53 14.0353 110.782 14.7848 110.782 15.7866V21.6497H109.08V15.946C109.08 15.354 108.919 14.9252 108.596 14.6596C108.274 14.3939 107.889 14.2611 107.441 14.2611C106.887 14.2611 106.456 14.4319 106.149 14.7734C105.841 15.1112 105.688 15.5457 105.688 16.0769V21.6497H103.991V15.8379C103.991 15.3635 103.843 14.9821 103.547 14.6937C103.251 14.4053 102.866 14.2611 102.392 14.2611C102.069 14.2611 101.771 14.3465 101.498 14.5173C101.229 14.6842 101.01 14.9176 100.843 15.2174C100.68 15.5172 100.599 15.8644 100.599 16.2591V21.6497H98.8967ZM116.832 21.8261C115.97 21.8261 115.228 21.6421 114.606 21.274C113.987 20.9021 113.509 20.3803 113.171 19.7086C112.837 19.0331 112.67 18.2419 112.67 17.3349C112.67 16.4393 112.837 15.65 113.171 14.9669C113.509 14.2839 113.98 13.7507 114.583 13.3674C115.19 12.9841 115.9 12.7925 116.712 12.7925C117.205 12.7925 117.683 12.8741 118.146 13.0373C118.609 13.2004 119.025 13.4566 119.393 13.8057C119.761 14.1549 120.051 14.6083 120.264 15.1662C120.476 15.7202 120.583 16.3938 120.583 17.1869V17.7903H113.632V16.5152H118.915C118.915 16.0675 118.824 15.6709 118.642 15.3256C118.46 14.9764 118.203 14.7013 117.873 14.5002C117.547 14.2991 117.164 14.1985 116.723 14.1985C116.245 14.1985 115.828 14.3161 115.471 14.5514C115.118 14.7829 114.845 15.0865 114.651 15.4622C114.462 15.8341 114.367 16.2382 114.367 16.6746V17.6708C114.367 18.2552 114.469 18.7523 114.674 19.1621C114.883 19.572 115.173 19.8851 115.545 20.1014C115.917 20.3139 116.351 20.4201 116.849 20.4201C117.171 20.4201 117.465 20.3746 117.731 20.2835C117.997 20.1886 118.226 20.0482 118.42 19.8623C118.613 19.6763 118.761 19.4468 118.864 19.1735L120.475 19.4638C120.346 19.9382 120.114 20.3537 119.78 20.7104C119.45 21.0634 119.034 21.3385 118.534 21.5358C118.036 21.7293 117.469 21.8261 116.832 21.8261ZM124.173 16.4583V21.6497H122.471V12.9063H124.105V14.3294H124.213C124.414 13.8664 124.729 13.4945 125.158 13.2137C125.591 12.9329 126.135 12.7925 126.792 12.7925C127.387 12.7925 127.909 12.9177 128.357 13.1682C128.805 13.4149 129.152 13.783 129.399 14.2725C129.645 14.762 129.769 15.3673 129.769 16.0883V21.6497H128.067V16.2932C128.067 15.6595 127.902 15.1643 127.571 14.8076C127.241 14.4471 126.788 14.2668 126.211 14.2668C125.816 14.2668 125.465 14.3522 125.158 14.523C124.854 14.6937 124.613 14.9442 124.435 15.2743C124.26 15.6007 124.173 15.9953 124.173 16.4583ZM136.133 12.9063V14.2725H131.357V12.9063H136.133ZM132.638 10.8116H134.34V19.0824C134.34 19.4126 134.389 19.6612 134.488 19.8281C134.586 19.9913 134.713 20.1033 134.869 20.164C135.028 20.2209 135.201 20.2494 135.387 20.2494C135.523 20.2494 135.643 20.2399 135.745 20.2209C135.848 20.2019 135.928 20.1867 135.985 20.1754L136.292 21.5814C136.193 21.6193 136.053 21.6572 135.871 21.6952C135.689 21.7369 135.461 21.7597 135.188 21.7635C134.74 21.7711 134.322 21.6914 133.935 21.5244C133.548 21.3575 133.235 21.0994 132.996 20.7503C132.757 20.4012 132.638 19.9629 132.638 19.4354V10.8116ZM142.394 21.6497V9.99191H146.549C147.453 9.99191 148.202 10.1475 148.798 10.4587C149.397 10.7699 149.845 11.2006 150.141 11.7508C150.437 12.2973 150.585 12.9291 150.585 13.6463C150.585 14.3598 150.435 14.9878 150.136 15.5305C149.84 16.0693 149.392 16.4887 148.792 16.7885C148.196 17.0883 147.447 17.2382 146.544 17.2382H143.396V15.724H146.384C146.954 15.724 147.417 15.6424 147.773 15.4792C148.134 15.3161 148.397 15.0789 148.564 14.7677C148.731 14.4565 148.815 14.0827 148.815 13.6463C148.815 13.2061 148.73 12.8248 148.559 12.5022C148.392 12.1796 148.128 11.933 147.768 11.7622C147.411 11.5876 146.942 11.5004 146.362 11.5004H144.153V21.6497H142.394ZM148.149 16.39L151.029 21.6497H149.026L146.202 16.39H148.149ZM156.248 21.8261C155.386 21.8261 154.644 21.6421 154.022 21.274C153.403 20.9021 152.925 20.3803 152.587 19.7086C152.254 19.0331 152.087 18.2419 152.087 17.3349C152.087 16.4393 152.254 15.65 152.587 14.9669C152.925 14.2839 153.396 13.7507 153.999 13.3674C154.606 12.9841 155.316 12.7925 156.128 12.7925C156.621 12.7925 157.1 12.8741 157.562 13.0373C158.025 13.2004 158.441 13.4566 158.809 13.8057C159.177 14.1549 159.468 14.6083 159.68 15.1662C159.893 15.7202 159.999 16.3938 159.999 17.1869V17.7903H153.049V16.5152H158.331C158.331 16.0675 158.24 15.6709 158.058 15.3256C157.876 14.9764 157.619 14.7013 157.289 14.5002C156.963 14.2991 156.58 14.1985 156.139 14.1985C155.661 14.1985 155.244 14.3161 154.887 14.5514C154.534 14.7829 154.261 15.0865 154.067 15.4622C153.878 15.8341 153.783 16.2382 153.783 16.6746V17.6708C153.783 18.2552 153.885 18.7523 154.09 19.1621C154.299 19.572 154.589 19.8851 154.961 20.1014C155.333 20.3139 155.768 20.4201 156.265 20.4201C156.587 20.4201 156.881 20.3746 157.147 20.2835C157.413 20.1886 157.642 20.0482 157.836 19.8623C158.029 19.6763 158.177 19.4468 158.28 19.1735L159.891 19.4638C159.762 19.9382 159.53 20.3537 159.196 20.7104C158.866 21.0634 158.45 21.3385 157.95 21.5358C157.452 21.7293 156.885 21.8261 156.248 21.8261ZM167.79 24.9284V20.2892H167.688C167.585 20.4752 167.437 20.6877 167.244 20.9267C167.054 21.1658 166.792 21.3745 166.458 21.5529C166.124 21.7312 165.692 21.8204 165.16 21.8204C164.454 21.8204 163.824 21.6402 163.27 21.2797C162.72 20.9154 162.288 20.3974 161.973 19.7257C161.661 19.0502 161.506 18.24 161.506 17.2951C161.506 16.3502 161.663 15.5419 161.978 14.8702C162.297 14.1985 162.733 13.6843 163.287 13.3276C163.842 12.9709 164.47 12.7925 165.172 12.7925C165.714 12.7925 166.151 12.8836 166.481 13.0657C166.815 13.2441 167.073 13.4528 167.255 13.6919C167.441 13.931 167.585 14.1416 167.688 14.3237H167.83V12.9063H169.492V24.9284H167.79ZM165.536 20.3689C166.025 20.3689 166.439 20.2399 166.777 19.9818C167.118 19.72 167.376 19.3576 167.551 18.8946C167.729 18.4316 167.819 17.8928 167.819 17.278C167.819 16.6708 167.731 16.1396 167.557 15.6842C167.382 15.2288 167.126 14.874 166.788 14.6197C166.45 14.3655 166.033 14.2383 165.536 14.2383C165.024 14.2383 164.597 14.3712 164.255 14.6368C163.914 14.9024 163.656 15.2648 163.481 15.724C163.31 16.1832 163.225 16.7012 163.225 17.278C163.225 17.8624 163.312 18.388 163.487 18.8548C163.661 19.3215 163.919 19.6915 164.261 19.9647C164.606 20.2342 165.031 20.3689 165.536 20.3689ZM177.319 18.0237V12.9063H179.027V21.6497H177.353V20.1355H177.262C177.061 20.6023 176.738 20.9913 176.294 21.3024C175.854 21.6098 175.306 21.7635 174.649 21.7635C174.088 21.7635 173.59 21.6402 173.158 21.3935C172.729 21.143 172.391 20.7731 172.145 20.2835C171.902 19.794 171.78 19.1887 171.78 18.4677V12.9063H173.482V18.2628C173.482 18.8586 173.647 19.3329 173.978 19.6858C174.308 20.0387 174.737 20.2152 175.264 20.2152C175.583 20.2152 175.9 20.1355 176.215 19.9761C176.533 19.8168 176.797 19.5758 177.006 19.2532C177.218 18.9307 177.323 18.5208 177.319 18.0237ZM185.082 21.8261C184.22 21.8261 183.478 21.6421 182.856 21.274C182.237 20.9021 181.759 20.3803 181.422 19.7086C181.088 19.0331 180.921 18.2419 180.921 17.3349C180.921 16.4393 181.088 15.65 181.422 14.9669C181.759 14.2839 182.23 13.7507 182.833 13.3674C183.44 12.9841 184.15 12.7925 184.962 12.7925C185.456 12.7925 185.934 12.8741 186.397 13.0373C186.86 13.2004 187.275 13.4566 187.643 13.8057C188.011 14.1549 188.302 14.6083 188.514 15.1662C188.727 15.7202 188.833 16.3938 188.833 17.1869V17.7903H181.883V16.5152H187.165C187.165 16.0675 187.074 15.6709 186.892 15.3256C186.71 14.9764 186.454 14.7013 186.123 14.5002C185.797 14.2991 185.414 14.1985 184.974 14.1985C184.495 14.1985 184.078 14.3161 183.721 14.5514C183.368 14.7829 183.095 15.0865 182.902 15.4622C182.712 15.8341 182.617 16.2382 182.617 16.6746V17.6708C182.617 18.2552 182.719 18.7523 182.924 19.1621C183.133 19.572 183.423 19.8851 183.795 20.1014C184.167 20.3139 184.602 20.4201 185.099 20.4201C185.421 20.4201 185.715 20.3746 185.981 20.2835C186.247 20.1886 186.476 20.0482 186.67 19.8623C186.863 19.6763 187.011 19.4468 187.114 19.1735L188.725 19.4638C188.596 19.9382 188.364 20.3537 188.03 20.7104C187.7 21.0634 187.285 21.3385 186.784 21.5358C186.287 21.7293 185.719 21.8261 185.082 21.8261ZM197.273 15.0409L195.731 15.3142C195.666 15.1168 195.564 14.929 195.423 14.7506C195.287 14.5723 195.101 14.4262 194.865 14.3123C194.63 14.1985 194.336 14.1416 193.983 14.1416C193.501 14.1416 193.099 14.2497 192.776 14.466C192.454 14.6785 192.292 14.9537 192.292 15.2914C192.292 15.5836 192.401 15.8189 192.617 15.9972C192.833 16.1756 193.182 16.3217 193.664 16.4355L195.053 16.7543C195.858 16.9403 196.457 17.2268 196.852 17.6138C197.247 18.0009 197.444 18.5037 197.444 19.1223C197.444 19.646 197.292 20.1127 196.988 20.5226C196.689 20.9286 196.269 21.2474 195.731 21.4789C195.195 21.7104 194.575 21.8261 193.869 21.8261C192.89 21.8261 192.091 21.6174 191.473 21.2C190.854 20.7787 190.475 20.1811 190.334 19.4069L191.979 19.1564C192.082 19.5853 192.292 19.9097 192.611 20.1298C192.93 20.3461 193.345 20.4543 193.858 20.4543C194.416 20.4543 194.861 20.3385 195.195 20.1071C195.529 19.8718 195.696 19.5853 195.696 19.2475C195.696 18.9743 195.594 18.7447 195.389 18.5588C195.188 18.3728 194.879 18.2324 194.461 18.1375L192.981 17.8131C192.165 17.6271 191.562 17.3311 191.171 16.9251C190.784 16.519 190.59 16.0048 190.59 15.3825C190.59 14.8664 190.735 14.4148 191.023 14.0277C191.311 13.6407 191.71 13.339 192.218 13.1227C192.727 12.9026 193.309 12.7925 193.966 12.7925C194.911 12.7925 195.655 12.9974 196.197 13.4073C196.74 13.8133 197.099 14.3579 197.273 15.0409ZM203.397 12.9063V14.2725H198.621V12.9063H203.397ZM199.902 10.8116H201.603V19.0824C201.603 19.4126 201.653 19.6612 201.751 19.8281C201.85 19.9913 201.977 20.1033 202.133 20.164C202.292 20.2209 202.465 20.2494 202.651 20.2494C202.787 20.2494 202.907 20.2399 203.009 20.2209C203.112 20.2019 203.192 20.1867 203.249 20.1754L203.556 21.5814C203.457 21.6193 203.317 21.6572 203.135 21.6952C202.953 21.7369 202.725 21.7597 202.452 21.7635C202.004 21.7711 201.586 21.6914 201.199 21.5244C200.812 21.3575 200.499 21.0994 200.26 20.7503C200.021 20.4012 199.902 19.9629 199.902 19.4354V10.8116Z" fill="#424242"/>
</svg>
