<svg width="212" height="201" viewBox="0 0 212 201" fill="none" xmlns="http://www.w3.org/2000/svg">
<g opacity="0.5">
<path d="M16.3257 94.2354L129.863 29.0012L16.3257 94.2354Z" fill="white"/>
<path d="M16.3257 94.2354L129.863 29.0012" stroke="#DDE5FD" stroke-width="32.6461" stroke-linecap="round"/>
</g>
<g opacity="0.5">
<path d="M43.3323 137.021L156.87 71.7871L43.3323 137.021Z" fill="white"/>
<path d="M43.3323 137.021L156.87 71.7871" stroke="#DDE5FD" stroke-width="32.6461" stroke-linecap="round"/>
</g>
<g opacity="0.5">
<path d="M185.952 55.394L194.801 50.2429L185.952 55.394Z" fill="white"/>
<path d="M185.952 55.394L194.801 50.2429" stroke="#DDE5FD" stroke-width="32.6461" stroke-linecap="round"/>
</g>
<g opacity="0.5">
<path d="M83.3872 172.221L169.614 121.856L83.3872 172.221Z" fill="white"/>
<path d="M83.3872 172.221L169.614 121.856" stroke="#DDE5FD" stroke-width="32.6461" stroke-linecap="round"/>
</g>
<path d="M190.913 126.124C192.295 126.258 193.307 127.49 193.173 128.872C193.038 130.254 191.807 131.266 190.425 131.132C189.043 130.997 188.03 129.766 188.165 128.384C188.299 127.002 189.531 125.989 190.913 126.124Z" stroke="#DDE5FD" stroke-width="1.51978"/>
<path d="M44.5307 178.465C46.8032 178.686 48.4687 180.711 48.2474 182.983C48.0262 185.256 46.0014 186.921 43.7289 186.7C41.4564 186.479 39.7909 184.454 40.0122 182.181C40.2334 179.909 42.2582 178.243 44.5307 178.465Z" stroke="#DDE5FD" stroke-width="2.49918"/>
<path d="M101.239 8.45217C103.512 8.67342 105.177 10.6982 104.956 12.9707C104.735 15.2432 102.71 16.9087 100.438 16.6874C98.1651 16.4661 96.4997 14.4414 96.7209 12.1689C96.9422 9.89637 98.9669 8.23091 101.239 8.45217Z" stroke="#81A7F1" stroke-width="2.49918"/>
<path d="M6.08973 62.2988C7.13284 62.2988 7.97976 63.1457 7.97976 64.1889C7.97976 65.232 7.13284 66.0789 6.08973 66.0789C5.04663 66.0789 4.19971 65.232 4.19971 64.1889C4.19971 63.1457 5.04663 62.2988 6.08973 62.2988Z" stroke="#81A7F1" stroke-width="1.8268"/>
<path d="M152.886 185.551C153.929 185.551 154.776 186.398 154.776 187.441C154.776 188.484 153.929 189.331 152.886 189.331C151.843 189.331 150.996 188.484 150.996 187.441C150.996 186.398 151.843 185.551 152.886 185.551Z" stroke="#81A7F1" stroke-width="1.8268"/>
<path d="M175.074 7.96826L175.977 0.43603" stroke="#81A7F1" stroke-width="1.06439"/>
<path d="M171.886 3.78125L179.419 4.68419" stroke="#DDE5FD" stroke-width="1.06439"/>
<path d="M14.4163 131.792L14.9804 124.226" stroke="#DDE5FD" stroke-width="1.06439"/>
<path d="M11.0439 127.752L18.6091 128.316" stroke="#DDE5FD" stroke-width="1.06439"/>
<path d="M172.187 164.575L172.185 156.989" stroke="#DDE5FD" stroke-width="1.06439"/>
<path d="M168.522 160.798L176.109 160.797" stroke="#DDE5FD" stroke-width="1.06439"/>
<path d="M103.315 40.2627C133.418 40.2627 157.86 64.7041 157.86 94.8073C157.86 124.91 133.418 149.352 103.315 149.352C73.2119 149.352 48.7705 124.91 48.7705 94.8073C48.7705 64.7041 73.2119 40.2627 103.315 40.2627Z" fill="#3570E3"/>
<path d="M103.282 45.4214C130.538 45.4214 152.667 67.5512 152.667 94.8072C152.667 122.063 130.538 144.193 103.282 144.193C76.0255 144.193 53.8958 122.063 53.8958 94.8072C53.8958 67.5512 76.0255 45.4214 103.282 45.4214Z" fill="#2372EC"/>
<path d="M80.9783 96.6186L94.3299 109.667L125.585 78.4119" stroke="white" stroke-width="9.57948" stroke-linecap="round" stroke-linejoin="round"/>
<path d="M143.971 112.08C157.079 112.08 167.721 122.723 167.721 135.83C167.721 148.938 157.079 159.58 143.971 159.58C130.864 159.58 120.221 148.938 120.221 135.83C120.221 122.723 130.864 112.08 143.971 112.08Z" fill="#6DDB72"/>
<path d="M113.217 136.796C109.326 137.878 106.635 138.626 106.635 138.626M128.749 143.175C121.292 148.188 113.576 153.374 107.821 157.241M143.138 156.493C140.046 163.283 137.618 168.616 137.618 168.616M144.082 141.147C141.786 144.852 139.236 148.965 137.16 152.312M103.834 130.5C97.9548 131.194 93.8078 131.683 93.8078 131.683M134.682 122.498C132.418 122.393 130.366 122.298 128.91 122.23" stroke="#2E7D32" stroke-width="1.09093" stroke-linecap="round"/>
<path d="M157.429 122.617L109.233 135.003L121.223 140.835L125.094 154.646L133.237 146.983L140.403 150.858L157.429 122.617Z" fill="white"/>
<path d="M157.406 122.632L120.137 140.379L125.092 154.652L125.46 142.528L157.406 122.632Z" fill="#3EAF3F"/>
</svg>
