<svg width="60" height="53" viewBox="0 0 60 53" fill="none" xmlns="http://www.w3.org/2000/svg">
<path d="M37.1505 0.274167C37.4799 0.603493 37.1505 1.46676 37.1505 1.46676C37.1505 1.46676 34.7653 11.6038 34.169 19.3557C33.5727 27.1075 35.9579 37.2446 35.9579 37.2446C35.9579 37.2446 37.1505 40.8223 34.7653 43.2075C32.3802 45.5927 29.995 45.5927 29.995 45.5927C29.995 45.5927 27.6098 45.5927 25.8209 44.1604C24.032 42.7282 23.4357 39.6297 23.4357 39.6297C23.4357 39.6297 22.8394 32.4742 27.0135 19.952C31.1876 7.42973 35.9579 0.274167 35.9579 0.274167C36.3564 -0.125912 36.8212 -0.0551582 37.1505 0.274167Z" fill="#FFC487"/>
<path d="M30.0384 52.3414C21.7645 52.3414 17.8144 45.6327 16.9944 39.2974C16.771 37.584 15.2808 36.3904 13.5658 36.3904H1.86343C0.83367 36.3904 0 35.5568 0 34.5271C0 33.4973 0.83367 32.6636 1.86343 32.6636H13.4908C17.0676 32.6636 20.1244 35.3471 20.6462 38.8506C21.0178 41.0875 22.6579 48.6145 30.0384 48.6145C36.2254 48.6145 38.4604 43.1743 39.2055 38.5522C39.8022 35.1238 42.7823 32.6636 46.2859 32.6636H58.1366C59.1663 32.6636 60 33.4973 60 34.5271C60 35.5568 59.1663 36.3904 58.1366 36.3904H46.3592C44.6458 36.3904 43.229 37.584 42.9308 39.2224C41.4423 47.7195 36.8954 52.3397 30.0384 52.3414Z" fill="#FFC487"/>
<path d="M42.4118 23.943C42.4118 25.4245 41.2099 26.6264 39.7284 26.6264C38.2469 26.6264 37.0449 25.4262 37.0449 23.943C37.0449 22.4614 38.2452 21.2594 39.7284 21.2594C41.2117 21.2594 42.4118 22.4597 42.4118 23.943Z" fill="#FF6859"/>
<path d="M41.8152 13.7311C41.8152 15.0491 40.7478 16.1162 39.43 16.1162C38.1138 16.1162 37.0449 15.0491 37.0449 13.7311C37.0449 12.4133 38.1121 11.3459 39.43 11.3459C40.7461 11.3459 41.8152 12.4133 41.8152 13.7311Z" fill="#FF6859"/>
<path d="M26.7585 16.6381C26.7585 17.9561 25.6913 19.0232 24.3735 19.0232C23.0555 19.0232 21.9883 17.9561 21.9883 16.6381C21.9883 15.3203 23.0555 14.2529 24.3735 14.2529C25.6913 14.2529 26.7585 15.3203 26.7585 16.6381Z" fill="#FF6859"/>
<path d="M42.1888 4.3395C42.1888 5.36919 41.3551 6.20293 40.3253 6.20293C39.2957 6.20293 38.4619 5.36919 38.4619 4.3395C38.4619 3.3097 39.2957 2.47607 40.3253 2.47607C41.3551 2.47607 42.1888 3.31149 42.1888 4.3395Z" fill="#FF6859"/>
<path d="M29.8899 7.17202C29.8899 8.2017 29.0563 9.03544 28.0265 9.03544C26.9968 9.03544 26.1631 8.2017 26.1631 7.17202C26.1631 6.14221 26.9968 5.30847 28.0265 5.30847C29.0563 5.30847 29.8899 6.14221 29.8899 7.17202Z" fill="#FF6859"/>
<path d="M23.4802 27.5953C23.4802 29.0769 22.2801 30.2788 20.7967 30.2788C19.3153 30.2788 18.1133 29.0769 18.1133 27.5953C18.1133 26.1138 19.3153 24.9117 20.7967 24.9117C22.2783 24.9117 23.4802 26.1138 23.4802 27.5953Z" fill="#FF6859"/>
</svg>
