<svg width="40" height="40" viewBox="0 0 40 40" fill="none" xmlns="http://www.w3.org/2000/svg">
<path d="M25.0082 6.68185L25.0615 6.1847V6.1847L25.0082 6.68185ZM27.3903 9.33909L27.8903 9.34017V9.34017L27.3903 9.33909ZM14.9915 6.68185L15.0448 7.179H15.0448L14.9915 6.68185ZM12.6094 9.33909L13.1094 9.338L12.6094 9.33909ZM24 28.5C24.2761 28.5 24.5 28.2761 24.5 28C24.5 27.7238 24.2761 27.5 24 27.5V28.5ZM16 27.5C15.7238 27.5 15.5 27.7238 15.5 28C15.5 28.2761 15.7238 28.5 16 28.5V27.5ZM7.74196 26.3906L8.23707 26.3208L7.74196 26.3906ZM32.258 26.3906L31.7629 26.3208L32.258 26.3906ZM32.822 22.3906L33.3171 22.4604V22.4604L32.822 22.3906ZM7.178 22.3906L6.6829 22.4604H6.6829L7.178 22.3906ZM12.7172 9.99996V10.5H27.2823V9.99996V9.49996H12.7172V9.99996ZM27.2823 9.99996V10.5C28.7378 10.5 29.841 11.8133 29.5898 13.247L30.0823 13.3333L30.5748 13.4196C30.9332 11.3739 29.3591 9.49996 27.2823 9.49996V9.99996ZM12.7172 9.99996V9.49996C10.6403 9.49996 9.06617 11.3739 9.42462 13.4196L9.91712 13.3333L10.4096 13.247C10.1584 11.8133 11.2616 10.5 12.7172 10.5V9.99996ZM15.6546 6.66663V7.16663H24.345V6.66663V6.16663H15.6546V6.66663ZM24.345 6.66663V7.16663C24.706 7.16663 24.8464 7.16736 24.9548 7.179L25.0082 6.68185L25.0615 6.1847C24.8863 6.16589 24.6791 6.16663 24.345 6.16663V6.66663ZM27.3332 9.99996L27.8303 10.0544C27.8666 9.72235 27.8899 9.51645 27.8903 9.34017L27.3903 9.33909L26.8903 9.338C26.8901 9.44707 26.8755 9.5867 26.8362 9.94553L27.3332 9.99996ZM25.0082 6.68185L24.9548 7.179C26.0574 7.29732 26.8927 8.22907 26.8903 9.338L27.3903 9.33909L27.8903 9.34017C27.8938 7.71944 26.673 6.35764 25.0615 6.1847L25.0082 6.68185ZM15.6546 6.66663V6.16663C15.3206 6.16663 15.1134 6.16589 14.9381 6.1847L14.9915 6.68185L15.0448 7.179C15.1533 7.16736 15.2936 7.16663 15.6546 7.16663V6.66663ZM12.6664 9.99996L13.1635 9.94553C13.1242 9.58667 13.1096 9.44708 13.1094 9.338L12.6094 9.33909L12.1094 9.34017C12.1098 9.51645 12.133 9.72232 12.1694 10.0544L12.6664 9.99996ZM14.9915 6.68185L14.9381 6.1847C13.3266 6.35764 12.1059 7.71943 12.1094 9.34017L12.6094 9.33909L13.1094 9.338C13.107 8.22907 13.9422 7.29732 15.0448 7.179L14.9915 6.68185ZM24 28V27.5H16V28V28.5H24V28ZM15.5632 13.3333V13.8333H24.4368V13.3333V12.8333H15.5632V13.3333ZM32.822 22.3906L32.3269 22.3208L31.7629 26.3208L32.258 26.3906L32.7531 26.4604L33.3171 22.4604L32.822 22.3906ZM23.8728 33.3333V32.8333H16.1271V33.3333V33.8333H23.8728V33.3333ZM7.74196 26.3906L8.23707 26.3208L7.67311 22.3208L7.178 22.3906L6.6829 22.4604L7.24686 26.4604L7.74196 26.3906ZM16.1271 33.3333V32.8333C14.3504 32.8333 13.0624 32.8325 12.0673 32.713C11.0841 32.5951 10.4514 32.3673 9.95665 31.9577L9.63777 32.3428L9.3189 32.728C10.0204 33.3088 10.868 33.5763 11.9482 33.7059C13.0166 33.8341 14.3752 33.8333 16.1271 33.8333V33.3333ZM7.74196 26.3906L7.24686 26.4604C7.47813 28.1007 7.65746 29.3801 7.93467 30.3705C8.21638 31.377 8.61417 32.1445 9.3189 32.728L9.63777 32.3428L9.95665 31.9577C9.46512 31.5507 9.14819 30.996 8.89766 30.101C8.64261 29.1898 8.47217 27.9883 8.23707 26.3208L7.74196 26.3906ZM32.258 26.3906L31.7629 26.3208C31.5278 27.9883 31.3574 29.1898 31.1023 30.101C30.8518 30.996 30.5349 31.5507 30.0433 31.9577L30.3622 32.3428L30.6811 32.728C31.3858 32.1445 31.7836 31.377 32.0653 30.3705C32.3425 29.3801 32.5219 28.1007 32.7531 26.4604L32.258 26.3906ZM23.8728 33.3333V33.8333C25.6248 33.8333 26.9834 33.8341 28.0518 33.7059C29.132 33.5763 29.9796 33.3088 30.6811 32.728L30.3622 32.3428L30.0433 31.9577C29.5486 32.3673 28.9158 32.5951 27.9326 32.713C26.9376 32.8325 25.6496 32.8333 23.8728 32.8333V33.3333ZM24.4368 13.3333V13.8333C26.7009 13.8333 28.3489 13.8343 29.5911 13.9996C30.8226 14.1634 31.5654 14.4787 32.0833 15.0381L32.4502 14.6984L32.8171 14.3587C32.0712 13.553 31.0572 13.1858 29.7229 13.0083C28.3993 12.8322 26.6724 12.8333 24.4368 12.8333V13.3333ZM32.822 22.3906L33.3171 22.4604C33.6122 20.3672 33.8427 18.7419 33.833 17.4708C33.8232 16.1824 33.5677 15.1695 32.8171 14.3587L32.4502 14.6984L32.0833 15.0381C32.5965 15.5924 32.8242 16.3166 32.8331 17.4784C32.842 18.6577 32.6265 20.196 32.3269 22.3208L32.822 22.3906ZM15.5632 13.3333V12.8333C13.3276 12.8333 11.6007 12.8322 10.2771 13.0083C8.94273 13.1858 7.92876 13.553 7.18284 14.3587L7.54975 14.6984L7.91665 15.0381C8.43453 14.4787 9.1774 14.1634 10.4089 13.9996C11.6511 13.8343 13.299 13.8333 15.5632 13.8333V13.3333ZM7.178 22.3906L7.67311 22.3208C7.37353 20.196 7.15797 18.6577 7.16692 17.4784C7.17574 16.3166 7.40346 15.5924 7.91665 15.0381L7.54975 14.6984L7.18284 14.3587C6.43223 15.1695 6.17673 16.1824 6.16695 17.4708C6.1573 18.7419 6.38778 20.3672 6.6829 22.4604L7.178 22.3906Z" fill="#F2F7FF"/>
</svg>
