<svg width="290" height="270" viewBox="0 0 290 270" fill="none" xmlns="http://www.w3.org/2000/svg">
<g clip-path="url(#clip0_1008_200)">
<rect width="289.954" height="269.327" rx="134.664" fill="#FFF7F0"/>
<path d="M148.941 22.8804V87.2921L165.165 87.3304V102.955L181.986 87.3304H267.847V22.8804H148.941Z" stroke="#EBEBEB" stroke-width="0.446843" stroke-miterlimit="10"/>
<path d="M230.876 55.1046C230.876 57.9945 233.398 60.3376 236.51 60.3376C239.621 60.3376 242.143 57.9945 242.143 55.1046C242.143 52.2142 239.621 49.8716 236.51 49.8716C233.398 49.8716 230.876 52.2142 230.876 55.1046Z" fill="#EBEBEB"/>
<path d="M202.76 55.1046C202.76 57.9945 205.282 60.3376 208.394 60.3376C211.506 60.3376 214.028 57.9945 214.028 55.1046C214.028 52.2142 211.505 49.8716 208.394 49.8716C205.283 49.8716 202.76 52.2142 202.76 55.1046Z" fill="#EBEBEB"/>
<path d="M174.645 55.1046C174.645 57.9945 177.167 60.3376 180.279 60.3376C183.39 60.3376 185.912 57.9945 185.912 55.1046C185.912 52.2142 183.39 49.8716 180.279 49.8716C177.167 49.8716 174.645 52.2142 174.645 55.1046Z" fill="#EBEBEB"/>
<path d="M120.173 146.527C120.092 144.046 133.525 129.324 134.652 128.812C150.014 121.841 167.438 112.552 162.709 104.617C158.191 97.0383 129.207 107.206 122.556 109.372C116.06 111.487 97.8846 128.543 94.8076 135.186C91.7306 141.83 83.3515 175.527 83.3515 175.527L115.663 180.299C115.663 180.299 120.293 150.154 120.173 146.527Z" fill="#FFC184"/>
<g opacity="0.1">
<path d="M120.173 146.527C120.092 144.046 133.525 129.324 134.652 128.812C150.014 121.841 167.438 112.552 162.709 104.617C158.191 97.0383 129.207 107.206 122.556 109.372C116.06 111.487 97.8846 128.543 94.8076 135.186C91.7306 141.83 83.3515 175.527 83.3515 175.527L115.663 180.299C115.663 180.299 120.293 150.154 120.173 146.527Z" fill="black"/>
</g>
<path d="M129.017 166.25C129.41 163.795 145.442 151.519 146.649 151.202C163.098 146.872 182.02 140.601 178.88 132.013C175.882 123.81 145.415 129.042 138.457 130.077C131.659 131.088 110.516 144.879 106.219 150.91C101.922 156.942 87.2415 188.724 87.2415 188.724L118.13 198.743C118.13 198.743 128.442 169.84 129.017 166.25Z" fill="#FFC184"/>
<g opacity="0.1">
<path d="M129.017 166.25C129.41 163.795 145.442 151.519 146.649 151.202C163.098 146.872 182.02 140.601 178.88 132.013C175.882 123.81 145.415 129.042 138.457 130.077C131.659 131.088 110.516 144.879 106.219 150.91C101.922 156.942 87.2415 188.724 87.2415 188.724L118.13 198.743C118.13 198.743 128.442 169.84 129.017 166.25Z" fill="black"/>
</g>
<path d="M82.2085 269.327C82.2085 269.327 44.2471 199.535 45.9334 181.693C46.2228 178.632 54.9789 143.567 58.438 139.091C67.7021 127.102 109.208 83.9547 117.825 88.2337C138.043 98.2737 93.4871 144.81 93.4871 144.81C95.6775 155.732 92.4937 178.879 92.4937 178.879C98.9881 176.537 163.248 219.935 163.165 236.992L198.073 269.327H82.2085Z" fill="#FFC184"/>
<path d="M208.259 203.217L205.617 210.639L205.61 210.638C204.873 211.849 203.427 212.613 201.45 212.655L128.863 214.208C124.81 214.294 120.033 211.304 118.206 207.536L52.0787 71.0818C51.2413 69.35 51.1636 67.7561 51.7186 66.5275L54.3404 59.1641L133.242 61.7577L136.576 68.0341C137.472 68.9223 138.22 69.9172 138.735 70.9794L145.115 84.1506L208.259 203.217Z" fill="#2372EC"/>
<path d="M204.091 205.233L131.504 206.785C127.451 206.871 122.674 203.881 120.847 200.113L54.7196 63.6598C52.8889 59.8849 54.6993 56.7585 58.7523 56.6723L131.339 55.1199C135.398 55.0348 140.171 58.0179 142.002 61.7928L208.13 198.246C209.957 202.015 208.15 205.148 204.091 205.233Z" fill="#2372EC"/>
<path d="M204.993 212.392L205.522 210.904C205.445 211.451 205.267 211.951 204.993 212.392Z" fill="#2372EC"/>
<path d="M102.032 61.7546L93.8264 61.9302C93.5463 61.9362 93.2192 61.7342 93.0951 61.4783C92.971 61.2224 93.098 61.0108 93.3775 61.0048L101.583 60.8292C101.863 60.8233 102.19 61.0253 102.315 61.2812C102.438 61.5365 102.312 61.7487 102.032 61.7546Z" fill="#2372EC"/>
<path d="M140.878 65.5049L204.803 195.889C206.61 199.575 205.03 202.617 201.279 202.693L134.226 204.036C130.467 204.112 125.964 201.191 124.157 197.505L60.2317 67.1204C56.551 59.6126 59.4128 59.1854 63.1724 59.11L76.6019 58.8407C77.3825 58.8251 78.4153 59.6169 78.9047 60.615L79.1158 61.0454C80.2617 63.3832 81.6755 63.3627 83.4095 63.3282L114.471 62.7061C116.218 62.6711 117.611 62.635 116.464 60.2972L116.253 59.8668C115.764 58.8693 115.999 58.0516 116.793 58.036L130.226 57.7666C133.976 57.6918 137.507 58.6285 140.878 65.5049Z" fill="white"/>
<path d="M140.879 65.5034L147.262 78.5232L66.6155 80.1392L60.2324 67.1194C56.5517 59.6116 59.4136 59.1845 63.1731 59.1091L76.6027 58.8403C77.3832 58.8247 78.416 59.6165 78.9049 60.6141L79.116 61.0444C80.2619 63.3822 81.6757 63.3617 83.4096 63.3273L114.471 62.7051C116.218 62.6701 117.611 62.634 116.464 60.2963L116.253 59.8659C115.764 58.8677 115.999 58.0506 116.793 58.035L130.226 57.7657C133.978 57.6908 137.508 58.6275 140.879 65.5034Z" fill="#96BFFF"/>
<path d="M72.6609 75.6611L69.2852 73.6831L70.6747 71.6099L71.2198 71.9595L70.0756 73.667L72.8557 75.2964L72.6609 75.6611Z" fill="white"/>
<path d="M137.288 71.0463C137.404 71.2812 137.287 71.4762 137.028 71.481C136.769 71.4864 136.466 71.3 136.35 71.0652C136.235 70.8303 136.352 70.6359 136.611 70.6305C136.87 70.6251 137.173 70.8115 137.288 71.0463Z" fill="white"/>
<path d="M138.03 72.5595C138.145 72.7944 138.029 72.9894 137.77 72.9942C137.511 72.9996 137.208 72.8132 137.092 72.5784C136.977 72.3435 137.093 72.1491 137.353 72.1437C137.612 72.1383 137.915 72.3247 138.03 72.5595Z" fill="white"/>
<path d="M138.772 74.0717C138.887 74.3066 138.77 74.5015 138.511 74.5064C138.253 74.5118 137.949 74.3254 137.834 74.0906C137.719 73.8557 137.835 73.6607 138.094 73.6559C138.354 73.651 138.656 73.8368 138.772 74.0717Z" fill="white"/>
<path d="M75.7199 61.8159C75.6955 61.8557 75.6717 61.8956 75.6474 61.9354C75.6335 61.9581 75.6201 61.9812 75.6068 62.0038C75.1075 61.7038 74.6122 61.5487 74.1263 61.5578C73.6403 61.5675 73.3051 61.7394 73.1056 62.055C73.072 62.0335 73.0378 62.0114 73.003 61.9898C72.941 61.9516 72.8795 61.9133 72.8174 61.8756C72.8163 61.8746 72.8139 61.8746 72.8128 61.874C72.8122 61.8729 72.8116 61.8713 72.8116 61.8713C72.8139 61.8692 72.8157 61.8665 72.818 61.8643C72.8511 61.8191 72.8818 61.7728 72.9178 61.7291C72.9914 61.6397 73.0836 61.5648 73.1897 61.5018C73.315 61.4275 73.4565 61.3709 73.6177 61.3381C73.6943 61.3224 73.7749 61.3138 73.8543 61.3025C73.8816 61.2987 74.0666 61.2944 74.0729 61.2944C74.1321 61.2971 74.1901 61.2982 74.2498 61.3031C74.4157 61.3154 74.5862 61.3472 74.7601 61.3935C74.886 61.4275 75.0118 61.4695 75.1371 61.5201C75.2699 61.5729 75.3998 61.6338 75.5279 61.7033C75.5923 61.7383 75.6561 61.776 75.7199 61.8126C75.7193 61.8137 75.7199 61.8148 75.7199 61.8159Z" fill="white"/>
<path d="M73.6983 62.416C73.5991 62.3556 73.5023 62.2964 73.4026 62.2355C73.5342 62.0228 73.7453 61.8849 74.0503 61.8385C74.5061 61.769 74.9886 61.8946 75.4902 62.1908C75.4514 62.2555 75.4137 62.3179 75.3754 62.381C75.0431 62.1811 74.7097 62.0766 74.382 62.0831C74.0561 62.0901 73.8311 62.2059 73.6983 62.416Z" fill="white"/>
<path d="M75.2623 62.572C75.2246 62.635 75.1869 62.6975 75.1492 62.7611C74.9799 62.6593 74.8083 62.6043 74.6401 62.6081C74.4725 62.6119 74.3577 62.6717 74.2898 62.7794C74.1912 62.7191 74.0932 62.6587 73.9958 62.5989C74.1686 62.2833 74.7404 62.2472 75.2623 62.572Z" fill="white"/>
<path d="M74.9863 62.9343C75.0315 63.0269 74.9857 63.1034 74.8837 63.105C74.7822 63.1072 74.6627 63.0339 74.6175 62.9413C74.5722 62.8492 74.6181 62.7727 74.7195 62.7705C74.8216 62.7689 74.9411 62.8422 74.9863 62.9343Z" fill="white"/>
<path d="M63.2396 62.4249C63.1086 62.1572 63.2408 61.9352 63.5366 61.9293C63.8317 61.9234 64.1774 62.1356 64.309 62.4039C64.4406 62.6716 64.3073 62.8935 64.0121 62.8994C63.7163 62.9054 63.3707 62.6931 63.2396 62.4249Z" fill="white"/>
<path d="M64.9231 62.3912C64.7921 62.1235 64.9249 61.9016 65.22 61.8956C65.5152 61.8897 65.8608 62.1019 65.9925 62.3702C66.1235 62.6379 65.9907 62.8598 65.6956 62.8657C65.4004 62.8711 65.0542 62.6589 64.9231 62.3912Z" fill="white"/>
<path d="M66.6066 62.3575C66.475 62.0898 66.6078 61.8679 66.9029 61.8619C67.1981 61.856 67.5437 62.0682 67.6754 62.3365C67.8064 62.6042 67.6736 62.8261 67.3785 62.8321C67.0833 62.838 66.7377 62.6252 66.6066 62.3575Z" fill="white"/>
<path d="M68.2901 62.3233C68.1584 62.0556 68.2912 61.8337 68.5864 61.8278C68.8816 61.8218 69.2272 62.0341 69.3588 62.3023C69.4899 62.57 69.3571 62.792 69.0619 62.7979C68.7668 62.8038 68.4211 62.5916 68.2901 62.3233Z" fill="white"/>
<path d="M69.9736 62.2901C69.8425 62.0224 69.9753 61.8005 70.2705 61.7946C70.5656 61.7886 70.9113 62.0009 71.0429 62.2691C71.174 62.5368 71.0412 62.7587 70.746 62.7647C70.4502 62.7701 70.1046 62.5578 69.9736 62.2901Z" fill="white"/>
<path d="M133.101 62.0974L128.744 62.1846L127.844 60.35L132.201 60.2627L133.101 62.0974ZM128.87 61.9735L132.771 61.8954L132.075 60.4744L128.174 60.5525L128.87 61.9735Z" fill="white"/>
<path d="M131.167 60.6001L128.362 60.6561L128.954 61.8643L131.759 61.8078L131.167 60.6001Z" fill="white"/>
<path d="M133.278 61.6614L132.891 61.6689L132.411 60.6907L132.798 60.6826L133.278 61.6614Z" fill="white"/>
<path d="M134.244 196.922L133.849 196.93L134.655 198.573L133.918 198.587L133.508 197.75L132.204 197.776L132.614 198.613L131.878 198.628L131.073 196.986L130.678 196.993L131.641 195.286L134.244 196.922Z" fill="#EBEBEB"/>
<path d="M197.532 194.528L193.235 194.614L192.962 194.057L197.258 193.971L197.532 194.528Z" fill="#EBEBEB"/>
<path d="M198.208 195.907L193.911 195.993L193.637 195.436L197.935 195.35L198.208 195.907Z" fill="#EBEBEB"/>
<path d="M198.884 197.286L194.587 197.372L194.314 196.814L198.61 196.728L198.884 197.286Z" fill="#EBEBEB"/>
<path d="M165.663 196.336L165.021 197.543L163.219 196.385L163.345 196.197L164.829 197.151L165.357 196.156L165.663 196.336Z" fill="#EBEBEB"/>
<path d="M165.62 198.766C164.397 198.791 162.958 197.907 162.413 196.797C161.869 195.686 162.421 194.763 163.645 194.738C164.869 194.713 166.307 195.597 166.852 196.707C167.397 197.818 166.844 198.741 165.62 198.766ZM163.776 195.003C162.713 195.025 162.234 195.826 162.706 196.79C163.179 197.754 164.427 198.521 165.49 198.5C166.552 198.479 167.032 197.677 166.559 196.713C166.087 195.749 164.838 194.982 163.776 195.003Z" fill="#EBEBEB"/>
<path d="M95.5968 72.2098L96.6233 74.3035C96.6755 74.4096 96.6175 74.5007 96.4997 74.5028C96.3785 74.505 96.2411 74.4183 96.1889 74.3121L95.4565 72.8179L95.2413 73.5392C95.2245 73.593 95.1758 73.6227 95.1051 73.6243H95.101H95.0969C95.0268 73.6259 94.9462 73.599 94.8772 73.5462L93.9702 72.8475L94.7026 74.3418C94.7548 74.4479 94.7009 74.5389 94.5797 74.5411C94.4625 74.5432 94.321 74.4565 94.2688 74.3504L93.2424 72.2566C93.1902 72.15 93.2441 72.0595 93.3619 72.0568C93.3659 72.0568 93.3659 72.0568 93.3735 72.0568C93.4361 72.0557 93.5202 72.0827 93.5857 72.1349L94.8441 73.0986L95.1422 72.1037C95.159 72.0498 95.2077 72.0196 95.2779 72.0186C95.2779 72.0186 95.2779 72.0186 95.2819 72.0186C95.4008 72.0202 95.5446 72.1037 95.5968 72.2098Z" fill="white"/>
<path d="M97.376 74.2886L96.3495 72.1949C96.2956 72.085 96.3478 71.9977 96.469 71.9956H96.4731C96.4731 71.9956 96.4731 71.9956 96.4812 71.9956L97.7483 71.9703C97.862 71.9681 98.0052 72.0511 98.0591 72.1615C98.113 72.2714 98.0551 72.3619 97.9414 72.3646L96.8819 72.3856L97.2003 73.0352L98.1113 73.0169C98.2285 73.0147 98.3717 73.1047 98.4221 73.2076C98.4761 73.3174 98.4221 73.4085 98.3044 73.4106L97.3934 73.4289L97.7135 74.0818L98.773 74.0608C98.8866 74.0586 99.0316 74.1453 99.0856 74.2552C99.1378 74.3613 99.0798 74.4524 98.9661 74.4545L97.699 74.4799C97.6915 74.4799 97.6897 74.4766 97.6897 74.4766L97.6874 74.4804C97.5656 74.482 97.4282 74.3953 97.376 74.2886Z" fill="white"/>
<path d="M99.4039 73.8216C99.4358 73.7424 99.5599 73.7289 99.6771 73.7908C99.9114 73.9153 100.282 74.058 100.558 74.0489C100.753 74.0451 100.904 73.9885 100.982 73.9077C101.061 73.8275 101.069 73.7375 101.025 73.6492C101.003 73.6029 100.975 73.5711 100.935 73.5361C100.894 73.5011 100.842 73.466 100.766 73.4321C100.619 73.3669 100.398 73.3104 100.148 73.2759H100.14C99.9409 73.2473 99.7478 73.2086 99.568 73.1477C99.3883 73.0868 99.216 73.0006 99.0687 72.8784C98.9684 72.7943 98.8884 72.6952 98.8362 72.5891C98.7318 72.3763 98.7742 72.1889 98.8948 72.065C99.0195 71.9406 99.2247 71.8684 99.4787 71.8635C99.8539 71.856 100.213 72.0171 100.47 72.1302C100.588 72.1851 100.671 72.2982 100.648 72.3806C100.632 72.4668 100.519 72.4943 100.397 72.4394C100.138 72.323 99.894 72.2201 99.6556 72.225C99.4799 72.2287 99.3477 72.2815 99.2769 72.3543C99.2062 72.4275 99.2015 72.5062 99.2381 72.581C99.259 72.6236 99.281 72.6521 99.314 72.6801C99.3477 72.7082 99.3981 72.7394 99.4648 72.7701C99.5976 72.832 99.8017 72.8854 100.03 72.9166H100.038C100.255 72.9478 100.461 72.9904 100.651 73.0545C100.846 73.1224 101.032 73.2118 101.186 73.3411C101.286 73.4251 101.374 73.5307 101.428 73.6411C101.539 73.8684 101.494 74.0661 101.361 74.1975C101.232 74.3295 101.015 74.4087 100.737 74.4146C100.313 74.4195 99.8632 74.2352 99.5623 74.0801C99.4445 74.0182 99.3755 73.9007 99.4039 73.8216Z" fill="white"/>
<path d="M101.975 73.7698C102.007 73.6901 102.131 73.6771 102.248 73.7391C102.482 73.8635 102.853 74.0063 103.129 73.9971C103.324 73.9933 103.474 73.9368 103.553 73.856C103.632 73.7757 103.64 73.6858 103.596 73.5974C103.573 73.5511 103.546 73.5193 103.505 73.4843C103.464 73.4493 103.412 73.4143 103.336 73.3803C103.189 73.3152 102.968 73.2586 102.718 73.2241H102.711C102.511 73.1956 102.318 73.1568 102.138 73.0959C101.958 73.0351 101.786 72.9489 101.639 72.8266C101.539 72.7426 101.459 72.644 101.406 72.5373C101.302 72.3246 101.344 72.1371 101.465 72.0132C101.59 71.8888 101.795 71.8166 102.05 71.8118C102.425 71.8042 102.785 71.9653 103.042 72.0784C103.159 72.1334 103.242 72.2465 103.22 72.3294C103.203 72.4156 103.09 72.4431 102.968 72.3881C102.709 72.2712 102.465 72.1689 102.227 72.1738C102.051 72.1775 101.919 72.2303 101.848 72.303C101.777 72.3763 101.772 72.4549 101.809 72.5298C101.83 72.5724 101.852 72.6009 101.885 72.6289C101.918 72.6569 101.969 72.6882 102.036 72.7189C102.168 72.7808 102.372 72.8341 102.601 72.8654H102.609C102.826 72.8966 103.032 72.9392 103.222 73.0033C103.417 73.0712 103.603 73.1606 103.757 73.2898C103.858 73.3739 103.945 73.48 103.999 73.5899C104.11 73.8172 104.065 74.0149 103.932 74.1463C103.804 74.2783 103.586 74.3575 103.308 74.3634C102.885 74.3682 102.435 74.184 102.134 74.0283C102.016 73.9664 101.947 73.8495 101.975 73.7698Z" fill="white"/>
<path d="M106.024 73.7212L105.074 73.7401L105.108 74.2049C105.111 74.2836 105.052 74.3315 104.966 74.3331C104.938 74.3337 104.913 74.3304 104.886 74.324C104.754 74.2873 104.643 74.1748 104.632 74.0708L104.471 71.9636C104.468 71.8849 104.53 71.8332 104.618 71.8354C104.706 71.83 104.812 71.8779 104.886 71.9555L106.775 74.0282C106.864 74.1306 106.865 74.2448 106.771 74.2863C106.754 74.2938 106.729 74.2976 106.702 74.2986C106.615 74.3003 106.511 74.2561 106.441 74.1785L106.024 73.7212ZM105.672 73.3339L104.982 72.5771L105.039 73.3463L105.672 73.3339Z" fill="white"/>
<path d="M106.572 73.0154C106.222 72.3022 106.592 71.721 107.386 71.7054C107.719 71.6989 108.086 71.7953 108.413 71.9645C108.548 72.0297 108.628 72.1605 108.597 72.251C108.565 72.3378 108.429 72.3582 108.296 72.2893C108.071 72.1756 107.819 72.1056 107.585 72.1099C107.303 72.1153 107.104 72.2166 107.008 72.383C106.902 72.5462 106.899 72.7649 107.018 73.0062C107.132 73.2405 107.348 73.4544 107.61 73.6106C107.866 73.7706 108.159 73.8611 108.441 73.8557C108.636 73.8519 108.794 73.7948 108.91 73.7103L108.672 73.2239L108.113 73.2352C107.992 73.2379 107.845 73.1474 107.791 73.0375C107.735 72.9238 107.795 72.8371 107.916 72.8344L108.687 72.8188C108.691 72.8188 108.691 72.8188 108.691 72.8188C108.695 72.8188 108.695 72.8188 108.695 72.8188C108.82 72.8161 108.963 72.8996 109.019 73.0127L109.403 73.797C109.415 73.8218 109.415 73.8363 109.421 73.8573C109.421 73.8643 109.422 73.8681 109.422 73.8751L109.424 73.8789C109.428 73.9112 109.418 73.9397 109.392 73.9656C109.23 74.1444 108.972 74.2538 108.64 74.2602C107.845 74.2758 106.92 73.7248 106.572 73.0154Z" fill="white"/>
<path d="M110.408 74.0274L109.381 71.9336C109.327 71.8238 109.38 71.7365 109.501 71.7343H109.505C109.505 71.7343 109.505 71.7343 109.512 71.7343L110.779 71.709C110.893 71.7069 111.036 71.7898 111.09 71.8997C111.144 72.0096 111.086 72.1006 110.973 72.1028L109.913 72.1238L110.231 72.7734L111.142 72.7551C111.26 72.7529 111.403 72.8429 111.453 72.9458C111.507 73.0557 111.453 73.1467 111.336 73.1488L110.425 73.1672L110.745 73.82L111.804 73.799C111.917 73.7968 112.063 73.8836 112.117 73.9935C112.169 74.0996 112.11 74.1906 111.997 74.1928L110.73 74.2181C110.723 74.2181 110.721 74.2148 110.721 74.2148L110.719 74.2186C110.597 74.2208 110.46 74.134 110.408 74.0274Z" fill="white"/>
<path d="M112.435 73.5603C112.467 73.4811 112.59 73.4677 112.708 73.5296C112.942 73.654 113.313 73.7968 113.589 73.7876C113.785 73.7839 113.935 73.7273 114.014 73.6465C114.092 73.5662 114.1 73.4763 114.056 73.3879C114.034 73.3416 114.007 73.3098 113.965 73.2748C113.925 73.2398 113.871 73.2048 113.796 73.1709C113.649 73.1057 113.428 73.0491 113.179 73.0147H113.171C112.971 72.9861 112.778 72.9473 112.598 72.8865C112.418 72.8256 112.245 72.7394 112.099 72.6171C111.998 72.5331 111.919 72.434 111.867 72.3279C111.762 72.1151 111.805 71.9277 111.925 71.8038C112.05 71.6793 112.256 71.6072 112.51 71.6023C112.885 71.5948 113.245 71.7558 113.502 71.8689C113.619 71.9239 113.702 72.037 113.68 72.12C113.663 72.2061 113.55 72.2336 113.428 72.1787C113.169 72.0618 112.926 71.9594 112.687 71.9643C112.511 71.9681 112.379 72.0208 112.308 72.0936C112.237 72.1668 112.233 72.2455 112.269 72.3203C112.29 72.3629 112.312 72.3914 112.345 72.4195C112.379 72.4475 112.43 72.4787 112.496 72.5094C112.629 72.5713 112.833 72.6247 113.061 72.6559H113.069C113.286 72.6872 113.492 72.7297 113.681 72.7938C113.877 72.8617 114.063 72.9511 114.217 73.0804C114.317 73.1644 114.404 73.27 114.458 73.3804C114.57 73.6077 114.524 73.8054 114.392 73.9368C114.263 74.0688 114.045 74.148 113.768 74.1539C113.343 74.1588 112.894 73.9745 112.593 73.8194C112.476 73.7569 112.407 73.64 112.435 73.5603Z" fill="white"/>
<path d="M150.194 106.826L165.496 138.036L157.459 138.216L161.171 145.787L149.116 138.383L106.533 139.236L91.2226 108.007L150.194 106.826Z" fill="#96BFFF"/>
<path d="M117.214 123.254C117.901 124.654 117.206 125.815 115.663 125.845C114.12 125.876 112.312 124.766 111.626 123.366C110.939 121.966 111.633 120.805 113.176 120.775C114.72 120.743 116.527 121.853 117.214 123.254Z" fill="white"/>
<path d="M131.158 122.975C131.845 124.375 131.15 125.535 129.607 125.566C128.064 125.597 126.257 124.487 125.57 123.087C124.883 121.686 125.578 120.526 127.121 120.495C128.664 120.464 130.471 121.574 131.158 122.975Z" fill="white"/>
<path d="M145.102 122.695C145.789 124.095 145.094 125.256 143.551 125.286C142.008 125.317 140.2 124.207 139.513 122.807C138.827 121.406 139.521 120.246 141.065 120.215C142.608 120.184 144.415 121.295 145.102 122.695Z" fill="white"/>
<path d="M172.697 179.998L141.249 180.628C138.533 180.683 135.35 178.728 134.142 176.263L132.026 171.947C130.817 169.482 132.039 167.439 134.756 167.385L166.204 166.755C168.921 166.7 172.103 168.654 173.312 171.12L175.428 175.435C176.637 177.901 175.414 179.943 172.697 179.998Z" fill="#EBEBEB"/>
<path d="M171.652 177.865L140.203 178.495C137.487 178.55 134.305 176.595 133.096 174.13L130.98 169.814C129.771 167.349 130.994 165.306 133.71 165.252L165.159 164.622C167.875 164.567 171.057 166.522 172.266 168.987L174.382 173.303C175.591 175.768 174.369 177.811 171.652 177.865Z" fill="#96BFFF"/>
<path d="M141.6 173.413C141.674 173.23 141.959 173.199 142.23 173.343C142.771 173.629 143.624 173.959 144.26 173.938C144.71 173.929 145.056 173.798 145.238 173.613C145.42 173.428 145.437 173.221 145.337 173.016C145.285 172.91 145.221 172.837 145.127 172.756C145.033 172.676 144.912 172.596 144.737 172.516C144.399 172.367 143.889 172.236 143.313 172.157L143.296 172.158C142.836 172.092 142.391 172.002 141.976 171.862C141.562 171.722 141.164 171.523 140.826 171.241C140.594 171.047 140.41 170.82 140.29 170.575C140.049 170.084 140.147 169.652 140.426 169.366C140.713 169.08 141.186 168.913 141.772 168.901C142.637 168.884 143.465 169.255 144.058 169.517C144.329 169.643 144.52 169.904 144.469 170.095C144.43 170.293 144.169 170.356 143.889 170.23C143.293 169.961 142.731 169.725 142.181 169.735C141.776 169.743 141.471 169.865 141.308 170.034C141.145 170.202 141.134 170.384 141.218 170.556C141.266 170.654 141.316 170.719 141.394 170.784C141.471 170.848 141.588 170.92 141.741 170.991C142.048 171.134 142.518 171.256 143.044 171.329L143.062 171.328C143.562 171.401 144.038 171.498 144.474 171.647C144.924 171.803 145.353 172.009 145.709 172.307C145.94 172.501 146.141 172.745 146.266 172.998C146.522 173.522 146.418 173.978 146.112 174.282C145.815 174.585 145.313 174.768 144.673 174.781C143.696 174.792 142.659 174.367 141.965 174.01C141.694 173.866 141.535 173.597 141.6 173.413Z" fill="white"/>
<path d="M148.65 174.255L146.284 169.43C146.16 169.177 146.28 168.976 146.559 168.97H146.569C146.569 168.97 146.569 168.97 146.586 168.969L149.506 168.911C149.768 168.905 150.098 169.097 150.223 169.351C150.347 169.605 150.213 169.814 149.952 169.819L147.51 169.868L148.243 171.365L150.343 171.323C150.613 171.317 150.943 171.525 151.059 171.763C151.183 172.016 151.059 172.225 150.788 172.23L148.688 172.273L149.426 173.777L151.868 173.728C152.129 173.723 152.464 173.923 152.588 174.176C152.708 174.422 152.575 174.631 152.313 174.636L149.393 174.695C149.375 174.695 149.371 174.687 149.371 174.687L149.366 174.695C149.087 174.701 148.77 174.5 148.65 174.255Z" fill="white"/>
<path d="M155.349 174.121C155.469 174.367 155.344 174.576 155.083 174.581C154.804 174.586 154.487 174.386 154.367 174.141L152.037 169.389C152.037 169.389 152.037 169.389 152.033 169.381C151.956 169.242 151.956 169.093 152.046 169C152.204 168.857 152.53 168.892 152.779 169.085L157.483 172.682L155.831 169.312C155.714 169.075 155.83 168.866 156.101 168.861C156.371 168.856 156.697 169.055 156.813 169.292L159.143 174.044C159.263 174.29 159.138 174.498 158.868 174.504C158.723 174.507 158.556 174.445 158.418 174.348C158.392 174.332 158.366 174.316 158.349 174.3L153.685 170.726L155.349 174.121Z" fill="white"/>
<path d="M161.221 174.003L158.855 169.178C158.731 168.925 158.85 168.724 159.13 168.719L160.193 168.697C161.933 168.662 163.968 169.918 164.738 171.488C165.516 173.075 164.739 174.387 163 174.422L161.937 174.443C161.657 174.449 161.341 174.249 161.221 174.003ZM161.996 173.525L162.555 173.514C163.74 173.482 164.271 172.596 163.737 171.508C163.212 170.437 161.828 169.581 160.638 169.605L160.079 169.616L161.996 173.525Z" fill="white"/>
<path d="M163.165 236.991C163.165 236.991 160.312 195.833 117.559 172.044C112.2 169.062 99.35 145.141 89.4069 136.603C79.0526 127.712 67.7078 129.639 70.5558 141.611C74.0155 156.154 93.4871 206.959 93.4871 206.959L163.165 236.991Z" fill="#FFC184"/>
<path d="M84.9741 133.468C81.1565 131.596 74.3449 129.15 71.8432 133.846C70.4874 136.386 71.0922 139.172 71.831 141.804C77.9519 162.868 87.0884 185.941 93.4866 206.958C87.0884 192.967 81.5915 178.656 76.6448 164.171C74.2162 156.892 71.8525 149.613 70.2699 142.112C69.6569 139.223 69.2696 136.088 70.9061 133.396C73.8682 128.371 81.026 130.98 84.9741 133.468Z" fill="#C49363"/>
<path d="M239.516 142.402C235.134 143.97 222.429 155.588 222.557 156.667C223.986 168.715 221.149 180.862 214.701 182.681C206.411 185.02 204.169 158.234 205.049 152.193C205.908 146.292 219.224 127.709 225.159 123.864C231.094 120.019 262.546 106.644 262.546 106.644L273.257 133.149C273.256 133.149 242.902 141.189 239.516 142.402Z" fill="#FFC184"/>
<path opacity="0.2" d="M239.516 142.402C235.134 143.97 222.429 155.588 222.557 156.667C223.986 168.715 221.149 180.862 214.701 182.681C206.411 185.02 204.169 158.234 205.049 152.193C205.908 146.292 219.224 127.709 225.159 123.864C231.094 120.019 262.546 106.644 262.546 106.644L273.257 133.149C273.256 133.149 242.902 141.189 239.516 142.402Z" fill="black"/>
<path d="M214.326 141.989C210.593 144.982 202.456 160.631 202.993 161.653C208.986 173.062 210.802 185.975 205.121 189.897C197.82 194.939 185.42 169.268 183.991 163.021C182.596 156.919 188.688 134.201 193.09 128.45C197.492 122.7 223.484 99.1304 223.484 99.1304L244.146 121.73C244.146 121.73 217.211 139.676 214.326 141.989Z" fill="#FFC184"/>
<path opacity="0.1" d="M214.326 141.989C210.593 144.982 202.456 160.631 202.993 161.653C208.986 173.062 210.802 185.975 205.121 189.897C197.82 194.939 185.42 169.268 183.991 163.021C182.596 156.919 188.688 134.201 193.09 128.45C197.492 122.7 223.484 99.1304 223.484 99.1304L244.146 121.73C244.146 121.73 217.211 139.676 214.326 141.989Z" fill="black"/>
<path d="M289.955 94.5783C289.955 94.5783 240.262 85.6835 222.963 91.7375C219.868 92.8207 177.856 119.885 174.406 124.368C166.141 135.109 143.594 162.425 148.335 167.241C160.376 179.473 195.298 143.127 195.298 143.127C206.356 137.808 221.623 128.258 221.957 128.259C257.494 128.376 245.922 166.902 289.955 169.187V94.5783Z" fill="#FFC184"/>
<path d="M289.955 177.924C289.955 177.924 262.798 178.96 239.806 170.95C239.806 170.95 211.028 176.198 195.705 172.514C182.039 169.228 188.585 159.5 200.464 154.155C215.923 147.198 289.955 128.63 289.955 128.63V177.924Z" fill="#FFC184"/>
<path d="M202.157 173.512C195.485 173.379 183.864 170.847 188.093 162.436C190.64 158.008 195.7 155.438 200.177 153.173C207.498 149.554 215.492 147.412 223.364 145.16C235.179 141.938 247.075 139.007 259.122 136.613C247.922 140.165 235.35 143.765 224.015 147.122C214.367 149.987 204.525 152.703 195.84 157.633C192.149 159.772 186.85 163.46 188.9 167.99C191.19 171.761 197.831 172.932 202.157 173.512Z" fill="#C49363"/>
<path d="M149.803 148.124C150.597 151.273 150.603 154.579 149.803 157.728C149.002 154.579 149.009 151.273 149.803 148.124Z" fill="#2372EC"/>
<path d="M132.739 154.405C135.698 156.11 138.22 158.444 140.05 161.196C137.088 159.496 134.575 157.154 132.739 154.405Z" fill="#2372EC"/>
<path d="M132.218 185.904C134.054 183.155 136.566 180.813 139.529 179.113C137.698 181.865 135.177 184.199 132.218 185.904Z" fill="#2372EC"/>
<path d="M149.066 192.67C148.271 189.521 148.265 186.214 149.066 183.066C149.866 186.214 149.86 189.52 149.066 192.67Z" fill="#2372EC"/>
<path d="M166.129 186.388C163.17 184.683 160.649 182.349 158.818 179.597C161.781 181.298 164.293 183.64 166.129 186.388Z" fill="#2372EC"/>
<path d="M173.412 170.739C170.022 171.477 166.463 171.483 163.073 170.739C166.463 169.995 170.022 170.001 173.412 170.739Z" fill="#2372EC"/>
<path d="M125.456 170.054C128.846 169.316 132.405 169.311 135.795 170.054C132.405 170.797 128.846 170.792 125.456 170.054Z" fill="#2372EC"/>
<path d="M158.313 178.132C200.65 189.275 196.598 249.743 226.701 240.667C247.202 234.486 234.719 206.075 214.72 216.106C194.721 226.137 187.582 249.145 156.635 247.712C125.688 246.28 105.821 186.87 76.4564 177.423" stroke="#2372EC" stroke-width="0.335132" stroke-miterlimit="10" stroke-dasharray="1.79 2.23"/>
<path d="M212.486 70.1157C156.719 121.3 61.6646 151.329 45.8789 127.48C39.7794 118.265 57.1518 106.397 67.7264 99.6356" stroke="#2372EC" stroke-width="0.335132" stroke-miterlimit="10" stroke-dasharray="1.79 2.23"/>
<path d="M208.311 58.7261L205.392 76.4381L216.858 64.0598L265.036 36.9165L208.311 58.7261Z" fill="#96BFFF"/>
<path opacity="0.4" d="M208.311 58.7261L205.392 76.4381L216.858 64.0598L265.036 36.9165L208.311 58.7261Z" fill="white"/>
<path d="M219.429 67.5829L205.392 76.4383L216.858 64.0601L219.429 67.5829Z" fill="#96BFFF"/>
<path opacity="0.1" d="M219.429 67.5829L205.392 76.4383L216.858 64.0601L219.429 67.5829Z" fill="black"/>
<path d="M216.858 64.0598L265.036 36.9165L230.742 83.4471L216.858 64.0598Z" fill="#96BFFF"/>
<path opacity="0.7" d="M216.858 64.0598L265.036 36.9165L230.742 83.4471L216.858 64.0598Z" fill="white"/>
<path d="M208.311 58.7261L183.938 49.7893L265.036 36.9165L208.311 58.7261Z" fill="#96BFFF"/>
<path opacity="0.7" d="M208.311 58.7261L183.938 49.7893L265.036 36.9165L208.311 58.7261Z" fill="white"/>
<path d="M75.2948 166.701L82.1453 179.864L70.0072 172.765L25.4244 162.332L75.2948 166.701Z" fill="#96BFFF"/>
<path opacity="0.4" d="M75.2948 166.701L82.1453 179.864L70.0072 172.765L25.4244 162.332L75.2948 166.701Z" fill="white"/>
<path d="M68.9117 176.085L82.1453 179.864L70.0072 172.765L68.9117 176.085Z" fill="#96BFFF"/>
<path opacity="0.1" d="M68.9117 176.085L82.1453 179.864L70.0072 172.765L68.9117 176.085Z" fill="black"/>
<path d="M70.0072 172.765L25.4244 162.332L64.1866 190.978L70.0072 172.765Z" fill="#96BFFF"/>
<path opacity="0.7" d="M70.0072 172.765L25.4244 162.332L64.1866 190.978L70.0072 172.765Z" fill="white"/>
<path d="M75.2948 166.701L91.9939 154.3L25.4244 162.332L75.2948 166.701Z" fill="#96BFFF"/>
<path opacity="0.7" d="M75.2948 166.701L91.9939 154.3L25.4244 162.332L75.2948 166.701Z" fill="white"/>
</g>
<defs>
<clipPath id="clip0_1008_200">
<rect width="289.954" height="269.327" rx="134.664" fill="white"/>
</clipPath>
</defs>
</svg>
