<svg width="32" height="32" viewBox="0 0 32 32" fill="none" xmlns="http://www.w3.org/2000/svg">
<path d="M2.66667 16.2719C2.66667 13.2206 2.66667 11.695 3.35894 10.4303C4.0512 9.16557 5.31593 8.38064 7.84538 6.81079L10.512 5.15579C13.1859 3.49635 14.5228 2.66663 16 2.66663C17.4772 2.66663 18.8142 3.49635 21.488 5.15578L24.1546 6.81079C26.6841 8.38064 27.9488 9.16557 28.6411 10.4303C29.3333 11.695 29.3333 13.2206 29.3333 16.2719V18.2999C29.3333 23.5011 29.3333 26.1017 27.7712 27.7175C26.2091 29.3333 23.695 29.3333 18.6667 29.3333H13.3333C8.30502 29.3333 5.79086 29.3333 4.22877 27.7175C2.66667 26.1017 2.66667 23.5011 2.66667 18.2999V16.2719Z" fill="#96BFFF"/>
<path d="M10.512 5.15579L11.0394 6.00545L10.512 5.15579ZM21.488 5.15578L20.9606 6.00545L21.488 5.15578ZM24.1546 6.81079L24.6819 5.96113L24.1546 6.81079ZM7.84538 6.81079L8.3727 7.66046L7.84538 6.81079ZM20 25C20.5523 25 21 24.5522 21 24C21 23.4477 20.5523 23 20 23V25ZM12 23C11.4477 23 11 23.4477 11 24C11 24.5522 11.4477 25 12 25V23ZM18.6667 28.3333H13.3333V30.3333H18.6667V28.3333ZM8.3727 7.66046L11.0394 6.00545L9.98472 4.30612L7.31805 5.96113L8.3727 7.66046ZM20.9606 6.00545L23.6273 7.66046L24.6819 5.96113L22.0153 4.30612L20.9606 6.00545ZM3.66667 18.2999V16.2719H1.66667V18.2999H3.66667ZM28.3333 16.2719V18.2999H30.3333V16.2719H28.3333ZM11.0394 6.00545C12.3937 5.1649 13.346 4.57534 14.1421 4.18822C14.9176 3.81106 15.4669 3.66663 16 3.66663V1.66663C15.0558 1.66663 14.198 1.93705 13.2674 2.38961C12.3573 2.83222 11.3042 3.48723 9.98472 4.30612L11.0394 6.00545ZM22.0153 4.30612C20.6958 3.48723 19.6427 2.83221 18.7326 2.38961C17.802 1.93705 16.9442 1.66663 16 1.66663V3.66663C16.5331 3.66663 17.0824 3.81106 17.8579 4.18822C18.654 4.57534 19.6063 5.1649 20.9606 6.00545L22.0153 4.30612ZM13.3333 28.3333C10.79 28.3333 8.98644 28.331 7.61896 28.1409C6.28381 27.9552 5.51352 27.6077 4.94772 27.0224L3.50981 28.4125C4.50611 29.4431 5.77394 29.9035 7.34347 30.1218C8.88068 30.3356 10.8484 30.3333 13.3333 30.3333V28.3333ZM1.66667 18.2999C1.66667 20.8731 1.66468 22.9004 1.87027 24.4821C2.07916 26.0892 2.51808 27.3867 3.50981 28.4125L4.94772 27.0224C4.37735 26.4325 4.03522 25.6217 3.85359 24.2243C3.66866 22.8015 3.66667 20.9278 3.66667 18.2999H1.66667ZM18.6667 30.3333C21.1516 30.3333 23.1193 30.3356 24.6565 30.1218C26.2261 29.9035 27.4939 29.4431 28.4902 28.4125L27.0523 27.0224C26.4865 27.6077 25.7162 27.9552 24.381 28.1409C23.0136 28.331 21.21 28.3333 18.6667 28.3333V30.3333ZM28.3333 18.2999C28.3333 20.9278 28.3313 22.8015 28.1464 24.2243C27.9648 25.6217 27.6227 26.4325 27.0523 27.0224L28.4902 28.4125C29.4819 27.3867 29.9208 26.0892 30.1297 24.4821C30.3353 22.9004 30.3333 20.8731 30.3333 18.2999H28.3333ZM23.6273 7.66046C24.9084 8.45555 25.8079 9.01509 26.4788 9.52889C27.1316 10.0288 27.5071 10.4414 27.7639 10.9104L29.5183 9.95013C29.0827 9.15448 28.4798 8.54221 27.6948 7.94104C26.9279 7.35373 25.9303 6.73589 24.6819 5.96113L23.6273 7.66046ZM30.3333 16.2719C30.3333 14.7648 30.3344 13.566 30.2424 12.5876C30.1486 11.5889 29.9529 10.7441 29.5183 9.95013L27.7639 10.9104C28.0215 11.3812 28.172 11.9315 28.2512 12.7747C28.3323 13.6381 28.3333 14.7277 28.3333 16.2719H30.3333ZM7.31805 5.96113C6.06971 6.73589 5.07209 7.35373 4.3052 7.94104C3.5202 8.54221 2.91726 9.15448 2.48175 9.95013L4.23612 10.9104C4.49287 10.4414 4.86844 10.0288 5.52123 9.52889C6.19213 9.01509 7.09159 8.45555 8.3727 7.66046L7.31805 5.96113ZM3.66667 16.2719C3.66667 14.7277 3.66768 13.6381 3.74882 12.7747C3.82805 11.9315 3.97846 11.3812 4.23612 10.9104L2.48175 9.95013C2.04714 10.7441 1.85142 11.5889 1.75759 12.5876C1.66565 13.566 1.66667 14.7648 1.66667 16.2719H3.66667ZM20 23H12V25H20V23Z" fill="white"/>
</svg>
