<svg width="24" height="24" viewBox="0 0 24 24" fill="none" xmlns="http://www.w3.org/2000/svg">
<path d="M22 22.5C22.2761 22.5 22.5 22.2761 22.5 22C22.5 21.7239 22.2761 21.5 22 21.5V22V22.5ZM2 21.5C1.72386 21.5 1.5 21.7239 1.5 22C1.5 22.2761 1.72386 22.5 2 22.5V22V21.5ZM16.4142 2.58579L16.0607 2.93934L16.0607 2.93934L16.4142 2.58579ZM20.1111 5.33706L19.8334 5.7528V5.7528L20.1111 5.33706ZM20.6629 5.88886L20.2472 6.16664L20.6629 5.88886ZM3.88886 5.33706L4.16664 5.7528V5.7528L3.88886 5.33706ZM3.33706 5.88886L3.7528 6.16664H3.7528L3.33706 5.88886ZM11.5 22C11.5 22.2761 11.7239 22.5 12 22.5C12.2761 22.5 12.5 22.2761 12.5 22H12H11.5ZM12.5 19C12.5 18.7239 12.2761 18.5 12 18.5C11.7239 18.5 11.5 18.7239 11.5 19H12H12.5ZM11.5 12C11.5 12.2761 11.7239 12.5 12 12.5C12.2761 12.5 12.5 12.2761 12.5 12H12H11.5ZM12.5 8C12.5 7.72386 12.2761 7.5 12 7.5C11.7239 7.5 11.5 7.72386 11.5 8H12H12.5ZM14 10.5C14.2761 10.5 14.5 10.2761 14.5 10C14.5 9.72386 14.2761 9.5 14 9.5V10V10.5ZM10 9.5C9.72386 9.5 9.5 9.72386 9.5 10C9.5 10.2761 9.72386 10.5 10 10.5V10V9.5ZM22 22V21.5H2V22V22.5H22V22ZM11 2V2.5H13V2V1.5H11V2ZM17 6H16.5V22H17H17.5V6H17ZM7 22H7.5V6H7H6.5V22H7ZM13 2V2.5C13.9569 2.5 14.6244 2.50106 15.1279 2.56876C15.6171 2.63453 15.8762 2.75483 16.0607 2.93934L16.4142 2.58579L16.7678 2.23223C16.3665 1.83096 15.8612 1.65836 15.2612 1.57768C14.6755 1.49894 13.9287 1.5 13 1.5V2ZM17 6H17.5C17.5 5.07133 17.5011 4.32452 17.4223 3.73883C17.3416 3.13876 17.169 2.63351 16.7678 2.23223L16.4142 2.58579L16.0607 2.93934C16.2452 3.12385 16.3655 3.3829 16.4312 3.87208C16.4989 4.37565 16.5 5.04306 16.5 6H17ZM11 2V1.5C10.0713 1.5 9.32452 1.49894 8.73883 1.57768C8.13876 1.65836 7.63351 1.83096 7.23223 2.23223L7.58579 2.58579L7.93934 2.93934C8.12385 2.75483 8.3829 2.63453 8.87208 2.56876C9.37565 2.50106 10.0431 2.5 11 2.5V2ZM7 6H7.5C7.5 5.04306 7.50106 4.37565 7.56876 3.87208C7.63453 3.3829 7.75483 3.12385 7.93934 2.93934L7.58579 2.58579L7.23223 2.23223C6.83096 2.63351 6.65836 3.13876 6.57768 3.73883C6.49894 4.32452 6.5 5.07133 6.5 6H7ZM21 8.5H20.5V22H21H21.5V8.5H21ZM17.5 5V5.5C18.2126 5.5 18.7095 5.5006 19.0925 5.53957C19.4671 5.57768 19.677 5.64831 19.8334 5.7528L20.1111 5.33706L20.3889 4.92133C20.0409 4.68875 19.6474 4.59085 19.1937 4.5447C18.7483 4.4994 18.1918 4.5 17.5 4.5V5ZM21 8.5H21.5C21.5 7.80818 21.5006 7.25167 21.4553 6.80632C21.4091 6.35262 21.3112 5.95915 21.0787 5.61107L20.6629 5.88886L20.2472 6.16664C20.3517 6.32302 20.4223 6.53289 20.4604 6.90753C20.4994 7.29052 20.5 7.78736 20.5 8.5H21ZM20.1111 5.33706L19.8334 5.7528C19.9971 5.86223 20.1378 6.00286 20.2472 6.16664L20.6629 5.88886L21.0787 5.61107C20.8963 5.3381 20.6619 5.10372 20.3889 4.92133L20.1111 5.33706ZM3 8.5H2.5V22H3H3.5V8.5H3ZM6.5 5V4.5C5.80818 4.5 5.25167 4.4994 4.80632 4.5447C4.35262 4.59085 3.95915 4.68875 3.61107 4.92133L3.88886 5.33706L4.16664 5.7528C4.32302 5.64831 4.53289 5.57768 4.90753 5.53957C5.29052 5.5006 5.78736 5.5 6.5 5.5V5ZM3 8.5H3.5C3.5 7.78736 3.5006 7.29052 3.53957 6.90753C3.57768 6.53289 3.64831 6.32302 3.7528 6.16664L3.33706 5.88886L2.92133 5.61107C2.68875 5.95915 2.59085 6.35262 2.5447 6.80632C2.4994 7.25167 2.5 7.80818 2.5 8.5H3ZM3.88886 5.33706L3.61107 4.92133C3.3381 5.10372 3.10372 5.3381 2.92133 5.61107L3.33706 5.88886L3.7528 6.16664C3.86223 6.00286 4.00286 5.86223 4.16664 5.7528L3.88886 5.33706ZM12 22H12.5V19H12H11.5V22H12ZM12 12H12.5V8H12H11.5V12H12ZM14 10V9.5H10V10V10.5H14V10Z" fill="#EC7600"/>
</svg>
