<svg width="33" height="32" viewBox="0 0 33 32" fill="none" xmlns="http://www.w3.org/2000/svg">
<path d="M16.5 29.3333H23.1667V7.99996C23.1667 5.4858 23.1667 4.22872 22.3856 3.44767C21.6046 2.66663 20.3475 2.66663 17.8333 2.66663H15.1667C12.6525 2.66663 11.3954 2.66663 10.6144 3.44767C9.83332 4.22872 9.83332 5.4858 9.83332 7.99996V7.99996V29.3333H16.5Z" fill="#96BFFF"/>
<path d="M29.8333 30.0833C30.2475 30.0833 30.5833 29.7475 30.5833 29.3333C30.5833 28.9191 30.2475 28.5833 29.8333 28.5833V29.3333V30.0833ZM3.16666 28.5833C2.75244 28.5833 2.41666 28.9191 2.41666 29.3333C2.41666 29.7475 2.75244 30.0833 3.16666 30.0833V29.3333V28.5833ZM10.6144 3.44767L11.1447 3.978V3.978L10.6144 3.44767ZM27.3148 7.11604L27.7315 6.49244L27.3148 7.11604ZM28.0506 7.85177L27.427 8.26845L27.427 8.26845L28.0506 7.85177ZM5.68514 7.11604L5.26846 6.49244L5.68514 7.11604ZM4.9494 7.85177L5.57301 8.26845L5.57301 8.26845L4.9494 7.85177ZM17.25 25.3333C17.25 24.9191 16.9142 24.5833 16.5 24.5833C16.0858 24.5833 15.75 24.9191 15.75 25.3333H16.5H17.25ZM15.75 16C15.75 16.4142 16.0858 16.75 16.5 16.75C16.9142 16.75 17.25 16.4142 17.25 16H16.5H15.75ZM17.25 10.6666C17.25 10.2524 16.9142 9.91663 16.5 9.91663C16.0858 9.91663 15.75 10.2524 15.75 10.6666H16.5H17.25ZM19.1667 14.0833C19.5809 14.0833 19.9167 13.7475 19.9167 13.3333C19.9167 12.9191 19.5809 12.5833 19.1667 12.5833V13.3333V14.0833ZM13.8333 12.5833C13.4191 12.5833 13.0833 12.9191 13.0833 13.3333C13.0833 13.7475 13.4191 14.0833 13.8333 14.0833V13.3333V12.5833ZM29.8333 29.3333V28.5833H28.5V29.3333V30.0833H29.8333V29.3333ZM28.5 29.3333V28.5833H23.1667V29.3333V30.0833H28.5V29.3333ZM23.1667 29.3333V28.5833H16.5V29.3333V30.0833H23.1667V29.3333ZM16.5 29.3333V28.5833H9.83332V29.3333V30.0833H16.5V29.3333ZM9.83332 29.3333V28.5833H4.49999V29.3333V30.0833H9.83332V29.3333ZM4.49999 29.3333V28.5833H3.16666V29.3333V30.0833H4.49999V29.3333ZM15.1667 2.66663V3.41663H17.8333V2.66663V1.91663H15.1667V2.66663ZM23.1667 7.99996H22.4167V29.3333H23.1667H23.9167V7.99996H23.1667ZM9.83332 29.3333H10.5833V7.99996H9.83332H9.08332V29.3333H9.83332ZM17.8333 2.66663V3.41663C19.1116 3.41663 19.9949 3.41822 20.6594 3.50757C21.3025 3.59402 21.6273 3.75006 21.8553 3.978L22.3856 3.44767L22.9159 2.91734C22.3628 2.36424 21.6687 2.12976 20.8593 2.02094C20.0716 1.91503 19.0692 1.91663 17.8333 1.91663V2.66663ZM23.1667 7.99996H23.9167C23.9167 6.76408 23.9182 5.76173 23.8123 4.97397C23.7035 4.16463 23.469 3.47045 22.9159 2.91734L22.3856 3.44767L21.8553 3.978C22.0832 4.20595 22.2393 4.53083 22.3257 5.17384C22.4151 5.83842 22.4167 6.72168 22.4167 7.99996H23.1667ZM15.1667 2.66663V1.91663C13.9308 1.91663 12.9284 1.91503 12.1407 2.02094C11.3313 2.12976 10.6371 2.36424 10.084 2.91734L10.6144 3.44767L11.1447 3.978C11.3726 3.75006 11.6975 3.59402 12.3405 3.50757C13.0051 3.41822 13.8884 3.41663 15.1667 3.41663V2.66663ZM9.83332 7.99996H10.5833V7.99996H9.83332H9.08332V7.99996H9.83332ZM9.83332 7.99996H10.5833C10.5833 6.72168 10.5849 5.83841 10.6743 5.17384C10.7607 4.53083 10.9168 4.20595 11.1447 3.978L10.6144 3.44767L10.084 2.91734C9.53094 3.47045 9.29645 4.16463 9.18764 4.97396C9.08173 5.76173 9.08332 6.76408 9.08332 7.99996H9.83332ZM28.5 11.3333H27.75V29.3333H28.5H29.25V11.3333H28.5ZM23.8333 6.66663V7.41663C24.7852 7.41663 25.4427 7.41753 25.9482 7.46895C26.4411 7.5191 26.7056 7.611 26.8982 7.73964L27.3148 7.11604L27.7315 6.49244C27.2515 6.17167 26.7115 6.03886 26.1 5.97665C25.501 5.91572 24.754 5.91663 23.8333 5.91663V6.66663ZM28.5 11.3333H29.25C29.25 10.4126 29.2509 9.66562 29.19 9.06662C29.1278 8.45509 28.995 7.91516 28.6742 7.43509L28.0506 7.85177L27.427 8.26845C27.5556 8.46098 27.6475 8.7255 27.6977 9.21843C27.7491 9.72389 27.75 10.3814 27.75 11.3333H28.5ZM27.3148 7.11604L26.8982 7.73964C27.1074 7.87948 27.2871 8.05917 27.427 8.26845L28.0506 7.85177L28.6742 7.4351C28.4249 7.06203 28.1046 6.74171 27.7315 6.49244L27.3148 7.11604ZM4.49999 11.3333H3.74999V29.3333H4.49999H5.24999V11.3333H4.49999ZM9.16666 6.66663V5.91663C8.24596 5.91663 7.49898 5.91572 6.89998 5.97665C6.28845 6.03886 5.74853 6.17167 5.26846 6.49244L5.68514 7.11604L6.10181 7.73964C6.29434 7.611 6.55887 7.5191 7.05179 7.46895C7.55725 7.41753 8.21474 7.41663 9.16666 7.41663V6.66663ZM4.49999 11.3333H5.24999C5.24999 10.3814 5.2509 9.72389 5.30232 9.21843C5.35246 8.7255 5.44437 8.46098 5.57301 8.26845L4.9494 7.85177L4.3258 7.43509C4.00503 7.91516 3.87223 8.45509 3.81002 9.06662C3.74908 9.66562 3.74999 10.4126 3.74999 11.3333H4.49999ZM5.68514 7.11604L5.26846 6.49244C4.89539 6.74171 4.57508 7.06203 4.3258 7.4351L4.9494 7.85177L5.57301 8.26845C5.71284 8.05917 5.89253 7.87948 6.10181 7.73964L5.68514 7.11604ZM16.5 29.3333H17.25V25.3333H16.5H15.75V29.3333H16.5ZM16.5 16H17.25V13.3333H16.5H15.75V16H16.5ZM16.5 13.3333H17.25V10.6666H16.5H15.75V13.3333H16.5ZM19.1667 13.3333V12.5833H16.5V13.3333V14.0833H19.1667V13.3333ZM16.5 13.3333V12.5833H13.8333V13.3333V14.0833H16.5V13.3333Z" fill="#0D47A1"/>
</svg>
