<svg width="28" height="28" viewBox="0 0 28 28" fill="none" xmlns="http://www.w3.org/2000/svg">
<path d="M13.8333 27.1667H20.5V5.83333C20.5 3.31918 20.5 2.0621 19.719 1.28105C18.9379 0.5 17.6808 0.5 15.1667 0.5H12.5C9.98584 0.5 8.72876 0.5 7.94772 1.28105C7.16667 2.0621 7.16667 3.31917 7.16667 5.83333V5.83333V27.1667H13.8333Z" fill="#96BFFF"/>
<path d="M27.1667 27.6667C27.4428 27.6667 27.6667 27.4428 27.6667 27.1667C27.6667 26.8905 27.4428 26.6667 27.1667 26.6667V27.1667V27.6667ZM0.5 26.6667C0.223858 26.6667 0 26.8905 0 27.1667C0 27.4428 0.223858 27.6667 0.5 27.6667V27.1667V26.6667ZM7.94772 1.28105L8.30127 1.6346V1.6346L7.94772 1.28105ZM24.6482 8.94942L24.3704 9.36515L24.3704 9.36515L24.6482 8.94942ZM25.3839 9.68515L24.9682 9.96293L25.3839 9.68515ZM3.01848 8.94942L3.29626 9.36515L3.29627 9.36515L3.01848 8.94942ZM2.28275 9.68515L1.86701 9.40736L2.28275 9.68515ZM14.3333 23.1667C14.3333 22.8905 14.1095 22.6667 13.8333 22.6667C13.5572 22.6667 13.3333 22.8905 13.3333 23.1667H13.8333H14.3333ZM11.1667 4C10.8905 4 10.6667 4.22386 10.6667 4.5C10.6667 4.77614 10.8905 5 11.1667 5V4.5V4ZM16.5 5C16.7761 5 17 4.77614 17 4.5C17 4.22386 16.7761 4 16.5 4V4.5V5ZM11.1667 8C10.8905 8 10.6667 8.22386 10.6667 8.5C10.6667 8.77614 10.8905 9 11.1667 9V8.5V8ZM16.5 9C16.7761 9 17 8.77614 17 8.5C17 8.22386 16.7761 8 16.5 8V8.5V9ZM11.1667 12C10.8905 12 10.6667 12.2239 10.6667 12.5C10.6667 12.7761 10.8905 13 11.1667 13V12.5V12ZM16.5 13C16.7761 13 17 12.7761 17 12.5C17 12.2239 16.7761 12 16.5 12V12.5V13ZM11.1667 16C10.8905 16 10.6667 16.2239 10.6667 16.5C10.6667 16.7761 10.8905 17 11.1667 17V16.5V16ZM16.5 17C16.7761 17 17 16.7761 17 16.5C17 16.2239 16.7761 16 16.5 16V16.5V17ZM27.1667 27.1667V26.6667H25.8333V27.1667V27.6667H27.1667V27.1667ZM25.8333 27.1667V26.6667H20.5V27.1667V27.6667H25.8333V27.1667ZM20.5 27.1667V26.6667H13.8333V27.1667V27.6667H20.5V27.1667ZM13.8333 27.1667V26.6667H7.16667V27.1667V27.6667H13.8333V27.1667ZM7.16667 27.1667V26.6667H1.83333V27.1667V27.6667H7.16667V27.1667ZM1.83333 27.1667V26.6667H0.5V27.1667V27.6667H1.83333V27.1667ZM12.5 0.5V1H15.1667V0.5V0H12.5V0.5ZM20.5 5.83333H20V27.1667H20.5H21V5.83333H20.5ZM7.16667 27.1667H7.66667V5.83333H7.16667H6.66667V27.1667H7.16667ZM15.1667 0.5V1C16.4379 1 17.341 1.00106 18.0261 1.09317C18.6968 1.18335 19.0833 1.35246 19.3654 1.6346L19.719 1.28105L20.0725 0.927495C19.5736 0.428586 18.941 0.207175 18.1593 0.10209C17.3921 -0.00106186 16.4096 0 15.1667 0V0.5ZM20.5 5.83333H21C21 4.59039 21.0011 3.60788 20.8979 2.84065C20.7928 2.05904 20.5714 1.4264 20.0725 0.927495L19.719 1.28105L19.3654 1.6346C19.6475 1.91674 19.8167 2.30317 19.9068 2.9739C19.9989 3.65901 20 4.56212 20 5.83333H20.5ZM12.5 0.5V0C11.2571 0 10.2745 -0.00106186 9.50732 0.10209C8.7257 0.207175 8.09307 0.428586 7.59416 0.927495L7.94772 1.28105L8.30127 1.6346C8.58341 1.35246 8.96984 1.18335 9.64057 1.09317C10.3257 1.00106 11.2288 1 12.5 1V0.5ZM7.16667 5.83333H7.66667V5.83333H7.16667H6.66667V5.83333H7.16667ZM7.16667 5.83333H7.66667C7.66667 4.56212 7.66773 3.65901 7.75984 2.9739C7.85002 2.30317 8.01913 1.91674 8.30127 1.6346L7.94772 1.28105L7.59416 0.927495C7.09525 1.4264 6.87384 2.05904 6.76876 2.84065C6.66561 3.60788 6.66667 4.59039 6.66667 5.83333H7.16667ZM25.8333 13.1667H25.3333V27.1667H25.8333H26.3333V13.1667H25.8333ZM21.1667 8.5V9C22.1134 9 22.7858 9.0006 23.3068 9.05361C23.8195 9.10576 24.13 9.20449 24.3704 9.36515L24.6482 8.94942L24.926 8.53368C24.4938 8.24493 23.9998 8.11894 23.408 8.05874C22.8246 7.9994 22.0926 8 21.1667 8V8.5ZM25.8333 13.1667H26.3333C26.3333 12.2408 26.3339 11.5087 26.2746 10.9253C26.2144 10.3335 26.0884 9.83951 25.7997 9.40736L25.3839 9.68515L24.9682 9.96293C25.1288 10.2034 25.2276 10.5138 25.2797 11.0265C25.3327 11.5476 25.3333 12.22 25.3333 13.1667H25.8333ZM24.6482 8.94942L24.3704 9.36515C24.607 9.52322 24.8101 9.72635 24.9682 9.96293L25.3839 9.68515L25.7997 9.40736C25.5686 9.06159 25.2717 8.76472 24.926 8.53368L24.6482 8.94942ZM1.83333 13.1667H1.33333V27.1667H1.83333H2.33333V13.1667H1.83333ZM6.5 8.5V8C5.5741 8 4.84204 7.9994 4.25863 8.05874C3.66687 8.11894 3.17284 8.24493 2.74069 8.53368L3.01848 8.94942L3.29627 9.36515C3.53671 9.20449 3.84714 9.10576 4.35983 9.05361C4.88089 9.0006 5.55329 9 6.5 9V8.5ZM1.83333 13.1667H2.33333C2.33333 12.22 2.33394 11.5476 2.38694 11.0265C2.4391 10.5138 2.53782 10.2034 2.69848 9.96293L2.28275 9.68515L1.86701 9.40736C1.57826 9.83951 1.45228 10.3335 1.39208 10.9253C1.33273 11.5087 1.33333 12.2408 1.33333 13.1667H1.83333ZM3.01848 8.94942L2.7407 8.53368C2.39493 8.76472 2.09805 9.06159 1.86701 9.40736L2.28275 9.68515L2.69848 9.96293C2.85656 9.72635 3.05969 9.52323 3.29626 9.36515L3.01848 8.94942ZM13.8333 27.1667H14.3333V23.1667H13.8333H13.3333V27.1667H13.8333ZM11.1667 4.5V5H16.5V4.5V4H11.1667V4.5ZM11.1667 8.5V9H16.5V8.5V8H11.1667V8.5ZM11.1667 12.5V13H16.5V12.5V12H11.1667V12.5ZM11.1667 16.5V17H16.5V16.5V16H11.1667V16.5Z" fill="#0D47A1"/>
</svg>
