<svg width="32" height="32" viewBox="0 0 32 32" fill="none" xmlns="http://www.w3.org/2000/svg">
<path d="M16 29.3333H22.6667V7.99996C22.6667 5.4858 22.6667 4.22872 21.8856 3.44767C21.1046 2.66663 19.8475 2.66663 17.3333 2.66663H14.6667C12.1525 2.66663 10.8954 2.66663 10.1144 3.44767C9.33332 4.22872 9.33332 5.4858 9.33332 7.99996V29.3333H16Z" fill="#96BFFF"/>
<path d="M29.3333 30.0833C29.7475 30.0833 30.0833 29.7475 30.0833 29.3333C30.0833 28.9191 29.7475 28.5833 29.3333 28.5833V29.3333V30.0833ZM2.66666 28.5833C2.25244 28.5833 1.91666 28.9191 1.91666 29.3333C1.91666 29.7475 2.25244 30.0833 2.66666 30.0833V29.3333V28.5833ZM26.8148 7.11604L27.2315 6.49244L27.2315 6.49244L26.8148 7.11604ZM27.5506 7.85177L26.927 8.26845L26.927 8.26845L27.5506 7.85177ZM5.18514 7.11604L4.76846 6.49244L4.76846 6.49244L5.18514 7.11604ZM4.4494 7.85177L5.07301 8.26845L5.07301 8.26845L4.4494 7.85177ZM16.75 25.3333C16.75 24.9191 16.4142 24.5833 16 24.5833C15.5858 24.5833 15.25 24.9191 15.25 25.3333H16H16.75ZM15.25 16C15.25 16.4142 15.5858 16.75 16 16.75C16.4142 16.75 16.75 16.4142 16.75 16H16H15.25ZM16.75 10.6666C16.75 10.2524 16.4142 9.91663 16 9.91663C15.5858 9.91663 15.25 10.2524 15.25 10.6666H16H16.75ZM18.6667 14.0833C19.0809 14.0833 19.4167 13.7475 19.4167 13.3333C19.4167 12.9191 19.0809 12.5833 18.6667 12.5833V13.3333V14.0833ZM13.3333 12.5833C12.9191 12.5833 12.5833 12.9191 12.5833 13.3333C12.5833 13.7475 12.9191 14.0833 13.3333 14.0833V13.3333V12.5833ZM29.3333 29.3333V28.5833H28V29.3333V30.0833H29.3333V29.3333ZM28 29.3333V28.5833H22.6667V29.3333V30.0833H28V29.3333ZM22.6667 29.3333V28.5833H16V29.3333V30.0833H22.6667V29.3333ZM16 29.3333V28.5833H9.33332V29.3333V30.0833H16V29.3333ZM9.33332 29.3333V28.5833H3.99999V29.3333V30.0833H9.33332V29.3333ZM3.99999 29.3333V28.5833H2.66666V29.3333V30.0833H3.99999V29.3333ZM14.6667 2.66663V3.41663H17.3333V2.66663V1.91663H14.6667V2.66663ZM22.6667 7.99996H21.9167V29.3333H22.6667H23.4167V7.99996H22.6667ZM9.33332 29.3333H10.0833V7.99996H9.33332H8.58332V29.3333H9.33332ZM17.3333 2.66663V3.41663C18.6116 3.41663 19.4949 3.41822 20.1594 3.50757C20.8024 3.59402 21.1273 3.75006 21.3553 3.978L21.8856 3.44767L22.4159 2.91734C21.8628 2.36424 21.1687 2.12976 20.3593 2.02094C19.5716 1.91503 18.5692 1.91663 17.3333 1.91663V2.66663ZM22.6667 7.99996H23.4167C23.4167 6.76408 23.4182 5.76173 23.3123 4.97397C23.2035 4.16463 22.969 3.47045 22.4159 2.91734L21.8856 3.44767L21.3553 3.978C21.5832 4.20595 21.7393 4.53083 21.8257 5.17384C21.9151 5.83842 21.9167 6.72168 21.9167 7.99996H22.6667ZM14.6667 2.66663V1.91663C13.4308 1.91663 12.4284 1.91503 11.6407 2.02094C10.8313 2.12976 10.1371 2.36424 9.58404 2.91734L10.1144 3.44767L10.6447 3.978C10.8726 3.75006 11.1975 3.59402 11.8405 3.50757C12.5051 3.41822 13.3884 3.41663 14.6667 3.41663V2.66663ZM9.33332 7.99996H10.0833C10.0833 6.72168 10.0849 5.83842 10.1743 5.17384C10.2607 4.53083 10.4168 4.20595 10.6447 3.978L10.1144 3.44767L9.58404 2.91734C9.03094 3.47045 8.79645 4.16463 8.68764 4.97397C8.58173 5.76173 8.58332 6.76408 8.58332 7.99996H9.33332ZM28 11.3333H27.25V29.3333H28H28.75V11.3333H28ZM23.3333 6.66663V7.41663C24.2852 7.41663 24.9427 7.41753 25.4482 7.46895C25.9411 7.5191 26.2056 7.611 26.3982 7.73964L26.8148 7.11604L27.2315 6.49244C26.7515 6.17167 26.2115 6.03886 25.6 5.97665C25.001 5.91572 24.254 5.91663 23.3333 5.91663V6.66663ZM28 11.3333H28.75C28.75 10.4126 28.7509 9.66562 28.69 9.06662C28.6278 8.45509 28.4949 7.91516 28.1742 7.43509L27.5506 7.85177L26.927 8.26845C27.0556 8.46098 27.1475 8.7255 27.1977 9.21843C27.2491 9.72389 27.25 10.3814 27.25 11.3333H28ZM26.8148 7.11604L26.3982 7.73964C26.6074 7.87948 26.7871 8.05917 26.927 8.26845L27.5506 7.85177L28.1742 7.4351C27.9249 7.06203 27.6046 6.74171 27.2315 6.49244L26.8148 7.11604ZM3.99999 11.3333H3.24999V29.3333H3.99999H4.74999V11.3333H3.99999ZM8.66666 6.66663V5.91663C7.74596 5.91663 6.99898 5.91572 6.39998 5.97665C5.78845 6.03886 5.24853 6.17167 4.76846 6.49244L5.18514 7.11604L5.60181 7.73964C5.79434 7.611 6.05887 7.5191 6.55179 7.46895C7.05725 7.41753 7.71474 7.41663 8.66666 7.41663V6.66663ZM3.99999 11.3333H4.74999C4.74999 10.3814 4.7509 9.72389 4.80232 9.21843C4.85246 8.7255 4.94436 8.46097 5.07301 8.26845L4.4494 7.85177L3.8258 7.43509C3.50503 7.91516 3.37223 8.45509 3.31002 9.06662C3.24908 9.66562 3.24999 10.4126 3.24999 11.3333H3.99999ZM5.18514 7.11604L4.76846 6.49244C4.39539 6.74171 4.07508 7.06203 3.8258 7.43509L4.4494 7.85177L5.07301 8.26845C5.21284 8.05917 5.39253 7.87948 5.60181 7.73964L5.18514 7.11604ZM16 29.3333H16.75V25.3333H16H15.25V29.3333H16ZM16 16H16.75V13.3333H16H15.25V16H16ZM16 13.3333H16.75V10.6666H16H15.25V13.3333H16ZM18.6667 13.3333V12.5833H16V13.3333V14.0833H18.6667V13.3333ZM16 13.3333V12.5833H13.3333V13.3333V14.0833H16V13.3333Z" fill="#0D47A1"/>
</svg>
