<svg width="32" height="32" viewBox="0 0 32 32" fill="none" xmlns="http://www.w3.org/2000/svg">
<path d="M20.7415 19.3969L20.1343 20.0363C20.1343 20.0363 18.6908 21.556 14.7508 17.4079C10.8108 13.2598 12.2543 11.7401 12.2543 11.7401L12.6367 11.3375C13.5788 10.3457 13.6676 8.75329 12.8457 7.5908L11.1643 5.21282C10.147 3.774 8.18128 3.58393 7.01527 4.81152L4.92247 7.01485C4.34431 7.62354 3.95687 8.4126 4.00385 9.28792C4.12405 11.5273 5.08095 16.3454 10.4205 21.9669C16.0829 27.9283 21.3958 28.1652 23.5684 27.9508C24.2556 27.883 24.8532 27.5124 25.3348 27.0053L27.2289 25.0112C28.5074 23.6652 28.1469 21.3576 26.5111 20.416L23.9638 18.9498C22.8897 18.3315 21.581 18.5131 20.7415 19.3969Z" fill="#96BFFF"/>
<path d="M25.6869 7.02022C25.8821 6.82496 25.8821 6.50838 25.6869 6.31311C25.4916 6.11785 25.175 6.11785 24.9798 6.31311L25.3333 6.66667L25.6869 7.02022ZM20 12H19.5C19.5 12.2761 19.7239 12.5 20 12.5V12ZM20.5 8C20.5 7.72386 20.2761 7.5 20 7.5C19.7239 7.5 19.5 7.72386 19.5 8H20H20.5ZM24 12.5C24.2761 12.5 24.5 12.2761 24.5 12C24.5 11.7239 24.2761 11.5 24 11.5V12V12.5ZM20.1343 20.0363L20.4968 20.3806V20.3806L20.1343 20.0363ZM20.7415 19.3969L20.379 19.0526L20.7415 19.3969ZM23.9638 18.9498L23.7143 19.3831L23.9638 18.9498ZM26.5111 20.416L26.2617 20.8493L26.5111 20.416ZM27.2289 25.0112L27.5914 25.3556L27.2289 25.0112ZM25.3348 27.0053L24.9723 26.661L25.3348 27.0053ZM23.5684 27.9508L23.6175 28.4484L23.5684 27.9508ZM10.4205 21.9669L10.058 22.3113L10.4205 21.9669ZM4.00385 9.28792L3.50457 9.31471L3.50457 9.31471L4.00385 9.28792ZM12.2543 11.7401L12.6168 12.0844L12.2543 11.7401ZM12.6367 11.3375L12.9992 11.6818L12.6367 11.3375ZM12.8457 7.5908L13.2539 7.30215V7.30214L12.8457 7.5908ZM11.1643 5.21282L10.7561 5.50148V5.50148L11.1643 5.21282ZM7.01527 4.81152L7.3778 5.15587H7.3778L7.01527 4.81152ZM4.92247 7.01485L4.55994 6.6705L4.55994 6.6705L4.92247 7.01485ZM14.7508 17.4079L15.1134 17.0635L14.7508 17.4079ZM25.3333 6.66667L24.9798 6.31311L19.6464 11.6464L20 12L20.3536 12.3536L25.6869 7.02022L25.3333 6.66667ZM20 12H20.5V8H20H19.5V12H20ZM20 12V12.5H24V12V11.5H20V12ZM20.1343 20.0363L20.4968 20.3806L21.1041 19.7413L20.7415 19.3969L20.379 19.0526L19.7718 19.6919L20.1343 20.0363ZM23.9638 18.9498L23.7143 19.3831L26.2617 20.8493L26.5111 20.416L26.7605 19.9826L24.2132 18.5164L23.9638 18.9498ZM27.2289 25.0112L26.8664 24.6669L24.9723 26.661L25.3348 27.0053L25.6974 27.3497L27.5914 25.3556L27.2289 25.0112ZM23.5684 27.9508L23.5193 27.4532C21.4763 27.6549 16.3236 27.4558 10.783 21.6226L10.4205 21.9669L10.058 22.3113C15.8421 28.4008 21.3153 28.6756 23.6175 28.4484L23.5684 27.9508ZM10.4205 21.9669L10.783 21.6226C5.52916 16.0913 4.61726 11.3873 4.50313 9.26112L4.00385 9.28792L3.50457 9.31471C3.63084 11.6672 4.63274 16.5995 10.058 22.3113L10.4205 21.9669ZM12.2543 11.7401L12.6168 12.0844L12.9992 11.6818L12.6367 11.3375L12.2742 10.9931L11.8917 11.3958L12.2543 11.7401ZM12.8457 7.5908L13.2539 7.30214L11.5726 4.92416L11.1643 5.21282L10.7561 5.50148L12.4374 7.87946L12.8457 7.5908ZM7.01527 4.81152L6.65274 4.46718L4.55994 6.6705L4.92247 7.01485L5.28499 7.35919L7.3778 5.15587L7.01527 4.81152ZM12.2543 11.7401C11.8917 11.3958 11.8913 11.3962 11.8908 11.3967C11.8906 11.3969 11.8902 11.3974 11.8898 11.3978C11.8892 11.3985 11.8885 11.3992 11.8878 11.3999C11.8864 11.4014 11.8849 11.4031 11.8834 11.4048C11.8802 11.4082 11.8768 11.4121 11.873 11.4165C11.8654 11.4251 11.8567 11.4356 11.847 11.4479C11.8275 11.4725 11.8041 11.5044 11.7788 11.544C11.728 11.6233 11.6697 11.7329 11.6192 11.8747C11.5172 12.1614 11.4531 12.5636 11.5303 13.0909C11.6833 14.1349 12.3851 15.6432 14.3883 17.7522L14.7508 17.4079L15.1134 17.0635C13.1766 15.0245 12.6301 13.6989 12.5198 12.946C12.4654 12.5749 12.5159 12.3379 12.5614 12.21C12.5846 12.1445 12.6083 12.103 12.6211 12.083C12.6275 12.0729 12.6313 12.0682 12.6311 12.0685C12.631 12.0686 12.6298 12.07 12.6275 12.0727C12.6264 12.074 12.6249 12.0757 12.6231 12.0776C12.6222 12.0786 12.6213 12.0797 12.6202 12.0808C12.6197 12.0814 12.6191 12.082 12.6186 12.0826C12.6183 12.0829 12.6178 12.0833 12.6177 12.0835C12.6173 12.084 12.6168 12.0844 12.2543 11.7401ZM14.7508 17.4079L14.3883 17.7522C16.3885 19.8581 17.8282 20.6068 18.8399 20.7711C19.3534 20.8545 19.7482 20.7854 20.0306 20.674C20.1698 20.6191 20.2768 20.5559 20.3538 20.5013C20.3923 20.474 20.4232 20.449 20.4468 20.4282C20.4587 20.4178 20.4687 20.4085 20.477 20.4005C20.4812 20.3965 20.4849 20.3928 20.4882 20.3895C20.4899 20.3878 20.4914 20.3862 20.4928 20.3848C20.4936 20.384 20.4942 20.3833 20.4949 20.3826C20.4952 20.3823 20.4957 20.3818 20.4959 20.3816C20.4964 20.3811 20.4968 20.3806 20.1343 20.0363C19.7718 19.6919 19.7722 19.6914 19.7727 19.691C19.7728 19.6908 19.7733 19.6904 19.7735 19.6901C19.7741 19.6895 19.7747 19.6889 19.7752 19.6883C19.7763 19.6872 19.7773 19.6862 19.7782 19.6852C19.7801 19.6834 19.7817 19.6818 19.783 19.6805C19.7856 19.678 19.7871 19.6767 19.7874 19.6764C19.788 19.6759 19.784 19.6794 19.7753 19.6856C19.758 19.6979 19.7214 19.721 19.6637 19.7438C19.5524 19.7877 19.34 19.8393 19.0002 19.7841C18.3052 19.6712 17.0531 19.1057 15.1134 17.0635L14.7508 17.4079ZM11.1643 5.21282L11.5726 4.92416C10.3882 3.24903 8.0532 2.99276 6.65274 4.46718L7.01527 4.81152L7.3778 5.15587C8.30936 4.17511 9.90586 4.29897 10.7561 5.50148L11.1643 5.21282ZM4.00385 9.28792L4.50313 9.26112C4.46535 8.55726 4.77499 7.89613 5.28499 7.35919L4.92247 7.01485L4.55994 6.6705C3.91362 7.35095 3.44839 8.26794 3.50457 9.31471L4.00385 9.28792ZM25.3348 27.0053L24.9723 26.661C24.5455 27.1104 24.052 27.4006 23.5193 27.4532L23.5684 27.9508L23.6175 28.4484C24.4591 28.3653 25.161 27.9144 25.6974 27.3497L25.3348 27.0053ZM12.6367 11.3375L12.9992 11.6818C14.1153 10.5068 14.2054 8.64783 13.2539 7.30215L12.8457 7.5908L12.4374 7.87946C13.1298 8.85874 13.0422 10.1845 12.2742 10.9931L12.6367 11.3375ZM26.5111 20.416L26.2617 20.8493C27.6268 21.6351 27.9142 23.5638 26.8664 24.6669L27.2289 25.0112L27.5914 25.3556C29.1007 23.7666 28.6671 21.08 26.7605 19.9826L26.5111 20.416ZM20.7415 19.3969L21.1041 19.7413C21.7808 19.0288 22.8355 18.8772 23.7143 19.3831L23.9638 18.9498L24.2132 18.5164C22.9438 17.7858 21.3813 17.9974 20.379 19.0526L20.7415 19.3969Z" fill="#0D47A1"/>
</svg>
