<svg width="60" height="58" viewBox="0 0 60 58" fill="none" xmlns="http://www.w3.org/2000/svg">
<path d="M57.7454 20.4074L41.1738 26.2872C41.4738 27.5471 41.3298 28.8791 40.7298 30.0791C40.0459 31.471 38.8579 32.503 37.3819 32.983C36.7339 33.187 36.062 33.271 35.414 33.235C34.97 33.211 34.526 33.139 34.094 33.007C34.058 31.207 33.254 29.4431 31.7781 28.2911C31.5981 27.3311 31.7781 26.3472 32.2941 25.4952V25.4712C32.4261 25.2552 32.5221 25.0392 32.5581 24.8232L32.6061 24.5232L32.4501 24.2592C31.7661 22.9874 30.4941 22.1834 29.0302 22.1114C28.6582 22.0874 28.2862 22.1234 27.9382 22.2074C27.6022 21.7514 27.3502 21.2474 27.1582 20.6954C26.2222 17.8635 27.7342 14.6836 30.5061 13.6156C31.9581 13.0516 33.518 13.0996 34.922 13.7476C36.134 14.2996 37.0819 15.2356 37.6579 16.4235L54.2295 10.5317C55.0935 10.2317 56.0174 10.2677 56.8454 10.6637C57.6734 11.0477 58.2854 11.7437 58.5854 12.6076L59.7973 16.0275C60.4333 17.8155 59.5213 19.7594 57.7454 20.3954V20.4074Z" fill="#FFC487"/>
<path d="M32.5833 24.5219L32.5353 24.8219C32.4993 25.0499 32.4153 25.2659 32.2833 25.4699V25.4939C31.7673 26.3459 31.5874 27.3299 31.7553 28.2897C31.6954 28.2417 31.6234 28.1938 31.5634 28.1338C31.4074 28.0258 31.2514 27.9298 31.0954 27.8219C30.7234 27.5939 30.3274 27.4259 29.9434 27.2819C28.8154 26.8979 27.6155 26.8499 26.5355 27.1499C26.3915 26.0459 25.9715 25.0139 25.3115 24.1499C25.8635 23.178 26.8355 22.458 27.9515 22.206C28.2994 22.134 28.6714 22.086 29.0434 22.11C30.4834 22.182 31.7673 22.974 32.4633 24.2579L32.5953 24.5219H32.5833Z" fill="#FF6859"/>
<path d="M31.8857 37.3021C31.1657 38.55 30.0138 39.414 28.6098 39.75C27.4218 40.05 26.2099 39.918 25.0939 39.402L24.7459 39.234L15.2543 54.5095C14.7023 55.3855 13.7543 55.9015 12.7224 55.9015C12.1704 55.9015 11.6184 55.7455 11.1624 55.4575L8.09048 53.5375C6.71051 52.6855 6.27853 50.8376 7.1305 49.4456L16.6223 34.1701L16.3223 33.9302C15.3623 33.1622 14.7143 32.1422 14.4503 30.9302C14.1503 29.5383 14.4143 28.1103 15.2063 26.9103C16.1903 25.4104 17.8942 24.5824 19.622 24.5824C20.534 24.5824 21.434 24.8104 22.262 25.3024C22.934 25.6984 23.4859 26.2144 23.9059 26.8263C24.3859 27.5103 24.6979 28.3263 24.8059 29.1783C24.8419 29.3703 24.9379 29.5263 25.1059 29.6463C25.2739 29.7423 25.4539 29.7543 25.6339 29.6943C25.7299 29.6583 25.7779 29.6583 25.8739 29.6223C26.9179 29.2743 28.0818 29.3223 29.1498 29.7063C29.3778 29.7903 29.6178 29.8863 29.8338 30.0063C29.9778 30.0903 30.1098 30.1742 30.2418 30.2582C30.4338 30.3902 30.6138 30.5342 30.7938 30.6782C31.7777 31.5302 32.3777 32.7302 32.5457 33.9661C32.7137 35.0821 32.5217 36.2581 31.9097 37.2901L31.8857 37.3021Z" fill="#FFC487"/>
<path d="M46.7061 47.9024C46.3941 47.9024 46.0821 47.7824 45.8541 47.5425L39.7943 41.3866C39.3263 40.9186 39.3383 40.1626 39.8063 39.6947C40.2743 39.2267 41.0302 39.2387 41.4982 39.7067L47.5581 45.8625C48.0261 46.3305 48.014 47.0865 47.5461 47.5545C47.3181 47.7824 47.0061 47.9024 46.7061 47.9024Z" fill="#FF6859"/>
<path d="M55.6951 36.824C55.5991 36.824 55.4911 36.812 55.3831 36.788L44.5594 33.9201C43.9234 33.7521 43.5394 33.0921 43.7074 32.4561C43.8754 31.8202 44.5234 31.4362 45.1714 31.6042L55.9951 34.4721C56.6311 34.6401 57.0151 35.3001 56.8471 35.9361C56.7031 36.476 56.2231 36.824 55.6951 36.824Z" fill="#FF6859"/>
<path d="M35.1628 57.0556C34.6228 57.0556 34.1428 56.6956 33.9988 56.1556L31.2749 45.3079C31.1189 44.6719 31.5029 44.012 32.1509 43.856C32.7989 43.7 33.4469 44.084 33.6029 44.7319L36.3268 55.5797C36.4828 56.2156 36.0988 56.8756 35.4508 57.0316C35.3548 57.0556 35.2588 57.0676 35.1628 57.0676V57.0556Z" fill="#FF6859"/>
<path d="M12.0271 25.3306C11.9311 25.3306 11.8231 25.3186 11.7151 25.2946L0.891453 22.4267C0.25547 22.2587 -0.12852 21.5987 0.0394755 20.9627C0.207471 20.3268 0.867453 19.9428 1.50344 20.1108L12.3271 22.9787C12.9631 23.1467 13.3471 23.8067 13.1791 24.4427C13.0351 24.9826 12.5551 25.3306 12.0271 25.3306Z" fill="#FF6859"/>
<path d="M16.2864 17.5413C15.9744 17.5413 15.6625 17.4213 15.4225 17.1813L9.39862 10.9895C8.94263 10.5095 8.94263 9.75353 9.42262 9.29754C9.90261 8.84156 10.6586 8.84156 11.1146 9.32154L17.1384 15.5134C17.5944 15.9934 17.5944 16.7493 17.1144 17.2053C16.8864 17.4333 16.5864 17.5413 16.2744 17.5413H16.2864Z" fill="#FF6859"/>
<path d="M24.2898 13.2344C23.7498 13.2344 23.2698 12.8744 23.1258 12.3344L20.4019 1.48667C20.2459 0.850659 20.6299 0.190677 21.2778 0.0346807C21.9138 -0.121315 22.5738 0.262674 22.7298 0.910657L25.4537 11.7584C25.6097 12.3944 25.2257 13.0544 24.5778 13.2104C24.4818 13.2344 24.3858 13.2464 24.2898 13.2464V13.2344Z" fill="#FF6859"/>
</svg>
