<svg width="32" height="32" viewBox="0 0 32 32" fill="none" xmlns="http://www.w3.org/2000/svg">
<path d="M3.17802 18.391C2.58332 14.1729 2.28596 12.0639 3.54976 10.6988C4.81356 9.33366 7.06344 9.33366 11.5632 9.33366H20.4368C24.9366 9.33366 27.1864 9.33366 28.4502 10.6988C29.714 12.0639 29.4167 14.1729 28.822 18.391L28.258 22.391C27.7917 25.6988 27.5585 27.3527 26.3622 28.3432C25.166 29.3337 23.4016 29.3337 19.8729 29.3337H12.1272C8.59841 29.3337 6.83404 29.3337 5.63779 28.3432C4.44154 27.3527 4.20835 25.6988 3.74198 22.391L3.17802 18.391Z" fill="#96BFFF"/>
<path d="M21.0082 2.68222L21.0882 1.9365V1.9365L21.0082 2.68222ZM23.3903 5.33945L24.1403 5.34108V5.34108L23.3903 5.33945ZM10.9915 2.68222L11.0715 3.42793V3.42793L10.9915 2.68222ZM8.60939 5.33945L9.35939 5.33782L8.60939 5.33945ZM20 24.7503C20.4142 24.7503 20.75 24.4145 20.75 24.0003C20.75 23.5861 20.4142 23.2503 20 23.2503V24.0003V24.7503ZM12 23.2503C11.5858 23.2503 11.25 23.5861 11.25 24.0003C11.25 24.4145 11.5858 24.7503 12 24.7503V24.0003V23.2503ZM3.74198 22.391L4.48463 22.2863L3.74198 22.391ZM28.258 22.391L27.5154 22.2863L28.258 22.391ZM28.822 18.391L29.5646 18.4957L28.822 18.391ZM3.17802 18.391L2.43536 18.4957L3.17802 18.391ZM8.71717 6.00033V6.75033H23.2823V6.00033V5.25033H8.71717V6.00033ZM23.2823 6.00033V6.75033C24.5825 6.75033 25.568 7.92351 25.3436 9.20421L26.0823 9.33366L26.8211 9.4631C27.2063 7.26442 25.5144 5.25033 23.2823 5.25033V6.00033ZM8.71717 6.00033V5.25033C6.48499 5.25033 4.79313 7.26442 5.17839 9.4631L5.91713 9.33366L6.65588 9.20421C6.43147 7.92351 7.41696 6.75033 8.71717 6.75033V6.00033ZM11.6547 2.66699V3.41699H20.345V2.66699V1.91699H11.6547V2.66699ZM20.345 2.66699V3.41699C20.7128 3.41699 20.8364 3.41809 20.9282 3.42793L21.0082 2.68222L21.0882 1.9365C20.8962 1.9159 20.6724 1.91699 20.345 1.91699V2.66699ZM23.3333 6.00033L24.0788 6.08198C24.1144 5.75662 24.1399 5.53416 24.1403 5.34108L23.3903 5.33945L22.6403 5.33782C22.6401 5.43009 22.6277 5.55316 22.5877 5.91867L23.3333 6.00033ZM21.0082 2.68222L20.9282 3.42793C21.9035 3.53261 22.6424 4.35685 22.6403 5.33782L23.3903 5.33945L24.1403 5.34108C24.1441 3.59239 22.8269 2.12309 21.0882 1.9365L21.0082 2.68222ZM11.6547 2.66699V1.91699C11.3273 1.91699 11.1035 1.9159 10.9115 1.9365L10.9915 2.68222L11.0715 3.42793C11.1633 3.41809 11.2869 3.41699 11.6547 3.41699V2.66699ZM8.66645 6.00033L9.41199 5.91868C9.37196 5.55312 9.35959 5.4301 9.35939 5.33782L8.60939 5.33945L7.85939 5.34108C7.85981 5.53416 7.88527 5.7566 7.9209 6.08197L8.66645 6.00033ZM10.9915 2.68222L10.9115 1.9365C9.17277 2.12309 7.85559 3.59239 7.85939 5.34108L8.60939 5.33945L9.35939 5.33782C9.35725 4.35685 10.0962 3.53261 11.0715 3.42793L10.9915 2.68222ZM20 24.0003V23.2503H12V24.0003V24.7503H20V24.0003ZM11.5632 9.33366V10.0837H20.4368V9.33366V8.58366H11.5632V9.33366ZM28.822 18.391L28.0793 18.2863L27.5154 22.2863L28.258 22.391L29.0007 22.4957L29.5646 18.4957L28.822 18.391ZM19.8729 29.3337V28.5837H12.1272V29.3337V30.0837H19.8729V29.3337ZM3.74198 22.391L4.48463 22.2863L3.92067 18.2863L3.17802 18.391L2.43536 18.4957L2.99932 22.4957L3.74198 22.391ZM12.1272 29.3337V28.5837C10.3442 28.5837 9.07382 28.5824 8.09715 28.4652C7.13819 28.3501 6.55912 28.1323 6.1161 27.7655L5.63779 28.3432L5.15948 28.9209C5.91271 29.5445 6.81395 29.822 7.91843 29.9545C9.0052 30.0849 10.3814 30.0837 12.1272 30.0837V29.3337ZM3.74198 22.391L2.99932 22.4957C3.22963 24.1292 3.41119 25.4281 3.69394 26.4383C3.98344 27.4726 4.40145 28.2933 5.15948 28.9209L5.63779 28.3432L6.1161 27.7655C5.67788 27.4027 5.38116 26.9012 5.13842 26.0339C4.88892 25.1426 4.7207 23.9606 4.48463 22.2863L3.74198 22.391ZM28.258 22.391L27.5154 22.2863C27.2793 23.9606 27.1111 25.1426 26.8616 26.0339C26.6188 26.9012 26.3221 27.4027 25.8839 27.7655L26.3622 28.3432L26.8405 28.9209C27.5986 28.2933 28.0166 27.4726 28.3061 26.4383C28.5888 25.4281 28.7704 24.1292 29.0007 22.4957L28.258 22.391ZM19.8729 29.3337V30.0837C21.6186 30.0837 22.9948 30.0849 24.0816 29.9545C25.1861 29.822 26.0873 29.5445 26.8405 28.9209L26.3622 28.3432L25.8839 27.7655C25.4409 28.1323 24.8618 28.3501 23.9029 28.4652C22.9262 28.5824 21.6558 28.5837 19.8729 28.5837V29.3337ZM20.4368 9.33366V10.0837C22.7081 10.0837 24.3363 10.0852 25.5581 10.2477C26.7639 10.4081 27.439 10.7105 27.8999 11.2083L28.4502 10.6988L29.0006 10.1892C28.1977 9.32196 27.1159 8.94174 25.7559 8.76084C24.4119 8.58209 22.6653 8.58366 20.4368 8.58366V9.33366ZM28.822 18.391L29.5646 18.4957C29.8587 16.4103 30.0929 14.7633 30.083 13.4693C30.073 12.1492 29.8106 11.0641 29.0006 10.1892L28.4502 10.6988L27.8999 11.2083C28.3537 11.6985 28.5745 12.3505 28.5831 13.4807C28.5919 14.6371 28.38 16.1535 28.0793 18.2863L28.822 18.391ZM11.5632 9.33366V8.58366C9.33473 8.58366 7.58807 8.58209 6.24411 8.76084C4.88408 8.94174 3.80233 9.32196 2.9994 10.1892L3.54976 10.6988L4.10012 11.2083C4.56099 10.7105 5.23608 10.4081 6.44188 10.2477C7.66375 10.0852 9.29191 10.0837 11.5632 10.0837V9.33366ZM3.17802 18.391L3.92067 18.2863C3.61998 16.1535 3.40815 14.6371 3.41693 13.4807C3.42551 12.3505 3.64628 11.6985 4.10012 11.2083L3.54976 10.6988L2.9994 10.1892C2.18944 11.0641 1.92699 12.1492 1.91697 13.4693C1.90715 14.7633 2.14135 16.4103 2.43536 18.4957L3.17802 18.391Z" fill="#F2F7FF"/>
</svg>
