<svg width="24" height="24" viewBox="0 0 24 24" fill="none" xmlns="http://www.w3.org/2000/svg">
<path d="M20.2696 16.265L20.9752 12.1852C21.1514 11.1662 20.3678 10.2342 19.3348 10.2342H14.1537C13.6402 10.2342 13.2492 9.77328 13.3323 9.26598L13.995 5.22142C14.1026 4.56435 14.0719 3.892 13.9047 3.24752C13.7662 2.71364 13.3543 2.28495 12.8126 2.11093L12.6676 2.06435C12.3402 1.95918 11.9829 1.98365 11.6742 2.13239C11.3344 2.29611 11.0859 2.59473 10.9938 2.94989L10.5181 4.78374C10.3667 5.36723 10.1462 5.93045 9.86195 6.46262C9.4466 7.24017 8.80441 7.86246 8.13688 8.43769L6.69814 9.67749C6.29248 10.0271 6.07945 10.5506 6.12561 11.0844L6.93777 20.4771C7.01227 21.3386 7.73257 22 8.59635 22H13.245C16.7263 22 19.6973 19.5744 20.2696 16.265Z" fill="#F8FAFF"/>
<path d="M3 10.2342L3.9716 21.4707C3.99621 21.7553 3.77207 22 3.48671 22C3.21791 22 3 21.7818 3 21.5127V10.2342Z" fill="#F8FAFF"/>
<path d="M20.9752 12.1852L20.4825 12.1L20.9752 12.1852ZM20.2696 16.265L19.7769 16.1797L20.2696 16.265ZM6.93777 20.4771L6.43963 20.5201L6.93777 20.4771ZM6.12561 11.0844L6.62375 11.0413L6.12561 11.0844ZM13.995 5.22142L14.4884 5.30226V5.30226L13.995 5.22142ZM13.3323 9.26598L13.8257 9.34682L13.3323 9.26598ZM6.69814 9.67749L6.37175 9.29872H6.37175L6.69814 9.67749ZM8.13688 8.43769L8.46327 8.81646L8.13688 8.43769ZM10.5181 4.78374L10.0341 4.6582L10.5181 4.78374ZM10.9938 2.94989L11.4777 3.07544V3.07543L10.9938 2.94989ZM12.6676 2.06435L12.5147 2.54039L12.5147 2.54039L12.6676 2.06435ZM12.8126 2.11093L12.9655 1.63489L12.9655 1.63489L12.8126 2.11093ZM9.86195 6.46262L10.303 6.6982L9.86195 6.46262ZM13.9047 3.24752L13.4207 3.37307V3.37307L13.9047 3.24752ZM11.6742 2.13239L11.4571 1.68196V1.68196L11.6742 2.13239ZM3.9716 21.4707L3.47346 21.5138L3.9716 21.4707ZM3 10.2342L3.49814 10.1911C3.47507 9.92437 3.24595 9.72312 2.97844 9.73467C2.71093 9.74621 2.5 9.96644 2.5 10.2342H3ZM20.9752 12.1852L20.4825 12.1L19.7769 16.1797L20.2696 16.265L20.7623 16.3502L21.4678 12.2704L20.9752 12.1852ZM13.245 22V21.5H8.59635V22V22.5H13.245V22ZM6.93777 20.4771L7.43591 20.434L6.62375 11.0413L6.12561 11.0844L5.62747 11.1275L6.43963 20.5201L6.93777 20.4771ZM20.2696 16.265L19.7769 16.1797C19.2483 19.2366 16.4963 21.5 13.245 21.5V22V22.5C16.9562 22.5 20.1463 19.9122 20.7623 16.3502L20.2696 16.265ZM13.995 5.22142L13.5015 5.14058L12.8389 9.18514L13.3323 9.26598L13.8257 9.34682L14.4884 5.30226L13.995 5.22142ZM6.69814 9.67749L7.02453 10.0563L8.46327 8.81646L8.13688 8.43769L7.81048 8.05892L6.37175 9.29872L6.69814 9.67749ZM10.5181 4.78374L11.002 4.90929L11.4777 3.07544L10.9938 2.94989L10.5098 2.82434L10.0341 4.6582L10.5181 4.78374ZM12.6676 2.06435L12.5147 2.54039L12.6596 2.58696L12.8126 2.11093L12.9655 1.63489L12.8205 1.58831L12.6676 2.06435ZM9.86195 6.46262L10.303 6.6982C10.6057 6.13147 10.8407 5.53134 11.002 4.90929L10.5181 4.78374L10.0341 4.6582C9.89272 5.20313 9.68673 5.72943 9.42093 6.22703L9.86195 6.46262ZM12.8126 2.11093L12.6596 2.58696C13.0445 2.7106 13.3268 3.01127 13.4207 3.37307L13.9047 3.24752L14.3887 3.12198C14.2055 2.41601 13.6641 1.8593 12.9655 1.63489L12.8126 2.11093ZM10.9938 2.94989L11.4777 3.07543C11.5318 2.86705 11.6797 2.68479 11.8913 2.58282L11.6742 2.13239L11.4571 1.68196C10.9892 1.90743 10.64 2.32242 10.5098 2.82434L10.9938 2.94989ZM11.6742 2.13239L11.8913 2.58282C12.084 2.48996 12.3088 2.47427 12.5147 2.54039L12.6676 2.06435L12.8205 1.58832C12.3716 1.44409 11.8818 1.47735 11.4571 1.68196L11.6742 2.13239ZM14.1537 10.2342V10.7342H19.3348V10.2342V9.7342H14.1537V10.2342ZM3.9716 21.4707L4.46974 21.4276L3.49814 10.1911L3 10.2342L2.50186 10.2773L3.47346 21.5138L3.9716 21.4707ZM3 21.5127H3.5V10.2342H3H2.5V21.5127H3ZM3.9716 21.4707L3.47346 21.5138C3.47346 21.5138 3.47344 21.5136 3.47345 21.5133C3.47346 21.5129 3.47349 21.5124 3.47356 21.5119C3.4737 21.5107 3.47398 21.5096 3.47436 21.5085C3.47508 21.5064 3.476 21.5051 3.47672 21.5043C3.47744 21.5035 3.47871 21.5025 3.48087 21.5015C3.48347 21.5003 3.48588 21.5 3.48671 21.5V22V22.5C4.06581 22.5 4.51955 22.0037 4.46974 21.4276L3.9716 21.4707ZM13.995 5.22142L14.4884 5.30226C14.6073 4.57649 14.5733 3.83385 14.3887 3.12198L13.9047 3.24752L13.4207 3.37307C13.5704 3.95015 13.5979 4.5522 13.5015 5.14058L13.995 5.22142ZM8.59635 22V21.5C7.99248 21.5 7.4881 21.0375 7.43591 20.434L6.93777 20.4771L6.43963 20.5201C6.53644 21.6397 7.47265 22.5 8.59635 22.5V22ZM8.13688 8.43769L8.46327 8.81646C9.13902 8.23416 9.84164 7.56184 10.303 6.6982L9.86195 6.46262L9.42093 6.22703C9.05156 6.9185 8.46981 7.49077 7.81048 8.05892L8.13688 8.43769ZM20.9752 12.1852L21.4678 12.2704C21.6968 10.9464 20.6786 9.7342 19.3348 9.7342V10.2342V10.7342C20.0569 10.7342 20.6059 11.386 20.4825 12.1L20.9752 12.1852ZM3.48671 22V21.5C3.4877 21.5 3.4899 21.5003 3.49222 21.5013C3.49421 21.5021 3.49549 21.5031 3.49631 21.5039C3.49712 21.5047 3.49805 21.506 3.49883 21.5078C3.49975 21.51 3.5 21.512 3.5 21.5127H3H2.5C2.5 22.0575 2.94123 22.5 3.48671 22.5V22ZM13.3323 9.26598L12.8389 9.18514C12.706 9.99614 13.3311 10.7342 14.1537 10.7342V10.2342V9.7342C13.9493 9.7342 13.7923 9.55043 13.8257 9.34682L13.3323 9.26598ZM6.12561 11.0844L6.62375 11.0413C6.59142 10.6674 6.74066 10.3009 7.02454 10.0563L6.69814 9.67749L6.37175 9.29872C5.84431 9.75322 5.56748 10.4337 5.62747 11.1275L6.12561 11.0844Z" fill="#2372EC"/>
</svg>
