<svg width="24" height="24" viewBox="0 0 24 24" fill="none" xmlns="http://www.w3.org/2000/svg">
<path d="M2 16C2 13.1716 2 11.7574 2.87868 10.8787C3.75736 10 5.17157 10 8 10H16C18.8284 10 20.2426 10 21.1213 10.8787C22 11.7574 22 13.1716 22 16C22 18.8284 22 20.2426 21.1213 21.1213C20.2426 22 18.8284 22 16 22H8C5.17157 22 3.75736 22 2.87868 21.1213C2 20.2426 2 18.8284 2 16Z" fill="#F8FAFF"/>
<path d="M12.5 14C12.5 13.7239 12.2761 13.5 12 13.5C11.7239 13.5 11.5 13.7239 11.5 14H12H12.5ZM11.5 18C11.5 18.2761 11.7239 18.5 12 18.5C12.2761 18.5 12.5 18.2761 12.5 18H12H11.5ZM5.5 10C5.5 10.2761 5.72386 10.5 6 10.5C6.27614 10.5 6.5 10.2761 6.5 10H6H5.5ZM17.5 10C17.5 10.2761 17.7239 10.5 18 10.5C18.2761 10.5 18.5 10.2761 18.5 10H18H17.5ZM8 10V10.5H16V10V9.5H8V10ZM16 22V21.5H8V22V22.5H16V22ZM8 22V21.5C6.57165 21.5 5.55069 21.4989 4.77481 21.3946C4.01331 21.2922 3.56319 21.0987 3.23223 20.7678L2.87868 21.1213L2.52513 21.4749C3.07285 22.0226 3.76917 22.2684 4.64156 22.3857C5.49956 22.5011 6.59992 22.5 8 22.5V22ZM2 16H1.5C1.5 17.4001 1.49894 18.5004 1.61429 19.3584C1.73158 20.2308 1.9774 20.9272 2.52513 21.4749L2.87868 21.1213L3.23223 20.7678C2.90128 20.4368 2.70776 19.9867 2.60538 19.2252C2.50106 18.4493 2.5 17.4283 2.5 16H2ZM22 16H21.5C21.5 17.4283 21.4989 18.4493 21.3946 19.2252C21.2922 19.9867 21.0987 20.4368 20.7678 20.7678L21.1213 21.1213L21.4749 21.4749C22.0226 20.9271 22.2684 20.2308 22.3857 19.3584C22.5011 18.5004 22.5 17.4001 22.5 16H22ZM16 22V22.5C17.4001 22.5 18.5004 22.5011 19.3584 22.3857C20.2308 22.2684 20.9271 22.0226 21.4749 21.4749L21.1213 21.1213L20.7678 20.7678C20.4368 21.0987 19.9867 21.2922 19.2252 21.3946C18.4493 21.4989 17.4283 21.5 16 21.5V22ZM16 10V10.5C17.4283 10.5 18.4493 10.5011 19.2252 10.6054C19.9867 10.7078 20.4368 10.9013 20.7678 11.2322L21.1213 10.8787L21.4749 10.5251C20.9271 9.9774 20.2308 9.73158 19.3584 9.61429C18.5004 9.49894 17.4001 9.5 16 9.5V10ZM22 16H22.5C22.5 14.5999 22.5011 13.4996 22.3857 12.6416C22.2684 11.7692 22.0226 11.0729 21.4749 10.5251L21.1213 10.8787L20.7678 11.2322C21.0987 11.5632 21.2922 12.0133 21.3946 12.7748C21.4989 13.5507 21.5 14.5717 21.5 16H22ZM8 10V9.5C6.59992 9.5 5.49956 9.49894 4.64156 9.61429C3.76917 9.73158 3.07285 9.9774 2.52513 10.5251L2.87868 10.8787L3.23223 11.2322C3.56319 10.9013 4.01331 10.7078 4.77481 10.6054C5.55069 10.5011 6.57165 10.5 8 10.5V10ZM2 16H2.5C2.5 14.5717 2.50106 13.5507 2.60538 12.7748C2.70776 12.0133 2.90128 11.5632 3.23223 11.2322L2.87868 10.8787L2.52513 10.5251C1.9774 11.0729 1.73158 11.7692 1.61429 12.6416C1.49894 13.4996 1.5 14.5999 1.5 16H2ZM12 14H11.5V18H12H12.5V14H12ZM6 10H6.5V8H6H5.5V10H6ZM18 8H17.5V10H18H18.5V8H18ZM12 2V2.5C15.0376 2.5 17.5 4.96243 17.5 8H18H18.5C18.5 4.41015 15.5899 1.5 12 1.5V2ZM6 8H6.5C6.5 4.96243 8.96243 2.5 12 2.5V2V1.5C8.41015 1.5 5.5 4.41015 5.5 8H6Z" fill="#2372EC"/>
</svg>
