<svg width="24" height="24" viewBox="0 0 24 24" fill="none" xmlns="http://www.w3.org/2000/svg">
<path d="M9.87889 21.1213L10.2324 20.7678H10.2324L9.87889 21.1213ZM9.87889 2.87868L10.2324 3.23223V3.23223L9.87889 2.87868ZM8.50196 6.99722C8.50042 7.27336 8.72303 7.49846 8.99917 7.49999C9.27531 7.50153 9.50041 7.27892 9.50195 7.00278L9.00195 7L8.50196 6.99722ZM9.50195 16.9972C9.50041 16.7211 9.27531 16.4985 8.99917 16.5C8.72303 16.5015 8.50042 16.7266 8.50196 17.0028L9.00195 17L9.50195 16.9972ZM15 12.5C15.2761 12.5 15.5 12.2761 15.5 12C15.5 11.7239 15.2761 11.5 15 11.5V12V12.5ZM2 12L1.6746 11.6204C1.56378 11.7154 1.5 11.854 1.5 12C1.5 12.146 1.56378 12.2846 1.6746 12.3796L2 12ZM5.8254 9.37963C6.03506 9.19992 6.05934 8.88427 5.87963 8.6746C5.69992 8.46494 5.38427 8.44066 5.1746 8.62037L5.5 9L5.8254 9.37963ZM5.1746 15.3796C5.38427 15.5593 5.69992 15.5351 5.87963 15.3254C6.05934 15.1157 6.03506 14.8001 5.8254 14.6204L5.5 15L5.1746 15.3796ZM15.0002 2V2.5H16.0002V2V1.5H15.0002V2ZM22.0002 8H21.5002V16H22.0002H22.5002V8H22.0002ZM16.0002 22V21.5H15.0002V22V22.5H16.0002V22ZM15.0002 22V21.5C13.5719 21.5 12.5509 21.4989 11.775 21.3946C11.0135 21.2922 10.5634 21.0987 10.2324 20.7678L9.87889 21.1213L9.52534 21.4749C10.0731 22.0226 10.7694 22.2684 11.6418 22.3857C12.4998 22.5011 13.6001 22.5 15.0002 22.5V22ZM22.0002 16H21.5002C21.5002 17.4283 21.4992 18.4493 21.3948 19.2252C21.2925 19.9867 21.0989 20.4368 20.768 20.7678L21.1215 21.1213L21.4751 21.4749C22.0228 20.9272 22.2686 20.2308 22.3859 19.3584C22.5013 18.5004 22.5002 17.4001 22.5002 16H22.0002ZM16.0002 22V22.5C17.4003 22.5 18.5007 22.5011 19.3587 22.3857C20.231 22.2684 20.9274 22.0226 21.4751 21.4749L21.1215 21.1213L20.768 20.7678C20.437 21.0987 19.9869 21.2922 19.2254 21.3946C18.4495 21.4989 17.4286 21.5 16.0002 21.5V22ZM16.0002 2V2.5C17.4286 2.5 18.4495 2.50106 19.2254 2.60538C19.9869 2.70776 20.437 2.90128 20.768 3.23223L21.1215 2.87868L21.4751 2.52513C20.9274 1.9774 20.231 1.73158 19.3587 1.61429C18.5007 1.49894 17.4003 1.5 16.0002 1.5V2ZM22.0002 8H22.5002C22.5002 6.59992 22.5013 5.49956 22.3859 4.64156C22.2686 3.76917 22.0228 3.07285 21.4751 2.52513L21.1215 2.87868L20.768 3.23223C21.0989 3.56319 21.2925 4.01331 21.3948 4.77481C21.4992 5.55069 21.5002 6.57165 21.5002 8H22.0002ZM15.0002 2V1.5C13.6001 1.5 12.4998 1.49894 11.6418 1.61429C10.7694 1.73158 10.0731 1.9774 9.52534 2.52513L9.87889 2.87868L10.2324 3.23223C10.5634 2.90128 11.0135 2.70776 11.775 2.60538C12.5509 2.50106 13.5719 2.5 15.0002 2.5V2ZM9.00195 7L9.50195 7.00278C9.50802 5.91128 9.536 5.11515 9.64859 4.50218C9.75856 3.90351 9.94208 3.5226 10.2324 3.23223L9.87889 2.87868L9.52534 2.52513C9.04732 3.00314 8.79843 3.59538 8.66505 4.32152C8.53429 5.03336 8.50799 5.91369 8.50196 6.99722L9.00195 7ZM9.00195 17L8.50196 17.0028C8.50799 18.0863 8.53429 18.9666 8.66505 19.6785C8.79843 20.4046 9.04732 20.9969 9.52534 21.4749L9.87889 21.1213L10.2324 20.7678C9.94208 20.4774 9.75856 20.0965 9.64859 19.4978C9.536 18.8849 9.50802 18.0887 9.50195 16.9972L9.00195 17ZM15 12V11.5H2V12V12.5H15V12ZM2 12L2.3254 12.3796L5.8254 9.37963L5.5 9L5.1746 8.62037L1.6746 11.6204L2 12ZM2 12L1.6746 12.3796L5.1746 15.3796L5.5 15L5.8254 14.6204L2.3254 11.6204L2 12Z" fill="#2372EC"/>
</svg>
