<svg width="18" height="18" viewBox="0 0 18 18" fill="none" xmlns="http://www.w3.org/2000/svg">
<path d="M7.80207 5.76631L7.91241 6.25398L7.91242 6.25398L7.80207 5.76631ZM8.28573 5.39915L7.849 5.1557L7.849 5.1557L8.28573 5.39915ZM7.26302 7.07173L6.88302 7.3967L6.88302 7.3967L7.26302 7.07173ZM7.6589 5.79871L7.54856 5.31103L7.54855 5.31103L7.6589 5.79871ZM7.54537 7.77995L8.04304 7.82818L8.04304 7.82818L7.54537 7.77995ZM7.36063 7.18587L7.74063 6.86091L7.74063 6.86091L7.36063 7.18587ZM8.56703 8.71901L8.77614 9.17318L8.77614 9.17318L8.56703 8.71901ZM7.53061 7.93224L7.03295 7.88401L7.03295 7.88401L7.53061 7.93224ZM9.29892 8.65729L9.50803 8.20312L9.50803 8.20312L9.29892 8.65729ZM8.70108 8.65729L8.49197 8.20312L8.49197 8.20312L8.70108 8.65729ZM9 8.55559L9 8.05559L9 8.55559ZM10.4694 7.93224L9.97172 7.98046L9.97172 7.98046L10.4694 7.93224ZM9.43297 8.71901L9.22386 9.17318L9.22386 9.17318L9.43297 8.71901ZM10.6394 7.18587L10.2594 6.86091L10.2594 6.86091L10.6394 7.18587ZM10.4546 7.77995L10.9523 7.73172L10.9523 7.73172L10.4546 7.77995ZM10.3411 5.79871L10.4514 5.31103L10.4514 5.31103L10.3411 5.79871ZM10.737 7.07173L11.117 7.3967L11.117 7.39669L10.737 7.07173ZM9.71427 5.39915L9.27754 5.6426L9.27754 5.6426L9.71427 5.39915ZM10.1979 5.76631L10.0876 6.25398L10.0876 6.25398L10.1979 5.76631ZM9.64054 5.26688L10.0773 5.02343L10.0773 5.02343L9.64054 5.26688ZM8.35946 5.26688L8.79619 5.51034L8.79619 5.51034L8.35946 5.26688ZM5.99554 11.3822C6.06855 11.1159 5.91185 10.8408 5.64554 10.7678C5.37922 10.6948 5.10414 10.8515 5.03113 11.1178L5.51333 11.25L5.99554 11.3822ZM5.03568 12.9922L4.55348 12.86L5.03568 12.9922ZM12.9643 12.9922L12.4821 13.1244L12.9643 12.9922ZM12.9689 11.1178C12.8959 10.8515 12.6208 10.6948 12.3545 10.7678C12.0881 10.8408 11.9314 11.1159 12.0045 11.3822L12.4867 11.25L12.9689 11.1178ZM7.8295 15.4935L8.06055 15.9369L8.06055 15.9369L7.8295 15.4935ZM8.85107 15.0719L8.90405 15.5691L8.90405 15.5691L8.85107 15.0719ZM10.1705 15.4935L10.4015 15.0501L10.4015 15.0501L10.1705 15.4935ZM9.14893 15.0719L9.09595 15.5691L9.09595 15.5691L9.14893 15.0719ZM13.3568 16.0411L13.7725 16.3189L13.7725 16.3189L13.3568 16.0411ZM12.9272 16.4256L13.1541 16.8712L13.1541 16.8712L12.9272 16.4256ZM4.64323 16.0411L4.22752 16.3189L4.22752 16.3189L4.64323 16.0411ZM5.07279 16.4256L4.84592 16.8712L4.84592 16.8712L5.07279 16.4256ZM9.64054 5.26688L9.20381 5.51034L9.27754 5.6426L9.71427 5.39915L10.151 5.1557L10.0773 5.02343L9.64054 5.26688ZM10.1979 5.76631L10.0876 6.25398L10.2308 6.28638L10.3411 5.79871L10.4514 5.31103L10.3083 5.27864L10.1979 5.76631ZM10.737 7.07173L10.357 6.74677L10.2594 6.86091L10.6394 7.18587L11.0194 7.51084L11.117 7.3967L10.737 7.07173ZM10.4546 7.77995L9.95696 7.82817L9.97172 7.98046L10.4694 7.93224L10.9671 7.88401L10.9523 7.73172L10.4546 7.77995ZM9.43297 8.71901L9.64209 8.26484L9.50803 8.20312L9.29892 8.65729L9.0898 9.11146L9.22386 9.17318L9.43297 8.71901ZM8.70108 8.65729L8.49197 8.20312L8.35791 8.26484L8.56703 8.71901L8.77614 9.17318L8.9102 9.11146L8.70108 8.65729ZM7.53061 7.93224L8.02828 7.98047L8.04304 7.82818L7.54537 7.77995L7.0477 7.73172L7.03295 7.88401L7.53061 7.93224ZM7.36063 7.18587L7.74063 6.86091L7.64302 6.74677L7.26302 7.07173L6.88302 7.3967L6.98063 7.51084L7.36063 7.18587ZM7.6589 5.79871L7.76924 6.28638L7.91241 6.25398L7.80207 5.76631L7.69173 5.27864L7.54856 5.31103L7.6589 5.79871ZM8.28573 5.39915L8.72246 5.6426L8.79619 5.51034L8.35946 5.26688L7.92273 5.02343L7.849 5.1557L8.28573 5.39915ZM7.80207 5.76631L7.91242 6.25398C8.0267 6.22813 8.23405 6.19184 8.40343 6.06325L8.10111 5.66501L7.79879 5.26676C7.828 5.24459 7.85039 5.23906 7.83652 5.24344C7.82802 5.24612 7.81352 5.25018 7.78797 5.25641C7.76227 5.26266 7.73219 5.26948 7.69173 5.27864L7.80207 5.76631ZM8.28573 5.39915L7.849 5.1557C7.82822 5.19299 7.81252 5.22112 7.79866 5.24511C7.78486 5.26899 7.77615 5.28304 7.77039 5.29171C7.76015 5.3071 7.7703 5.28839 7.79879 5.26676L8.10111 5.66501L8.40343 6.06325C8.56968 5.93705 8.6632 5.7489 8.72246 5.6426L8.28573 5.39915ZM7.26302 7.07173L7.64302 6.74677C7.44364 6.51362 7.33184 6.38089 7.26994 6.28256C7.21144 6.18963 7.27267 6.24284 7.24037 6.34671L6.76292 6.19824L6.28547 6.04977C6.18734 6.36535 6.30997 6.6347 6.42366 6.8153C6.53395 6.99049 6.70511 7.18865 6.88302 7.3967L7.26302 7.07173ZM7.6589 5.79871L7.54855 5.31103C7.28883 5.3698 7.0357 5.4256 6.84474 5.50086C6.64436 5.57983 6.3853 5.72874 6.28547 6.04977L6.76292 6.19824L7.24037 6.34671C7.20637 6.45604 7.11859 6.46779 7.21138 6.43122C7.31359 6.39094 7.47554 6.35283 7.76924 6.28638L7.6589 5.79871ZM7.54537 7.77995L8.04304 7.82818C8.05521 7.7026 8.08408 7.49938 8.02302 7.30301L7.54557 7.45149L7.06812 7.59996C7.0588 7.56999 7.06109 7.55224 7.06069 7.572C7.06047 7.58315 7.05958 7.6003 7.05729 7.62823C7.055 7.6563 7.05186 7.68883 7.0477 7.73172L7.54537 7.77995ZM7.36063 7.18587L6.98063 7.51084C7.00816 7.54303 7.02886 7.56725 7.04634 7.58835C7.06373 7.60934 7.07373 7.62221 7.07977 7.63052C7.09004 7.64466 7.07759 7.6304 7.06812 7.59996L7.54557 7.45149L8.02302 7.30301C7.96129 7.10452 7.82085 6.95472 7.74063 6.86091L7.36063 7.18587ZM8.56703 8.71901L8.35791 8.26484C8.08287 8.39148 7.93014 8.46023 7.82481 8.49041C7.77748 8.50397 7.77402 8.49889 7.79637 8.50027C7.82974 8.50233 7.8777 8.5159 7.91973 8.5478L7.61741 8.94605L7.31509 9.3443C7.59093 9.5537 7.89699 9.50997 8.10026 9.45172C8.2971 9.39532 8.533 9.28513 8.77614 9.17318L8.56703 8.71901ZM7.53061 7.93224L7.03295 7.88401C7.00598 8.16228 6.97924 8.42557 6.98848 8.63307C6.99776 8.84141 7.0474 9.14109 7.31509 9.3443L7.61741 8.94605L7.91973 8.5478C8.01506 8.62017 7.99278 8.70727 7.98749 8.58857C7.98217 8.46904 7.99821 8.29084 8.02828 7.98047L7.53061 7.93224ZM9.29892 8.65729L9.50803 8.20312C9.40271 8.15462 9.21332 8.05559 9 8.05559L9 8.55559L9 9.05559C8.96075 9.05559 8.93819 9.04566 8.95249 9.05086C8.96095 9.05394 8.97507 9.05959 8.99933 9.07029C9.0237 9.08104 9.05193 9.09402 9.0898 9.11146L9.29892 8.65729ZM8.70108 8.65729L8.9102 9.11146C8.94807 9.09402 8.9763 9.08104 9.00067 9.07029C9.02493 9.05959 9.03905 9.05394 9.04751 9.05086C9.06181 9.04566 9.03925 9.05559 9 9.05559L9 8.55559L9 8.05559C8.78668 8.05559 8.59729 8.15462 8.49197 8.20312L8.70108 8.65729ZM10.4694 7.93224L9.97172 7.98046C10.0018 8.29084 10.0178 8.46904 10.0125 8.58857C10.0072 8.70727 9.98494 8.62017 10.0803 8.5478L10.3826 8.94605L10.6849 9.3443C10.9526 9.14109 11.0022 8.84141 11.0115 8.63307C11.0208 8.42557 10.994 8.16228 10.9671 7.88401L10.4694 7.93224ZM9.43297 8.71901L9.22386 9.17318C9.467 9.28513 9.7029 9.39532 9.89974 9.45172C10.103 9.50997 10.4091 9.5537 10.6849 9.3443L10.3826 8.94605L10.0803 8.5478C10.1223 8.5159 10.1703 8.50233 10.2036 8.50027C10.226 8.49889 10.2225 8.50397 10.1752 8.49041C10.0699 8.46023 9.91713 8.39148 9.64209 8.26484L9.43297 8.71901ZM10.6394 7.18587L10.2594 6.86091C10.1792 6.95471 10.0387 7.10452 9.97698 7.30301L10.4544 7.45149L10.9319 7.59996C10.9224 7.63041 10.91 7.64466 10.9202 7.63052C10.9263 7.62221 10.9363 7.60934 10.9537 7.58835C10.9711 7.56725 10.9918 7.54303 11.0194 7.51084L10.6394 7.18587ZM10.4546 7.77995L10.9523 7.73172C10.9481 7.68883 10.945 7.6563 10.9427 7.62823C10.9404 7.6003 10.9395 7.58315 10.9393 7.572C10.9389 7.55224 10.9412 7.56999 10.9319 7.59996L10.4544 7.45149L9.97698 7.30301C9.91592 7.49938 9.94479 7.7026 9.95696 7.82818L10.4546 7.77995ZM10.3411 5.79871L10.2308 6.28638C10.5245 6.35283 10.6864 6.39094 10.7886 6.43122C10.8814 6.46779 10.7936 6.45604 10.7596 6.34671L11.2371 6.19824L11.7145 6.04977C11.6147 5.72873 11.3556 5.57983 11.1553 5.50086C10.9643 5.4256 10.7112 5.3698 10.4514 5.31103L10.3411 5.79871ZM10.737 7.07173L11.117 7.39669C11.2949 7.18865 11.4661 6.99049 11.5763 6.8153C11.69 6.6347 11.8127 6.36535 11.7145 6.04977L11.2371 6.19824L10.7596 6.34671C10.7273 6.24284 10.7886 6.18963 10.7301 6.28256C10.6682 6.38089 10.5564 6.51362 10.357 6.74677L10.737 7.07173ZM9.71427 5.39915L9.27754 5.6426C9.3368 5.7489 9.43032 5.93705 9.59657 6.06325L9.89889 5.66501L10.2012 5.26676C10.2297 5.28839 10.2398 5.3071 10.2296 5.29171C10.2238 5.28304 10.2151 5.26899 10.2013 5.24511C10.1875 5.22112 10.1718 5.19299 10.151 5.1557L9.71427 5.39915ZM10.1979 5.76631L10.3083 5.27864C10.2678 5.26948 10.2377 5.26266 10.212 5.25641C10.1865 5.25018 10.172 5.24612 10.1635 5.24344C10.1496 5.23906 10.172 5.24459 10.2012 5.26676L9.89889 5.66501L9.59657 6.06325C9.76595 6.19184 9.9733 6.22813 10.0876 6.25398L10.1979 5.76631ZM9.64054 5.26688L10.0773 5.02343C9.94291 4.78242 9.81566 4.55148 9.69026 4.38772C9.5646 4.22364 9.3463 4 9 4V4.5V5C8.86674 5 8.82621 4.90417 8.89632 4.99572C8.96667 5.08759 9.05317 5.2401 9.20381 5.51034L9.64054 5.26688ZM8.35946 5.26688L8.79619 5.51034C8.94683 5.2401 9.03333 5.08759 9.10368 4.99572C9.17379 4.90417 9.13326 5 9 5V4.5V4C8.6537 4 8.4354 4.22364 8.30974 4.38772C8.18434 4.55148 8.05709 4.78242 7.92273 5.02343L8.35946 5.26688ZM14.25 6.75H13.75C13.75 9.37335 11.6234 11.5 9 11.5V12V12.5C12.1756 12.5 14.75 9.92564 14.75 6.75H14.25ZM9 12V11.5C6.37665 11.5 4.25 9.37335 4.25 6.75H3.75H3.25C3.25 9.92564 5.82436 12.5 9 12.5V12ZM3.75 6.75H4.25C4.25 4.12665 6.37665 2 9 2V1.5V1C5.82436 1 3.25 3.57436 3.25 6.75H3.75ZM9 1.5V2C11.6234 2 13.75 4.12665 13.75 6.75H14.25H14.75C14.75 3.57436 12.1756 1 9 1V1.5ZM5.51333 11.25L5.03113 11.1178L4.55348 12.86L5.03568 12.9922L5.51789 13.1244L5.99554 11.3822L5.51333 11.25ZM12.9643 12.9922L13.4465 12.86L12.9689 11.1178L12.4867 11.25L12.0045 11.3822L12.4821 13.1244L12.9643 12.9922ZM7.8295 15.4935L8.06055 15.9369C8.59925 15.6562 8.75326 15.5852 8.90405 15.5691L8.85107 15.0719L8.79809 14.5747C8.41449 14.6156 8.06558 14.8067 7.59845 15.0501L7.8295 15.4935ZM10.1705 15.4935L10.4015 15.0501C9.93442 14.8067 9.58551 14.6156 9.20191 14.5747L9.14893 15.0719L9.09595 15.5691C9.24675 15.5852 9.40075 15.6562 9.93945 15.9369L10.1705 15.4935ZM8.85107 15.0719L8.90405 15.5691C8.96787 15.5623 9.03213 15.5623 9.09595 15.5691L9.14893 15.0719L9.20191 14.5747C9.06765 14.5604 8.93235 14.5604 8.79809 14.5747L8.85107 15.0719ZM12.9643 12.9922L12.4821 13.1244C12.721 13.9957 12.8884 14.6089 12.9615 15.0641C13.0372 15.5349 12.9851 15.6974 12.9411 15.7632L13.3568 16.0411L13.7725 16.3189C14.0429 15.9143 14.0302 15.4117 13.9488 14.9055C13.865 14.3836 13.6789 13.7076 13.4465 12.86L12.9643 12.9922ZM10.1705 15.4935L9.93945 15.9369C10.683 16.3243 11.2816 16.6372 11.7555 16.8161C12.2145 16.9894 12.707 17.0988 13.1541 16.8712L12.9272 16.4256L12.7003 15.9801C12.6579 16.0017 12.5278 16.0388 12.1087 15.8806C11.7045 15.728 11.1695 15.4502 10.4015 15.0501L10.1705 15.4935ZM13.3568 16.0411L12.9411 15.7632C12.8769 15.8592 12.7932 15.9328 12.7003 15.9801L12.9272 16.4256L13.1541 16.8712C13.4043 16.7438 13.6162 16.5527 13.7725 16.3189L13.3568 16.0411ZM5.03568 12.9922L4.55348 12.86C4.3211 13.7076 4.13502 14.3836 4.05116 14.9055C3.9698 15.4117 3.95711 15.9143 4.22752 16.3189L4.64323 16.0411L5.05894 15.7632C5.01491 15.6974 4.96282 15.5349 5.03849 15.0641C5.11164 14.6089 5.27901 13.9957 5.51789 13.1244L5.03568 12.9922ZM7.8295 15.4935L7.59845 15.0501C6.83054 15.4502 6.2955 15.728 5.8913 15.8806C5.47219 16.0388 5.34208 16.0017 5.29966 15.9801L5.07279 16.4256L4.84592 16.8712C5.29297 17.0988 5.78547 16.9894 6.24447 16.8161C6.71838 16.6372 7.31697 16.3243 8.06055 15.9369L7.8295 15.4935ZM4.64323 16.0411L4.22752 16.3189C4.38377 16.5527 4.59574 16.7438 4.84592 16.8712L5.07279 16.4256L5.29966 15.9801C5.20676 15.9328 5.12308 15.8592 5.05894 15.7632L4.64323 16.0411Z" fill="#626060"/>
</svg>
