<svg width="24" height="24" viewBox="0 0 24 24" fill="none" xmlns="http://www.w3.org/2000/svg">
<path d="M2 14C2 10.2288 2 8.34315 3.17157 7.17157C4.34315 6 6.22876 6 10 6H14C17.7712 6 19.6569 6 20.8284 7.17157C22 8.34315 22 10.2288 22 14C22 17.7712 22 19.6569 20.8284 20.8284C19.6569 22 17.7712 22 14 22H10C6.22876 22 4.34315 22 3.17157 20.8284C2 19.6569 2 17.7712 2 14Z" fill="#F2F7FF"/>
<path d="M16 14C16 16.2091 14.2091 18 12 18C9.79086 18 8 16.2091 8 14C8 11.7909 9.79086 10 12 10C14.2091 10 16 11.7909 16 14Z" fill="#F2F7FF"/>
<path d="M15.5 6C15.5 6.27614 15.7239 6.5 16 6.5C16.2761 6.5 16.5 6.27614 16.5 6H16H15.5ZM7.5 6C7.5 6.27614 7.72386 6.5 8 6.5C8.27614 6.5 8.5 6.27614 8.5 6H8H7.5ZM13.5 14.5C13.7761 14.5 14 14.2761 14 14C14 13.7239 13.7761 13.5 13.5 13.5V14V14.5ZM10.5 13.5C10.2239 13.5 10 13.7239 10 14C10 14.2761 10.2239 14.5 10.5 14.5V14V13.5ZM12.5 12.5C12.5 12.2239 12.2761 12 12 12C11.7239 12 11.5 12.2239 11.5 12.5H12H12.5ZM11.5 15.5C11.5 15.7761 11.7239 16 12 16C12.2761 16 12.5 15.7761 12.5 15.5H12H11.5ZM10 6V6.5H14V6V5.5H10V6ZM14 22V21.5H10V22V22.5H14V22ZM10 22V21.5C8.10025 21.5 6.72573 21.4989 5.67754 21.358C4.64372 21.219 4.00253 20.9523 3.52513 20.4749L3.17157 20.8284L2.81802 21.182C3.51219 21.8762 4.39959 22.1952 5.54429 22.3491C6.67461 22.5011 8.12852 22.5 10 22.5V22ZM2 14H1.5C1.5 15.8715 1.49894 17.3254 1.65091 18.4557C1.80481 19.6004 2.12385 20.4878 2.81802 21.182L3.17157 20.8284L3.52513 20.4749C3.04772 19.9975 2.78098 19.3563 2.64199 18.3225C2.50106 17.2743 2.5 15.8998 2.5 14H2ZM22 14H21.5C21.5 15.8998 21.4989 17.2743 21.358 18.3225C21.219 19.3563 20.9523 19.9975 20.4749 20.4749L20.8284 20.8284L21.182 21.182C21.8762 20.4878 22.1952 19.6004 22.3491 18.4557C22.5011 17.3254 22.5 15.8715 22.5 14H22ZM14 22V22.5C15.8715 22.5 17.3254 22.5011 18.4557 22.3491C19.6004 22.1952 20.4878 21.8762 21.182 21.182L20.8284 20.8284L20.4749 20.4749C19.9975 20.9523 19.3563 21.219 18.3225 21.358C17.2743 21.4989 15.8998 21.5 14 21.5V22ZM14 6V6.5C15.8998 6.5 17.2743 6.50106 18.3225 6.64199C19.3563 6.78098 19.9975 7.04772 20.4749 7.52513L20.8284 7.17157L21.182 6.81802C20.4878 6.12385 19.6004 5.80481 18.4557 5.65091C17.3254 5.49894 15.8715 5.5 14 5.5V6ZM22 14H22.5C22.5 12.1285 22.5011 10.6746 22.3491 9.54429C22.1952 8.39959 21.8762 7.51219 21.182 6.81802L20.8284 7.17157L20.4749 7.52513C20.9523 8.00253 21.219 8.64372 21.358 9.67754C21.4989 10.7257 21.5 12.1002 21.5 14H22ZM10 6V5.5C8.12852 5.5 6.67461 5.49894 5.54429 5.65091C4.39959 5.80481 3.51219 6.12385 2.81802 6.81802L3.17157 7.17157L3.52513 7.52513C4.00253 7.04772 4.64373 6.78098 5.67754 6.64199C6.72573 6.50106 8.10025 6.5 10 6.5V6ZM2 14H2.5C2.5 12.1002 2.50106 10.7257 2.64199 9.67754C2.78098 8.64372 3.04772 8.00253 3.52513 7.52513L3.17157 7.17157L2.81802 6.81802C2.12385 7.51219 1.80481 8.39959 1.65091 9.54429C1.49894 10.6746 1.5 12.1285 1.5 14H2ZM12 2V2.5C12.9569 2.5 13.6244 2.50106 14.1279 2.56876C14.6171 2.63453 14.8762 2.75483 15.0607 2.93934L15.4142 2.58579L15.7678 2.23223C15.3665 1.83096 14.8612 1.65836 14.2612 1.57768C13.6755 1.49894 12.9287 1.5 12 1.5V2ZM16 6H16.5C16.5 5.07133 16.5011 4.32452 16.4223 3.73883C16.3416 3.13876 16.169 2.63351 15.7678 2.23223L15.4142 2.58579L15.0607 2.93934C15.2452 3.12385 15.3655 3.3829 15.4312 3.87208C15.4989 4.37565 15.5 5.04306 15.5 6H16ZM12 2V1.5C11.0713 1.5 10.3245 1.49894 9.73883 1.57768C9.13876 1.65836 8.63351 1.83096 8.23223 2.23223L8.58579 2.58579L8.93934 2.93934C9.12385 2.75483 9.3829 2.63453 9.87208 2.56876C10.3756 2.50106 11.0431 2.5 12 2.5V2ZM8 6H8.5C8.5 5.04306 8.50106 4.37565 8.56876 3.87208C8.63453 3.3829 8.75483 3.12385 8.93934 2.93934L8.58579 2.58579L8.23223 2.23223C7.83096 2.63351 7.65836 3.13876 7.57768 3.73883C7.49894 4.32452 7.5 5.07133 7.5 6H8ZM13.5 14V13.5H12V14V14.5H13.5V14ZM12 14V13.5H10.5V14V14.5H12V14ZM12 12.5H11.5V14H12H12.5V12.5H12ZM12 14H11.5V15.5H12H12.5V14H12ZM16 14H15.5C15.5 15.933 13.933 17.5 12 17.5V18V18.5C14.4853 18.5 16.5 16.4853 16.5 14H16ZM12 18V17.5C10.067 17.5 8.5 15.933 8.5 14H8H7.5C7.5 16.4853 9.51472 18.5 12 18.5V18ZM8 14H8.5C8.5 12.067 10.067 10.5 12 10.5V10V9.5C9.51472 9.5 7.5 11.5147 7.5 14H8ZM12 10V10.5C13.933 10.5 15.5 12.067 15.5 14H16H16.5C16.5 11.5147 14.4853 9.5 12 9.5V10Z" fill="#626060"/>
</svg>
