<svg width="33" height="32" viewBox="0 0 33 32" fill="none" xmlns="http://www.w3.org/2000/svg">
<path d="M8.5 24H19.1667H8.5ZM4.5 29.3334H28.5H4.5ZM19.1667 29.3334C21.642 29.3334 24.016 28.35 25.7663 26.5997C27.5167 24.8493 28.5 22.4754 28.5 20C28.5 17.5247 27.5167 15.1507 25.7663 13.4004C24.016 11.65 21.642 10.6667 19.1667 10.6667H17.8333M12.5 18.6667H15.1667H12.5ZM12.5 16C11.7928 16 11.1145 15.7191 10.6144 15.219C10.1143 14.7189 9.83333 14.0406 9.83333 13.3334V8.00002H17.8333V13.3334C17.8333 14.0406 17.5524 14.7189 17.0523 15.219C16.5522 15.7191 15.8739 16 15.1667 16H12.5ZM16.5 8.00002V4.00002C16.5 3.6464 16.3595 3.30726 16.1095 3.05721C15.8594 2.80716 15.5203 2.66669 15.1667 2.66669H12.5C12.1464 2.66669 11.8072 2.80716 11.5572 3.05721C11.3071 3.30726 11.1667 3.6464 11.1667 4.00002V8.00002" fill="#96BFFF"/>
<path d="M8.5 24H19.1667M4.5 29.3334H28.5M19.1667 29.3334C21.642 29.3334 24.016 28.35 25.7663 26.5997C27.5167 24.8493 28.5 22.4754 28.5 20C28.5 17.5247 27.5167 15.1507 25.7663 13.4004C24.016 11.65 21.642 10.6667 19.1667 10.6667H17.8333M12.5 18.6667H15.1667M16.5 8.00002V4.00002C16.5 3.6464 16.3595 3.30726 16.1095 3.05721C15.8594 2.80716 15.5203 2.66669 15.1667 2.66669H12.5C12.1464 2.66669 11.8072 2.80716 11.5572 3.05721C11.3071 3.30726 11.1667 3.6464 11.1667 4.00002V8.00002M12.5 16C11.7928 16 11.1145 15.7191 10.6144 15.219C10.1143 14.7189 9.83333 14.0406 9.83333 13.3334V8.00002H17.8333V13.3334C17.8333 14.0406 17.5524 14.7189 17.0523 15.219C16.5522 15.7191 15.8739 16 15.1667 16H12.5Z" stroke="#0D47A1" stroke-width="1.5" stroke-linecap="round" stroke-linejoin="round"/>
</svg>
