<svg width="32" height="32" viewBox="0 0 32 32" fill="none" xmlns="http://www.w3.org/2000/svg">
<path d="M16 29.3334C23.3638 29.3334 29.3333 23.3639 29.3333 16.0001C29.3333 15.3832 28.4087 15.2812 28.0897 15.8092C26.5719 18.3209 23.8154 20.0001 20.6667 20.0001C15.8802 20.0001 12 16.1199 12 11.3334C12 8.18469 13.6792 5.42815 16.1909 3.91043C16.7189 3.59137 16.6169 2.66675 16 2.66675C8.6362 2.66675 2.66666 8.63628 2.66666 16.0001C2.66666 23.3639 8.6362 29.3334 16 29.3334Z" fill="#96BFFF"/>
<path d="M18 10.1667C17.7239 10.1667 17.5 10.3906 17.5 10.6667C17.5 10.9429 17.7239 11.1667 18 11.1667V10.6667V10.1667ZM22 10.6667L22.3536 11.0203C22.4965 10.8773 22.5393 10.6622 22.4619 10.4754C22.3845 10.2886 22.2022 10.1667 22 10.1667V10.6667ZM18 14.6667L17.6464 14.3132C17.5034 14.4562 17.4607 14.6713 17.5381 14.8581C17.6154 15.0449 17.7978 15.1667 18 15.1667V14.6667ZM22 15.1667C22.2761 15.1667 22.5 14.9429 22.5 14.6667C22.5 14.3906 22.2761 14.1667 22 14.1667V14.6667V15.1667ZM24 2.16675C23.7239 2.16675 23.5 2.39061 23.5 2.66675C23.5 2.94289 23.7239 3.16675 24 3.16675V2.66675V2.16675ZM29.3333 2.66675L29.6869 3.0203C29.8299 2.8773 29.8727 2.66224 29.7953 2.47541C29.7179 2.28857 29.5356 2.16675 29.3333 2.16675V2.66675ZM24 8.00008L23.6464 7.64653C23.5034 7.78953 23.4607 8.00459 23.5381 8.19142C23.6154 8.37826 23.7978 8.50008 24 8.50008V8.00008ZM29.3333 8.50008C29.6095 8.50008 29.8333 8.27622 29.8333 8.00008C29.8333 7.72394 29.6095 7.50008 29.3333 7.50008V8.00008V8.50008ZM28.0897 15.8092L27.6617 15.5506L28.0897 15.8092ZM16.1909 3.91043L15.9323 3.48249L15.9323 3.48249L16.1909 3.91043ZM18 10.6667V11.1667H22V10.6667V10.1667H18V10.6667ZM22 10.6667L21.6464 10.3132L17.6464 14.3132L18 14.6667L18.3536 15.0203L22.3536 11.0203L22 10.6667ZM18 14.6667V15.1667H22V14.6667V14.1667H18V14.6667ZM24 2.66675V3.16675H29.3333V2.66675V2.16675H24V2.66675ZM29.3333 2.66675L28.9798 2.31319L23.6464 7.64653L24 8.00008L24.3536 8.35363L29.6869 3.0203L29.3333 2.66675ZM24 8.00008V8.50008H29.3333V8.00008V7.50008H24V8.00008ZM29.3333 16.0001H28.8333C28.8333 23.0877 23.0877 28.8334 16 28.8334V29.3334V29.8334C23.6399 29.8334 29.8333 23.64 29.8333 16.0001H29.3333ZM16 29.3334V28.8334C8.91234 28.8334 3.16666 23.0877 3.16666 16.0001H2.66666H2.16666C2.16666 23.64 8.36006 29.8334 16 29.8334V29.3334ZM2.66666 16.0001H3.16666C3.16666 8.91243 8.91234 3.16675 16 3.16675V2.66675V2.16675C8.36006 2.16675 2.16666 8.36014 2.16666 16.0001H2.66666ZM20.6667 20.0001V19.5001C16.1563 19.5001 12.5 15.8437 12.5 11.3334H12H11.5C11.5 16.396 15.6041 20.5001 20.6667 20.5001V20.0001ZM28.0897 15.8092L27.6617 15.5506C26.2308 17.9187 23.6331 19.5001 20.6667 19.5001V20.0001V20.5001C23.9976 20.5001 26.9131 18.7231 28.5176 16.0678L28.0897 15.8092ZM12 11.3334H12.5C12.5 8.36693 14.0814 5.76932 16.4495 4.33837L16.1909 3.91043L15.9323 3.48249C13.277 5.08698 11.5 8.00244 11.5 11.3334H12ZM16 2.66675V3.16675C16.0135 3.16675 16.0155 3.16901 16.011 3.16709C16.0092 3.16634 16.0074 3.16533 16.0058 3.16421C16.0043 3.16312 16.0036 3.16242 16.0038 3.1626C16.0053 3.16416 16.0224 3.18505 16.0293 3.23586C16.0448 3.35061 15.9929 3.44587 15.9323 3.48249L16.1909 3.91043L16.4495 4.33837C16.9169 4.05593 17.078 3.52935 17.0203 3.10202C16.961 2.66316 16.632 2.16675 16 2.16675V2.66675ZM28.0897 15.8092L28.5176 16.0678C28.5542 16.0072 28.6495 15.9553 28.7642 15.9708C28.815 15.9777 28.8359 15.9948 28.8375 15.9963C28.8377 15.9965 28.837 15.9958 28.8359 15.9943C28.8348 15.9927 28.8337 15.9908 28.833 15.9891C28.8311 15.9846 28.8333 15.9866 28.8333 16.0001H29.3333H29.8333C29.8333 15.3681 29.3369 15.0391 28.8981 14.9798C28.4707 14.9221 27.9442 15.0832 27.6617 15.5506L28.0897 15.8092Z" fill="#424242"/>
</svg>
