<svg width="40" height="40" viewBox="0 0 40 40" fill="none" xmlns="http://www.w3.org/2000/svg">
<path d="M31.1223 10.0318L31.6593 9.50825V9.50825L31.1223 10.0318ZM31.8111 18.6325C31.8111 19.0467 32.1469 19.3825 32.5611 19.3825C32.9753 19.3825 33.3111 19.0467 33.3111 18.6325H31.8111ZM9.43875 10.0318L8.90175 9.50825H8.90175L9.43875 10.0318ZM13.3903 8.55618C13.3903 8.9704 13.7261 9.30618 14.1403 9.30618C14.5545 9.30618 14.8903 8.9704 14.8903 8.55618H13.3903ZM14.8903 6.66687C14.8903 6.25266 14.5545 5.91687 14.1403 5.91687C13.7261 5.91687 13.3903 6.25266 13.3903 6.66687H14.8903ZM25.6708 8.55618C25.6708 8.9704 26.0066 9.30618 26.4208 9.30618C26.835 9.30618 27.1708 8.9704 27.1708 8.55618H25.6708ZM27.1708 6.66687C27.1708 6.25266 26.835 5.91687 26.4208 5.91687C26.0066 5.91687 25.6708 6.25266 25.6708 6.66687H27.1708ZM8.61403 14.1039C8.19981 14.1039 7.86403 14.4397 7.86403 14.8539C7.86403 15.2681 8.19981 15.6039 8.61403 15.6039V14.1039ZM31.9471 15.6039C32.3613 15.6039 32.6971 15.2681 32.6971 14.8539C32.6971 14.4397 32.3613 14.1039 31.9471 14.1039V15.6039ZM19.3333 31.978C19.7475 31.978 20.0833 31.6422 20.0833 31.228C20.0833 30.8137 19.7475 30.478 19.3333 30.478V31.978ZM26.6667 27.3334H25.9167C25.9167 27.5323 25.9957 27.7231 26.1363 27.8637L26.6667 27.3334ZM27.4167 24.6667C27.4167 24.2525 27.0809 23.9167 26.6667 23.9167C26.2525 23.9167 25.9167 24.2525 25.9167 24.6667H27.4167ZM27.803 29.5304C28.0959 29.8233 28.5708 29.8233 28.8637 29.5304C29.1566 29.2375 29.1566 28.7626 28.8637 28.4697L27.803 29.5304ZM20.6025 21.0307C20.2512 21.2503 20.1445 21.713 20.364 22.0642C20.5835 22.4155 21.0462 22.5223 21.3975 22.3027L20.6025 21.0307ZM24.0642 20.6361C24.4154 20.4165 24.5222 19.9538 24.3027 19.6026C24.0831 19.2513 23.6204 19.1445 23.2692 19.3641L24.0642 20.6361ZM31.9358 22.3027C32.2871 22.5223 32.7498 22.4155 32.9693 22.0642C33.1889 21.713 33.0821 21.2503 32.7308 21.0307L31.9358 22.3027ZM30.0642 19.3641C29.7129 19.1445 29.2502 19.2513 29.0307 19.6026C28.8111 19.9538 28.9179 20.4165 29.2692 20.6361L30.0642 19.3641ZM17.8244 9.30618H22.7366V7.80618H17.8244V9.30618ZM8.75 21.1516V18.6325H7.25V21.1516H8.75ZM17.8244 30.478C15.4871 30.478 13.8114 30.4763 12.5368 30.3005C11.2859 30.128 10.5334 29.8007 9.97576 29.2287L8.90175 30.2759C9.78288 31.1796 10.9076 31.5901 12.3319 31.7865C13.7327 31.9796 15.5305 31.978 17.8244 31.978V30.478ZM7.25 21.1516C7.25 23.5059 7.24848 25.3453 7.43621 26.7773C7.62651 28.2291 8.02321 29.3748 8.90175 30.2759L9.97576 29.2287C9.41555 28.6542 9.09287 27.8746 8.92348 26.5824C8.75152 25.2705 8.75 23.5473 8.75 21.1516H7.25ZM22.7366 9.30618C25.074 9.30618 26.7497 9.30786 28.0242 9.48361C29.2752 9.65611 30.0277 9.98348 30.5853 10.5554L31.6593 9.50825C30.7782 8.60453 29.6535 8.19408 28.2291 7.99767C26.8283 7.80451 25.0306 7.80618 22.7366 7.80618V9.30618ZM33.3111 18.6325C33.3111 16.2782 33.3126 14.4389 33.1249 13.0068C32.9346 11.5551 32.5379 10.4093 31.6593 9.50825L30.5853 10.5554C31.1455 11.13 31.4682 11.9096 31.6376 13.2018C31.8096 14.5136 31.8111 16.2368 31.8111 18.6325H33.3111ZM17.8244 7.80618C15.5305 7.80618 13.7327 7.80451 12.3319 7.99767C10.9076 8.19408 9.78288 8.60453 8.90175 9.50825L9.97575 10.5554C10.5334 9.98348 11.2859 9.65611 12.5368 9.48361C13.8114 9.30786 15.4871 9.30618 17.8244 9.30618V7.80618ZM8.75 18.6325C8.75 16.2368 8.75152 14.5136 8.92348 13.2018C9.09287 11.9096 9.41555 11.13 9.97575 10.5554L8.90175 9.50825C8.02321 10.4093 7.62651 11.5551 7.43621 13.0068C7.24848 14.4389 7.25 16.2782 7.25 18.6325H8.75ZM14.8903 8.55618V6.66687H13.3903V8.55618H14.8903ZM27.1708 8.55618V6.66687H25.6708V8.55618H27.1708ZM8.61403 15.6039H31.9471V14.1039H8.61403V15.6039ZM17.8244 31.978H19.3333V30.478H17.8244V31.978ZM31.9167 27.3334C31.9167 30.2329 29.5662 32.5834 26.6667 32.5834V34.0834C30.3946 34.0834 33.4167 31.0613 33.4167 27.3334H31.9167ZM26.6667 32.5834C23.7672 32.5834 21.4167 30.2329 21.4167 27.3334H19.9167C19.9167 31.0613 22.9387 34.0834 26.6667 34.0834V32.5834ZM21.4167 27.3334C21.4167 24.4339 23.7672 22.0834 26.6667 22.0834V20.5834C22.9387 20.5834 19.9167 23.6055 19.9167 27.3334H21.4167ZM26.6667 22.0834C29.5662 22.0834 31.9167 24.4339 31.9167 27.3334H33.4167C33.4167 23.6055 30.3946 20.5834 26.6667 20.5834V22.0834ZM27.4167 27.3334V24.6667H25.9167V27.3334H27.4167ZM26.1363 27.8637L27.803 29.5304L28.8637 28.4697L27.197 26.8031L26.1363 27.8637ZM21.3975 22.3027L24.0642 20.6361L23.2692 19.3641L20.6025 21.0307L21.3975 22.3027ZM32.7308 21.0307L30.0642 19.3641L29.2692 20.6361L31.9358 22.3027L32.7308 21.0307Z" fill="#F2F7FF"/>
</svg>
