<svg width="144" height="28" viewBox="0 0 144 28" fill="none" xmlns="http://www.w3.org/2000/svg">
<path d="M8.42195 23.9652C6.68047 23.9652 5.17746 23.6219 3.9129 22.9354C2.65557 22.2418 1.68728 21.2554 1.00803 19.9764C0.336011 18.6902 0 17.1618 0 15.3915C0 13.6717 0.339624 12.1687 1.01887 10.8824C1.69812 9.58895 2.65557 8.58454 3.89122 7.86916C5.12688 7.14655 6.58292 6.78525 8.25936 6.78525C9.44443 6.78525 10.5283 6.96952 11.5111 7.33804C12.4938 7.70657 13.3429 8.25214 14.0583 8.97474C14.7736 9.69735 15.33 10.5898 15.7275 11.652C16.1249 12.707 16.3236 13.9174 16.3236 15.2831V16.6054H1.85348V13.5271H11.3919C11.3846 12.9635 11.2509 12.4613 10.9908 12.0205C10.7307 11.5797 10.373 11.2365 9.91774 10.9908C9.46972 10.7379 8.95306 10.6114 8.36775 10.6114C7.77522 10.6114 7.2441 10.7451 6.77441 11.0125C6.30472 11.2726 5.93258 11.6303 5.65799 12.0856C5.3834 12.5336 5.23888 13.043 5.22443 13.6139V16.7463C5.22443 17.4256 5.35811 18.0217 5.62547 18.5348C5.89284 19.0406 6.2722 19.4344 6.76357 19.7162C7.25494 19.9981 7.84025 20.139 8.5195 20.139C8.98919 20.139 9.41553 20.0739 9.79851 19.9439C10.1815 19.8138 10.5103 19.6223 10.7849 19.3694C11.0595 19.1165 11.2654 18.8058 11.4027 18.4372L16.2694 18.5781C16.0671 19.6693 15.6227 20.6195 14.9362 21.4288C14.257 22.2309 13.3646 22.856 12.259 23.304C11.1534 23.7448 9.87438 23.9652 8.42195 23.9652Z" fill="white"/>
<path d="M39.1805 9.49502H33.761C33.6887 8.93861 33.5406 8.4364 33.3166 7.98839C33.0926 7.54037 32.7963 7.15739 32.4278 6.83945C32.0592 6.5215 31.6221 6.27943 31.1162 6.11323C30.6176 5.93981 30.0648 5.85309 29.4579 5.85309C28.3812 5.85309 27.4526 6.11684 26.6722 6.64434C25.899 7.17185 25.3029 7.93419 24.8838 8.93139C24.4719 9.92858 24.2659 11.1353 24.2659 12.5516C24.2659 14.0257 24.4755 15.2614 24.8946 16.2586C25.3209 17.2486 25.9171 17.9965 26.6831 18.5023C27.4562 19.0009 28.3703 19.2502 29.4253 19.2502C30.0179 19.2502 30.5562 19.1743 31.0404 19.0226C31.5317 18.8708 31.9617 18.6504 32.3302 18.3614C32.706 18.0651 33.0131 17.7074 33.2515 17.2883C33.4972 16.862 33.667 16.3814 33.761 15.8467L39.1805 15.8792C39.0866 16.862 38.8011 17.8303 38.3242 18.7841C37.8545 19.7379 37.2078 20.6087 36.384 21.3963C35.5602 22.1767 34.5558 22.7982 33.3708 23.2606C32.1929 23.7231 30.8416 23.9543 29.3169 23.9543C27.3081 23.9543 25.5088 23.5135 23.9191 22.632C22.3366 21.7432 21.0865 20.4497 20.1688 18.7516C19.2511 17.0535 18.7922 14.9868 18.7922 12.5516C18.7922 10.1092 19.2583 8.03897 20.1905 6.34085C21.1226 4.64273 22.3836 3.35288 23.9733 2.47131C25.563 1.58973 27.3442 1.14894 29.3169 1.14894C30.661 1.14894 31.9039 1.33682 33.0456 1.71257C34.1873 2.0811 35.1917 2.62305 36.0588 3.33843C36.926 4.04658 37.6305 4.91732 38.1725 5.95064C38.7144 6.98397 39.0504 8.16543 39.1805 9.49502Z" fill="white"/>
<path d="M47.551 1.45243V23.6508H42.2507V1.45243H47.551Z" fill="white"/>
<path d="M50.9246 23.6508V7.00203H56.2249V23.6508H50.9246ZM53.5802 5.06184C52.8359 5.06184 52.1964 4.81616 51.6617 4.32479C51.1269 3.82619 50.8596 3.22643 50.8596 2.5255C50.8596 1.8318 51.1269 1.23927 51.6617 0.747896C52.1964 0.249299 52.8359 0 53.5802 0C54.3317 0 54.9712 0.249299 55.4987 0.747896C56.0334 1.23927 56.3008 1.8318 56.3008 2.5255C56.3008 3.22643 56.0334 3.82619 55.4987 4.32479C54.9712 4.81616 54.3317 5.06184 53.5802 5.06184Z" fill="white"/>
<path d="M64.8989 14.1558V23.6508H59.5986V7.00203H64.6387V10.0586H64.823C65.1915 9.03978 65.8202 8.2413 66.709 7.66322C67.5978 7.07791 68.6564 6.78525 69.8848 6.78525C71.0555 6.78525 72.0707 7.049 72.9306 7.5765C73.7977 8.09678 74.4698 8.82661 74.9467 9.76599C75.4308 10.6982 75.6693 11.7893 75.6621 13.0394V23.6508H70.3618V14.0799C70.369 13.155 70.1341 12.4324 69.6572 11.9121C69.1875 11.3919 68.5336 11.1317 67.6953 11.1317C67.1389 11.1317 66.6476 11.2546 66.2212 11.5002C65.8021 11.7387 65.477 12.0819 65.2457 12.53C65.0217 12.978 64.9061 13.5199 64.8989 14.1558Z" fill="white"/>
<path d="M78.9436 23.6508V7.00203H84.2439V23.6508H78.9436ZM81.5991 5.06184C80.8549 5.06184 80.2154 4.81616 79.6806 4.32479C79.1459 3.82619 78.8785 3.22643 78.8785 2.5255C78.8785 1.8318 79.1459 1.23927 79.6806 0.747896C80.2154 0.249299 80.8549 0 81.5991 0C82.3507 0 82.9902 0.249299 83.5177 0.747896C84.0524 1.23927 84.3198 1.8318 84.3198 2.5255C84.3198 3.22643 84.0524 3.82619 83.5177 4.32479C82.9902 4.81616 82.3507 5.06184 81.5991 5.06184Z" fill="white"/>
<path d="M95.3891 23.9652C93.6332 23.9652 92.1266 23.6039 90.8693 22.8813C89.6191 22.1587 88.6581 21.1542 87.9861 19.868C87.314 18.5745 86.978 17.0787 86.978 15.3806C86.978 13.6753 87.314 12.1795 87.9861 10.8933C88.6653 9.5998 89.63 8.59176 90.8801 7.86916C92.1374 7.14655 93.6368 6.78525 95.3783 6.78525C96.9174 6.78525 98.2579 7.06346 99.3996 7.61986C100.549 8.17626 101.445 8.9639 102.088 9.98277C102.738 10.9944 103.081 12.1831 103.117 13.5488H98.1639C98.0628 12.6962 97.7737 12.0277 97.2968 11.5436C96.8271 11.0595 96.2129 10.8174 95.4542 10.8174C94.84 10.8174 94.3016 10.9908 93.8391 11.3377C93.3767 11.6773 93.0154 12.1831 92.7552 12.8551C92.5023 13.5199 92.3759 14.3437 92.3759 15.3264C92.3759 16.3092 92.5023 17.1402 92.7552 17.8194C93.0154 18.4914 93.3767 19.0009 93.8391 19.3477C94.3016 19.6873 94.84 19.8572 95.4542 19.8572C95.9455 19.8572 96.3791 19.7524 96.7549 19.5428C97.1378 19.3333 97.4522 19.0262 97.6979 18.6215C97.9435 18.2096 98.0989 17.711 98.1639 17.1257H103.117C103.067 18.4987 102.724 19.6982 102.088 20.7243C101.459 21.7504 100.574 22.5489 99.4321 23.1197C98.2976 23.6833 96.95 23.9652 95.3891 23.9652Z" fill="white"/>
<path d="M116.485 12.6275V16.7138H106.209V12.6275H116.485Z" fill="white"/>
<path d="M129.481 2.15662C131.468 2.15663 133.26 2.59736 134.857 3.47888C136.461 4.36046 137.733 5.65088 138.672 7.349C139.611 9.04697 140.081 11.1169 140.081 13.559C140.081 14.974 139.921 16.2638 139.606 17.4291C138.721 15.9798 137.125 15.0121 135.302 15.0121C135.033 15.0121 134.769 15.0339 134.511 15.0746C134.568 14.6003 134.597 14.0949 134.597 13.559C134.597 12.114 134.391 10.893 133.979 9.89587C133.574 8.89868 132.989 8.1433 132.223 7.63025C131.464 7.11724 130.55 6.86073 129.481 6.86072C128.419 6.86072 127.505 7.11727 126.739 7.63025C125.973 8.1433 125.384 8.89868 124.972 9.89587C124.567 10.893 124.365 12.1139 124.365 13.559C124.365 15.0042 124.567 16.2258 124.972 17.223C125.384 18.2201 125.973 18.9756 126.739 19.4886C127.505 20.0016 128.419 20.2582 129.481 20.2582C129.753 20.2582 130.015 20.2397 130.267 20.2064C130.323 22.048 131.365 23.6405 132.885 24.473C131.822 24.7982 130.688 24.9623 129.481 24.9623C127.487 24.9623 125.691 24.5179 124.094 23.6293C122.497 22.7405 121.229 21.45 120.289 19.7592C119.357 18.061 118.891 15.9941 118.891 13.559C118.891 11.1168 119.357 9.04699 120.289 7.349C121.229 5.65088 122.497 4.36046 124.094 3.47888C125.691 2.59743 127.487 2.15662 129.481 2.15662Z" fill="white"/>
<circle opacity="0.4" cx="130.417" cy="15.0197" r="2.51957" transform="rotate(-45 130.417 15.0197)" fill="white"/>
<circle cx="135.252" cy="19.8556" r="3.59939" transform="rotate(-45 135.252 19.8556)" fill="white"/>
<circle opacity="0.4" cx="139.579" cy="24.1823" r="1.79969" transform="rotate(-45 139.579 24.1823)" fill="white"/>
</svg>
