<svg width="107" height="115" viewBox="0 0 107 115" fill="none" xmlns="http://www.w3.org/2000/svg">
<path d="M104.947 40.323C103.128 21.7564 71.6827 -19.0047 30.8778 10.2591C21.6274 16.8901 15.9609 25.5815 13.3853 53.3547C12.6729 61.0598 8.73816 68.0743 4.04719 81.6102C1.40578 89.2166 0.967375 107.411 15.7089 111.893C35.1852 117.822 59.6045 114.436 71.3429 108.671C86.2817 101.339 108.487 76.4918 104.947 40.323Z" fill="#F9F9F9"/>
<path d="M18.1643 98.3328L9.54396 54.763C9.10633 52.5646 10.7958 50.5088 13.0348 50.5088H72.2983C73.9979 50.5088 75.4635 51.7097 75.7891 53.3788L84.4095 96.9487C84.8471 99.147 83.1576 101.203 80.9186 101.203H21.6552C19.9555 101.203 18.49 100.002 18.1643 98.3328Z" fill="#96BFFF"/>
<path d="M25.6656 21.8398H75.4844C77.4486 21.8398 79.0465 23.4377 79.0465 25.402V81.8362C79.0465 83.8004 77.4486 85.3983 75.4844 85.3983H25.6656C23.7014 85.3983 22.1035 83.8004 22.1035 81.8362V25.402C22.1035 23.4275 23.7014 21.8398 25.6656 21.8398Z" fill="#F2F7FF"/>
<path d="M103.445 103.73L102.279 100.485L105.3 99.3999L104.818 98.0572L101.797 99.1423L100.631 95.8976L99.2888 96.3799L100.454 99.6246L97.4333 100.71L97.9156 102.052L100.937 100.967L102.102 104.212L103.445 103.73Z" fill="#F2F7FF"/>
<path d="M96.5791 12.3659L100.594 12.0875L100.853 15.8252L102.514 15.71L102.255 11.9724L106.269 11.694L106.154 10.0329L102.14 10.3112L101.88 6.57358L100.219 6.68875L100.478 10.4264L96.4639 10.7047L96.5791 12.3659Z" fill="#F2F7FF"/>
<path d="M4.06006 35.3936C1.8195 35.3936 0 33.5741 0 31.3335C0 29.0929 1.8195 27.2734 4.06006 27.2734C6.3006 27.2734 8.12011 29.0929 8.12011 31.3335C8.12011 33.5741 6.3006 35.3936 4.06006 35.3936ZM4.06006 29.0779C2.81197 29.0779 1.80447 30.0854 1.80447 31.3335C1.80447 32.5816 2.81197 33.5891 4.06006 33.5891C5.30815 33.5891 6.31564 32.5816 6.31564 31.3335C6.31564 30.0854 5.30815 29.0779 4.06006 29.0779Z" fill="#F2F7FF"/>
<path d="M32.5865 6.28125H82.4053C84.3695 6.28125 85.9674 7.87912 85.9674 9.84337V66.2776C85.9674 68.2418 84.3695 69.8397 82.4053 69.8397H32.5865C30.6223 69.8397 29.0244 68.2418 29.0244 66.2776V9.84337C29.0244 7.86894 30.6223 6.28125 32.5865 6.28125Z" fill="white"/>
<g opacity="0.4">
<path d="M35.833 28.214C35.833 29.1808 36.6167 29.9543 37.5734 29.9543H77.7031C78.67 29.9543 79.4435 29.1707 79.4435 28.214C79.4435 27.2471 78.6598 26.4736 77.7031 26.4736H37.5734C36.6167 26.4736 35.833 27.2471 35.833 28.214Z" fill="#2372EC"/>
</g>
<g opacity="0.4">
<g opacity="0.4">
<path d="M35.833 48.3869C35.833 49.3538 36.6167 50.1273 37.5734 50.1273H77.7031C78.67 50.1273 79.4435 49.3436 79.4435 48.3869C79.4435 47.4201 78.6598 46.6466 77.7031 46.6466H37.5734C36.6167 46.6364 35.833 47.4201 35.833 48.3869Z" fill="#2372EC"/>
</g>
<path d="M35.833 38.6858C35.833 39.6526 36.6167 40.4261 37.5734 40.4261H77.7031C78.67 40.4261 79.4435 39.6424 79.4435 38.6858C79.4435 37.7189 78.6598 36.9454 77.7031 36.9454H37.5734C36.6167 36.9352 35.833 37.7189 35.833 38.6858Z" fill="#2372EC"/>
</g>
<path d="M35.833 17.7404C35.833 18.7072 36.6167 19.4807 37.5734 19.4807H50.0815C51.0483 19.4807 51.8218 18.697 51.8218 17.7404C51.8218 16.7735 51.0382 16 50.0815 16H37.5734C36.6167 16 35.833 16.7837 35.833 17.7404Z" fill="#2372EC"/>
<path d="M19.8338 96.2673L33.8991 61.5824C34.4487 60.239 35.7514 59.3535 37.1966 59.3535H96.0326C98.5566 59.3535 100.287 61.9081 99.3301 64.2489L85.2648 98.9338C84.7152 100.277 83.4125 101.163 81.9673 101.163H23.1313C20.6073 101.163 18.8873 98.6081 19.8338 96.2673Z" fill="#2372EC"/>
</svg>
