<svg width="32" height="32" viewBox="0 0 32 32" fill="none" xmlns="http://www.w3.org/2000/svg">
<path d="M16 29.3333H22.6666V8C22.6666 5.48585 22.6666 4.22877 21.8856 3.44772C21.1045 2.66667 19.8474 2.66667 17.3333 2.66667H14.6666C12.1525 2.66667 10.8954 2.66667 10.1143 3.44772C9.33329 4.22877 9.33329 5.48585 9.33329 8V29.3333H16Z" fill="#96BFFF"/>
<path d="M29.3333 29.8333C29.6094 29.8333 29.8333 29.6095 29.8333 29.3333C29.8333 29.0572 29.6094 28.8333 29.3333 28.8333V29.3333V29.8333ZM2.66663 28.8333C2.39048 28.8333 2.16663 29.0572 2.16663 29.3333C2.16663 29.6095 2.39048 29.8333 2.66663 29.8333V29.3333V28.8333ZM26.8148 11.1161L26.537 11.5318L26.537 11.5318L26.8148 11.1161ZM27.5505 11.8518L27.1348 12.1296L27.1348 12.1296L27.5505 11.8518ZM5.18511 11.1161L5.46289 11.5318L5.46289 11.5318L5.18511 11.1161ZM4.44937 11.8518L4.03364 11.574L4.03364 11.574L4.44937 11.8518ZM16.5 25.3333C16.5 25.0572 16.2761 24.8333 16 24.8333C15.7238 24.8333 15.5 25.0572 15.5 25.3333H16H16.5ZM13.3333 6.16667C13.0571 6.16667 12.8333 6.39053 12.8333 6.66667C12.8333 6.94281 13.0571 7.16667 13.3333 7.16667V6.66667V6.16667ZM18.6666 7.16667C18.9428 7.16667 19.1666 6.94281 19.1666 6.66667C19.1666 6.39053 18.9428 6.16667 18.6666 6.16667V6.66667V7.16667ZM13.3333 10.1667C13.0571 10.1667 12.8333 10.3905 12.8333 10.6667C12.8333 10.9428 13.0571 11.1667 13.3333 11.1667V10.6667V10.1667ZM18.6666 11.1667C18.9428 11.1667 19.1666 10.9428 19.1666 10.6667C19.1666 10.3905 18.9428 10.1667 18.6666 10.1667V10.6667V11.1667ZM13.3333 14.1667C13.0571 14.1667 12.8333 14.3905 12.8333 14.6667C12.8333 14.9428 13.0571 15.1667 13.3333 15.1667V14.6667V14.1667ZM18.6666 15.1667C18.9428 15.1667 19.1666 14.9428 19.1666 14.6667C19.1666 14.3905 18.9428 14.1667 18.6666 14.1667V14.6667V15.1667ZM13.3333 18.1667C13.0571 18.1667 12.8333 18.3905 12.8333 18.6667C12.8333 18.9428 13.0571 19.1667 13.3333 19.1667V18.6667V18.1667ZM18.6666 19.1667C18.9428 19.1667 19.1666 18.9428 19.1666 18.6667C19.1666 18.3905 18.9428 18.1667 18.6666 18.1667V18.6667V19.1667ZM29.3333 29.3333V28.8333H28V29.3333V29.8333H29.3333V29.3333ZM28 29.3333V28.8333H22.6666V29.3333V29.8333H28V29.3333ZM22.6666 29.3333V28.8333H16V29.3333V29.8333H22.6666V29.3333ZM16 29.3333V28.8333H9.33329V29.3333V29.8333H16V29.3333ZM9.33329 29.3333V28.8333H3.99996V29.3333V29.8333H9.33329V29.3333ZM3.99996 29.3333V28.8333H2.66663V29.3333V29.8333H3.99996V29.3333ZM14.6666 2.66667V3.16667H17.3333V2.66667V2.16667H14.6666V2.66667ZM22.6666 8H22.1666V29.3333H22.6666H23.1666V8H22.6666ZM9.33329 29.3333H9.83329V8H9.33329H8.83329V29.3333H9.33329ZM17.3333 2.66667V3.16667C18.6045 3.16667 19.5076 3.16773 20.1927 3.25984C20.8635 3.35002 21.2499 3.51913 21.532 3.80127L21.8856 3.44772L22.2391 3.09417C21.7402 2.59526 21.1076 2.37385 20.326 2.26876C19.5587 2.16561 18.5762 2.16667 17.3333 2.16667V2.66667ZM22.6666 8H23.1666C23.1666 6.75706 23.1677 5.77455 23.0645 5.00732C22.9594 4.22571 22.738 3.59308 22.2391 3.09417L21.8856 3.44772L21.532 3.80127C21.8142 4.08341 21.9833 4.46984 22.0735 5.14057C22.1656 5.82568 22.1666 6.72879 22.1666 8H22.6666ZM14.6666 2.66667V2.16667C13.4237 2.16667 12.4412 2.16561 11.6739 2.26876C10.8923 2.37385 10.2597 2.59526 9.76079 3.09417L10.1143 3.44772L10.4679 3.80127C10.75 3.51913 11.1365 3.35002 11.8072 3.25984C12.4923 3.16773 13.3954 3.16667 14.6666 3.16667V2.66667ZM9.33329 8H9.83329C9.83329 6.72879 9.83435 5.82568 9.92646 5.14057C10.0166 4.46984 10.1858 4.08341 10.4679 3.80127L10.1143 3.44772L9.76079 3.09417C9.26188 3.59308 9.04047 4.22571 8.93538 5.00732C8.83223 5.77455 8.83329 6.75706 8.83329 8H9.33329ZM28 15.3333H27.5V29.3333H28H28.5V15.3333H28ZM23.3333 10.6667V11.1667C24.28 11.1667 24.9524 11.1673 25.4735 11.2203C25.9862 11.2724 26.2966 11.3712 26.537 11.5318L26.8148 11.1161L27.0926 10.7004C26.6605 10.4116 26.1664 10.2856 25.5747 10.2254C24.9913 10.1661 24.2592 10.1667 23.3333 10.1667V10.6667ZM28 15.3333H28.5C28.5 14.4074 28.5006 13.6754 28.4412 13.092C28.381 12.5002 28.255 12.0062 27.9663 11.574L27.5505 11.8518L27.1348 12.1296C27.2955 12.3701 27.3942 12.6805 27.4463 13.1932C27.4994 13.7142 27.5 14.3866 27.5 15.3333H28ZM26.8148 11.1161L26.537 11.5318C26.7736 11.6899 26.9767 11.893 27.1348 12.1296L27.5505 11.8518L27.9663 11.574C27.7352 11.2283 27.4384 10.9314 27.0926 10.7004L26.8148 11.1161ZM3.99996 15.3333H3.49996V29.3333H3.99996H4.49996V15.3333H3.99996ZM8.66663 10.6667V10.1667C7.74072 10.1667 7.00866 10.1661 6.42526 10.2254C5.83349 10.2856 5.33947 10.4116 4.90732 10.7004L5.18511 11.1161L5.46289 11.5318C5.70334 11.3712 6.01377 11.2724 6.52646 11.2203C7.04751 11.1673 7.71991 11.1667 8.66663 11.1667V10.6667ZM3.99996 15.3333H4.49996C4.49996 14.3866 4.50056 13.7142 4.55357 13.1932C4.60572 12.6805 4.70445 12.3701 4.86511 12.1296L4.44937 11.8518L4.03364 11.574C3.74489 12.0062 3.6189 12.5002 3.5587 13.092C3.49935 13.6754 3.49996 14.4074 3.49996 15.3333H3.99996ZM5.18511 11.1161L4.90732 10.7004C4.56155 10.9314 4.26467 11.2283 4.03364 11.574L4.44937 11.8518L4.86511 12.1296C5.02319 11.893 5.22631 11.6899 5.46289 11.5318L5.18511 11.1161ZM16 29.3333H16.5V25.3333H16H15.5V29.3333H16ZM13.3333 6.66667V7.16667H18.6666V6.66667V6.16667H13.3333V6.66667ZM13.3333 10.6667V11.1667H18.6666V10.6667V10.1667H13.3333V10.6667ZM13.3333 14.6667V15.1667H18.6666V14.6667V14.1667H13.3333V14.6667ZM13.3333 18.6667V19.1667H18.6666V18.6667V18.1667H13.3333V18.6667Z" fill="#0D47A1"/>
</svg>
