<svg width="156" height="64" viewBox="0 0 156 64" fill="none" xmlns="http://www.w3.org/2000/svg">
<rect width="156" height="64" rx="8" fill="white" fill-opacity="0.6"/>
<rect x="8.25" y="8.25" width="47.5" height="47.5" rx="23.75" fill="#F69800"/>
<rect x="8.25" y="8.25" width="47.5" height="47.5" rx="23.75" stroke="#E4EFFF" stroke-width="0.5"/>
<path opacity="0.5" d="M20 29.3337C20 24.3053 20 21.7912 21.5621 20.2291C23.1242 18.667 25.6383 18.667 30.6667 18.667H33.3333C38.3616 18.667 40.8759 18.667 42.4379 20.2291C44 21.7912 44 24.3053 44 29.3337V34.667C44 39.6953 44 42.2095 42.4379 43.7715C40.8759 45.3337 38.3616 45.3337 33.3333 45.3337H30.6667C25.6383 45.3337 23.1242 45.3337 21.5621 43.7715C20 42.2095 20 39.6953 20 34.667V29.3337Z" fill="white"/>
<path fill-rule="evenodd" clip-rule="evenodd" d="M32 23C32.5523 23 33 23.4477 33 24V25.6667H34.6667C35.219 25.6667 35.6667 26.1144 35.6667 26.6667C35.6667 27.2189 35.219 27.6667 34.6667 27.6667H33V29.3333C33 29.8856 32.5523 30.3333 32 30.3333C31.4478 30.3333 31 29.8856 31 29.3333V27.6667H29.3333C28.781 27.6667 28.3333 27.2189 28.3333 26.6667C28.3333 26.1144 28.781 25.6667 29.3333 25.6667H31V24C31 23.4477 31.4478 23 32 23ZM25.6667 34.6667C25.6667 34.1144 26.1144 33.6667 26.6667 33.6667H37.3334C37.8856 33.6667 38.3334 34.1144 38.3334 34.6667C38.3334 35.2189 37.8856 35.6667 37.3334 35.6667H26.6667C26.1144 35.6667 25.6667 35.2189 25.6667 34.6667ZM27 40C27 39.4477 27.4477 39 28 39H36C36.5523 39 37 39.4477 37 40C37 40.5523 36.5523 41 36 41H28C27.4477 41 27 40.5523 27 40Z" fill="white"/>
<path d="M128 32H144M144 32L138 26M144 32L138 38" stroke="white" stroke-linecap="round" stroke-linejoin="round"/>
</svg>
