<svg width="21" height="21" viewBox="0 0 21 21" fill="none" xmlns="http://www.w3.org/2000/svg">
<path d="M8.5 20.5H12.5C16.2712 20.5 18.1569 20.5 19.3284 19.3284C20.5 18.1569 20.5 16.2712 20.5 12.5V12.0629C20.5 10.3083 20.5 9.43099 20.154 8.6541C19.808 7.8772 19.1559 7.29032 17.8517 6.11654L13.8929 2.55365C12.7651 1.53857 12.2012 1.03104 11.5092 0.765518C10.8173 0.5 10.0548 0.5 8.52979 0.5C4.73869 0.5 2.84315 0.5 1.67157 1.67157C0.5 2.84315 0.5 4.72876 0.5 8.5V12.5C0.5 16.2712 0.5 18.1569 1.67157 19.3284C2.84315 20.5 4.72876 20.5 8.5 20.5Z" fill="#96BFFF"/>
<path d="M5.34 12.18H3.66V15.3H5.34C6.20156 15.3 6.9 14.6016 6.9 13.74C6.9 12.8785 6.20156 12.18 5.34 12.18Z" fill="#96BFFF"/>
<path d="M8.82 17.46V12.18H10.26C11.5855 12.18 12.66 13.2545 12.66 14.58V15.06C12.66 16.3855 11.5855 17.46 10.26 17.46H8.82Z" fill="#96BFFF"/>
<path d="M13.8929 2.55365L13.5585 2.92529L13.8929 2.55365ZM17.8517 6.11654L17.5172 6.48819L17.8517 6.11654ZM20.154 8.6541L19.6972 8.85751L19.6973 8.85752L20.154 8.6541ZM1.67157 19.3284L2.02513 18.9749H2.02513L1.67157 19.3284ZM19.3284 19.3284L18.9749 18.9749L19.3284 19.3284ZM20.02 9C20.2961 9 20.52 8.77614 20.52 8.5C20.52 8.22386 20.2961 8 20.02 8V8.5V9ZM3.66 12.18V11.68H3.16V12.18H3.66ZM8.82 12.18V11.68H8.32V12.18H8.82ZM8.82 17.46H8.32V17.96H8.82V17.46ZM14.46 12.18V11.68H13.96V12.18H14.46ZM12.5 20.5V20H8.5V20.5V21H12.5V20.5ZM0.5 12.5H1V8.5H0.5H0V12.5H0.5ZM20.5 12.0629H20V12.5H20.5H21V12.0629H20.5ZM13.8929 2.55365L13.5585 2.92529L17.5172 6.48819L17.8517 6.11654L18.1862 5.7449L14.2274 2.182L13.8929 2.55365ZM20.5 12.0629H21C21 10.3525 21.0101 9.34735 20.6107 8.45068L20.154 8.6541L19.6973 8.85752C19.9899 9.51464 20 10.2641 20 12.0629H20.5ZM17.8517 6.11654L17.5172 6.48819C18.8543 7.69151 19.4046 8.20039 19.6972 8.85751L20.154 8.6541L20.6108 8.45068C20.2114 7.55401 19.4576 6.88912 18.1862 5.7449L17.8517 6.11654ZM8.52979 0.5V1C10.0927 1 10.7448 1.00772 11.3301 1.23233L11.5092 0.765518L11.6884 0.298708C10.8898 -0.00771922 10.0169 0 8.52979 0V0.5ZM13.8929 2.55365L14.2274 2.182C13.1275 1.19205 12.4868 0.605108 11.6884 0.298708L11.5092 0.765518L11.3301 1.23233C11.9155 1.45697 12.4027 1.8851 13.5585 2.92529L13.8929 2.55365ZM8.5 20.5V20C6.60025 20 5.22573 19.9989 4.17754 19.858C3.14372 19.719 2.50253 19.4523 2.02513 18.9749L1.67157 19.3284L1.31802 19.682C2.01219 20.3762 2.89959 20.6952 4.04429 20.8491C5.1746 21.0011 6.62852 21 8.5 21V20.5ZM0.5 12.5H0C0 14.3715 -0.00106186 15.8254 0.150905 16.9557C0.304806 18.1004 0.623848 18.9878 1.31802 19.682L1.67157 19.3284L2.02513 18.9749C1.54772 18.4975 1.28098 17.8563 1.14199 16.8225C1.00106 15.7743 1 14.3998 1 12.5H0.5ZM12.5 20.5V21C14.3715 21 15.8254 21.0011 16.9557 20.8491C18.1004 20.6952 18.9878 20.3762 19.682 19.682L19.3284 19.3284L18.9749 18.9749C18.4975 19.4523 17.8563 19.719 16.8225 19.858C15.7743 19.9989 14.3998 20 12.5 20V20.5ZM20.5 12.5H20C20 14.3998 19.9989 15.7743 19.858 16.8225C19.719 17.8563 19.4523 18.4975 18.9749 18.9749L19.3284 19.3284L19.682 19.682C20.3762 18.9878 20.6952 18.1004 20.8491 16.9557C21.0011 15.8254 21 14.3715 21 12.5H20.5ZM0.5 8.5H1C1 6.60025 1.00106 5.22573 1.14199 4.17754C1.28098 3.14372 1.54772 2.50253 2.02513 2.02513L1.67157 1.67157L1.31802 1.31802C0.623849 2.01219 0.304806 2.89959 0.150905 4.04429C-0.00106186 5.1746 0 6.62852 0 8.5H0.5ZM8.52979 0.5V0C6.64833 0 5.18714 -0.00105292 4.05203 0.150865C2.90292 0.304658 2.01258 0.623459 1.31802 1.31802L1.67157 1.67157L2.02513 2.02513C2.50214 1.54811 3.14535 1.28113 4.18469 1.14203C5.23803 1.00105 6.62015 1 8.52979 1V0.5ZM11.5 1H11V3.5H11.5H12V1H11.5ZM16.5 8.5V9H20.02V8.5V8H16.5V8.5ZM11.5 3.5H11C11 4.66438 10.9989 5.58796 11.096 6.3098C11.195 7.04603 11.4042 7.64682 11.8787 8.12132L12.2322 7.76777L12.5858 7.41421C12.3281 7.15648 12.1711 6.8019 12.0871 6.17656C12.0011 5.53683 12 4.69265 12 3.5H11.5ZM16.5 8.5V8C15.3074 8 14.4632 7.99894 13.8234 7.91293C13.1981 7.82885 12.8435 7.67195 12.5858 7.41421L12.2322 7.76777L11.8787 8.12132C12.3532 8.59582 12.954 8.80503 13.6902 8.90401C14.412 9.00106 15.3356 9 16.5 9V8.5ZM3.66 12.18V12.68H5.34V12.18V11.68H3.66V12.18ZM3.66 12.18H3.16V15.3H3.66H4.16V12.18H3.66ZM3.66 15.3H3.16V17.7H3.66H4.16V15.3H3.66ZM5.34 15.3V14.8H3.66V15.3V15.8H5.34V15.3ZM6.9 13.74H6.4C6.4 14.3254 5.92542 14.8 5.34 14.8V15.3V15.8C6.4777 15.8 7.4 14.8777 7.4 13.74H6.9ZM5.34 12.18V12.68C5.92542 12.68 6.4 13.1546 6.4 13.74H6.9H7.4C7.4 12.6023 6.4777 11.68 5.34 11.68V12.18ZM8.82 12.18H8.32V17.46H8.82H9.32V12.18H8.82ZM8.82 17.46V17.96H10.26V17.46V16.96H8.82V17.46ZM12.66 15.06H13.16V14.58H12.66H12.16V15.06H12.66ZM10.26 12.18V11.68H8.82V12.18V12.68H10.26V12.18ZM12.66 14.58H13.16C13.16 12.9784 11.8616 11.68 10.26 11.68V12.18V12.68C11.3093 12.68 12.16 13.5307 12.16 14.58H12.66ZM10.26 17.46V17.96C11.8616 17.96 13.16 16.6616 13.16 15.06H12.66H12.16C12.16 16.1094 11.3093 16.96 10.26 16.96V17.46ZM17.7 12.18V11.68H14.46V12.18V12.68H17.7V12.18ZM14.46 12.18H13.96V14.7H14.46H14.96V12.18H14.46ZM14.46 14.7H13.96V17.7H14.46H14.96V14.7H14.46ZM14.46 14.7V15.2H17.46V14.7V14.2H14.46V14.7Z" fill="#424242"/>
</svg>
