<svg width="24" height="24" viewBox="0 0 24 24" fill="none" xmlns="http://www.w3.org/2000/svg">
<path d="M10 22H14C17.7712 22 19.6569 22 20.8284 20.8284C22 19.6569 22 17.7712 22 14V13.5629C22 11.8083 22 10.931 21.654 10.1541C21.308 9.3772 20.6559 8.79032 19.3517 7.61654L15.3929 4.05365C14.2651 3.03857 13.7012 2.53104 13.0092 2.26552C12.3173 2 11.5548 2 10.0298 2C6.23869 2 4.34315 2 3.17157 3.17157C2 4.34315 2 6.22876 2 10V14C2 17.7712 2 19.6569 3.17157 20.8284C4.34315 22 6.22876 22 10 22Z" fill="#96BFFF"/>
<path d="M6.84 13.68H5.16V16.8H6.84C7.70156 16.8 8.4 16.1016 8.4 15.24C8.4 14.3785 7.70156 13.68 6.84 13.68Z" fill="#96BFFF"/>
<path d="M10.32 18.96V13.68H11.76C13.0855 13.68 14.16 14.7545 14.16 16.08V16.56C14.16 17.8855 13.0855 18.96 11.76 18.96H10.32Z" fill="#96BFFF"/>
<path d="M15.3929 4.05365L15.0585 4.42529L15.3929 4.05365ZM19.3517 7.61654L19.0172 7.98819L19.3517 7.61654ZM21.654 10.1541L21.1972 10.3575L21.1973 10.3575L21.654 10.1541ZM3.17157 20.8284L3.52513 20.4749H3.52513L3.17157 20.8284ZM20.8284 20.8284L20.4749 20.4749L20.8284 20.8284ZM21.52 10.5C21.7961 10.5 22.02 10.2761 22.02 10C22.02 9.72386 21.7961 9.5 21.52 9.5V10V10.5ZM5.16 13.68V13.18H4.66V13.68H5.16ZM10.32 13.68V13.18H9.82V13.68H10.32ZM10.32 18.96H9.82V19.46H10.32V18.96ZM15.96 13.68V13.18H15.46V13.68H15.96ZM14 22V21.5H10V22V22.5H14V22ZM2 14H2.5V10H2H1.5V14H2ZM22 13.5629H21.5V14H22H22.5V13.5629H22ZM15.3929 4.05365L15.0585 4.42529L19.0172 7.98819L19.3517 7.61654L19.6862 7.2449L15.7274 3.682L15.3929 4.05365ZM22 13.5629H22.5C22.5 11.8525 22.5101 10.8473 22.1107 9.95068L21.654 10.1541L21.1973 10.3575C21.4899 11.0146 21.5 11.7641 21.5 13.5629H22ZM19.3517 7.61654L19.0172 7.98819C20.3543 9.19151 20.9046 9.70039 21.1972 10.3575L21.654 10.1541L22.1108 9.95068C21.7114 9.05401 20.9576 8.38912 19.6862 7.2449L19.3517 7.61654ZM10.0298 2V2.5C11.5927 2.5 12.2448 2.50772 12.8301 2.73233L13.0092 2.26552L13.1884 1.79871C12.3898 1.49228 11.5169 1.5 10.0298 1.5V2ZM15.3929 4.05365L15.7274 3.682C14.6275 2.69205 13.9868 2.10511 13.1884 1.79871L13.0092 2.26552L12.8301 2.73233C13.4155 2.95697 13.9027 3.3851 15.0585 4.42529L15.3929 4.05365ZM10 22V21.5C8.10025 21.5 6.72573 21.4989 5.67754 21.358C4.64372 21.219 4.00253 20.9523 3.52513 20.4749L3.17157 20.8284L2.81802 21.182C3.51219 21.8762 4.39959 22.1952 5.54429 22.3491C6.6746 22.5011 8.12852 22.5 10 22.5V22ZM2 14H1.5C1.5 15.8715 1.49894 17.3254 1.65091 18.4557C1.80481 19.6004 2.12385 20.4878 2.81802 21.182L3.17157 20.8284L3.52513 20.4749C3.04772 19.9975 2.78098 19.3563 2.64199 18.3225C2.50106 17.2743 2.5 15.8998 2.5 14H2ZM14 22V22.5C15.8715 22.5 17.3254 22.5011 18.4557 22.3491C19.6004 22.1952 20.4878 21.8762 21.182 21.182L20.8284 20.8284L20.4749 20.4749C19.9975 20.9523 19.3563 21.219 18.3225 21.358C17.2743 21.4989 15.8998 21.5 14 21.5V22ZM22 14H21.5C21.5 15.8998 21.4989 17.2743 21.358 18.3225C21.219 19.3563 20.9523 19.9975 20.4749 20.4749L20.8284 20.8284L21.182 21.182C21.8762 20.4878 22.1952 19.6004 22.3491 18.4557C22.5011 17.3254 22.5 15.8715 22.5 14H22ZM2 10H2.5C2.5 8.10025 2.50106 6.72573 2.64199 5.67754C2.78098 4.64372 3.04772 4.00253 3.52513 3.52513L3.17157 3.17157L2.81802 2.81802C2.12385 3.51219 1.80481 4.39959 1.65091 5.54429C1.49894 6.6746 1.5 8.12852 1.5 10H2ZM10.0298 2V1.5C8.14833 1.5 6.68714 1.49895 5.55203 1.65087C4.40292 1.80466 3.51258 2.12346 2.81802 2.81802L3.17157 3.17157L3.52513 3.52513C4.00214 3.04811 4.64535 2.78113 5.68469 2.64203C6.73803 2.50105 8.12015 2.5 10.0298 2.5V2ZM13 2.5H12.5V5H13H13.5V2.5H13ZM18 10V10.5H21.52V10V9.5H18V10ZM13 5H12.5C12.5 6.16438 12.4989 7.08796 12.596 7.8098C12.695 8.54603 12.9042 9.14682 13.3787 9.62132L13.7322 9.26777L14.0858 8.91421C13.8281 8.65648 13.6711 8.3019 13.5871 7.67656C13.5011 7.03683 13.5 6.19265 13.5 5H13ZM18 10V9.5C16.8074 9.5 15.9632 9.49894 15.3234 9.41293C14.6981 9.32885 14.3435 9.17195 14.0858 8.91421L13.7322 9.26777L13.3787 9.62132C13.8532 10.0958 14.454 10.305 15.1902 10.404C15.912 10.5011 16.8356 10.5 18 10.5V10ZM5.16 13.68V14.18H6.84V13.68V13.18H5.16V13.68ZM5.16 13.68H4.66V16.8H5.16H5.66V13.68H5.16ZM5.16 16.8H4.66V19.2H5.16H5.66V16.8H5.16ZM6.84 16.8V16.3H5.16V16.8V17.3H6.84V16.8ZM8.4 15.24H7.9C7.9 15.8254 7.42542 16.3 6.84 16.3V16.8V17.3C7.9777 17.3 8.9 16.3777 8.9 15.24H8.4ZM6.84 13.68V14.18C7.42542 14.18 7.9 14.6546 7.9 15.24H8.4H8.9C8.9 14.1023 7.9777 13.18 6.84 13.18V13.68ZM10.32 13.68H9.82V18.96H10.32H10.82V13.68H10.32ZM10.32 18.96V19.46H11.76V18.96V18.46H10.32V18.96ZM14.16 16.56H14.66V16.08H14.16H13.66V16.56H14.16ZM11.76 13.68V13.18H10.32V13.68V14.18H11.76V13.68ZM14.16 16.08H14.66C14.66 14.4784 13.3616 13.18 11.76 13.18V13.68V14.18C12.8093 14.18 13.66 15.0307 13.66 16.08H14.16ZM11.76 18.96V19.46C13.3616 19.46 14.66 18.1616 14.66 16.56H14.16H13.66C13.66 17.6094 12.8093 18.46 11.76 18.46V18.96ZM19.2 13.68V13.18H15.96V13.68V14.18H19.2V13.68ZM15.96 13.68H15.46V16.2H15.96H16.46V13.68H15.96ZM15.96 16.2H15.46V19.2H15.96H16.46V16.2H15.96ZM15.96 16.2V16.7H18.96V16.2V15.7H15.96V16.2Z" fill="#424242"/>
</svg>
