<svg width="24" height="24" viewBox="0 0 24 24" fill="none" xmlns="http://www.w3.org/2000/svg">
<path d="M13.8881 5.66293L14.6296 4.92142C15.8581 3.69286 17.85 3.69286 19.0786 4.92142C20.3071 6.14999 20.3071 8.14188 19.0786 9.37044L18.3371 10.1119L11.5201 16.9289C11.0584 17.3907 10.8275 17.6215 10.5729 17.8201C10.2727 18.0543 9.94775 18.2551 9.60398 18.4189C9.31256 18.5578 9.00282 18.6611 8.38334 18.8675L5.75834 19.7426L5.11667 19.9564C4.81182 20.0581 4.47573 19.9787 4.2485 19.7515C4.02128 19.5243 3.94194 19.1882 4.04356 18.8833L4.25745 18.2417L5.13245 15.6167C5.33894 14.9972 5.44219 14.6874 5.58107 14.396C5.74491 14.0522 5.94571 13.7273 6.17992 13.4271C6.37846 13.1725 6.60933 12.9416 7.07106 12.4799L13.8881 5.66293Z" fill="#96BFFF"/>
<path d="M13.8881 5.66293L14.6296 4.92142C15.8581 3.69286 17.85 3.69286 19.0786 4.92142C20.3071 6.14999 20.3071 8.14188 19.0786 9.37044L18.3371 10.1119M13.8881 5.66293C13.8881 5.66293 13.9807 7.23862 15.3711 8.62894C16.7614 10.0193 18.3371 10.1119 18.3371 10.1119M13.8881 5.66293L7.07106 12.4799C6.60933 12.9416 6.37846 13.1725 6.17992 13.4271C5.94571 13.7273 5.74491 14.0522 5.58107 14.396C5.44219 14.6874 5.33894 14.9972 5.13245 15.6167L4.25745 18.2417M18.3371 10.1119L11.5201 16.9289C11.0584 17.3907 10.8275 17.6215 10.5729 17.8201C10.2727 18.0543 9.94775 18.2551 9.60398 18.4189C9.31256 18.5578 9.00282 18.6611 8.38334 18.8675L5.75834 19.7426M5.75834 19.7426L5.11667 19.9564C4.81182 20.0581 4.47573 19.9787 4.2485 19.7515C4.02128 19.5243 3.94194 19.1882 4.04356 18.8833L4.25745 18.2417M5.75834 19.7426L4.25745 18.2417" stroke="#424242"/>
</svg>
