<svg width="24" height="24" viewBox="0 0 24 24" fill="none" xmlns="http://www.w3.org/2000/svg">
<path d="M15.5562 14.5477L15.1007 15.0272C15.1007 15.0272 14.0181 16.167 11.0631 13.0559C8.10812 9.94484 9.1907 8.80507 9.1907 8.80507L9.47752 8.50311C10.1841 7.75924 10.2507 6.56497 9.63424 5.6931L8.37326 3.90961C7.61028 2.8305 6.13596 2.68795 5.26145 3.60864L3.69185 5.26114C3.25823 5.71766 2.96765 6.30945 3.00289 6.96594C3.09304 8.64546 3.81072 12.259 7.81536 16.4752C12.0621 20.9462 16.0468 21.1239 17.6763 20.9631C18.1917 20.9122 18.6399 20.6343 19.0011 20.254L20.4217 18.7584C21.3806 17.7489 21.1102 16.0182 19.8833 15.312L17.9728 14.2123C17.1672 13.7486 16.1858 13.8848 15.5562 14.5477Z" fill="#96BFFF"/>
<path d="M13.5679 1.25308C13.1554 1.21558 12.7906 1.51959 12.7531 1.9321C12.7156 2.34461 13.0196 2.70942 13.4321 2.74692L13.5 2L13.5679 1.25308ZM18.8033 5.18198L19.3336 4.65165L18.8033 5.18198ZM21.2384 10.5532C21.2759 10.9657 21.6407 11.2697 22.0532 11.2322C22.4657 11.1947 22.7697 10.8299 22.7322 10.4174L21.9853 10.4853L21.2384 10.5532ZM14.4131 4.8145C14.0148 4.70071 13.5997 4.93133 13.4859 5.3296C13.3721 5.72788 13.6027 6.14299 14.001 6.25679L14.207 5.53564L14.4131 4.8145ZM16.6819 7.30341L16.1516 7.83374L16.6819 7.30341ZM17.7285 9.98433C17.8423 10.3826 18.2574 10.6132 18.6557 10.4994C19.054 10.3856 19.2846 9.97052 19.1708 9.57224L18.4497 9.77829L17.7285 9.98433ZM15.1007 15.0272L15.6445 15.5437V15.5437L15.1007 15.0272ZM15.5562 14.5477L15.0124 14.0312V14.0312L15.5562 14.5477ZM17.9728 14.2123L17.5987 14.8623H17.5987L17.9728 14.2123ZM19.8833 15.312L19.5092 15.962L19.8833 15.312ZM20.4217 18.7584L20.9655 19.2749L20.4217 18.7584ZM19.0011 20.254L18.4573 19.7375L19.0011 20.254ZM17.6763 20.9631L17.7499 21.7095L17.6763 20.9631ZM7.81536 16.4752L7.27157 16.9917L7.81536 16.4752ZM3.00289 6.96594L2.25397 7.00613L2.25397 7.00613L3.00289 6.96594ZM9.1907 8.80507L9.7345 9.32159L9.1907 8.80507ZM9.47752 8.50311L10.0213 9.01963L9.47752 8.50311ZM9.63424 5.6931L10.2466 5.26012L9.63424 5.6931ZM8.37326 3.90961L7.76086 4.3426V4.3426L8.37326 3.90961ZM5.26145 3.60864L5.80524 4.12516H5.80524L5.26145 3.60864ZM3.69185 5.26114L3.14806 4.74462L3.14806 4.74462L3.69185 5.26114ZM11.0631 13.0559L11.6069 12.5394L11.0631 13.0559ZM13.5 2C13.4321 2.74692 13.4317 2.74688 13.4313 2.74685C13.4312 2.74683 13.4308 2.7468 13.4305 2.74678C13.43 2.74673 13.4296 2.74669 13.4292 2.74665C13.4283 2.74657 13.4276 2.7465 13.4271 2.74644C13.426 2.74633 13.4254 2.74627 13.4254 2.74627C13.4253 2.74626 13.4275 2.7465 13.4318 2.74705C13.4404 2.74814 13.4575 2.7505 13.4828 2.75471C13.5333 2.76314 13.6165 2.77901 13.7291 2.80716C13.9542 2.86342 14.2975 2.96892 14.7334 3.16266C15.6034 3.54934 16.8528 4.29213 18.273 5.71231L18.8033 5.18198L19.3336 4.65165C17.784 3.10198 16.3817 2.25378 15.3426 1.79194C14.8239 1.56141 14.3982 1.42826 14.0929 1.35194C13.9403 1.3138 13.818 1.2899 13.7294 1.27512C13.685 1.26773 13.6491 1.26263 13.6221 1.25917C13.6086 1.25744 13.5972 1.25612 13.5882 1.25513C13.5837 1.25464 13.5797 1.25423 13.5763 1.25389C13.5746 1.25372 13.5731 1.25357 13.5717 1.25343C13.571 1.25337 13.5703 1.2533 13.5697 1.25324C13.5694 1.25321 13.5689 1.25317 13.5688 1.25316C13.5683 1.25312 13.5679 1.25308 13.5 2ZM18.8033 5.18198L18.273 5.71231C19.6931 7.13249 20.4359 8.38189 20.8226 9.25193C21.0164 9.68783 21.1219 10.0311 21.1781 10.2562C21.2063 10.3688 21.2221 10.452 21.2306 10.5025C21.2348 10.5278 21.2371 10.5449 21.2382 10.5535C21.2388 10.5578 21.239 10.5599 21.239 10.5599C21.239 10.5599 21.239 10.5593 21.2388 10.5582C21.2388 10.5576 21.2387 10.5569 21.2386 10.5561C21.2386 10.5557 21.2386 10.5552 21.2385 10.5548C21.2385 10.5545 21.2384 10.5541 21.2384 10.554C21.2384 10.5536 21.2384 10.5532 21.9853 10.4853C22.7322 10.4174 22.7322 10.417 22.7321 10.4165C22.7321 10.4164 22.7321 10.4159 22.732 10.4156C22.732 10.415 22.7319 10.4143 22.7318 10.4136C22.7317 10.4122 22.7316 10.4106 22.7314 10.409C22.7311 10.4056 22.7306 10.4016 22.7302 10.3971C22.7292 10.388 22.7278 10.3767 22.7261 10.3632C22.7227 10.3361 22.7175 10.3002 22.7102 10.2559C22.6954 10.1673 22.6715 10.0449 22.6333 9.89237C22.557 9.58711 22.4239 9.16141 22.1933 8.64272C21.7315 7.60357 20.8833 6.20132 19.3336 4.65165L18.8033 5.18198ZM14.207 5.53564C14.001 6.25679 14.0006 6.25669 14.0003 6.25659C14.0002 6.25656 13.9999 6.25646 13.9996 6.2564C13.9992 6.25628 13.9988 6.25615 13.9984 6.25604C13.9976 6.2558 13.9968 6.25558 13.9961 6.25538C13.9947 6.25497 13.9936 6.25463 13.9927 6.25436C13.9909 6.25381 13.99 6.25353 13.9901 6.25356C13.9903 6.2536 13.9941 6.25485 14.0017 6.25752C14.0167 6.26285 14.0463 6.27388 14.0895 6.2924C14.1758 6.3294 14.317 6.3965 14.5056 6.50811C14.8824 6.73108 15.4516 7.13379 16.1516 7.83374L16.6819 7.30341L17.2122 6.77308C16.4273 5.98811 15.7591 5.50693 15.2696 5.21725C15.0251 5.07254 14.826 4.97612 14.6804 4.91368C14.6075 4.88248 14.5482 4.85981 14.5033 4.84388C14.4808 4.83591 14.462 4.82963 14.4469 4.82481C14.4394 4.8224 14.4328 4.82035 14.4271 4.81864C14.4243 4.81779 14.4217 4.81702 14.4194 4.81633C14.4182 4.81599 14.4171 4.81566 14.416 4.81536C14.4155 4.8152 14.415 4.81506 14.4145 4.81491C14.4143 4.81484 14.4139 4.81474 14.4138 4.8147C14.4134 4.8146 14.4131 4.8145 14.207 5.53564ZM16.6819 7.30341L16.1516 7.83374C16.8515 8.53369 17.2542 9.10294 17.4772 9.47969C17.5888 9.66828 17.6559 9.80951 17.6929 9.89584C17.7114 9.93905 17.7225 9.96863 17.7278 9.98365C17.7305 9.99117 17.7317 9.99506 17.7318 9.99521C17.7318 9.99528 17.7315 9.99442 17.731 9.99261C17.7307 9.99171 17.7303 9.99057 17.7299 9.98919C17.7297 9.9885 17.7295 9.98775 17.7293 9.98694C17.7292 9.98653 17.729 9.98611 17.7289 9.98568C17.7289 9.98546 17.7288 9.98512 17.7287 9.98501C17.7286 9.98467 17.7285 9.98433 18.4497 9.77829C19.1708 9.57224 19.1707 9.57189 19.1706 9.57154C19.1706 9.57141 19.1705 9.57105 19.1704 9.5708C19.1703 9.57031 19.1701 9.5698 19.17 9.56927C19.1697 9.56822 19.1693 9.56711 19.169 9.56594C19.1683 9.56359 19.1675 9.56101 19.1667 9.55819C19.165 9.55254 19.1629 9.54594 19.1605 9.5384C19.1557 9.52332 19.1494 9.50449 19.1414 9.48204C19.1255 9.43713 19.1028 9.37777 19.0716 9.30496C19.0092 9.15928 18.9128 8.96022 18.7681 8.7157C18.4784 8.22624 17.9972 7.55805 17.2122 6.77308L16.6819 7.30341ZM15.1007 15.0272L15.6445 15.5437L16.1 15.0642L15.5562 14.5477L15.0124 14.0312L14.5569 14.5107L15.1007 15.0272ZM17.9728 14.2123L17.5987 14.8623L19.5092 15.962L19.8833 15.312L20.2575 14.662L18.347 13.5623L17.9728 14.2123ZM20.4217 18.7584L19.8779 18.2419L18.4573 19.7375L19.0011 20.254L19.5449 20.7705L20.9655 19.2749L20.4217 18.7584ZM17.6763 20.9631L17.6026 20.2167C16.1676 20.3584 12.4233 20.2375 8.35915 15.9587L7.81536 16.4752L7.27157 16.9917C11.7009 21.655 15.9261 21.8895 17.7499 21.7095L17.6763 20.9631ZM7.81536 16.4752L8.35915 15.9587C4.48303 11.8778 3.83285 8.43555 3.75181 6.92574L3.00289 6.96594L2.25397 7.00613C2.35322 8.85536 3.1384 12.6403 7.27157 16.9917L7.81536 16.4752ZM9.1907 8.80507L9.7345 9.32159L10.0213 9.01963L9.47752 8.50311L8.93372 7.9866L8.64691 8.28856L9.1907 8.80507ZM9.63424 5.6931L10.2466 5.26012L8.98565 3.47663L8.37326 3.90961L7.76086 4.3426L9.02185 6.12608L9.63424 5.6931ZM5.26145 3.60864L4.71766 3.09213L3.14806 4.74462L3.69185 5.26114L4.23564 5.77765L5.80524 4.12516L5.26145 3.60864ZM9.1907 8.80507C8.64691 8.28856 8.64622 8.28929 8.64552 8.29002C8.64528 8.29028 8.64458 8.29102 8.64411 8.29152C8.64316 8.29254 8.64219 8.29357 8.64121 8.29463C8.63924 8.29675 8.6372 8.29896 8.6351 8.30127C8.63091 8.30588 8.62646 8.31087 8.62178 8.31625C8.61243 8.32701 8.60215 8.33931 8.59116 8.3532C8.56918 8.38098 8.54431 8.41511 8.51822 8.45588C8.46591 8.53764 8.40917 8.64531 8.36112 8.78033C8.26342 9.0549 8.21018 9.4185 8.27671 9.87257C8.40742 10.7647 8.99198 11.9644 10.5193 13.5724L11.0631 13.0559L11.6069 12.5394C10.1793 11.0363 9.82761 10.1106 9.76086 9.65511C9.72866 9.43536 9.76138 9.31957 9.77432 9.28321C9.78159 9.26277 9.78635 9.25709 9.78169 9.26437C9.77944 9.26789 9.77494 9.27451 9.76738 9.28407C9.76359 9.28885 9.75904 9.29437 9.7536 9.30063C9.75088 9.30375 9.74793 9.30706 9.74476 9.31056C9.74317 9.31231 9.74152 9.3141 9.73981 9.31594C9.73896 9.31686 9.73809 9.31779 9.7372 9.31873C9.73676 9.3192 9.73608 9.31992 9.73586 9.32015C9.73518 9.32087 9.7345 9.32159 9.1907 8.80507ZM11.0631 13.0559L10.5193 13.5724C12.0422 15.1757 13.1923 15.806 14.0698 15.9485C14.5201 16.0216 14.8846 15.9632 15.1606 15.8544C15.2955 15.8012 15.4022 15.7387 15.4823 15.6819C15.5223 15.6535 15.5556 15.6266 15.5824 15.6031C15.5959 15.5913 15.6077 15.5803 15.618 15.5703C15.6232 15.5654 15.628 15.5606 15.6324 15.5562C15.6346 15.554 15.6367 15.5518 15.6387 15.5497C15.6397 15.5487 15.6407 15.5477 15.6417 15.5467C15.6422 15.5462 15.6429 15.5454 15.6431 15.5452C15.6438 15.5444 15.6445 15.5437 15.1007 15.0272C14.5569 14.5107 14.5576 14.51 14.5583 14.5093C14.5585 14.509 14.5592 14.5083 14.5596 14.5078C14.5605 14.5069 14.5614 14.506 14.5623 14.5051C14.5641 14.5033 14.5658 14.5015 14.5674 14.4998C14.5708 14.4965 14.574 14.4933 14.577 14.4904C14.583 14.4846 14.5885 14.4796 14.5933 14.4754C14.6028 14.467 14.6099 14.4616 14.6145 14.4584C14.6239 14.4517 14.6229 14.454 14.6102 14.459C14.5909 14.4666 14.5 14.4987 14.3103 14.4679C13.9077 14.4025 13.0391 14.0472 11.6069 12.5394L11.0631 13.0559ZM8.37326 3.90961L8.98565 3.47663C7.97206 2.04305 5.94384 1.80119 4.71766 3.09213L5.26145 3.60864L5.80524 4.12516C6.32808 3.57471 7.24851 3.61795 7.76086 4.3426L8.37326 3.90961ZM3.00289 6.96594L3.75181 6.92574C3.73038 6.52644 3.90425 6.12654 4.23564 5.77765L3.69185 5.26114L3.14806 4.74462C2.61221 5.30877 2.20493 6.09246 2.25397 7.00613L3.00289 6.96594ZM19.0011 20.254L18.4573 19.7375C18.1783 20.0313 17.8864 20.1887 17.6026 20.2167L17.6763 20.9631L17.7499 21.7095C18.497 21.6357 19.1016 21.2373 19.5449 20.7705L19.0011 20.254ZM9.47752 8.50311L10.0213 9.01963C10.9889 8.00095 11.0574 6.40678 10.2466 5.26012L9.63424 5.6931L9.02185 6.12608C9.44399 6.72315 9.37926 7.51753 8.93372 7.9866L9.47752 8.50311ZM19.8833 15.312L19.5092 15.962C20.33 16.4345 20.4907 17.5968 19.8779 18.2419L20.4217 18.7584L20.9655 19.2749C22.2704 17.901 21.8904 15.6019 20.2575 14.662L19.8833 15.312ZM15.5562 14.5477L16.1 15.0642C16.4854 14.6584 17.086 14.5672 17.5987 14.8623L17.9728 14.2123L18.347 13.5623C17.2485 12.93 15.8861 13.1113 15.0124 14.0312L15.5562 14.5477Z" fill="#2372EC"/>
</svg>
