<svg width="28" height="28" viewBox="0 0 28 28" fill="none" xmlns="http://www.w3.org/2000/svg">
<path d="M15.0679 0.919828C14.6554 0.882327 14.2906 1.18633 14.2531 1.59885C14.2156 2.01136 14.5196 2.37617 14.9321 2.41367L15 1.66675L15.0679 0.919828ZM22.0711 5.90939L22.6014 5.37906L22.0711 5.90939ZM25.5668 13.0484C25.6043 13.4609 25.9691 13.7649 26.3816 13.7274C26.7941 13.6899 27.0981 13.3251 27.0606 12.9126L26.3137 12.9805L25.5668 13.0484ZM16.1487 5.6598C15.7505 5.546 15.3354 5.77662 15.2216 6.1749C15.1078 6.57318 15.3384 6.98829 15.7367 7.10208L15.9427 6.38094L16.1487 5.6598ZM19.2425 8.73796L18.7122 9.26829L19.2425 8.73796ZM20.8784 12.2438C20.9922 12.6421 21.4073 12.8727 21.8056 12.7589C22.2039 12.6451 22.4345 12.23 22.3207 11.8318L21.5996 12.0378L20.8784 12.2438ZM17.1343 19.0364L17.6781 19.5529L17.1343 19.0364ZM17.7415 18.397L17.1978 17.8805L17.7415 18.397ZM20.9638 17.9498L20.5896 18.5999L20.9638 17.9498ZM23.5111 19.4161L23.137 20.0661L23.5111 19.4161ZM24.2289 24.0113L24.7727 24.5278H24.7727L24.2289 24.0113ZM22.3348 26.0054L21.791 25.4889L22.3348 26.0054ZM20.5684 26.9509L20.642 27.6972L20.5684 26.9509ZM7.42048 20.967L6.87669 21.4835L7.42048 20.967ZM1.00385 8.288L0.254928 8.32819L0.254928 8.32819L1.00385 8.288ZM9.25427 10.7402L9.79807 11.2567V11.2567L9.25427 10.7402ZM9.63669 10.3376L10.1805 10.8541L9.63669 10.3376ZM9.84566 6.59088L10.458 6.1579L9.84566 6.59088ZM8.16434 4.2129L7.55195 4.64588V4.64588L8.16434 4.2129ZM4.01527 3.8116L4.55906 4.32812H4.55906L4.01527 3.8116ZM1.92247 6.01493L1.37867 5.49841H1.37867L1.92247 6.01493ZM11.7508 16.4079L12.2946 15.8914V15.8914L11.7508 16.4079ZM15 1.66675C14.9321 2.41367 14.9317 2.41363 14.9313 2.41359C14.9312 2.41358 14.9308 2.41355 14.9306 2.41353C14.9301 2.41348 14.9297 2.41344 14.9293 2.41341C14.9286 2.41334 14.928 2.41328 14.9276 2.41325C14.9269 2.41317 14.9269 2.41317 14.9276 2.41325C14.9291 2.41341 14.9335 2.4139 14.9408 2.41483C14.9553 2.41669 14.9812 2.42028 15.0181 2.42643C15.0919 2.43872 15.2093 2.46122 15.3661 2.50042C15.6796 2.57878 16.151 2.72406 16.746 2.9885C17.9342 3.51661 19.6256 4.52457 21.5407 6.43972L22.0711 5.90939L22.6014 5.37906C20.5567 3.33441 18.7126 2.22105 17.3552 1.61779C16.6774 1.31654 16.1236 1.14362 15.7299 1.04521C15.5331 0.996017 15.3766 0.965483 15.2647 0.94684C15.2088 0.937519 15.1641 0.931172 15.1311 0.926952C15.1146 0.924842 15.101 0.923264 15.0905 0.922112C15.0852 0.921536 15.0807 0.921066 15.0769 0.92069C15.075 0.920502 15.0733 0.920337 15.0718 0.920194C15.0711 0.920123 15.0704 0.920056 15.0697 0.919996C15.0694 0.919965 15.0689 0.919923 15.0688 0.919908C15.0683 0.919867 15.0679 0.919828 15 1.66675ZM22.0711 5.90939L21.5407 6.43972C23.4559 8.35487 24.4639 10.0462 24.992 11.2345C25.2564 11.8295 25.4017 12.3009 25.48 12.6144C25.5192 12.7711 25.5417 12.8886 25.554 12.9623C25.5602 12.9992 25.5638 13.0252 25.5656 13.0397C25.5666 13.047 25.567 13.0514 25.5672 13.0528C25.5673 13.0536 25.5673 13.0536 25.5672 13.0528C25.5672 13.0524 25.5671 13.0519 25.567 13.0511C25.567 13.0508 25.567 13.0504 25.5669 13.0499C25.5669 13.0497 25.5669 13.0493 25.5669 13.0492C25.5668 13.0488 25.5668 13.0484 26.3137 12.9805C27.0606 12.9126 27.0606 12.9121 27.0605 12.9117C27.0605 12.9115 27.0605 12.9111 27.0605 12.9107C27.0604 12.9101 27.0603 12.9094 27.0603 12.9086C27.0601 12.9071 27.06 12.9054 27.0598 12.9036C27.0594 12.8998 27.0589 12.8953 27.0583 12.89C27.0572 12.8794 27.0556 12.8659 27.0535 12.8494C27.0493 12.8164 27.0429 12.7717 27.0336 12.7157C27.015 12.6039 26.9844 12.4473 26.9352 12.2505C26.8368 11.8569 26.6639 11.303 26.3627 10.6252C25.7594 9.26789 24.646 7.42371 22.6014 5.37906L22.0711 5.90939ZM15.9427 6.38094C15.7367 7.10208 15.7363 7.10199 15.736 7.10189C15.7359 7.10186 15.7355 7.10176 15.7353 7.1017C15.7349 7.10158 15.7345 7.10146 15.7341 7.10135C15.7333 7.10113 15.7327 7.10093 15.732 7.10075C15.7308 7.10039 15.7299 7.10012 15.7293 7.09994C15.7282 7.09959 15.7283 7.0996 15.7296 7.10003C15.7323 7.10089 15.74 7.10339 15.7525 7.10783C15.7775 7.11671 15.8219 7.13336 15.8844 7.16016C16.0094 7.21373 16.2074 7.30809 16.4682 7.46242C16.9893 7.77083 17.7648 8.32085 18.7122 9.26829L19.2425 8.73796L19.7729 8.20763C18.7404 7.17517 17.866 6.54668 17.2322 6.17156C16.9155 5.98413 16.6597 5.86045 16.4753 5.78144C16.3832 5.74195 16.309 5.71367 16.2541 5.69419C16.2267 5.68445 16.204 5.67692 16.1864 5.67129C16.1776 5.66847 16.1701 5.66613 16.1638 5.66423C16.1606 5.66328 16.1578 5.66243 16.1553 5.6617C16.154 5.66133 16.1529 5.66099 16.1518 5.66067C16.1512 5.66051 16.1507 5.66036 16.1502 5.66022C16.15 5.66014 16.1496 5.66004 16.1495 5.66C16.1491 5.6599 16.1487 5.6598 15.9427 6.38094ZM19.2425 8.73796L18.7122 9.26829C19.6596 10.2157 20.2097 10.9912 20.5181 11.5123C20.6724 11.7731 20.7668 11.9711 20.8203 12.0961C20.8471 12.1586 20.8638 12.203 20.8727 12.228C20.8771 12.2405 20.8796 12.2482 20.8805 12.2509C20.8809 12.2522 20.8809 12.2523 20.8806 12.2512C20.8804 12.2506 20.8801 12.2497 20.8798 12.2485C20.8796 12.2478 20.8794 12.2472 20.8792 12.2464C20.879 12.246 20.8789 12.2456 20.8788 12.2452C20.8787 12.245 20.8786 12.2446 20.8786 12.2445C20.8785 12.2442 20.8784 12.2438 21.5996 12.0378C22.3207 11.8318 22.3206 11.8314 22.3205 11.831C22.3205 11.8309 22.3204 11.8306 22.3203 11.8303C22.3201 11.8298 22.32 11.8293 22.3198 11.8287C22.3195 11.8276 22.3192 11.8265 22.3188 11.8252C22.3181 11.8227 22.3172 11.8199 22.3163 11.8167C22.3144 11.8104 22.312 11.8029 22.3092 11.7941C22.3036 11.7765 22.296 11.7539 22.2863 11.7264C22.2668 11.6715 22.2385 11.5973 22.1991 11.5052C22.1201 11.3208 21.9964 11.065 21.8089 10.7484C21.4338 10.1145 20.8053 9.24009 19.7729 8.20763L19.2425 8.73796ZM17.1343 19.0364L17.6781 19.5529L18.2853 18.9135L17.7415 18.397L17.1978 17.8805L16.5905 18.5198L17.1343 19.0364ZM20.9638 17.9498L20.5896 18.5999L23.137 20.0661L23.5111 19.4161L23.8852 18.766L21.3379 17.2998L20.9638 17.9498ZM24.2289 24.0113L23.6851 23.4948L21.791 25.4889L22.3348 26.0054L22.8786 26.5219L24.7727 24.5278L24.2289 24.0113ZM20.5684 26.9509L20.4947 26.2045C18.5165 26.3998 13.444 26.2196 7.96427 20.4505L7.42048 20.967L6.87669 21.4835C12.7217 27.6372 18.275 27.9309 20.642 27.6972L20.5684 26.9509ZM7.42048 20.967L7.96427 20.4505C2.75327 14.9643 1.86386 10.3175 1.75277 8.2478L1.00385 8.288L0.254928 8.32819C0.384233 10.7373 1.40864 15.7267 6.87669 21.4835L7.42048 20.967ZM9.25427 10.7402L9.79807 11.2567L10.1805 10.8541L9.63669 10.3376L9.0929 9.82105L8.71048 10.2237L9.25427 10.7402ZM9.84566 6.59088L10.458 6.1579L8.77673 3.77992L8.16434 4.2129L7.55195 4.64588L9.23326 7.02387L9.84566 6.59088ZM4.01527 3.8116L3.47147 3.29509L1.37867 5.49841L1.92247 6.01493L2.46626 6.53145L4.55906 4.32812L4.01527 3.8116ZM9.25427 10.7402C8.71048 10.2237 8.70978 10.2244 8.70909 10.2251C8.70885 10.2254 8.70814 10.2261 8.70766 10.2266C8.7067 10.2277 8.70571 10.2287 8.70471 10.2298C8.7027 10.232 8.7006 10.2343 8.69841 10.2367C8.69405 10.2415 8.68935 10.2467 8.68434 10.2525C8.67434 10.264 8.66311 10.2774 8.65091 10.2928C8.62653 10.3236 8.59827 10.3624 8.56821 10.4093C8.50795 10.5035 8.44097 10.6301 8.3837 10.791C8.26755 11.1174 8.19999 11.5609 8.28297 12.1273C8.44659 13.244 9.18718 14.7979 11.207 16.9245L11.7508 16.4079L12.2946 15.8914C10.3745 13.8699 9.86678 12.5899 9.76712 11.9098C9.71847 11.5777 9.76551 11.3821 9.79689 11.2939C9.81338 11.2475 9.82839 11.223 9.83168 11.2178C9.83339 11.2151 9.8323 11.2172 9.82713 11.2237C9.82455 11.227 9.82094 11.2314 9.81616 11.2369C9.81377 11.2396 9.81107 11.2426 9.80807 11.2459C9.80656 11.2476 9.80498 11.2493 9.80331 11.2511C9.80248 11.252 9.80163 11.2529 9.80075 11.2539C9.80031 11.2543 9.79964 11.255 9.79942 11.2553C9.79875 11.256 9.79807 11.2567 9.25427 10.7402ZM11.7508 16.4079L11.207 16.9245C13.2224 19.0463 14.709 19.8408 15.7998 20.018C16.3568 20.1084 16.7971 20.035 17.1224 19.9067C17.2819 19.8438 17.4066 19.7705 17.4985 19.7053C17.5443 19.6728 17.5819 19.6423 17.6117 19.6162C17.6266 19.6032 17.6395 19.5912 17.6506 19.5805C17.6561 19.5752 17.6611 19.5702 17.6657 19.5656C17.668 19.5633 17.6702 19.5611 17.6722 19.559C17.6733 19.5579 17.6743 19.5569 17.6752 19.5558C17.6757 19.5553 17.6764 19.5546 17.6767 19.5543C17.6774 19.5536 17.6781 19.5529 17.1343 19.0364C16.5905 18.5198 16.5912 18.5191 16.5919 18.5184C16.5921 18.5182 16.5928 18.5175 16.5932 18.517C16.5941 18.5161 16.595 18.5152 16.5958 18.5143C16.5975 18.5125 16.5992 18.5109 16.6007 18.5093C16.6039 18.5061 16.6068 18.5032 16.6095 18.5006C16.6148 18.4955 16.6192 18.4915 16.6225 18.4886C16.6292 18.4827 16.632 18.4809 16.6307 18.4818C16.6282 18.4835 16.6094 18.4966 16.572 18.5113C16.5035 18.5383 16.3367 18.5855 16.0403 18.5374C15.4244 18.4374 14.2193 17.9177 12.2946 15.8914L11.7508 16.4079ZM8.16434 4.2129L8.77673 3.77992C7.50882 1.98663 4.98916 1.69725 3.47147 3.29509L4.01527 3.8116L4.55906 4.32812C5.3734 3.47078 6.78527 3.56153 7.55195 4.64588L8.16434 4.2129ZM1.00385 8.288L1.75277 8.2478C1.71959 7.62967 1.99033 7.03251 2.46626 6.53145L1.92247 6.01493L1.37867 5.49841C0.698281 6.21474 0.194143 7.1957 0.254928 8.32819L1.00385 8.288ZM22.3348 26.0054L21.791 25.4889C21.3916 25.9094 20.9502 26.1595 20.4947 26.2045L20.5684 26.9509L20.642 27.6972C21.5609 27.6066 22.3149 27.1155 22.8786 26.5219L22.3348 26.0054ZM9.63669 10.3376L10.1805 10.8541C11.3836 9.58745 11.4743 7.59519 10.458 6.1579L9.84566 6.59088L9.23326 7.02387C9.86089 7.91155 9.77395 9.10403 9.0929 9.82105L9.63669 10.3376ZM23.5111 19.4161L23.137 20.0661C24.3668 20.7739 24.6175 22.5131 23.6851 23.4948L24.2289 24.0113L24.7727 24.5278C26.3973 22.8174 25.9271 19.9413 23.8852 18.766L23.5111 19.4161ZM17.7415 18.397L18.2853 18.9135C18.8807 18.2868 19.8084 18.1502 20.5896 18.5999L20.9638 17.9498L21.3379 17.2998C19.9709 16.513 18.2814 16.7396 17.1978 17.8805L17.7415 18.397Z" fill="#424242"/>
</svg>
