<svg width="41" height="40" viewBox="0 0 41 40" fill="none" xmlns="http://www.w3.org/2000/svg">
<rect x="0.75" y="0.25" width="39.5" height="39.5" rx="19.75" stroke="#F2F7FF" stroke-width="0.5"/>
<path d="M9.82075 22.1359C6.28196 18.5971 6.28196 12.8596 9.82075 9.32078C13.3595 5.78199 19.0971 5.78199 22.6358 9.32078L31.1792 17.8642C34.718 21.403 34.718 27.1405 31.1792 30.6793C27.6404 34.2181 21.9029 34.2181 18.3641 30.6793L9.82075 22.1359Z" fill="#96BFFF"/>
<path d="M26.9075 13.5925C26.9075 13.5925 26.1865 17.3333 22.0096 21.5102C17.8327 25.6871 14.0924 26.4076 14.0924 26.4076M31.1792 30.6793C27.6404 34.2181 21.9029 34.2181 18.3641 30.6793L9.82075 22.1359C6.28196 18.5971 6.28196 12.8596 9.82075 9.32078C13.3595 5.78199 19.0971 5.78199 22.6358 9.32078L31.1792 17.8642C34.718 21.403 34.718 27.1405 31.1792 30.6793Z" stroke="#0D47A1" stroke-width="1.5" stroke-linecap="round"/>
</svg>
