<svg width="48" height="48" viewBox="0 0 48 48" fill="none" xmlns="http://www.w3.org/2000/svg">
<g clip-path="url(#clip0_5145_4247)">
<path d="M28.5856 32.5764C26.4638 32.1348 23.5739 32.778 23.5643 35.2167C22.9882 35.1879 22.1817 34.1798 22.5369 33.3541C22.6906 32.9797 23.3146 32.202 24.1691 31.8371C25.6765 31.2035 26.771 31.4147 28 31.4627C29.2289 31.5107 28.624 30.5698 28.624 30.5698C29.2961 30.2241 29.2577 29.8113 28.7872 29.1584C27.6639 27.5646 25.7629 29.3216 25.7629 29.3216C25.3501 29.6481 24.0539 29.5041 23.2954 29.7153C22.1145 30.0321 21.4424 30.829 21.4424 30.829C20.7319 28.9664 19.5894 28.4671 19.5894 28.4671C22.4121 28.1119 22.4217 26.0189 21.7305 25.3372C21.0392 24.6555 19.0134 23.3498 18.9077 22.7257C18.7925 22.1112 20.2903 21.468 19.599 20.6615C19.0518 20.0182 17.3236 20.8439 16.3154 21.948C15.2977 23.0521 17.9188 25.7308 17.9188 25.7308C16.5267 25.4908 15.0961 25.7404 14.3856 26.1149C8.98023 29.0144 14.6833 36.5801 18.3701 37.8762C20.7992 38.7403 22.8058 38.9227 23.9483 39.3644C25.0812 39.7964 25.8781 40.7661 27.0783 41.0158C29.4785 41.5246 31.5139 40.2477 32.0228 37.8474C32.5317 35.4375 30.9859 33.0757 28.5856 32.5764Z" fill="#FF6859"/>
<path d="M39.2041 30.3586C37.6391 27.5262 36.295 25.078 37.1879 20.9399C37.4663 19.6534 37.7543 18.3956 38.052 17.1379C39.1657 12.3757 40.2985 7.70002 40.4617 1.43055C40.4617 0.960098 40.2602 0 39.2424 0H15.6143C15.1726 0.0192021 14.7694 0.326436 14.4237 0.633661C12.5515 2.27542 9.10472 5.6646 8.83589 8.4201C8.74948 9.34181 8.99911 10.1771 9.55597 10.8396C10.9097 12.4238 12.0523 13.5471 13.3004 14.1519C10.7561 16.3314 6.93488 20.4214 5.87876 26.0093C4.95706 30.8674 6.32041 35.8024 9.93041 40.6989L10.1128 40.9581C11.1401 42.3311 12.0427 44.1649 11.6202 46.0467C11.5242 46.4596 11.1786 47.4965 12.1771 47.8805C12.3595 47.9477 12.5227 47.9765 12.6667 47.9957C12.6667 47.9957 12.6859 48.0053 12.6955 47.9957H12.8587C12.8587 47.9957 12.9259 47.9957 12.9548 47.9957H36.4486C36.7942 48.0149 37.1591 47.8805 37.4567 47.6597C38.9641 46.5556 41.5179 44.1649 41.8731 40.4493C42.3051 35.956 40.6634 32.9701 39.2137 30.3394L39.2041 30.3586ZM31.0912 44.2033C30.2943 44.4529 29.5358 44.5778 28.7677 44.5778C26.9051 44.5778 25.3113 43.8289 23.6215 43.0512C22.239 42.3983 20.8084 41.7358 18.965 41.2942C14.6733 40.2669 11.2362 36.8969 9.99762 32.5092C8.53826 27.3726 10.084 23.849 11.6298 21.804C13.9821 18.6933 17.5729 17.2819 19.9155 17.2819C20.2804 17.2819 20.626 17.3107 20.9524 17.3779C24.14 18.0692 24.7545 20.6327 25.1961 22.4953C25.6474 24.4155 25.9162 25.0972 27.1067 25.174C32.7426 25.5868 35.2869 30.397 35.7573 34.4006C36.3142 39.1339 34.394 43.1568 31.0912 44.2033Z" fill="#FFC487"/>
</g>
<defs>
<clipPath id="clip0_5145_4247">
<rect width="48" height="48" fill="white"/>
</clipPath>
</defs>
</svg>
