<svg width="32" height="32" viewBox="0 0 32 32" fill="none" xmlns="http://www.w3.org/2000/svg">
<path d="M29.3334 16.0001C29.3334 23.3639 23.3639 29.3334 16.0001 29.3334C8.63628 29.3334 2.66675 23.3639 2.66675 16.0001C2.66675 8.63628 8.63628 2.66675 16.0001 2.66675C23.3639 2.66675 29.3334 8.63628 29.3334 16.0001Z" fill="#96BFFF"/>
<path d="M13.5001 11.8334C13.5001 10.4527 14.6194 9.33341 16.0001 9.33341C17.3808 9.33341 18.5001 10.4527 18.5001 11.8334C18.5001 12.75 18.0068 13.5514 17.2712 13.9866C16.6375 14.3615 16.0001 14.9304 16.0001 15.6667V17.3334M16.0001 20.6667V21.3334M29.3334 16.0001C29.3334 23.3639 23.3639 29.3334 16.0001 29.3334C8.63628 29.3334 2.66675 23.3639 2.66675 16.0001C2.66675 8.63628 8.63628 2.66675 16.0001 2.66675C23.3639 2.66675 29.3334 8.63628 29.3334 16.0001Z" stroke="#0D47A1" stroke-linecap="round"/>
</svg>
