<svg width="156" height="64" viewBox="0 0 156 64" fill="none" xmlns="http://www.w3.org/2000/svg">
<rect width="156" height="64" rx="8" fill="white" fill-opacity="0.6"/>
<rect x="8.25" y="8.25" width="47.5" height="47.5" rx="23.75" fill="#AF3E3E"/>
<rect x="8.25" y="8.25" width="47.5" height="47.5" rx="23.75" stroke="#E4EFFF" stroke-width="0.5"/>
<g opacity="0.5">
<path fill-rule="evenodd" clip-rule="evenodd" d="M34.6667 45.3337H29.3333C24.305 45.3337 21.7909 45.3337 20.2288 43.7715C18.6667 42.2095 18.6667 39.6953 18.6667 34.667V29.3337C18.6667 24.3053 18.6667 21.7912 20.2288 20.2291C21.7909 18.667 24.3183 18.667 29.3731 18.667C30.1811 18.667 30.8285 18.667 31.3733 18.6892C31.3555 18.7958 31.346 18.9045 31.3456 19.0144L31.3333 22.7936C31.3332 24.2564 31.3331 25.5492 31.4732 26.5912C31.6251 27.7207 31.9737 28.85 32.8955 29.7717C33.8171 30.6934 34.9464 31.0421 36.0759 31.1939C37.118 31.3341 38.4107 31.3339 39.8735 31.3338H40H45.2765C45.3333 32.0462 45.3333 32.9205 45.3333 34.0842V34.667C45.3333 39.6953 45.3333 42.2095 43.7712 43.7715C42.2092 45.3337 39.6949 45.3337 34.6667 45.3337Z" fill="white"/>
</g>
<path d="M31.3456 19.0138L31.3333 22.793C31.3332 24.2558 31.3331 25.5486 31.4732 26.5906C31.6251 27.7201 31.9737 28.8494 32.8955 29.7711C33.8172 30.6927 34.9464 31.0414 36.076 31.1933C37.118 31.3334 38.4107 31.3333 39.8735 31.3331H45.2765C45.2931 31.5406 45.3048 31.7617 45.3131 31.9997H45.3333C45.3333 31.643 45.3333 31.4647 45.3201 31.2547C45.2447 30.0621 44.7489 28.6953 44.042 27.7317C43.9176 27.5621 43.8324 27.4602 43.6623 27.2566C42.6056 25.9918 41.2147 24.4162 40 23.333C38.9189 22.3689 37.4383 21.3141 36.1468 20.4517C35.0375 19.7107 34.4827 19.3402 33.722 19.0648C33.5204 18.9918 33.2544 18.9111 33.0461 18.8599C32.5341 18.7338 32.0357 18.69 31.3333 18.6748L31.3456 19.0138Z" fill="white"/>
<path d="M128 32H144M144 32L138 26M144 32L138 38" stroke="white" stroke-linecap="round" stroke-linejoin="round"/>
</svg>
