<svg width="32" height="32" viewBox="0 0 32 32" fill="none" xmlns="http://www.w3.org/2000/svg">
<path d="M4.90674 15.1111H4.15674V15.1111L4.90674 15.1111ZM4.90674 17.3333L4.3785 17.8657C4.67091 18.1559 5.14257 18.1559 5.43498 17.8657L4.90674 17.3333ZM7.67473 15.6435C7.96877 15.3518 7.97064 14.8769 7.6789 14.5829C7.38716 14.2888 6.91229 14.287 6.61825 14.5787L7.14649 15.1111L7.67473 15.6435ZM3.19524 14.5787C2.90119 14.287 2.42632 14.2888 2.13458 14.5829C1.84284 14.8769 1.84471 15.3518 2.13875 15.6435L2.66699 15.1111L3.19524 14.5787ZM25.034 9.72612C25.251 10.079 25.7129 10.1892 26.0658 9.97225C26.4186 9.75532 26.5288 9.29341 26.3119 8.94054L25.673 9.33333L25.034 9.72612ZM27.0855 14.6667L27.6127 14.1333C27.3206 13.8445 26.8505 13.8445 26.5583 14.1333L27.0855 14.6667ZM24.31 16.3555C24.0154 16.6467 24.0126 17.1215 24.3038 17.4161C24.595 17.7107 25.0698 17.7135 25.3644 17.4223L24.8372 16.8889L24.31 16.3555ZM28.8066 17.4223C29.1012 17.7135 29.5761 17.7107 29.8673 17.4161C30.1584 17.1215 30.1557 16.6467 29.8611 16.3555L29.3338 16.8889L28.8066 17.4223ZM6.87816 22.2728C6.66062 21.9203 6.19853 21.8109 5.84603 22.0284C5.49354 22.246 5.38413 22.7081 5.60166 23.0605L6.23991 22.6667L6.87816 22.2728ZM16.1055 4V3.25C9.51194 3.25 4.15674 8.55486 4.15674 15.1111H4.90674H5.65674C5.65674 9.39437 10.3292 4.75 16.1055 4.75V4ZM4.90674 15.1111L4.15674 15.1111L4.15674 17.3333H4.90674H5.65674L5.65674 15.1111H4.90674ZM4.90674 17.3333L5.43498 17.8657L7.67473 15.6435L7.14649 15.1111L6.61825 14.5787L4.3785 16.8009L4.90674 17.3333ZM4.90674 17.3333L5.43498 16.8009L3.19524 14.5787L2.66699 15.1111L2.13875 15.6435L4.3785 17.8657L4.90674 17.3333ZM25.673 9.33333L26.3119 8.94054C24.214 5.52806 20.4269 3.25 16.1055 3.25V4V4.75C19.888 4.75 23.1996 6.74223 25.034 9.72612L25.673 9.33333ZM15.844 28V28.75C22.4584 28.75 27.8355 23.4478 27.8355 16.8889H27.0855H26.3355C26.3355 22.6029 21.6466 27.25 15.844 27.25V28ZM27.0855 16.8889H27.8355V14.6667H27.0855H26.3355V16.8889H27.0855ZM27.0855 14.6667L26.5583 14.1333L24.31 16.3555L24.8372 16.8889L25.3644 17.4223L27.6127 15.2001L27.0855 14.6667ZM27.0855 14.6667L26.5583 15.2001L28.8066 17.4223L29.3338 16.8889L29.8611 16.3555L27.6127 14.1333L27.0855 14.6667ZM6.23991 22.6667L5.60166 23.0605C7.70769 26.4732 11.5084 28.75 15.844 28.75V28V27.25C12.0446 27.25 8.71948 25.2565 6.87816 22.2728L6.23991 22.6667Z" fill="white"/>
</svg>
