<svg width="24" height="24" viewBox="0 0 24 24" fill="none" xmlns="http://www.w3.org/2000/svg">
<path d="M6 19.06C6.27614 19.06 6.5 18.8361 6.5 18.56C6.5 18.2839 6.27614 18.06 6 18.06V18.56V19.06ZM17.5 6C17.5 6.27614 17.7239 6.5 18 6.5C18.2761 6.5 18.5 6.27614 18.5 6H18H17.5ZM10.8162 13.1725C10.6344 12.9647 10.3185 12.9437 10.1107 13.1256C9.9029 13.3075 9.88189 13.6233 10.0638 13.8311L10.44 13.5018L10.8162 13.1725ZM12.0179 15.3045L12.3942 14.9752H12.3942L12.0179 15.3045ZM13.4873 15.3431L13.8457 15.6917L13.4873 15.3431ZM17.7584 11.6686C17.951 11.4706 17.9466 11.1541 17.7486 10.9616C17.5506 10.769 17.2341 10.7734 17.0416 10.9714L17.4 11.32L17.7584 11.6686ZM12 6V6.5H15V6V5.5H12V6ZM21 12H20.5V15.56H21H21.5V12H21ZM15 21.56V21.06H12V21.56V22.06H15V21.56ZM6 15.56H6.5V12H6H5.5V15.56H6ZM12 21.56V21.06C10.5717 21.06 9.55069 21.0589 8.77481 20.9546C8.01331 20.8522 7.56319 20.6587 7.23223 20.3278L6.87868 20.6813L6.52513 21.0349C7.07285 21.5826 7.76917 21.8284 8.64156 21.9457C9.49956 22.0611 10.5999 22.06 12 22.06V21.56ZM6 15.56H5.5C5.5 16.9601 5.49894 18.0604 5.61429 18.9184C5.73158 19.7908 5.9774 20.4872 6.52513 21.0349L6.87868 20.6813L7.23223 20.3278C6.90128 19.9968 6.70776 19.5467 6.60538 18.7852C6.50106 18.0093 6.5 16.9883 6.5 15.56H6ZM21 15.56H20.5C20.5 16.9883 20.4989 18.0093 20.3946 18.7852C20.2922 19.5467 20.0987 19.9968 19.7678 20.3278L20.1213 20.6813L20.4749 21.0349C21.0226 20.4872 21.2684 19.7908 21.3857 18.9184C21.5011 18.0604 21.5 16.9601 21.5 15.56H21ZM15 21.56V22.06C16.4001 22.06 17.5004 22.0611 18.3584 21.9457C19.2308 21.8284 19.9271 21.5826 20.4749 21.0349L20.1213 20.6813L19.7678 20.3278C19.4368 20.6587 18.9867 20.8522 18.2252 20.9546C17.4493 21.0589 16.4283 21.06 15 21.06V21.56ZM15 6V6.5C16.4283 6.5 17.4493 6.50106 18.2252 6.60538C18.9867 6.70776 19.4368 6.90128 19.7678 7.23223L20.1213 6.87868L20.4749 6.52513C19.9271 5.9774 19.2308 5.73158 18.3584 5.61429C17.5004 5.49894 16.4001 5.5 15 5.5V6ZM21 12H21.5C21.5 10.5999 21.5011 9.49956 21.3857 8.64156C21.2684 7.76918 21.0226 7.07285 20.4749 6.52513L20.1213 6.87868L19.7678 7.23223C20.0987 7.56319 20.2922 8.01331 20.3946 8.77481C20.4989 9.55069 20.5 10.5717 20.5 12H21ZM12 6V5.5C10.5999 5.5 9.49956 5.49894 8.64156 5.61429C7.76917 5.73158 7.07285 5.9774 6.52513 6.52513L6.87868 6.87868L7.23223 7.23223C7.56319 6.90128 8.01331 6.70776 8.77481 6.60538C9.55069 6.50106 10.5717 6.5 12 6.5V6ZM6 12H6.5C6.5 10.5717 6.50106 9.55069 6.60538 8.77481C6.70776 8.01331 6.90128 7.56319 7.23223 7.23223L6.87868 6.87868L6.52513 6.52513C5.9774 7.07285 5.73158 7.76918 5.61429 8.64156C5.49894 9.49956 5.5 10.5999 5.5 12H6ZM11 3V3.5H15V3V2.5H11V3ZM3 15.56H3.5V11H3H2.5V15.56H3ZM3 15.56H2.5C2.5 17.493 4.067 19.06 6 19.06V18.56V18.06C4.61929 18.06 3.5 16.9407 3.5 15.56H3ZM15 3V3.5C16.3807 3.5 17.5 4.61929 17.5 6H18H18.5C18.5 4.067 16.933 2.5 15 2.5V3ZM11 3V2.5C9.12852 2.5 7.67461 2.49894 6.54429 2.65091C5.39959 2.80481 4.51219 3.12385 3.81802 3.81802L4.17157 4.17157L4.52513 4.52513C5.00253 4.04772 5.64373 3.78098 6.67754 3.64199C7.72573 3.50106 9.10025 3.5 11 3.5V3ZM3 11H3.5C3.5 9.10025 3.50106 7.72573 3.64199 6.67754C3.78098 5.64372 4.04772 5.00253 4.52513 4.52513L4.17157 4.17157L3.81802 3.81802C3.12385 4.51219 2.80481 5.39959 2.65091 6.54429C2.49894 7.6746 2.5 9.12852 2.5 11H3ZM10.44 13.5018L10.0638 13.8311L11.6417 15.6339L12.0179 15.3045L12.3942 14.9752L10.8162 13.1725L10.44 13.5018ZM13.4873 15.3431L13.8457 15.6917L17.7584 11.6686L17.4 11.32L17.0416 10.9714L13.1288 14.9945L13.4873 15.3431ZM12.0179 15.3045L11.6417 15.6339C12.2186 16.2929 13.2351 16.3196 13.8457 15.6917L13.4873 15.3431L13.1288 14.9945C12.9253 15.2038 12.5865 15.1949 12.3942 14.9752L12.0179 15.3045Z" fill="#424242"/>
</svg>
