<svg width="24" height="24" viewBox="0 0 24 24" fill="none" xmlns="http://www.w3.org/2000/svg">
<path d="M8.71327 9.59038C8.48704 9.74874 8.43203 10.0605 8.59038 10.2867C8.74874 10.513 9.06051 10.568 9.28673 10.4096L9 10L8.71327 9.59038ZM14.2867 6.90962C14.513 6.75126 14.568 6.43949 14.4096 6.21327C14.2513 5.98704 13.9395 5.93203 13.7133 6.09038L14 6.5L14.2867 6.90962ZM9.28673 13.5904C9.06051 13.432 8.74874 13.487 8.59038 13.7133C8.43203 13.9395 8.48704 14.2513 8.71327 14.4096L9 14L9.28673 13.5904ZM13.7133 17.9096C13.9395 18.068 14.2513 18.013 14.4096 17.7867C14.568 17.5605 14.513 17.2487 14.2867 17.0904L14 17.5L13.7133 17.9096ZM9 12H8.5C8.5 13.1046 7.60457 14 6.5 14V14.5V15C8.15685 15 9.5 13.6569 9.5 12H9ZM6.5 14.5V14C5.39543 14 4.5 13.1046 4.5 12H4H3.5C3.5 13.6569 4.84315 15 6.5 15V14.5ZM4 12H4.5C4.5 10.8954 5.39543 10 6.5 10V9.5V9C4.84315 9 3.5 10.3431 3.5 12H4ZM6.5 9.5V10C7.60457 10 8.5 10.8954 8.5 12H9H9.5C9.5 10.3431 8.15685 9 6.5 9V9.5ZM9 10L9.28673 10.4096L14.2867 6.90962L14 6.5L13.7133 6.09038L8.71327 9.59038L9 10ZM9 14L8.71327 14.4096L13.7133 17.9096L14 17.5L14.2867 17.0904L9.28673 13.5904L9 14ZM19 18.5H18.5C18.5 19.6046 17.6046 20.5 16.5 20.5V21V21.5C18.1569 21.5 19.5 20.1569 19.5 18.5H19ZM16.5 21V20.5C15.3954 20.5 14.5 19.6046 14.5 18.5H14H13.5C13.5 20.1569 14.8431 21.5 16.5 21.5V21ZM14 18.5H14.5C14.5 17.3954 15.3954 16.5 16.5 16.5V16V15.5C14.8431 15.5 13.5 16.8431 13.5 18.5H14ZM16.5 16V16.5C17.6046 16.5 18.5 17.3954 18.5 18.5H19H19.5C19.5 16.8431 18.1569 15.5 16.5 15.5V16ZM19 5.5H18.5C18.5 6.60457 17.6046 7.5 16.5 7.5V8V8.5C18.1569 8.5 19.5 7.15685 19.5 5.5H19ZM16.5 8V7.5C15.3954 7.5 14.5 6.60457 14.5 5.5H14H13.5C13.5 7.15685 14.8431 8.5 16.5 8.5V8ZM14 5.5H14.5C14.5 4.39543 15.3954 3.5 16.5 3.5V3V2.5C14.8431 2.5 13.5 3.84315 13.5 5.5H14ZM16.5 3V3.5C17.6046 3.5 18.5 4.39543 18.5 5.5H19H19.5C19.5 3.84315 18.1569 2.5 16.5 2.5V3Z" fill="#424242"/>
</svg>
