<svg width="32" height="32" viewBox="0 0 32 32" fill="none" xmlns="http://www.w3.org/2000/svg">
<path d="M4 13.8887C4 9.62527 4 7.49354 4.50335 6.77638C5.00671 6.05922 7.0111 5.37311 11.0199 4.00089L11.7836 3.73946C13.8733 3.02416 14.9181 2.6665 16 2.6665C17.0819 2.6665 18.1267 3.02416 20.2164 3.73946L20.9801 4.00089C24.9889 5.37311 26.9933 6.05922 27.4966 6.77638C28 7.49354 28 9.62527 28 13.8887C28 14.5327 28 15.2311 28 15.9883C28 23.5058 22.348 27.1538 18.8019 28.7029C17.84 29.1231 17.359 29.3332 16 29.3332C14.641 29.3332 14.16 29.1231 13.1981 28.7029C9.65195 27.1538 4 23.5058 4 15.9883C4 15.2311 4 14.5327 4 13.8887Z" fill="#96BFFF"/>
<path d="M14.4817 11.151C15.1572 9.9391 15.495 9.33317 16 9.33317C16.505 9.33317 16.8428 9.9391 17.5183 11.151L17.6931 11.4645C17.8851 11.8089 17.981 11.9811 18.1307 12.0947C18.2804 12.2083 18.4667 12.2505 18.8395 12.3348L19.1789 12.4116C20.4907 12.7084 21.1467 12.8568 21.3027 13.3586C21.4588 13.8604 21.0116 14.3833 20.1173 15.4291L19.8859 15.6997C19.6318 15.9969 19.5047 16.1455 19.4475 16.3293C19.3904 16.5131 19.4096 16.7114 19.448 17.1079L19.483 17.4688C19.6182 18.8642 19.6858 19.5618 19.2773 19.872C18.8687 20.1821 18.2546 19.8993 17.0263 19.3338L16.7085 19.1875C16.3595 19.0268 16.185 18.9464 16 18.9464C15.815 18.9464 15.6405 19.0268 15.2915 19.1875L14.9737 19.3338C13.7454 19.8993 13.1313 20.1821 12.7227 19.872C12.3142 19.5618 12.3818 18.8642 12.517 17.4689L12.552 17.1079C12.5904 16.7114 12.6096 16.5131 12.5525 16.3293C12.4953 16.1455 12.3682 15.9969 12.1141 15.6997L11.8827 15.4291C10.9884 14.3833 10.5412 13.8604 10.6973 13.3586C10.8533 12.8568 11.5093 12.7084 12.8211 12.4116L13.1605 12.3348C13.5333 12.2505 13.7196 12.2083 13.8693 12.0947C14.019 11.9811 14.1149 11.8089 14.3069 11.4645L14.4817 11.151Z" fill="#96BFFF"/>
<path d="M4 13.8887C4 9.62527 4 7.49354 4.50335 6.77638C5.00671 6.05922 7.0111 5.37311 11.0199 4.00089L11.7836 3.73946C13.8733 3.02416 14.9181 2.6665 16 2.6665C17.0819 2.6665 18.1267 3.02416 20.2164 3.73946L20.9801 4.00089C24.9889 5.37311 26.9933 6.05922 27.4966 6.77638C28 7.49354 28 9.62527 28 13.8887C28 14.5327 28 15.2311 28 15.9883C28 23.5058 22.348 27.1538 18.8019 28.7029C17.84 29.1231 17.359 29.3332 16 29.3332C14.641 29.3332 14.16 29.1231 13.1981 28.7029C9.65195 27.1538 4 23.5058 4 15.9883C4 15.2311 4 14.5327 4 13.8887Z" stroke="#0D47A1" stroke-linecap="round"/>
<path d="M14.4817 11.151C15.1572 9.9391 15.495 9.33317 16 9.33317C16.505 9.33317 16.8428 9.9391 17.5183 11.151L17.6931 11.4645C17.8851 11.8089 17.981 11.9811 18.1307 12.0947C18.2804 12.2083 18.4667 12.2505 18.8395 12.3348L19.1789 12.4116C20.4907 12.7084 21.1467 12.8568 21.3027 13.3586C21.4588 13.8604 21.0116 14.3833 20.1173 15.4291L19.8859 15.6997C19.6318 15.9969 19.5047 16.1455 19.4475 16.3293C19.3904 16.5131 19.4096 16.7114 19.448 17.1079L19.483 17.4688C19.6182 18.8642 19.6858 19.5618 19.2773 19.872C18.8687 20.1821 18.2546 19.8993 17.0263 19.3338L16.7085 19.1875C16.3595 19.0268 16.185 18.9464 16 18.9464C15.815 18.9464 15.6405 19.0268 15.2915 19.1875L14.9737 19.3338C13.7454 19.8993 13.1313 20.1821 12.7227 19.872C12.3142 19.5618 12.3818 18.8642 12.517 17.4689L12.552 17.1079C12.5904 16.7114 12.6096 16.5131 12.5525 16.3293C12.4953 16.1455 12.3682 15.9969 12.1141 15.6997L11.8827 15.4291C10.9884 14.3833 10.5412 13.8604 10.6973 13.3586C10.8533 12.8568 11.5093 12.7084 12.8211 12.4116L13.1605 12.3348C13.5333 12.2505 13.7196 12.2083 13.8693 12.0947C14.019 11.9811 14.1149 11.8089 14.3069 11.4645L14.4817 11.151Z" stroke="#0D47A1" stroke-linecap="round"/>
</svg>
