<svg width="24" height="24" viewBox="0 0 24 24" fill="none" xmlns="http://www.w3.org/2000/svg">
<path d="M14.1014 21.5273L14.3016 21.9855L14.1014 21.5273ZM9.89856 21.5273L9.69841 21.9855L9.89856 21.5273ZM15.7351 3.00079L15.5732 3.47385V3.47385L15.7351 3.00079ZM8.83772 2.80472L8.6758 2.33166V2.33166L8.83772 2.80472ZM15.1623 2.80472L15.3242 2.33166V2.33166L15.1623 2.80472ZM8.26491 3.00079L8.42684 3.47385L8.26491 3.00079ZM9.87297 12.067C9.68905 11.861 9.37298 11.8431 9.16699 12.027C8.96101 12.2109 8.94312 12.527 9.12703 12.733L9.5 12.4L9.87297 12.067ZM10.9286 14L10.5556 14.333C10.6505 14.4393 10.7861 14.5 10.9286 14.5C11.071 14.5 11.2067 14.4393 11.3015 14.333L10.9286 14ZM14.873 10.333C15.0569 10.127 15.039 9.81095 14.833 9.62703C14.627 9.44312 14.3109 9.46101 14.127 9.66699L14.5 10L14.873 10.333ZM21 10.4167H20.5C20.5 10.4176 20.5 10.4185 20.5 10.4195C20.5 10.4204 20.5 10.4214 20.5 10.4223C20.5 10.4233 20.5 10.4242 20.5 10.4251C20.5 10.4261 20.5 10.427 20.5 10.428C20.5 10.4289 20.5 10.4299 20.5 10.4308C20.5 10.4318 20.5 10.4327 20.5 10.4337C20.5 10.4346 20.5 10.4355 20.5 10.4365C20.5 10.4374 20.5 10.4384 20.5 10.4393C20.5 10.4403 20.5 10.4412 20.5 10.4422C20.5 10.4431 20.5 10.4441 20.5 10.445C20.5 10.4459 20.5 10.4469 20.5 10.4478C20.5 10.4488 20.5 10.4497 20.5 10.4507C20.5 10.4516 20.5 10.4526 20.5 10.4535C20.5 10.4545 20.5 10.4554 20.5 10.4564C20.5 10.4573 20.5 10.4583 20.5 10.4592C20.5 10.4602 20.5 10.4611 20.5 10.4621C20.5 10.463 20.5 10.464 20.5 10.4649C20.5 10.4658 20.5 10.4668 20.5 10.4677C20.5 10.4687 20.5 10.4696 20.5 10.4706C20.5 10.4715 20.5 10.4725 20.5 10.4734C20.5 10.4744 20.5 10.4753 20.5 10.4763C20.5 10.4772 20.5 10.4782 20.5 10.4791C20.5 10.4801 20.5 10.481 20.5 10.482C20.5 10.4829 20.5 10.4839 20.5 10.4848C20.5 10.4858 20.5 10.4867 20.5 10.4877C20.5 10.4886 20.5 10.4896 20.5 10.4906C20.5 10.4915 20.5 10.4925 20.5 10.4934C20.5 10.4944 20.5 10.4953 20.5 10.4963C20.5 10.4972 20.5 10.4982 20.5 10.4991C20.5 10.5001 20.5 10.501 20.5 10.502C20.5 10.5029 20.5 10.5039 20.5 10.5048C20.5 10.5058 20.5 10.5067 20.5 10.5077C20.5 10.5086 20.5 10.5096 20.5 10.5106C20.5 10.5115 20.5 10.5125 20.5 10.5134C20.5 10.5144 20.5 10.5153 20.5 10.5163C20.5 10.5172 20.5 10.5182 20.5 10.5191C20.5 10.5201 20.5 10.5211 20.5 10.522C20.5 10.523 20.5 10.5239 20.5 10.5249C20.5 10.5258 20.5 10.5268 20.5 10.5277C20.5 10.5287 20.5 10.5296 20.5 10.5306C20.5 10.5316 20.5 10.5325 20.5 10.5335C20.5 10.5344 20.5 10.5354 20.5 10.5363C20.5 10.5373 20.5 10.5383 20.5 10.5392C20.5 10.5402 20.5 10.5411 20.5 10.5421C20.5 10.543 20.5 10.544 20.5 10.545C20.5 10.5459 20.5 10.5469 20.5 10.5478C20.5 10.5488 20.5 10.5497 20.5 10.5507C20.5 10.5517 20.5 10.5526 20.5 10.5536C20.5 10.5545 20.5 10.5555 20.5 10.5565C20.5 10.5574 20.5 10.5584 20.5 10.5593C20.5 10.5603 20.5 10.5612 20.5 10.5622C20.5 10.5632 20.5 10.5641 20.5 10.5651C20.5 10.566 20.5 10.567 20.5 10.568C20.5 10.5689 20.5 10.5699 20.5 10.5708C20.5 10.5718 20.5 10.5728 20.5 10.5737C20.5 10.5747 20.5 10.5756 20.5 10.5766C20.5 10.5776 20.5 10.5785 20.5 10.5795C20.5 10.5804 20.5 10.5814 20.5 10.5824C20.5 10.5833 20.5 10.5843 20.5 10.5853C20.5 10.5862 20.5 10.5872 20.5 10.5881C20.5 10.5891 20.5 10.5901 20.5 10.591C20.5 10.592 20.5 10.593 20.5 10.5939C20.5 10.5949 20.5 10.5958 20.5 10.5968C20.5 10.5978 20.5 10.5987 20.5 10.5997C20.5 10.6007 20.5 10.6016 20.5 10.6026C20.5 10.6035 20.5 10.6045 20.5 10.6055C20.5 10.6064 20.5 10.6074 20.5 10.6084C20.5 10.6093 20.5 10.6103 20.5 10.6113C20.5 10.6122 20.5 10.6132 20.5 10.6142C20.5 10.6151 20.5 10.6161 20.5 10.6171C20.5 10.618 20.5 10.619 20.5 10.6199C20.5 10.6209 20.5 10.6219 20.5 10.6228C20.5 10.6238 20.5 10.6248 20.5 10.6257C20.5 10.6267 20.5 10.6277 20.5 10.6286C20.5 10.6296 20.5 10.6306 20.5 10.6315C20.5 10.6325 20.5 10.6335 20.5 10.6344C20.5 10.6354 20.5 10.6364 20.5 10.6373C20.5 10.6383 20.5 10.6393 20.5 10.6402C20.5 10.6412 20.5 10.6422 20.5 10.6432C20.5 10.6441 20.5 10.6451 20.5 10.6461C20.5 10.647 20.5 10.648 20.5 10.649C20.5 10.6499 20.5 10.6509 20.5 10.6519C20.5 10.6528 20.5 10.6538 20.5 10.6548C20.5 10.6557 20.5 10.6567 20.5 10.6577C20.5 10.6587 20.5 10.6596 20.5 10.6606C20.5 10.6616 20.5 10.6625 20.5 10.6635C20.5 10.6645 20.5 10.6654 20.5 10.6664C20.5 10.6674 20.5 10.6684 20.5 10.6693C20.5 10.6703 20.5 10.6713 20.5 10.6722C20.5 10.6732 20.5 10.6742 20.5 10.6752C20.5 10.6761 20.5 10.6771 20.5 10.6781C20.5 10.679 20.5 10.68 20.5 10.681C20.5 10.682 20.5 10.6829 20.5 10.6839C20.5 10.6849 20.5 10.6859 20.5 10.6868C20.5 10.6878 20.5 10.6888 20.5 10.6897C20.5 10.6907 20.5 10.6917 20.5 10.6927C20.5 10.6936 20.5 10.6946 20.5 10.6956C20.5 10.6966 20.5 10.6975 20.5 10.6985C20.5 10.6995 20.5 10.7005 20.5 10.7014C20.5 10.7024 20.5 10.7034 20.5 10.7044C20.5 10.7053 20.5 10.7063 20.5 10.7073C20.5 10.7083 20.5 10.7092 20.5 10.7102C20.5 10.7112 20.5 10.7122 20.5 10.7131C20.5 10.7141 20.5 10.7151 20.5 10.7161C20.5 10.717 20.5 10.718 20.5 10.719C20.5 10.72 20.5 10.7209 20.5 10.7219C20.5 10.7229 20.5 10.7239 20.5 10.7248C20.5 10.7258 20.5 10.7268 20.5 10.7278C20.5 10.7288 20.5 10.7297 20.5 10.7307C20.5 10.7317 20.5 10.7327 20.5 10.7336C20.5 10.7346 20.5 10.7356 20.5 10.7366C20.5 10.7376 20.5 10.7385 20.5 10.7395C20.5 10.7405 20.5 10.7415 20.5 10.7424C20.5 10.7434 20.5 10.7444 20.5 10.7454C20.5 10.7464 20.5 10.7473 20.5 10.7483C20.5 10.7493 20.5 10.7503 20.5 10.7513C20.5 10.7522 20.5 10.7532 20.5 10.7542C20.5 10.7552 20.5 10.7562 20.5 10.7571C20.5 10.7581 20.5 10.7591 20.5 10.7601C20.5 10.7611 20.5 10.762 20.5 10.763C20.5 10.764 20.5 10.765 20.5 10.766C20.5 10.7669 20.5 10.7679 20.5 10.7689C20.5 10.7699 20.5 10.7709 20.5 10.7719C20.5 10.7728 20.5 10.7738 20.5 10.7748C20.5 10.7758 20.5 10.7768 20.5 10.7778C20.5 10.7787 20.5 10.7797 20.5 10.7807C20.5 10.7817 20.5 10.7827 20.5 10.7836C20.5 10.7846 20.5 10.7856 20.5 10.7866C20.5 10.7876 20.5 10.7886 20.5 10.7895C20.5 10.7905 20.5 10.7915 20.5 10.7925C20.5 10.7935 20.5 10.7945 20.5 10.7955C20.5 10.7964 20.5 10.7974 20.5 10.7984C20.5 10.7994 20.5 10.8004 20.5 10.8014C20.5 10.8023 20.5 10.8033 20.5 10.8043C20.5 10.8053 20.5 10.8063 20.5 10.8073C20.5 10.8083 20.5 10.8092 20.5 10.8102C20.5 10.8112 20.5 10.8122 20.5 10.8132C20.5 10.8142 20.5 10.8152 20.5 10.8162C20.5 10.8171 20.5 10.8181 20.5 10.8191C20.5 10.8201 20.5 10.8211 20.5 10.8221C20.5 10.8231 20.5 10.8241 20.5 10.825C20.5 10.826 20.5 10.827 20.5 10.828C20.5 10.829 20.5 10.83 20.5 10.831C20.5 10.832 20.5 10.8329 20.5 10.8339C20.5 10.8349 20.5 10.8359 20.5 10.8369C20.5 10.8379 20.5 10.8389 20.5 10.8399C20.5 10.8409 20.5 10.8418 20.5 10.8428C20.5 10.8438 20.5 10.8448 20.5 10.8458C20.5 10.8468 20.5 10.8478 20.5 10.8488C20.5 10.8498 20.5 10.8508 20.5 10.8517C20.5 10.8527 20.5 10.8537 20.5 10.8547C20.5 10.8557 20.5 10.8567 20.5 10.8577C20.5 10.8587 20.5 10.8597 20.5 10.8607C20.5 10.8617 20.5 10.8626 20.5 10.8636C20.5 10.8646 20.5 10.8656 20.5 10.8666C20.5 10.8676 20.5 10.8686 20.5 10.8696C20.5 10.8706 20.5 10.8716 20.5 10.8726C20.5 10.8736 20.5 10.8746 20.5 10.8756C20.5 10.8765 20.5 10.8775 20.5 10.8785C20.5 10.8795 20.5 10.8805 20.5 10.8815C20.5 10.8825 20.5 10.8835 20.5 10.8845C20.5 10.8855 20.5 10.8865 20.5 10.8875C20.5 10.8885 20.5 10.8895 20.5 10.8905C20.5 10.8915 20.5 10.8924 20.5 10.8934C20.5 10.8944 20.5 10.8954 20.5 10.8964C20.5 10.8974 20.5 10.8984 20.5 10.8994C20.5 10.9004 20.5 10.9014 20.5 10.9024C20.5 10.9034 20.5 10.9044 20.5 10.9054C20.5 10.9064 20.5 10.9074 20.5 10.9084C20.5 10.9094 20.5 10.9104 20.5 10.9114C20.5 10.9124 20.5 10.9134 20.5 10.9144C20.5 10.9154 20.5 10.9164 20.5 10.9174C20.5 10.9184 20.5 10.9194 20.5 10.9203C20.5 10.9213 20.5 10.9223 20.5 10.9233C20.5 10.9243 20.5 10.9253 20.5 10.9263C20.5 10.9273 20.5 10.9283 20.5 10.9293C20.5 10.9303 20.5 10.9313 20.5 10.9323C20.5 10.9333 20.5 10.9343 20.5 10.9353C20.5 10.9363 20.5 10.9373 20.5 10.9383C20.5 10.9393 20.5 10.9403 20.5 10.9413C20.5 10.9423 20.5 10.9433 20.5 10.9443C20.5 10.9453 20.5 10.9463 20.5 10.9473C20.5 10.9483 20.5 10.9493 20.5 10.9503C20.5 10.9513 20.5 10.9523 20.5 10.9533C20.5 10.9543 20.5 10.9553 20.5 10.9563C20.5 10.9573 20.5 10.9583 20.5 10.9593C20.5 10.9604 20.5 10.9614 20.5 10.9624C20.5 10.9634 20.5 10.9644 20.5 10.9654C20.5 10.9664 20.5 10.9674 20.5 10.9684C20.5 10.9694 20.5 10.9704 20.5 10.9714C20.5 10.9724 20.5 10.9734 20.5 10.9744C20.5 10.9754 20.5 10.9764 20.5 10.9774C20.5 10.9784 20.5 10.9794 20.5 10.9804C20.5 10.9814 20.5 10.9824 20.5 10.9834C20.5 10.9844 20.5 10.9854 20.5 10.9864C20.5 10.9874 20.5 10.9885 20.5 10.9895C20.5 10.9905 20.5 10.9915 20.5 10.9925C20.5 10.9935 20.5 10.9945 20.5 10.9955C20.5 10.9965 20.5 10.9975 20.5 10.9985C20.5 10.9995 20.5 11.0005 20.5 11.0015C20.5 11.0025 20.5 11.0035 20.5 11.0046C20.5 11.0056 20.5 11.0066 20.5 11.0076C20.5 11.0086 20.5 11.0096 20.5 11.0106C20.5 11.0116 20.5 11.0126 20.5 11.0136C20.5 11.0146 20.5 11.0156 20.5 11.0166C20.5 11.0176 20.5 11.0187 20.5 11.0197C20.5 11.0207 20.5 11.0217 20.5 11.0227C20.5 11.0237 20.5 11.0247 20.5 11.0257C20.5 11.0267 20.5 11.0277 20.5 11.0287C20.5 11.0298 20.5 11.0308 20.5 11.0318C20.5 11.0328 20.5 11.0338 20.5 11.0348C20.5 11.0358 20.5 11.0368 20.5 11.0378C20.5 11.0388 20.5 11.0399 20.5 11.0409C20.5 11.0419 20.5 11.0429 20.5 11.0439C20.5 11.0449 20.5 11.0459 20.5 11.0469C20.5 11.0479 20.5 11.049 20.5 11.05C20.5 11.051 20.5 11.052 20.5 11.053C20.5 11.054 20.5 11.055 20.5 11.056C20.5 11.0571 20.5 11.0581 20.5 11.0591C20.5 11.0601 20.5 11.0611 20.5 11.0621C20.5 11.0631 20.5 11.0641 20.5 11.0652C20.5 11.0662 20.5 11.0672 20.5 11.0682C20.5 11.0692 20.5 11.0702 20.5 11.0712C20.5 11.0723 20.5 11.0733 20.5 11.0743C20.5 11.0753 20.5 11.0763 20.5 11.0773C20.5 11.0783 20.5 11.0794 20.5 11.0804C20.5 11.0814 20.5 11.0824 20.5 11.0834C20.5 11.0844 20.5 11.0854 20.5 11.0865C20.5 11.0875 20.5 11.0885 20.5 11.0895C20.5 11.0905 20.5 11.0915 20.5 11.0926C20.5 11.0936 20.5 11.0946 20.5 11.0956C20.5 11.0966 20.5 11.0976 20.5 11.0987C20.5 11.0997 20.5 11.1007 20.5 11.1017C20.5 11.1027 20.5 11.1037 20.5 11.1048C20.5 11.1058 20.5 11.1068 20.5 11.1078C20.5 11.1088 20.5 11.1098 20.5 11.1109C20.5 11.1119 20.5 11.1129 20.5 11.1139C20.5 11.1149 20.5 11.116 20.5 11.117C20.5 11.118 20.5 11.119 20.5 11.12C20.5 11.1211 20.5 11.1221 20.5 11.1231C20.5 11.1241 20.5 11.1251 20.5 11.1262C20.5 11.1272 20.5 11.1282 20.5 11.1292C20.5 11.1302 20.5 11.1313 20.5 11.1323C20.5 11.1333 20.5 11.1343 20.5 11.1353C20.5 11.1364 20.5 11.1374 20.5 11.1384C20.5 11.1394 20.5 11.1404 20.5 11.1415C20.5 11.1425 20.5 11.1435 20.5 11.1445C20.5 11.1455 20.5 11.1466 20.5 11.1476C20.5 11.1486 20.5 11.1496 20.5 11.1507C20.5 11.1517 20.5 11.1527 20.5 11.1537C20.5 11.1547 20.5 11.1558 20.5 11.1568C20.5 11.1578 20.5 11.1588 20.5 11.1599C20.5 11.1609 20.5 11.1619 20.5 11.1629C20.5 11.164 20.5 11.165 20.5 11.166C20.5 11.167 20.5 11.1681 20.5 11.1691C20.5 11.1701 20.5 11.1711 20.5 11.1722C20.5 11.1732 20.5 11.1742 20.5 11.1752C20.5 11.1763 20.5 11.1773 20.5 11.1783C20.5 11.1793 20.5 11.1804 20.5 11.1814C20.5 11.1824 20.5 11.1834 20.5 11.1845C20.5 11.1855 20.5 11.1865 20.5 11.1875C20.5 11.1886 20.5 11.1896 20.5 11.1906C20.5 11.1916 20.5 11.1927 20.5 11.1937C20.5 11.1947 20.5 11.1957 20.5 11.1968C20.5 11.1978 20.5 11.1988 20.5 11.1999C20.5 11.2009 20.5 11.2019 20.5 11.2029C20.5 11.204 20.5 11.205 20.5 11.206C20.5 11.2071 20.5 11.2081 20.5 11.2091C20.5 11.2101 20.5 11.2112 20.5 11.2122C20.5 11.2132 20.5 11.2143 20.5 11.2153C20.5 11.2163 20.5 11.2173 20.5 11.2184C20.5 11.2194 20.5 11.2204 20.5 11.2215C20.5 11.2225 20.5 11.2235 20.5 11.2245C20.5 11.2256 20.5 11.2266 20.5 11.2276C20.5 11.2287 20.5 11.2297 20.5 11.2307C20.5 11.2318 20.5 11.2328 20.5 11.2338C20.5 11.2349 20.5 11.2359 20.5 11.2369C20.5 11.238 20.5 11.239 20.5 11.24C20.5 11.241 20.5 11.2421 20.5 11.2431C20.5 11.2441 20.5 11.2452 20.5 11.2462C20.5 11.2472 20.5 11.2483 20.5 11.2493C20.5 11.2503 20.5 11.2514 20.5 11.2524C20.5 11.2534 20.5 11.2545 20.5 11.2555C20.5 11.2565 20.5 11.2576 20.5 11.2586C20.5 11.2596 20.5 11.2607 20.5 11.2617C20.5 11.2627 20.5 11.2638 20.5 11.2648C20.5 11.2658 20.5 11.2669 20.5 11.2679C20.5 11.2689 20.5 11.27 20.5 11.271C20.5 11.2721 20.5 11.2731 20.5 11.2741C20.5 11.2752 20.5 11.2762 20.5 11.2772C20.5 11.2783 20.5 11.2793 20.5 11.2803C20.5 11.2814 20.5 11.2824 20.5 11.2834C20.5 11.2845 20.5 11.2855 20.5 11.2866C20.5 11.2876 20.5 11.2886 20.5 11.2897C20.5 11.2907 20.5 11.2917 20.5 11.2928C20.5 11.2938 20.5 11.2949 20.5 11.2959C20.5 11.2969 20.5 11.298 20.5 11.299C20.5 11.3 20.5 11.3011 20.5 11.3021C20.5 11.3032 20.5 11.3042 20.5 11.3052C20.5 11.3063 20.5 11.3073 20.5 11.3083C20.5 11.3094 20.5 11.3104 20.5 11.3115C20.5 11.3125 20.5 11.3135 20.5 11.3146C20.5 11.3156 20.5 11.3167 20.5 11.3177C20.5 11.3187 20.5 11.3198 20.5 11.3208C20.5 11.3219 20.5 11.3229 20.5 11.3239C20.5 11.325 20.5 11.326 20.5 11.3271C20.5 11.3281 20.5 11.3291 20.5 11.3302C20.5 11.3312 20.5 11.3323 20.5 11.3333C20.5 11.3344 20.5 11.3354 20.5 11.3364C20.5 11.3375 20.5 11.3385 20.5 11.3396C20.5 11.3406 20.5 11.3417 20.5 11.3427C20.5 11.3437 20.5 11.3448 20.5 11.3458C20.5 11.3469 20.5 11.3479 20.5 11.3489C20.5 11.35 20.5 11.351 20.5 11.3521C20.5 11.3531 20.5 11.3542 20.5 11.3552C20.5 11.3563 20.5 11.3573 20.5 11.3583C20.5 11.3594 20.5 11.3604 20.5 11.3615C20.5 11.3625 20.5 11.3636 20.5 11.3646C20.5 11.3657 20.5 11.3667 20.5 11.3677C20.5 11.3688 20.5 11.3698 20.5 11.3709C20.5 11.3719 20.5 11.373 20.5 11.374C20.5 11.3751 20.5 11.3761 20.5 11.3772C20.5 11.3782 20.5 11.3792 20.5 11.3803C20.5 11.3813 20.5 11.3824 20.5 11.3834C20.5 11.3845 20.5 11.3855 20.5 11.3866C20.5 11.3876 20.5 11.3887 20.5 11.3897C20.5 11.3908 20.5 11.3918 20.5 11.3929C20.5 11.3939 20.5 11.395 20.5 11.396C20.5 11.3971 20.5 11.3981 20.5 11.3991C20.5 11.4002 20.5 11.4012 20.5 11.4023C20.5 11.4033 20.5 11.4044 20.5 11.4054C20.5 11.4065 20.5 11.4075 20.5 11.4086C20.5 11.4096 20.5 11.4107 20.5 11.4117C20.5 11.4128 20.5 11.4138 20.5 11.4149C20.5 11.4159 20.5 11.417 20.5 11.418C20.5 11.4191 20.5 11.4201 20.5 11.4212C20.5 11.4222 20.5 11.4233 20.5 11.4243C20.5 11.4254 20.5 11.4264 20.5 11.4275C20.5 11.4285 20.5 11.4296 20.5 11.4307C20.5 11.4317 20.5 11.4328 20.5 11.4338C20.5 11.4349 20.5 11.4359 20.5 11.437C20.5 11.438 20.5 11.4391 20.5 11.4401C20.5 11.4412 20.5 11.4422 20.5 11.4433C20.5 11.4443 20.5 11.4454 20.5 11.4464C20.5 11.4475 20.5 11.4485 20.5 11.4496C20.5 11.4507 20.5 11.4517 20.5 11.4528C20.5 11.4538 20.5 11.4549 20.5 11.4559C20.5 11.457 20.5 11.458 20.5 11.4591C20.5 11.4601 20.5 11.4612 20.5 11.4623C20.5 11.4633 20.5 11.4644 20.5 11.4654C20.5 11.4665 20.5 11.4675 20.5 11.4686C20.5 11.4696 20.5 11.4707 20.5 11.4718C20.5 11.4728 20.5 11.4739 20.5 11.4749C20.5 11.476 20.5 11.477 20.5 11.4781C20.5 11.4791 20.5 11.4802 20.5 11.4813C20.5 11.4823 20.5 11.4834 20.5 11.4844C20.5 11.4855 20.5 11.4865 20.5 11.4876C20.5 11.4887 20.5 11.4897 20.5 11.4908C20.5 11.4918 20.5 11.4929 20.5 11.494C20.5 11.495 20.5 11.4961 20.5 11.4971C20.5 11.4982 20.5 11.4992 20.5 11.5003C20.5 11.5014 20.5 11.5024 20.5 11.5035C20.5 11.5045 20.5 11.5056 20.5 11.5067C20.5 11.5077 20.5 11.5088 20.5 11.5098C20.5 11.5109 20.5 11.512 20.5 11.513C20.5 11.5141 20.5 11.5151 20.5 11.5162C20.5 11.5173 20.5 11.5183 20.5 11.5194C20.5 11.5204 20.5 11.5215 20.5 11.5226C20.5 11.5236 20.5 11.5247 20.5 11.5257C20.5 11.5268 20.5 11.5279 20.5 11.5289C20.5 11.53 20.5 11.5311 20.5 11.5321C20.5 11.5332 20.5 11.5342 20.5 11.5353C20.5 11.5364 20.5 11.5374 20.5 11.5385C20.5 11.5396 20.5 11.5406 20.5 11.5417C20.5 11.5427 20.5 11.5438 20.5 11.5449C20.5 11.5459 20.5 11.547 20.5 11.5481C20.5 11.5491 20.5 11.5502 20.5 11.5513C20.5 11.5523 20.5 11.5534 20.5 11.5545C20.5 11.5555 20.5 11.5566 20.5 11.5576C20.5 11.5587 20.5 11.5598 20.5 11.5608C20.5 11.5619 20.5 11.563 20.5 11.564C20.5 11.5651 20.5 11.5662 20.5 11.5672C20.5 11.5683 20.5 11.5694 20.5 11.5704C20.5 11.5715 20.5 11.5726 20.5 11.5736C20.5 11.5747 20.5 11.5758 20.5 11.5768C20.5 11.5779 20.5 11.579 20.5 11.58C20.5 11.5811 20.5 11.5822 20.5 11.5832C20.5 11.5843 20.5 11.5854 20.5 11.5864C20.5 11.5875 20.5 11.5886 20.5 11.5896C20.5 11.5907 20.5 11.5918 20.5 11.5928C20.5 11.5939 20.5 11.595 20.5 11.5961C20.5 11.5971 20.5 11.5982 20.5 11.5993C20.5 11.6003 20.5 11.6014 20.5 11.6025C20.5 11.6035 20.5 11.6046 20.5 11.6057C20.5 11.6067 20.5 11.6078 20.5 11.6089C20.5 11.61 20.5 11.611 20.5 11.6121C20.5 11.6132 20.5 11.6142 20.5 11.6153C20.5 11.6164 20.5 11.6175 20.5 11.6185C20.5 11.6196 20.5 11.6207 20.5 11.6217C20.5 11.6228 20.5 11.6239 20.5 11.625C20.5 11.626 20.5 11.6271 20.5 11.6282C20.5 11.6292 20.5 11.6303 20.5 11.6314C20.5 11.6325 20.5 11.6335 20.5 11.6346C20.5 11.6357 20.5 11.6367 20.5 11.6378C20.5 11.6389 20.5 11.64 20.5 11.641C20.5 11.6421 20.5 11.6432 20.5 11.6443C20.5 11.6453 20.5 11.6464 20.5 11.6475C20.5 11.6486 20.5 11.6496 20.5 11.6507C20.5 11.6518 20.5 11.6529 20.5 11.6539C20.5 11.655 20.5 11.6561 20.5 11.6572C20.5 11.6582 20.5 11.6593 20.5 11.6604C20.5 11.6615 20.5 11.6625 20.5 11.6636C20.5 11.6647 20.5 11.6658 20.5 11.6668C20.5 11.6679 20.5 11.669 20.5 11.6701C20.5 11.6711 20.5 11.6722 20.5 11.6733C20.5 11.6744 20.5 11.6755 20.5 11.6765C20.5 11.6776 20.5 11.6787 20.5 11.6798C20.5 11.6808 20.5 11.6819 20.5 11.683C20.5 11.6841 20.5 11.6851 20.5 11.6862C20.5 11.6873 20.5 11.6884 20.5 11.6895C20.5 11.6905 20.5 11.6916 20.5 11.6927C20.5 11.6938 20.5 11.6949 20.5 11.6959C20.5 11.697 20.5 11.6981 20.5 11.6992C20.5 11.7003 20.5 11.7013 20.5 11.7024C20.5 11.7035 20.5 11.7046 20.5 11.7057C20.5 11.7067 20.5 11.7078 20.5 11.7089C20.5 11.71 20.5 11.7111 20.5 11.7121C20.5 11.7132 20.5 11.7143 20.5 11.7154C20.5 11.7165 20.5 11.7175 20.5 11.7186C20.5 11.7197 20.5 11.7208 20.5 11.7219C20.5 11.7229 20.5 11.724 20.5 11.7251C20.5 11.7262 20.5 11.7273 20.5 11.7284C20.5 11.7294 20.5 11.7305 20.5 11.7316C20.5 11.7327 20.5 11.7338 20.5 11.7349C20.5 11.7359 20.5 11.737 20.5 11.7381C20.5 11.7392 20.5 11.7403 20.5 11.7414C20.5 11.7424 20.5 11.7435 20.5 11.7446C20.5 11.7457 20.5 11.7468 20.5 11.7479C20.5 11.7489 20.5 11.75 20.5 11.7511C20.5 11.7522 20.5 11.7533 20.5 11.7544C20.5 11.7555 20.5 11.7565 20.5 11.7576C20.5 11.7587 20.5 11.7598 20.5 11.7609C20.5 11.762 20.5 11.7631 20.5 11.7641C20.5 11.7652 20.5 11.7663 20.5 11.7674C20.5 11.7685 20.5 11.7696 20.5 11.7707C20.5 11.7717 20.5 11.7728 20.5 11.7739C20.5 11.775 20.5 11.7761 20.5 11.7772C20.5 11.7783 20.5 11.7794 20.5 11.7804C20.5 11.7815 20.5 11.7826 20.5 11.7837C20.5 11.7848 20.5 11.7859 20.5 11.787C20.5 11.7881 20.5 11.7892 20.5 11.7902C20.5 11.7913 20.5 11.7924 20.5 11.7935C20.5 11.7946 20.5 11.7957 20.5 11.7968C20.5 11.7979 20.5 11.799 20.5 11.8C20.5 11.8011 20.5 11.8022 20.5 11.8033C20.5 11.8044 20.5 11.8055 20.5 11.8066C20.5 11.8077 20.5 11.8088 20.5 11.8099C20.5 11.8109 20.5 11.812 20.5 11.8131C20.5 11.8142 20.5 11.8153 20.5 11.8164C20.5 11.8175 20.5 11.8186 20.5 11.8197C20.5 11.8208 20.5 11.8219 20.5 11.823C20.5 11.824 20.5 11.8251 20.5 11.8262C20.5 11.8273 20.5 11.8284 20.5 11.8295C20.5 11.8306 20.5 11.8317 20.5 11.8328C20.5 11.8339 20.5 11.835 20.5 11.8361C20.5 11.8372 20.5 11.8383 20.5 11.8393C20.5 11.8404 20.5 11.8415 20.5 11.8426C20.5 11.8437 20.5 11.8448 20.5 11.8459C20.5 11.847 20.5 11.8481 20.5 11.8492C20.5 11.8503 20.5 11.8514 20.5 11.8525C20.5 11.8536 20.5 11.8547 20.5 11.8558C20.5 11.8569 20.5 11.858 20.5 11.8591C20.5 11.8602 20.5 11.8612 20.5 11.8623C20.5 11.8634 20.5 11.8645 20.5 11.8656C20.5 11.8667 20.5 11.8678 20.5 11.8689C20.5 11.87 20.5 11.8711 20.5 11.8722C20.5 11.8733 20.5 11.8744 20.5 11.8755C20.5 11.8766 20.5 11.8777 20.5 11.8788C20.5 11.8799 20.5 11.881 20.5 11.8821C20.5 11.8832 20.5 11.8843 20.5 11.8854C20.5 11.8865 20.5 11.8876 20.5 11.8887C20.5 11.8898 20.5 11.8909 20.5 11.892C20.5 11.8931 20.5 11.8942 20.5 11.8953C20.5 11.8964 20.5 11.8975 20.5 11.8986C20.5 11.8997 20.5 11.9008 20.5 11.9019C20.5 11.903 20.5 11.9041 20.5 11.9052C20.5 11.9063 20.5 11.9074 20.5 11.9085C20.5 11.9096 20.5 11.9107 20.5 11.9118C20.5 11.9129 20.5 11.914 20.5 11.9151C20.5 11.9162 20.5 11.9173 20.5 11.9184C20.5 11.9195 20.5 11.9206 20.5 11.9217C20.5 11.9228 20.5 11.9239 20.5 11.925C20.5 11.9261 20.5 11.9272 20.5 11.9283C20.5 11.9294 20.5 11.9305 20.5 11.9316C20.5 11.9327 20.5 11.9338 20.5 11.9349C20.5 11.936 20.5 11.9371 20.5 11.9382C20.5 11.9393 20.5 11.9405 20.5 11.9416C20.5 11.9427 20.5 11.9438 20.5 11.9449C20.5 11.946 20.5 11.9471 20.5 11.9482C20.5 11.9493 20.5 11.9504 20.5 11.9515C20.5 11.9526 20.5 11.9537 20.5 11.9548C20.5 11.9559 20.5 11.957 20.5 11.9581C20.5 11.9592 20.5 11.9603 20.5 11.9614C20.5 11.9626 20.5 11.9637 20.5 11.9648C20.5 11.9659 20.5 11.967 20.5 11.9681C20.5 11.9692 20.5 11.9703 20.5 11.9714C20.5 11.9725 20.5 11.9736 20.5 11.9747C20.5 11.9758 20.5 11.9769 20.5 11.9781C20.5 11.9792 20.5 11.9803 20.5 11.9814C20.5 11.9825 20.5 11.9836 20.5 11.9847C20.5 11.9858 20.5 11.9869 20.5 11.988C20.5 11.9891 20.5 11.9902 20.5 11.9914H21H21.5C21.5 11.9902 21.5 11.9891 21.5 11.988C21.5 11.9869 21.5 11.9858 21.5 11.9847C21.5 11.9836 21.5 11.9825 21.5 11.9814C21.5 11.9803 21.5 11.9792 21.5 11.9781C21.5 11.9769 21.5 11.9758 21.5 11.9747C21.5 11.9736 21.5 11.9725 21.5 11.9714C21.5 11.9703 21.5 11.9692 21.5 11.9681C21.5 11.967 21.5 11.9659 21.5 11.9648C21.5 11.9637 21.5 11.9626 21.5 11.9614C21.5 11.9603 21.5 11.9592 21.5 11.9581C21.5 11.957 21.5 11.9559 21.5 11.9548C21.5 11.9537 21.5 11.9526 21.5 11.9515C21.5 11.9504 21.5 11.9493 21.5 11.9482C21.5 11.9471 21.5 11.946 21.5 11.9449C21.5 11.9438 21.5 11.9427 21.5 11.9416C21.5 11.9405 21.5 11.9393 21.5 11.9382C21.5 11.9371 21.5 11.936 21.5 11.9349C21.5 11.9338 21.5 11.9327 21.5 11.9316C21.5 11.9305 21.5 11.9294 21.5 11.9283C21.5 11.9272 21.5 11.9261 21.5 11.925C21.5 11.9239 21.5 11.9228 21.5 11.9217C21.5 11.9206 21.5 11.9195 21.5 11.9184C21.5 11.9173 21.5 11.9162 21.5 11.9151C21.5 11.914 21.5 11.9129 21.5 11.9118C21.5 11.9107 21.5 11.9096 21.5 11.9085C21.5 11.9074 21.5 11.9063 21.5 11.9052C21.5 11.9041 21.5 11.903 21.5 11.9019C21.5 11.9008 21.5 11.8997 21.5 11.8986C21.5 11.8975 21.5 11.8964 21.5 11.8953C21.5 11.8942 21.5 11.8931 21.5 11.892C21.5 11.8909 21.5 11.8898 21.5 11.8887C21.5 11.8876 21.5 11.8865 21.5 11.8854C21.5 11.8843 21.5 11.8832 21.5 11.8821C21.5 11.881 21.5 11.8799 21.5 11.8788C21.5 11.8777 21.5 11.8766 21.5 11.8755C21.5 11.8744 21.5 11.8733 21.5 11.8722C21.5 11.8711 21.5 11.87 21.5 11.8689C21.5 11.8678 21.5 11.8667 21.5 11.8656C21.5 11.8645 21.5 11.8634 21.5 11.8623C21.5 11.8612 21.5 11.8602 21.5 11.8591C21.5 11.858 21.5 11.8569 21.5 11.8558C21.5 11.8547 21.5 11.8536 21.5 11.8525C21.5 11.8514 21.5 11.8503 21.5 11.8492C21.5 11.8481 21.5 11.847 21.5 11.8459C21.5 11.8448 21.5 11.8437 21.5 11.8426C21.5 11.8415 21.5 11.8404 21.5 11.8393C21.5 11.8383 21.5 11.8372 21.5 11.8361C21.5 11.835 21.5 11.8339 21.5 11.8328C21.5 11.8317 21.5 11.8306 21.5 11.8295C21.5 11.8284 21.5 11.8273 21.5 11.8262C21.5 11.8251 21.5 11.824 21.5 11.823C21.5 11.8219 21.5 11.8208 21.5 11.8197C21.5 11.8186 21.5 11.8175 21.5 11.8164C21.5 11.8153 21.5 11.8142 21.5 11.8131C21.5 11.812 21.5 11.8109 21.5 11.8099C21.5 11.8088 21.5 11.8077 21.5 11.8066C21.5 11.8055 21.5 11.8044 21.5 11.8033C21.5 11.8022 21.5 11.8011 21.5 11.8C21.5 11.799 21.5 11.7979 21.5 11.7968C21.5 11.7957 21.5 11.7946 21.5 11.7935C21.5 11.7924 21.5 11.7913 21.5 11.7902C21.5 11.7892 21.5 11.7881 21.5 11.787C21.5 11.7859 21.5 11.7848 21.5 11.7837C21.5 11.7826 21.5 11.7815 21.5 11.7804C21.5 11.7794 21.5 11.7783 21.5 11.7772C21.5 11.7761 21.5 11.775 21.5 11.7739C21.5 11.7728 21.5 11.7717 21.5 11.7707C21.5 11.7696 21.5 11.7685 21.5 11.7674C21.5 11.7663 21.5 11.7652 21.5 11.7641C21.5 11.7631 21.5 11.762 21.5 11.7609C21.5 11.7598 21.5 11.7587 21.5 11.7576C21.5 11.7565 21.5 11.7555 21.5 11.7544C21.5 11.7533 21.5 11.7522 21.5 11.7511C21.5 11.75 21.5 11.7489 21.5 11.7479C21.5 11.7468 21.5 11.7457 21.5 11.7446C21.5 11.7435 21.5 11.7424 21.5 11.7414C21.5 11.7403 21.5 11.7392 21.5 11.7381C21.5 11.737 21.5 11.7359 21.5 11.7349C21.5 11.7338 21.5 11.7327 21.5 11.7316C21.5 11.7305 21.5 11.7294 21.5 11.7284C21.5 11.7273 21.5 11.7262 21.5 11.7251C21.5 11.724 21.5 11.7229 21.5 11.7219C21.5 11.7208 21.5 11.7197 21.5 11.7186C21.5 11.7175 21.5 11.7165 21.5 11.7154C21.5 11.7143 21.5 11.7132 21.5 11.7121C21.5 11.7111 21.5 11.71 21.5 11.7089C21.5 11.7078 21.5 11.7067 21.5 11.7057C21.5 11.7046 21.5 11.7035 21.5 11.7024C21.5 11.7013 21.5 11.7003 21.5 11.6992C21.5 11.6981 21.5 11.697 21.5 11.6959C21.5 11.6949 21.5 11.6938 21.5 11.6927C21.5 11.6916 21.5 11.6905 21.5 11.6895C21.5 11.6884 21.5 11.6873 21.5 11.6862C21.5 11.6851 21.5 11.6841 21.5 11.683C21.5 11.6819 21.5 11.6808 21.5 11.6798C21.5 11.6787 21.5 11.6776 21.5 11.6765C21.5 11.6755 21.5 11.6744 21.5 11.6733C21.5 11.6722 21.5 11.6711 21.5 11.6701C21.5 11.669 21.5 11.6679 21.5 11.6668C21.5 11.6658 21.5 11.6647 21.5 11.6636C21.5 11.6625 21.5 11.6615 21.5 11.6604C21.5 11.6593 21.5 11.6582 21.5 11.6572C21.5 11.6561 21.5 11.655 21.5 11.6539C21.5 11.6529 21.5 11.6518 21.5 11.6507C21.5 11.6496 21.5 11.6486 21.5 11.6475C21.5 11.6464 21.5 11.6453 21.5 11.6443C21.5 11.6432 21.5 11.6421 21.5 11.641C21.5 11.64 21.5 11.6389 21.5 11.6378C21.5 11.6367 21.5 11.6357 21.5 11.6346C21.5 11.6335 21.5 11.6325 21.5 11.6314C21.5 11.6303 21.5 11.6292 21.5 11.6282C21.5 11.6271 21.5 11.626 21.5 11.625C21.5 11.6239 21.5 11.6228 21.5 11.6217C21.5 11.6207 21.5 11.6196 21.5 11.6185C21.5 11.6175 21.5 11.6164 21.5 11.6153C21.5 11.6142 21.5 11.6132 21.5 11.6121C21.5 11.611 21.5 11.61 21.5 11.6089C21.5 11.6078 21.5 11.6067 21.5 11.6057C21.5 11.6046 21.5 11.6035 21.5 11.6025C21.5 11.6014 21.5 11.6003 21.5 11.5993C21.5 11.5982 21.5 11.5971 21.5 11.5961C21.5 11.595 21.5 11.5939 21.5 11.5928C21.5 11.5918 21.5 11.5907 21.5 11.5896C21.5 11.5886 21.5 11.5875 21.5 11.5864C21.5 11.5854 21.5 11.5843 21.5 11.5832C21.5 11.5822 21.5 11.5811 21.5 11.58C21.5 11.579 21.5 11.5779 21.5 11.5768C21.5 11.5758 21.5 11.5747 21.5 11.5736C21.5 11.5726 21.5 11.5715 21.5 11.5704C21.5 11.5694 21.5 11.5683 21.5 11.5672C21.5 11.5662 21.5 11.5651 21.5 11.564C21.5 11.563 21.5 11.5619 21.5 11.5608C21.5 11.5598 21.5 11.5587 21.5 11.5576C21.5 11.5566 21.5 11.5555 21.5 11.5545C21.5 11.5534 21.5 11.5523 21.5 11.5513C21.5 11.5502 21.5 11.5491 21.5 11.5481C21.5 11.547 21.5 11.5459 21.5 11.5449C21.5 11.5438 21.5 11.5427 21.5 11.5417C21.5 11.5406 21.5 11.5396 21.5 11.5385C21.5 11.5374 21.5 11.5364 21.5 11.5353C21.5 11.5342 21.5 11.5332 21.5 11.5321C21.5 11.5311 21.5 11.53 21.5 11.5289C21.5 11.5279 21.5 11.5268 21.5 11.5257C21.5 11.5247 21.5 11.5236 21.5 11.5226C21.5 11.5215 21.5 11.5204 21.5 11.5194C21.5 11.5183 21.5 11.5173 21.5 11.5162C21.5 11.5151 21.5 11.5141 21.5 11.513C21.5 11.512 21.5 11.5109 21.5 11.5098C21.5 11.5088 21.5 11.5077 21.5 11.5067C21.5 11.5056 21.5 11.5045 21.5 11.5035C21.5 11.5024 21.5 11.5014 21.5 11.5003C21.5 11.4992 21.5 11.4982 21.5 11.4971C21.5 11.4961 21.5 11.495 21.5 11.494C21.5 11.4929 21.5 11.4918 21.5 11.4908C21.5 11.4897 21.5 11.4887 21.5 11.4876C21.5 11.4865 21.5 11.4855 21.5 11.4844C21.5 11.4834 21.5 11.4823 21.5 11.4813C21.5 11.4802 21.5 11.4791 21.5 11.4781C21.5 11.477 21.5 11.476 21.5 11.4749C21.5 11.4739 21.5 11.4728 21.5 11.4718C21.5 11.4707 21.5 11.4696 21.5 11.4686C21.5 11.4675 21.5 11.4665 21.5 11.4654C21.5 11.4644 21.5 11.4633 21.5 11.4623C21.5 11.4612 21.5 11.4601 21.5 11.4591C21.5 11.458 21.5 11.457 21.5 11.4559C21.5 11.4549 21.5 11.4538 21.5 11.4528C21.5 11.4517 21.5 11.4507 21.5 11.4496C21.5 11.4485 21.5 11.4475 21.5 11.4464C21.5 11.4454 21.5 11.4443 21.5 11.4433C21.5 11.4422 21.5 11.4412 21.5 11.4401C21.5 11.4391 21.5 11.438 21.5 11.437C21.5 11.4359 21.5 11.4349 21.5 11.4338C21.5 11.4328 21.5 11.4317 21.5 11.4307C21.5 11.4296 21.5 11.4285 21.5 11.4275C21.5 11.4264 21.5 11.4254 21.5 11.4243C21.5 11.4233 21.5 11.4222 21.5 11.4212C21.5 11.4201 21.5 11.4191 21.5 11.418C21.5 11.417 21.5 11.4159 21.5 11.4149C21.5 11.4138 21.5 11.4128 21.5 11.4117C21.5 11.4107 21.5 11.4096 21.5 11.4086C21.5 11.4075 21.5 11.4065 21.5 11.4054C21.5 11.4044 21.5 11.4033 21.5 11.4023C21.5 11.4012 21.5 11.4002 21.5 11.3991C21.5 11.3981 21.5 11.3971 21.5 11.396C21.5 11.395 21.5 11.3939 21.5 11.3929C21.5 11.3918 21.5 11.3908 21.5 11.3897C21.5 11.3887 21.5 11.3876 21.5 11.3866C21.5 11.3855 21.5 11.3845 21.5 11.3834C21.5 11.3824 21.5 11.3813 21.5 11.3803C21.5 11.3792 21.5 11.3782 21.5 11.3772C21.5 11.3761 21.5 11.3751 21.5 11.374C21.5 11.373 21.5 11.3719 21.5 11.3709C21.5 11.3698 21.5 11.3688 21.5 11.3677C21.5 11.3667 21.5 11.3657 21.5 11.3646C21.5 11.3636 21.5 11.3625 21.5 11.3615C21.5 11.3604 21.5 11.3594 21.5 11.3583C21.5 11.3573 21.5 11.3563 21.5 11.3552C21.5 11.3542 21.5 11.3531 21.5 11.3521C21.5 11.351 21.5 11.35 21.5 11.3489C21.5 11.3479 21.5 11.3469 21.5 11.3458C21.5 11.3448 21.5 11.3437 21.5 11.3427C21.5 11.3417 21.5 11.3406 21.5 11.3396C21.5 11.3385 21.5 11.3375 21.5 11.3364C21.5 11.3354 21.5 11.3344 21.5 11.3333C21.5 11.3323 21.5 11.3312 21.5 11.3302C21.5 11.3291 21.5 11.3281 21.5 11.3271C21.5 11.326 21.5 11.325 21.5 11.3239C21.5 11.3229 21.5 11.3219 21.5 11.3208C21.5 11.3198 21.5 11.3187 21.5 11.3177C21.5 11.3167 21.5 11.3156 21.5 11.3146C21.5 11.3135 21.5 11.3125 21.5 11.3115C21.5 11.3104 21.5 11.3094 21.5 11.3083C21.5 11.3073 21.5 11.3063 21.5 11.3052C21.5 11.3042 21.5 11.3032 21.5 11.3021C21.5 11.3011 21.5 11.3 21.5 11.299C21.5 11.298 21.5 11.2969 21.5 11.2959C21.5 11.2949 21.5 11.2938 21.5 11.2928C21.5 11.2917 21.5 11.2907 21.5 11.2897C21.5 11.2886 21.5 11.2876 21.5 11.2866C21.5 11.2855 21.5 11.2845 21.5 11.2834C21.5 11.2824 21.5 11.2814 21.5 11.2803C21.5 11.2793 21.5 11.2783 21.5 11.2772C21.5 11.2762 21.5 11.2752 21.5 11.2741C21.5 11.2731 21.5 11.2721 21.5 11.271C21.5 11.27 21.5 11.2689 21.5 11.2679C21.5 11.2669 21.5 11.2658 21.5 11.2648C21.5 11.2638 21.5 11.2627 21.5 11.2617C21.5 11.2607 21.5 11.2596 21.5 11.2586C21.5 11.2576 21.5 11.2565 21.5 11.2555C21.5 11.2545 21.5 11.2534 21.5 11.2524C21.5 11.2514 21.5 11.2503 21.5 11.2493C21.5 11.2483 21.5 11.2472 21.5 11.2462C21.5 11.2452 21.5 11.2441 21.5 11.2431C21.5 11.2421 21.5 11.241 21.5 11.24C21.5 11.239 21.5 11.238 21.5 11.2369C21.5 11.2359 21.5 11.2349 21.5 11.2338C21.5 11.2328 21.5 11.2318 21.5 11.2307C21.5 11.2297 21.5 11.2287 21.5 11.2276C21.5 11.2266 21.5 11.2256 21.5 11.2245C21.5 11.2235 21.5 11.2225 21.5 11.2215C21.5 11.2204 21.5 11.2194 21.5 11.2184C21.5 11.2173 21.5 11.2163 21.5 11.2153C21.5 11.2143 21.5 11.2132 21.5 11.2122C21.5 11.2112 21.5 11.2101 21.5 11.2091C21.5 11.2081 21.5 11.2071 21.5 11.206C21.5 11.205 21.5 11.204 21.5 11.2029C21.5 11.2019 21.5 11.2009 21.5 11.1999C21.5 11.1988 21.5 11.1978 21.5 11.1968C21.5 11.1957 21.5 11.1947 21.5 11.1937C21.5 11.1927 21.5 11.1916 21.5 11.1906C21.5 11.1896 21.5 11.1886 21.5 11.1875C21.5 11.1865 21.5 11.1855 21.5 11.1845C21.5 11.1834 21.5 11.1824 21.5 11.1814C21.5 11.1804 21.5 11.1793 21.5 11.1783C21.5 11.1773 21.5 11.1763 21.5 11.1752C21.5 11.1742 21.5 11.1732 21.5 11.1722C21.5 11.1711 21.5 11.1701 21.5 11.1691C21.5 11.1681 21.5 11.167 21.5 11.166C21.5 11.165 21.5 11.164 21.5 11.1629C21.5 11.1619 21.5 11.1609 21.5 11.1599C21.5 11.1588 21.5 11.1578 21.5 11.1568C21.5 11.1558 21.5 11.1547 21.5 11.1537C21.5 11.1527 21.5 11.1517 21.5 11.1507C21.5 11.1496 21.5 11.1486 21.5 11.1476C21.5 11.1466 21.5 11.1455 21.5 11.1445C21.5 11.1435 21.5 11.1425 21.5 11.1415C21.5 11.1404 21.5 11.1394 21.5 11.1384C21.5 11.1374 21.5 11.1364 21.5 11.1353C21.5 11.1343 21.5 11.1333 21.5 11.1323C21.5 11.1313 21.5 11.1302 21.5 11.1292C21.5 11.1282 21.5 11.1272 21.5 11.1262C21.5 11.1251 21.5 11.1241 21.5 11.1231C21.5 11.1221 21.5 11.1211 21.5 11.12C21.5 11.119 21.5 11.118 21.5 11.117C21.5 11.116 21.5 11.1149 21.5 11.1139C21.5 11.1129 21.5 11.1119 21.5 11.1109C21.5 11.1098 21.5 11.1088 21.5 11.1078C21.5 11.1068 21.5 11.1058 21.5 11.1048C21.5 11.1037 21.5 11.1027 21.5 11.1017C21.5 11.1007 21.5 11.0997 21.5 11.0987C21.5 11.0976 21.5 11.0966 21.5 11.0956C21.5 11.0946 21.5 11.0936 21.5 11.0926C21.5 11.0915 21.5 11.0905 21.5 11.0895C21.5 11.0885 21.5 11.0875 21.5 11.0865C21.5 11.0854 21.5 11.0844 21.5 11.0834C21.5 11.0824 21.5 11.0814 21.5 11.0804C21.5 11.0794 21.5 11.0783 21.5 11.0773C21.5 11.0763 21.5 11.0753 21.5 11.0743C21.5 11.0733 21.5 11.0723 21.5 11.0712C21.5 11.0702 21.5 11.0692 21.5 11.0682C21.5 11.0672 21.5 11.0662 21.5 11.0652C21.5 11.0641 21.5 11.0631 21.5 11.0621C21.5 11.0611 21.5 11.0601 21.5 11.0591C21.5 11.0581 21.5 11.0571 21.5 11.056C21.5 11.055 21.5 11.054 21.5 11.053C21.5 11.052 21.5 11.051 21.5 11.05C21.5 11.049 21.5 11.0479 21.5 11.0469C21.5 11.0459 21.5 11.0449 21.5 11.0439C21.5 11.0429 21.5 11.0419 21.5 11.0409C21.5 11.0399 21.5 11.0388 21.5 11.0378C21.5 11.0368 21.5 11.0358 21.5 11.0348C21.5 11.0338 21.5 11.0328 21.5 11.0318C21.5 11.0308 21.5 11.0298 21.5 11.0287C21.5 11.0277 21.5 11.0267 21.5 11.0257C21.5 11.0247 21.5 11.0237 21.5 11.0227C21.5 11.0217 21.5 11.0207 21.5 11.0197C21.5 11.0187 21.5 11.0176 21.5 11.0166C21.5 11.0156 21.5 11.0146 21.5 11.0136C21.5 11.0126 21.5 11.0116 21.5 11.0106C21.5 11.0096 21.5 11.0086 21.5 11.0076C21.5 11.0066 21.5 11.0056 21.5 11.0046C21.5 11.0035 21.5 11.0025 21.5 11.0015C21.5 11.0005 21.5 10.9995 21.5 10.9985C21.5 10.9975 21.5 10.9965 21.5 10.9955C21.5 10.9945 21.5 10.9935 21.5 10.9925C21.5 10.9915 21.5 10.9905 21.5 10.9895C21.5 10.9885 21.5 10.9874 21.5 10.9864C21.5 10.9854 21.5 10.9844 21.5 10.9834C21.5 10.9824 21.5 10.9814 21.5 10.9804C21.5 10.9794 21.5 10.9784 21.5 10.9774C21.5 10.9764 21.5 10.9754 21.5 10.9744C21.5 10.9734 21.5 10.9724 21.5 10.9714C21.5 10.9704 21.5 10.9694 21.5 10.9684C21.5 10.9674 21.5 10.9664 21.5 10.9654C21.5 10.9644 21.5 10.9634 21.5 10.9624C21.5 10.9614 21.5 10.9604 21.5 10.9593C21.5 10.9583 21.5 10.9573 21.5 10.9563C21.5 10.9553 21.5 10.9543 21.5 10.9533C21.5 10.9523 21.5 10.9513 21.5 10.9503C21.5 10.9493 21.5 10.9483 21.5 10.9473C21.5 10.9463 21.5 10.9453 21.5 10.9443C21.5 10.9433 21.5 10.9423 21.5 10.9413C21.5 10.9403 21.5 10.9393 21.5 10.9383C21.5 10.9373 21.5 10.9363 21.5 10.9353C21.5 10.9343 21.5 10.9333 21.5 10.9323C21.5 10.9313 21.5 10.9303 21.5 10.9293C21.5 10.9283 21.5 10.9273 21.5 10.9263C21.5 10.9253 21.5 10.9243 21.5 10.9233C21.5 10.9223 21.5 10.9213 21.5 10.9203C21.5 10.9194 21.5 10.9184 21.5 10.9174C21.5 10.9164 21.5 10.9154 21.5 10.9144C21.5 10.9134 21.5 10.9124 21.5 10.9114C21.5 10.9104 21.5 10.9094 21.5 10.9084C21.5 10.9074 21.5 10.9064 21.5 10.9054C21.5 10.9044 21.5 10.9034 21.5 10.9024C21.5 10.9014 21.5 10.9004 21.5 10.8994C21.5 10.8984 21.5 10.8974 21.5 10.8964C21.5 10.8954 21.5 10.8944 21.5 10.8934C21.5 10.8924 21.5 10.8915 21.5 10.8905C21.5 10.8895 21.5 10.8885 21.5 10.8875C21.5 10.8865 21.5 10.8855 21.5 10.8845C21.5 10.8835 21.5 10.8825 21.5 10.8815C21.5 10.8805 21.5 10.8795 21.5 10.8785C21.5 10.8775 21.5 10.8765 21.5 10.8756C21.5 10.8746 21.5 10.8736 21.5 10.8726C21.5 10.8716 21.5 10.8706 21.5 10.8696C21.5 10.8686 21.5 10.8676 21.5 10.8666C21.5 10.8656 21.5 10.8646 21.5 10.8636C21.5 10.8626 21.5 10.8617 21.5 10.8607C21.5 10.8597 21.5 10.8587 21.5 10.8577C21.5 10.8567 21.5 10.8557 21.5 10.8547C21.5 10.8537 21.5 10.8527 21.5 10.8517C21.5 10.8508 21.5 10.8498 21.5 10.8488C21.5 10.8478 21.5 10.8468 21.5 10.8458C21.5 10.8448 21.5 10.8438 21.5 10.8428C21.5 10.8418 21.5 10.8409 21.5 10.8399C21.5 10.8389 21.5 10.8379 21.5 10.8369C21.5 10.8359 21.5 10.8349 21.5 10.8339C21.5 10.8329 21.5 10.832 21.5 10.831C21.5 10.83 21.5 10.829 21.5 10.828C21.5 10.827 21.5 10.826 21.5 10.825C21.5 10.8241 21.5 10.8231 21.5 10.8221C21.5 10.8211 21.5 10.8201 21.5 10.8191C21.5 10.8181 21.5 10.8171 21.5 10.8162C21.5 10.8152 21.5 10.8142 21.5 10.8132C21.5 10.8122 21.5 10.8112 21.5 10.8102C21.5 10.8092 21.5 10.8083 21.5 10.8073C21.5 10.8063 21.5 10.8053 21.5 10.8043C21.5 10.8033 21.5 10.8023 21.5 10.8014C21.5 10.8004 21.5 10.7994 21.5 10.7984C21.5 10.7974 21.5 10.7964 21.5 10.7955C21.5 10.7945 21.5 10.7935 21.5 10.7925C21.5 10.7915 21.5 10.7905 21.5 10.7895C21.5 10.7886 21.5 10.7876 21.5 10.7866C21.5 10.7856 21.5 10.7846 21.5 10.7836C21.5 10.7827 21.5 10.7817 21.5 10.7807C21.5 10.7797 21.5 10.7787 21.5 10.7778C21.5 10.7768 21.5 10.7758 21.5 10.7748C21.5 10.7738 21.5 10.7728 21.5 10.7719C21.5 10.7709 21.5 10.7699 21.5 10.7689C21.5 10.7679 21.5 10.7669 21.5 10.766C21.5 10.765 21.5 10.764 21.5 10.763C21.5 10.762 21.5 10.7611 21.5 10.7601C21.5 10.7591 21.5 10.7581 21.5 10.7571C21.5 10.7562 21.5 10.7552 21.5 10.7542C21.5 10.7532 21.5 10.7522 21.5 10.7513C21.5 10.7503 21.5 10.7493 21.5 10.7483C21.5 10.7473 21.5 10.7464 21.5 10.7454C21.5 10.7444 21.5 10.7434 21.5 10.7424C21.5 10.7415 21.5 10.7405 21.5 10.7395C21.5 10.7385 21.5 10.7376 21.5 10.7366C21.5 10.7356 21.5 10.7346 21.5 10.7336C21.5 10.7327 21.5 10.7317 21.5 10.7307C21.5 10.7297 21.5 10.7288 21.5 10.7278C21.5 10.7268 21.5 10.7258 21.5 10.7248C21.5 10.7239 21.5 10.7229 21.5 10.7219C21.5 10.7209 21.5 10.72 21.5 10.719C21.5 10.718 21.5 10.717 21.5 10.7161C21.5 10.7151 21.5 10.7141 21.5 10.7131C21.5 10.7122 21.5 10.7112 21.5 10.7102C21.5 10.7092 21.5 10.7083 21.5 10.7073C21.5 10.7063 21.5 10.7053 21.5 10.7044C21.5 10.7034 21.5 10.7024 21.5 10.7014C21.5 10.7005 21.5 10.6995 21.5 10.6985C21.5 10.6975 21.5 10.6966 21.5 10.6956C21.5 10.6946 21.5 10.6936 21.5 10.6927C21.5 10.6917 21.5 10.6907 21.5 10.6897C21.5 10.6888 21.5 10.6878 21.5 10.6868C21.5 10.6859 21.5 10.6849 21.5 10.6839C21.5 10.6829 21.5 10.682 21.5 10.681C21.5 10.68 21.5 10.679 21.5 10.6781C21.5 10.6771 21.5 10.6761 21.5 10.6752C21.5 10.6742 21.5 10.6732 21.5 10.6722C21.5 10.6713 21.5 10.6703 21.5 10.6693C21.5 10.6684 21.5 10.6674 21.5 10.6664C21.5 10.6654 21.5 10.6645 21.5 10.6635C21.5 10.6625 21.5 10.6616 21.5 10.6606C21.5 10.6596 21.5 10.6587 21.5 10.6577C21.5 10.6567 21.5 10.6557 21.5 10.6548C21.5 10.6538 21.5 10.6528 21.5 10.6519C21.5 10.6509 21.5 10.6499 21.5 10.649C21.5 10.648 21.5 10.647 21.5 10.6461C21.5 10.6451 21.5 10.6441 21.5 10.6432C21.5 10.6422 21.5 10.6412 21.5 10.6402C21.5 10.6393 21.5 10.6383 21.5 10.6373C21.5 10.6364 21.5 10.6354 21.5 10.6344C21.5 10.6335 21.5 10.6325 21.5 10.6315C21.5 10.6306 21.5 10.6296 21.5 10.6286C21.5 10.6277 21.5 10.6267 21.5 10.6257C21.5 10.6248 21.5 10.6238 21.5 10.6228C21.5 10.6219 21.5 10.6209 21.5 10.6199C21.5 10.619 21.5 10.618 21.5 10.6171C21.5 10.6161 21.5 10.6151 21.5 10.6142C21.5 10.6132 21.5 10.6122 21.5 10.6113C21.5 10.6103 21.5 10.6093 21.5 10.6084C21.5 10.6074 21.5 10.6064 21.5 10.6055C21.5 10.6045 21.5 10.6035 21.5 10.6026C21.5 10.6016 21.5 10.6007 21.5 10.5997C21.5 10.5987 21.5 10.5978 21.5 10.5968C21.5 10.5958 21.5 10.5949 21.5 10.5939C21.5 10.593 21.5 10.592 21.5 10.591C21.5 10.5901 21.5 10.5891 21.5 10.5881C21.5 10.5872 21.5 10.5862 21.5 10.5853C21.5 10.5843 21.5 10.5833 21.5 10.5824C21.5 10.5814 21.5 10.5804 21.5 10.5795C21.5 10.5785 21.5 10.5776 21.5 10.5766C21.5 10.5756 21.5 10.5747 21.5 10.5737C21.5 10.5728 21.5 10.5718 21.5 10.5708C21.5 10.5699 21.5 10.5689 21.5 10.568C21.5 10.567 21.5 10.566 21.5 10.5651C21.5 10.5641 21.5 10.5632 21.5 10.5622C21.5 10.5612 21.5 10.5603 21.5 10.5593C21.5 10.5584 21.5 10.5574 21.5 10.5565C21.5 10.5555 21.5 10.5545 21.5 10.5536C21.5 10.5526 21.5 10.5517 21.5 10.5507C21.5 10.5497 21.5 10.5488 21.5 10.5478C21.5 10.5469 21.5 10.5459 21.5 10.545C21.5 10.544 21.5 10.543 21.5 10.5421C21.5 10.5411 21.5 10.5402 21.5 10.5392C21.5 10.5383 21.5 10.5373 21.5 10.5363C21.5 10.5354 21.5 10.5344 21.5 10.5335C21.5 10.5325 21.5 10.5316 21.5 10.5306C21.5 10.5296 21.5 10.5287 21.5 10.5277C21.5 10.5268 21.5 10.5258 21.5 10.5249C21.5 10.5239 21.5 10.523 21.5 10.522C21.5 10.5211 21.5 10.5201 21.5 10.5191C21.5 10.5182 21.5 10.5172 21.5 10.5163C21.5 10.5153 21.5 10.5144 21.5 10.5134C21.5 10.5125 21.5 10.5115 21.5 10.5106C21.5 10.5096 21.5 10.5086 21.5 10.5077C21.5 10.5067 21.5 10.5058 21.5 10.5048C21.5 10.5039 21.5 10.5029 21.5 10.502C21.5 10.501 21.5 10.5001 21.5 10.4991C21.5 10.4982 21.5 10.4972 21.5 10.4963C21.5 10.4953 21.5 10.4944 21.5 10.4934C21.5 10.4925 21.5 10.4915 21.5 10.4906C21.5 10.4896 21.5 10.4886 21.5 10.4877C21.5 10.4867 21.5 10.4858 21.5 10.4848C21.5 10.4839 21.5 10.4829 21.5 10.482C21.5 10.481 21.5 10.4801 21.5 10.4791C21.5 10.4782 21.5 10.4772 21.5 10.4763C21.5 10.4753 21.5 10.4744 21.5 10.4734C21.5 10.4725 21.5 10.4715 21.5 10.4706C21.5 10.4696 21.5 10.4687 21.5 10.4677C21.5 10.4668 21.5 10.4658 21.5 10.4649C21.5 10.464 21.5 10.463 21.5 10.4621C21.5 10.4611 21.5 10.4602 21.5 10.4592C21.5 10.4583 21.5 10.4573 21.5 10.4564C21.5 10.4554 21.5 10.4545 21.5 10.4535C21.5 10.4526 21.5 10.4516 21.5 10.4507C21.5 10.4497 21.5 10.4488 21.5 10.4478C21.5 10.4469 21.5 10.4459 21.5 10.445C21.5 10.4441 21.5 10.4431 21.5 10.4422C21.5 10.4412 21.5 10.4403 21.5 10.4393C21.5 10.4384 21.5 10.4374 21.5 10.4365C21.5 10.4355 21.5 10.4346 21.5 10.4337C21.5 10.4327 21.5 10.4318 21.5 10.4308C21.5 10.4299 21.5 10.4289 21.5 10.428C21.5 10.427 21.5 10.4261 21.5 10.4251C21.5 10.4242 21.5 10.4233 21.5 10.4223C21.5 10.4214 21.5 10.4204 21.5 10.4195C21.5 10.4185 21.5 10.4176 21.5 10.4167H21ZM21 11.9914H20.5C20.5 17.3208 16.5071 19.9308 13.9013 21.0691L14.1014 21.5273L14.3016 21.9855C17.015 20.8002 21.5 17.9381 21.5 11.9914H21ZM9.89856 21.5273L10.0987 21.0691C7.49292 19.9308 3.5 17.3208 3.5 11.9914H3H2.5C2.5 17.9381 6.98501 20.8002 9.69841 21.9855L9.89856 21.5273ZM3 11.9914H3.5C3.5 11.9902 3.5 11.9891 3.5 11.988C3.5 11.9869 3.5 11.9858 3.5 11.9847C3.5 11.9836 3.5 11.9825 3.5 11.9814C3.5 11.9803 3.5 11.9792 3.5 11.9781C3.5 11.9769 3.5 11.9758 3.5 11.9747C3.5 11.9736 3.5 11.9725 3.5 11.9714C3.5 11.9703 3.5 11.9692 3.5 11.9681C3.5 11.967 3.5 11.9659 3.5 11.9648C3.5 11.9637 3.5 11.9626 3.5 11.9614C3.5 11.9603 3.5 11.9592 3.5 11.9581C3.5 11.957 3.5 11.9559 3.5 11.9548C3.5 11.9537 3.5 11.9526 3.5 11.9515C3.5 11.9504 3.5 11.9493 3.5 11.9482C3.5 11.9471 3.5 11.946 3.5 11.9449C3.5 11.9438 3.5 11.9427 3.5 11.9416C3.5 11.9405 3.5 11.9393 3.5 11.9382C3.5 11.9371 3.5 11.936 3.5 11.9349C3.5 11.9338 3.5 11.9327 3.5 11.9316C3.5 11.9305 3.5 11.9294 3.5 11.9283C3.5 11.9272 3.5 11.9261 3.5 11.925C3.5 11.9239 3.5 11.9228 3.5 11.9217C3.5 11.9206 3.5 11.9195 3.5 11.9184C3.5 11.9173 3.5 11.9162 3.5 11.9151C3.5 11.914 3.5 11.9129 3.5 11.9118C3.5 11.9107 3.5 11.9096 3.5 11.9085C3.5 11.9074 3.5 11.9063 3.5 11.9052C3.5 11.9041 3.5 11.903 3.5 11.9019C3.5 11.9008 3.5 11.8997 3.5 11.8986C3.5 11.8975 3.5 11.8964 3.5 11.8953C3.5 11.8942 3.5 11.8931 3.5 11.892C3.5 11.8909 3.5 11.8898 3.5 11.8887C3.5 11.8876 3.5 11.8865 3.5 11.8854C3.5 11.8843 3.5 11.8832 3.5 11.8821C3.5 11.881 3.5 11.8799 3.5 11.8788C3.5 11.8777 3.5 11.8766 3.5 11.8755C3.5 11.8744 3.5 11.8733 3.5 11.8722C3.5 11.8711 3.5 11.87 3.5 11.8689C3.5 11.8678 3.5 11.8667 3.5 11.8656C3.5 11.8645 3.5 11.8634 3.5 11.8623C3.5 11.8612 3.5 11.8602 3.5 11.8591C3.5 11.858 3.5 11.8569 3.5 11.8558C3.5 11.8547 3.5 11.8536 3.5 11.8525C3.5 11.8514 3.5 11.8503 3.5 11.8492C3.5 11.8481 3.5 11.847 3.5 11.8459C3.5 11.8448 3.5 11.8437 3.5 11.8426C3.5 11.8415 3.5 11.8404 3.5 11.8393C3.5 11.8383 3.5 11.8372 3.5 11.8361C3.5 11.835 3.5 11.8339 3.5 11.8328C3.5 11.8317 3.5 11.8306 3.5 11.8295C3.5 11.8284 3.5 11.8273 3.5 11.8262C3.5 11.8251 3.5 11.824 3.5 11.823C3.5 11.8219 3.5 11.8208 3.5 11.8197C3.5 11.8186 3.5 11.8175 3.5 11.8164C3.5 11.8153 3.5 11.8142 3.5 11.8131C3.5 11.812 3.5 11.8109 3.5 11.8099C3.5 11.8088 3.5 11.8077 3.5 11.8066C3.5 11.8055 3.5 11.8044 3.5 11.8033C3.5 11.8022 3.5 11.8011 3.5 11.8C3.5 11.799 3.5 11.7979 3.5 11.7968C3.5 11.7957 3.5 11.7946 3.5 11.7935C3.5 11.7924 3.5 11.7913 3.5 11.7902C3.5 11.7892 3.5 11.7881 3.5 11.787C3.5 11.7859 3.5 11.7848 3.5 11.7837C3.5 11.7826 3.5 11.7815 3.5 11.7804C3.5 11.7794 3.5 11.7783 3.5 11.7772C3.5 11.7761 3.5 11.775 3.5 11.7739C3.5 11.7728 3.5 11.7717 3.5 11.7707C3.5 11.7696 3.5 11.7685 3.5 11.7674C3.5 11.7663 3.5 11.7652 3.5 11.7641C3.5 11.7631 3.5 11.762 3.5 11.7609C3.5 11.7598 3.5 11.7587 3.5 11.7576C3.5 11.7565 3.5 11.7555 3.5 11.7544C3.5 11.7533 3.5 11.7522 3.5 11.7511C3.5 11.75 3.5 11.7489 3.5 11.7479C3.5 11.7468 3.5 11.7457 3.5 11.7446C3.5 11.7435 3.5 11.7424 3.5 11.7414C3.5 11.7403 3.5 11.7392 3.5 11.7381C3.5 11.737 3.5 11.7359 3.5 11.7349C3.5 11.7338 3.5 11.7327 3.5 11.7316C3.5 11.7305 3.5 11.7294 3.5 11.7284C3.5 11.7273 3.5 11.7262 3.5 11.7251C3.5 11.724 3.5 11.7229 3.5 11.7219C3.5 11.7208 3.5 11.7197 3.5 11.7186C3.5 11.7175 3.5 11.7165 3.5 11.7154C3.5 11.7143 3.5 11.7132 3.5 11.7121C3.5 11.7111 3.5 11.71 3.5 11.7089C3.5 11.7078 3.5 11.7067 3.5 11.7057C3.5 11.7046 3.5 11.7035 3.5 11.7024C3.5 11.7013 3.5 11.7003 3.5 11.6992C3.5 11.6981 3.5 11.697 3.5 11.6959C3.5 11.6949 3.5 11.6938 3.5 11.6927C3.5 11.6916 3.5 11.6905 3.5 11.6895C3.5 11.6884 3.5 11.6873 3.5 11.6862C3.5 11.6851 3.5 11.6841 3.5 11.683C3.5 11.6819 3.5 11.6808 3.5 11.6798C3.5 11.6787 3.5 11.6776 3.5 11.6765C3.5 11.6755 3.5 11.6744 3.5 11.6733C3.5 11.6722 3.5 11.6711 3.5 11.6701C3.5 11.669 3.5 11.6679 3.5 11.6668C3.5 11.6658 3.5 11.6647 3.5 11.6636C3.5 11.6625 3.5 11.6615 3.5 11.6604C3.5 11.6593 3.5 11.6582 3.5 11.6572C3.5 11.6561 3.5 11.655 3.5 11.6539C3.5 11.6529 3.5 11.6518 3.5 11.6507C3.5 11.6496 3.5 11.6486 3.5 11.6475C3.5 11.6464 3.5 11.6453 3.5 11.6443C3.5 11.6432 3.5 11.6421 3.5 11.641C3.5 11.64 3.5 11.6389 3.5 11.6378C3.5 11.6367 3.5 11.6357 3.5 11.6346C3.5 11.6335 3.5 11.6325 3.5 11.6314C3.5 11.6303 3.5 11.6292 3.5 11.6282C3.5 11.6271 3.5 11.626 3.5 11.625C3.5 11.6239 3.5 11.6228 3.5 11.6217C3.5 11.6207 3.5 11.6196 3.5 11.6185C3.5 11.6175 3.5 11.6164 3.5 11.6153C3.5 11.6142 3.5 11.6132 3.5 11.6121C3.5 11.611 3.5 11.61 3.5 11.6089C3.5 11.6078 3.5 11.6067 3.5 11.6057C3.5 11.6046 3.5 11.6035 3.5 11.6025C3.5 11.6014 3.5 11.6003 3.5 11.5993C3.5 11.5982 3.5 11.5971 3.5 11.5961C3.5 11.595 3.5 11.5939 3.5 11.5928C3.5 11.5918 3.5 11.5907 3.5 11.5896C3.5 11.5886 3.5 11.5875 3.5 11.5864C3.5 11.5854 3.5 11.5843 3.5 11.5832C3.5 11.5822 3.5 11.5811 3.5 11.58C3.5 11.579 3.5 11.5779 3.5 11.5768C3.5 11.5758 3.5 11.5747 3.5 11.5736C3.5 11.5726 3.5 11.5715 3.5 11.5704C3.5 11.5694 3.5 11.5683 3.5 11.5672C3.5 11.5662 3.5 11.5651 3.5 11.564C3.5 11.563 3.5 11.5619 3.5 11.5608C3.5 11.5598 3.5 11.5587 3.5 11.5576C3.5 11.5566 3.5 11.5555 3.5 11.5545C3.5 11.5534 3.5 11.5523 3.5 11.5513C3.5 11.5502 3.5 11.5491 3.5 11.5481C3.5 11.547 3.5 11.5459 3.5 11.5449C3.5 11.5438 3.5 11.5427 3.5 11.5417C3.5 11.5406 3.5 11.5396 3.5 11.5385C3.5 11.5374 3.5 11.5364 3.5 11.5353C3.5 11.5342 3.5 11.5332 3.5 11.5321C3.5 11.5311 3.5 11.53 3.5 11.5289C3.5 11.5279 3.5 11.5268 3.5 11.5257C3.5 11.5247 3.5 11.5236 3.5 11.5226C3.5 11.5215 3.5 11.5204 3.5 11.5194C3.5 11.5183 3.5 11.5173 3.5 11.5162C3.5 11.5151 3.5 11.5141 3.5 11.513C3.5 11.512 3.5 11.5109 3.5 11.5098C3.5 11.5088 3.5 11.5077 3.5 11.5067C3.5 11.5056 3.5 11.5045 3.5 11.5035C3.5 11.5024 3.5 11.5014 3.5 11.5003C3.5 11.4992 3.5 11.4982 3.5 11.4971C3.5 11.4961 3.5 11.495 3.5 11.494C3.5 11.4929 3.5 11.4918 3.5 11.4908C3.5 11.4897 3.5 11.4887 3.5 11.4876C3.5 11.4865 3.5 11.4855 3.5 11.4844C3.5 11.4834 3.5 11.4823 3.5 11.4813C3.5 11.4802 3.5 11.4791 3.5 11.4781C3.5 11.477 3.5 11.476 3.5 11.4749C3.5 11.4739 3.5 11.4728 3.5 11.4718C3.5 11.4707 3.5 11.4696 3.5 11.4686C3.5 11.4675 3.5 11.4665 3.5 11.4654C3.5 11.4644 3.5 11.4633 3.5 11.4623C3.5 11.4612 3.5 11.4601 3.5 11.4591C3.5 11.458 3.5 11.457 3.5 11.4559C3.5 11.4549 3.5 11.4538 3.5 11.4528C3.5 11.4517 3.5 11.4507 3.5 11.4496C3.5 11.4485 3.5 11.4475 3.5 11.4464C3.5 11.4454 3.5 11.4443 3.5 11.4433C3.5 11.4422 3.5 11.4412 3.5 11.4401C3.5 11.4391 3.5 11.438 3.5 11.437C3.5 11.4359 3.5 11.4349 3.5 11.4338C3.5 11.4328 3.5 11.4317 3.5 11.4307C3.5 11.4296 3.5 11.4285 3.5 11.4275C3.5 11.4264 3.5 11.4254 3.5 11.4243C3.5 11.4233 3.5 11.4222 3.5 11.4212C3.5 11.4201 3.5 11.4191 3.5 11.418C3.5 11.417 3.5 11.4159 3.5 11.4149C3.5 11.4138 3.5 11.4128 3.5 11.4117C3.5 11.4107 3.5 11.4096 3.5 11.4086C3.5 11.4075 3.5 11.4065 3.5 11.4054C3.5 11.4044 3.5 11.4033 3.5 11.4023C3.5 11.4012 3.5 11.4002 3.5 11.3991C3.5 11.3981 3.5 11.3971 3.5 11.396C3.5 11.395 3.5 11.3939 3.5 11.3929C3.5 11.3918 3.5 11.3908 3.5 11.3897C3.5 11.3887 3.5 11.3876 3.5 11.3866C3.5 11.3855 3.5 11.3845 3.5 11.3834C3.5 11.3824 3.5 11.3813 3.5 11.3803C3.5 11.3792 3.5 11.3782 3.5 11.3772C3.5 11.3761 3.5 11.3751 3.5 11.374C3.5 11.373 3.5 11.3719 3.5 11.3709C3.5 11.3698 3.5 11.3688 3.5 11.3677C3.5 11.3667 3.5 11.3657 3.5 11.3646C3.5 11.3636 3.5 11.3625 3.5 11.3615C3.5 11.3604 3.5 11.3594 3.5 11.3583C3.5 11.3573 3.5 11.3563 3.5 11.3552C3.5 11.3542 3.5 11.3531 3.5 11.3521C3.5 11.351 3.5 11.35 3.5 11.3489C3.5 11.3479 3.5 11.3469 3.5 11.3458C3.5 11.3448 3.5 11.3437 3.5 11.3427C3.5 11.3417 3.5 11.3406 3.5 11.3396C3.5 11.3385 3.5 11.3375 3.5 11.3364C3.5 11.3354 3.5 11.3344 3.5 11.3333C3.5 11.3323 3.5 11.3312 3.5 11.3302C3.5 11.3291 3.5 11.3281 3.5 11.3271C3.5 11.326 3.5 11.325 3.5 11.3239C3.5 11.3229 3.5 11.3219 3.5 11.3208C3.5 11.3198 3.5 11.3187 3.5 11.3177C3.5 11.3167 3.5 11.3156 3.5 11.3146C3.5 11.3135 3.5 11.3125 3.5 11.3115C3.5 11.3104 3.5 11.3094 3.5 11.3083C3.5 11.3073 3.5 11.3063 3.5 11.3052C3.5 11.3042 3.5 11.3032 3.5 11.3021C3.5 11.3011 3.5 11.3 3.5 11.299C3.5 11.298 3.5 11.2969 3.5 11.2959C3.5 11.2949 3.5 11.2938 3.5 11.2928C3.5 11.2917 3.5 11.2907 3.5 11.2897C3.5 11.2886 3.5 11.2876 3.5 11.2866C3.5 11.2855 3.5 11.2845 3.5 11.2834C3.5 11.2824 3.5 11.2814 3.5 11.2803C3.5 11.2793 3.5 11.2783 3.5 11.2772C3.5 11.2762 3.5 11.2752 3.5 11.2741C3.5 11.2731 3.5 11.2721 3.5 11.271C3.5 11.27 3.5 11.2689 3.5 11.2679C3.5 11.2669 3.5 11.2658 3.5 11.2648C3.5 11.2638 3.5 11.2627 3.5 11.2617C3.5 11.2607 3.5 11.2596 3.5 11.2586C3.5 11.2576 3.5 11.2565 3.5 11.2555C3.5 11.2545 3.5 11.2534 3.5 11.2524C3.5 11.2514 3.5 11.2503 3.5 11.2493C3.5 11.2483 3.5 11.2472 3.5 11.2462C3.5 11.2452 3.5 11.2441 3.5 11.2431C3.5 11.2421 3.5 11.241 3.5 11.24C3.5 11.239 3.5 11.238 3.5 11.2369C3.5 11.2359 3.5 11.2349 3.5 11.2338C3.5 11.2328 3.5 11.2318 3.5 11.2307C3.5 11.2297 3.5 11.2287 3.5 11.2276C3.5 11.2266 3.5 11.2256 3.5 11.2245C3.5 11.2235 3.5 11.2225 3.5 11.2215C3.5 11.2204 3.5 11.2194 3.5 11.2184C3.5 11.2173 3.5 11.2163 3.5 11.2153C3.5 11.2143 3.5 11.2132 3.5 11.2122C3.5 11.2112 3.5 11.2101 3.5 11.2091C3.5 11.2081 3.5 11.2071 3.5 11.206C3.5 11.205 3.5 11.204 3.5 11.2029C3.5 11.2019 3.5 11.2009 3.5 11.1999C3.5 11.1988 3.5 11.1978 3.5 11.1968C3.5 11.1957 3.5 11.1947 3.5 11.1937C3.5 11.1927 3.5 11.1916 3.5 11.1906C3.5 11.1896 3.5 11.1886 3.5 11.1875C3.5 11.1865 3.5 11.1855 3.5 11.1845C3.5 11.1834 3.5 11.1824 3.5 11.1814C3.5 11.1804 3.5 11.1793 3.5 11.1783C3.5 11.1773 3.5 11.1763 3.5 11.1752C3.5 11.1742 3.5 11.1732 3.5 11.1722C3.5 11.1711 3.5 11.1701 3.5 11.1691C3.5 11.1681 3.5 11.167 3.5 11.166C3.5 11.165 3.5 11.164 3.5 11.1629C3.5 11.1619 3.5 11.1609 3.5 11.1599C3.5 11.1588 3.5 11.1578 3.5 11.1568C3.5 11.1558 3.5 11.1547 3.5 11.1537C3.5 11.1527 3.5 11.1517 3.5 11.1507C3.5 11.1496 3.5 11.1486 3.5 11.1476C3.5 11.1466 3.5 11.1455 3.5 11.1445C3.5 11.1435 3.5 11.1425 3.5 11.1415C3.5 11.1404 3.5 11.1394 3.5 11.1384C3.5 11.1374 3.5 11.1364 3.5 11.1353C3.5 11.1343 3.5 11.1333 3.5 11.1323C3.5 11.1313 3.5 11.1302 3.5 11.1292C3.5 11.1282 3.5 11.1272 3.5 11.1262C3.5 11.1251 3.5 11.1241 3.5 11.1231C3.5 11.1221 3.5 11.1211 3.5 11.12C3.5 11.119 3.5 11.118 3.5 11.117C3.5 11.116 3.5 11.1149 3.5 11.1139C3.5 11.1129 3.5 11.1119 3.5 11.1109C3.5 11.1098 3.5 11.1088 3.5 11.1078C3.5 11.1068 3.5 11.1058 3.5 11.1048C3.5 11.1037 3.5 11.1027 3.5 11.1017C3.5 11.1007 3.5 11.0997 3.5 11.0987C3.5 11.0976 3.5 11.0966 3.5 11.0956C3.5 11.0946 3.5 11.0936 3.5 11.0926C3.5 11.0915 3.5 11.0905 3.5 11.0895C3.5 11.0885 3.5 11.0875 3.5 11.0865C3.5 11.0854 3.5 11.0844 3.5 11.0834C3.5 11.0824 3.5 11.0814 3.5 11.0804C3.5 11.0794 3.5 11.0783 3.5 11.0773C3.5 11.0763 3.5 11.0753 3.5 11.0743C3.5 11.0733 3.5 11.0723 3.5 11.0712C3.5 11.0702 3.5 11.0692 3.5 11.0682C3.5 11.0672 3.5 11.0662 3.5 11.0652C3.5 11.0641 3.5 11.0631 3.5 11.0621C3.5 11.0611 3.5 11.0601 3.5 11.0591C3.5 11.0581 3.5 11.0571 3.5 11.056C3.5 11.055 3.5 11.054 3.5 11.053C3.5 11.052 3.5 11.051 3.5 11.05C3.5 11.049 3.5 11.0479 3.5 11.0469C3.5 11.0459 3.5 11.0449 3.5 11.0439C3.5 11.0429 3.5 11.0419 3.5 11.0409C3.5 11.0399 3.5 11.0388 3.5 11.0378C3.5 11.0368 3.5 11.0358 3.5 11.0348C3.5 11.0338 3.5 11.0328 3.5 11.0318C3.5 11.0308 3.5 11.0298 3.5 11.0287C3.5 11.0277 3.5 11.0267 3.5 11.0257C3.5 11.0247 3.5 11.0237 3.5 11.0227C3.5 11.0217 3.5 11.0207 3.5 11.0197C3.5 11.0187 3.5 11.0176 3.5 11.0166C3.5 11.0156 3.5 11.0146 3.5 11.0136C3.5 11.0126 3.5 11.0116 3.5 11.0106C3.5 11.0096 3.5 11.0086 3.5 11.0076C3.5 11.0066 3.5 11.0056 3.5 11.0046C3.5 11.0035 3.5 11.0025 3.5 11.0015C3.5 11.0005 3.5 10.9995 3.5 10.9985C3.5 10.9975 3.5 10.9965 3.5 10.9955C3.5 10.9945 3.5 10.9935 3.5 10.9925C3.5 10.9915 3.5 10.9905 3.5 10.9895C3.5 10.9885 3.5 10.9874 3.5 10.9864C3.5 10.9854 3.5 10.9844 3.5 10.9834C3.5 10.9824 3.5 10.9814 3.5 10.9804C3.5 10.9794 3.5 10.9784 3.5 10.9774C3.5 10.9764 3.5 10.9754 3.5 10.9744C3.5 10.9734 3.5 10.9724 3.5 10.9714C3.5 10.9704 3.5 10.9694 3.5 10.9684C3.5 10.9674 3.5 10.9664 3.5 10.9654C3.5 10.9644 3.5 10.9634 3.5 10.9624C3.5 10.9614 3.5 10.9604 3.5 10.9593C3.5 10.9583 3.5 10.9573 3.5 10.9563C3.5 10.9553 3.5 10.9543 3.5 10.9533C3.5 10.9523 3.5 10.9513 3.5 10.9503C3.5 10.9493 3.5 10.9483 3.5 10.9473C3.5 10.9463 3.5 10.9453 3.5 10.9443C3.5 10.9433 3.5 10.9423 3.5 10.9413C3.5 10.9403 3.5 10.9393 3.5 10.9383C3.5 10.9373 3.5 10.9363 3.5 10.9353C3.5 10.9343 3.5 10.9333 3.5 10.9323C3.5 10.9313 3.5 10.9303 3.5 10.9293C3.5 10.9283 3.5 10.9273 3.5 10.9263C3.5 10.9253 3.5 10.9243 3.5 10.9233C3.5 10.9223 3.5 10.9213 3.5 10.9203C3.5 10.9194 3.5 10.9184 3.5 10.9174C3.5 10.9164 3.5 10.9154 3.5 10.9144C3.5 10.9134 3.5 10.9124 3.5 10.9114C3.5 10.9104 3.5 10.9094 3.5 10.9084C3.5 10.9074 3.5 10.9064 3.5 10.9054C3.5 10.9044 3.5 10.9034 3.5 10.9024C3.5 10.9014 3.5 10.9004 3.5 10.8994C3.5 10.8984 3.5 10.8974 3.5 10.8964C3.5 10.8954 3.5 10.8944 3.5 10.8934C3.5 10.8924 3.5 10.8915 3.5 10.8905C3.5 10.8895 3.5 10.8885 3.5 10.8875C3.5 10.8865 3.5 10.8855 3.5 10.8845C3.5 10.8835 3.5 10.8825 3.5 10.8815C3.5 10.8805 3.5 10.8795 3.5 10.8785C3.5 10.8775 3.5 10.8765 3.5 10.8756C3.5 10.8746 3.5 10.8736 3.5 10.8726C3.5 10.8716 3.5 10.8706 3.5 10.8696C3.5 10.8686 3.5 10.8676 3.5 10.8666C3.5 10.8656 3.5 10.8646 3.5 10.8636C3.5 10.8626 3.5 10.8617 3.5 10.8607C3.5 10.8597 3.5 10.8587 3.5 10.8577C3.5 10.8567 3.5 10.8557 3.5 10.8547C3.5 10.8537 3.5 10.8527 3.5 10.8517C3.5 10.8508 3.5 10.8498 3.5 10.8488C3.5 10.8478 3.5 10.8468 3.5 10.8458C3.5 10.8448 3.5 10.8438 3.5 10.8428C3.5 10.8418 3.5 10.8409 3.5 10.8399C3.5 10.8389 3.5 10.8379 3.5 10.8369C3.5 10.8359 3.5 10.8349 3.5 10.8339C3.5 10.8329 3.5 10.832 3.5 10.831C3.5 10.83 3.5 10.829 3.5 10.828C3.5 10.827 3.5 10.826 3.5 10.825C3.5 10.8241 3.5 10.8231 3.5 10.8221C3.5 10.8211 3.5 10.8201 3.5 10.8191C3.5 10.8181 3.5 10.8171 3.5 10.8162C3.5 10.8152 3.5 10.8142 3.5 10.8132C3.5 10.8122 3.5 10.8112 3.5 10.8102C3.5 10.8092 3.5 10.8083 3.5 10.8073C3.5 10.8063 3.5 10.8053 3.5 10.8043C3.5 10.8033 3.5 10.8023 3.5 10.8014C3.5 10.8004 3.5 10.7994 3.5 10.7984C3.5 10.7974 3.5 10.7964 3.5 10.7955C3.5 10.7945 3.5 10.7935 3.5 10.7925C3.5 10.7915 3.5 10.7905 3.5 10.7895C3.5 10.7886 3.5 10.7876 3.5 10.7866C3.5 10.7856 3.5 10.7846 3.5 10.7836C3.5 10.7827 3.5 10.7817 3.5 10.7807C3.5 10.7797 3.5 10.7787 3.5 10.7778C3.5 10.7768 3.5 10.7758 3.5 10.7748C3.5 10.7738 3.5 10.7728 3.5 10.7719C3.5 10.7709 3.5 10.7699 3.5 10.7689C3.5 10.7679 3.5 10.7669 3.5 10.766C3.5 10.765 3.5 10.764 3.5 10.763C3.5 10.762 3.5 10.7611 3.5 10.7601C3.5 10.7591 3.5 10.7581 3.5 10.7571C3.5 10.7562 3.5 10.7552 3.5 10.7542C3.5 10.7532 3.5 10.7522 3.5 10.7513C3.5 10.7503 3.5 10.7493 3.5 10.7483C3.5 10.7473 3.5 10.7464 3.5 10.7454C3.5 10.7444 3.5 10.7434 3.5 10.7424C3.5 10.7415 3.5 10.7405 3.5 10.7395C3.5 10.7385 3.5 10.7376 3.5 10.7366C3.5 10.7356 3.5 10.7346 3.5 10.7336C3.5 10.7327 3.5 10.7317 3.5 10.7307C3.5 10.7297 3.5 10.7288 3.5 10.7278C3.5 10.7268 3.5 10.7258 3.5 10.7248C3.5 10.7239 3.5 10.7229 3.5 10.7219C3.5 10.7209 3.5 10.72 3.5 10.719C3.5 10.718 3.5 10.717 3.5 10.7161C3.5 10.7151 3.5 10.7141 3.5 10.7131C3.5 10.7122 3.5 10.7112 3.5 10.7102C3.5 10.7092 3.5 10.7083 3.5 10.7073C3.5 10.7063 3.5 10.7053 3.5 10.7044C3.5 10.7034 3.5 10.7024 3.5 10.7014C3.5 10.7005 3.5 10.6995 3.5 10.6985C3.5 10.6975 3.5 10.6966 3.5 10.6956C3.5 10.6946 3.5 10.6936 3.5 10.6927C3.5 10.6917 3.5 10.6907 3.5 10.6897C3.5 10.6888 3.5 10.6878 3.5 10.6868C3.5 10.6859 3.5 10.6849 3.5 10.6839C3.5 10.6829 3.5 10.682 3.5 10.681C3.5 10.68 3.5 10.679 3.5 10.6781C3.5 10.6771 3.5 10.6761 3.5 10.6752C3.5 10.6742 3.5 10.6732 3.5 10.6722C3.5 10.6713 3.5 10.6703 3.5 10.6693C3.5 10.6684 3.5 10.6674 3.5 10.6664C3.5 10.6654 3.5 10.6645 3.5 10.6635C3.5 10.6625 3.5 10.6616 3.5 10.6606C3.5 10.6596 3.5 10.6587 3.5 10.6577C3.5 10.6567 3.5 10.6557 3.5 10.6548C3.5 10.6538 3.5 10.6528 3.5 10.6519C3.5 10.6509 3.5 10.6499 3.5 10.649C3.5 10.648 3.5 10.647 3.5 10.6461C3.5 10.6451 3.5 10.6441 3.5 10.6432C3.5 10.6422 3.5 10.6412 3.5 10.6402C3.5 10.6393 3.5 10.6383 3.5 10.6373C3.5 10.6364 3.5 10.6354 3.5 10.6344C3.5 10.6335 3.5 10.6325 3.5 10.6315C3.5 10.6306 3.5 10.6296 3.5 10.6286C3.5 10.6277 3.5 10.6267 3.5 10.6257C3.5 10.6248 3.5 10.6238 3.5 10.6228C3.5 10.6219 3.5 10.6209 3.5 10.6199C3.5 10.619 3.5 10.618 3.5 10.6171C3.5 10.6161 3.5 10.6151 3.5 10.6142C3.5 10.6132 3.5 10.6122 3.5 10.6113C3.5 10.6103 3.5 10.6093 3.5 10.6084C3.5 10.6074 3.5 10.6064 3.5 10.6055C3.5 10.6045 3.5 10.6035 3.5 10.6026C3.5 10.6016 3.5 10.6007 3.5 10.5997C3.5 10.5987 3.5 10.5978 3.5 10.5968C3.5 10.5958 3.5 10.5949 3.5 10.5939C3.5 10.593 3.5 10.592 3.5 10.591C3.5 10.5901 3.5 10.5891 3.5 10.5881C3.5 10.5872 3.5 10.5862 3.5 10.5853C3.5 10.5843 3.5 10.5833 3.5 10.5824C3.5 10.5814 3.5 10.5804 3.5 10.5795C3.5 10.5785 3.5 10.5776 3.5 10.5766C3.5 10.5756 3.5 10.5747 3.5 10.5737C3.5 10.5728 3.5 10.5718 3.5 10.5708C3.5 10.5699 3.5 10.5689 3.5 10.568C3.5 10.567 3.5 10.566 3.5 10.5651C3.5 10.5641 3.5 10.5632 3.5 10.5622C3.5 10.5612 3.5 10.5603 3.5 10.5593C3.5 10.5584 3.5 10.5574 3.5 10.5565C3.5 10.5555 3.5 10.5545 3.5 10.5536C3.5 10.5526 3.5 10.5517 3.5 10.5507C3.5 10.5497 3.5 10.5488 3.5 10.5478C3.5 10.5469 3.5 10.5459 3.5 10.545C3.5 10.544 3.5 10.543 3.5 10.5421C3.5 10.5411 3.5 10.5402 3.5 10.5392C3.5 10.5383 3.5 10.5373 3.5 10.5363C3.5 10.5354 3.5 10.5344 3.5 10.5335C3.5 10.5325 3.5 10.5316 3.5 10.5306C3.5 10.5296 3.5 10.5287 3.5 10.5277C3.5 10.5268 3.5 10.5258 3.5 10.5249C3.5 10.5239 3.5 10.523 3.5 10.522C3.5 10.5211 3.5 10.5201 3.5 10.5191C3.5 10.5182 3.5 10.5172 3.5 10.5163C3.5 10.5153 3.5 10.5144 3.5 10.5134C3.5 10.5125 3.5 10.5115 3.5 10.5106C3.5 10.5096 3.5 10.5086 3.5 10.5077C3.5 10.5067 3.5 10.5058 3.5 10.5048C3.5 10.5039 3.5 10.5029 3.5 10.502C3.5 10.501 3.5 10.5001 3.5 10.4991C3.5 10.4982 3.5 10.4972 3.5 10.4963C3.5 10.4953 3.5 10.4944 3.5 10.4934C3.5 10.4925 3.5 10.4915 3.5 10.4906C3.5 10.4896 3.5 10.4886 3.5 10.4877C3.5 10.4867 3.5 10.4858 3.5 10.4848C3.5 10.4839 3.5 10.4829 3.5 10.482C3.5 10.481 3.5 10.4801 3.5 10.4791C3.5 10.4782 3.5 10.4772 3.5 10.4763C3.5 10.4753 3.5 10.4744 3.5 10.4734C3.5 10.4725 3.5 10.4715 3.5 10.4706C3.5 10.4696 3.5 10.4687 3.5 10.4677C3.5 10.4668 3.5 10.4658 3.5 10.4649C3.5 10.464 3.5 10.463 3.5 10.4621C3.5 10.4611 3.5 10.4602 3.5 10.4592C3.5 10.4583 3.5 10.4573 3.5 10.4564C3.5 10.4554 3.5 10.4545 3.5 10.4535C3.5 10.4526 3.5 10.4516 3.5 10.4507C3.5 10.4497 3.5 10.4488 3.5 10.4478C3.5 10.4469 3.5 10.4459 3.5 10.445C3.5 10.4441 3.5 10.4431 3.5 10.4422C3.5 10.4412 3.5 10.4403 3.5 10.4393C3.5 10.4384 3.5 10.4374 3.5 10.4365C3.5 10.4355 3.5 10.4346 3.5 10.4337C3.5 10.4327 3.5 10.4318 3.5 10.4308C3.5 10.4299 3.5 10.4289 3.5 10.428C3.5 10.427 3.5 10.4261 3.5 10.4251C3.5 10.4242 3.5 10.4233 3.5 10.4223C3.5 10.4214 3.5 10.4204 3.5 10.4195C3.5 10.4185 3.5 10.4176 3.5 10.4167H3H2.5C2.5 10.4176 2.5 10.4185 2.5 10.4195C2.5 10.4204 2.5 10.4214 2.5 10.4223C2.5 10.4233 2.5 10.4242 2.5 10.4251C2.5 10.4261 2.5 10.427 2.5 10.428C2.5 10.4289 2.5 10.4299 2.5 10.4308C2.5 10.4318 2.5 10.4327 2.5 10.4337C2.5 10.4346 2.5 10.4355 2.5 10.4365C2.5 10.4374 2.5 10.4384 2.5 10.4393C2.5 10.4403 2.5 10.4412 2.5 10.4422C2.5 10.4431 2.5 10.4441 2.5 10.445C2.5 10.4459 2.5 10.4469 2.5 10.4478C2.5 10.4488 2.5 10.4497 2.5 10.4507C2.5 10.4516 2.5 10.4526 2.5 10.4535C2.5 10.4545 2.5 10.4554 2.5 10.4564C2.5 10.4573 2.5 10.4583 2.5 10.4592C2.5 10.4602 2.5 10.4611 2.5 10.4621C2.5 10.463 2.5 10.464 2.5 10.4649C2.5 10.4658 2.5 10.4668 2.5 10.4677C2.5 10.4687 2.5 10.4696 2.5 10.4706C2.5 10.4715 2.5 10.4725 2.5 10.4734C2.5 10.4744 2.5 10.4753 2.5 10.4763C2.5 10.4772 2.5 10.4782 2.5 10.4791C2.5 10.4801 2.5 10.481 2.5 10.482C2.5 10.4829 2.5 10.4839 2.5 10.4848C2.5 10.4858 2.5 10.4867 2.5 10.4877C2.5 10.4886 2.5 10.4896 2.5 10.4906C2.5 10.4915 2.5 10.4925 2.5 10.4934C2.5 10.4944 2.5 10.4953 2.5 10.4963C2.5 10.4972 2.5 10.4982 2.5 10.4991C2.5 10.5001 2.5 10.501 2.5 10.502C2.5 10.5029 2.5 10.5039 2.5 10.5048C2.5 10.5058 2.5 10.5067 2.5 10.5077C2.5 10.5086 2.5 10.5096 2.5 10.5106C2.5 10.5115 2.5 10.5125 2.5 10.5134C2.5 10.5144 2.5 10.5153 2.5 10.5163C2.5 10.5172 2.5 10.5182 2.5 10.5191C2.5 10.5201 2.5 10.5211 2.5 10.522C2.5 10.523 2.5 10.5239 2.5 10.5249C2.5 10.5258 2.5 10.5268 2.5 10.5277C2.5 10.5287 2.5 10.5296 2.5 10.5306C2.5 10.5316 2.5 10.5325 2.5 10.5335C2.5 10.5344 2.5 10.5354 2.5 10.5363C2.5 10.5373 2.5 10.5383 2.5 10.5392C2.5 10.5402 2.5 10.5411 2.5 10.5421C2.5 10.543 2.5 10.544 2.5 10.545C2.5 10.5459 2.5 10.5469 2.5 10.5478C2.5 10.5488 2.5 10.5497 2.5 10.5507C2.5 10.5517 2.5 10.5526 2.5 10.5536C2.5 10.5545 2.5 10.5555 2.5 10.5565C2.5 10.5574 2.5 10.5584 2.5 10.5593C2.5 10.5603 2.5 10.5612 2.5 10.5622C2.5 10.5632 2.5 10.5641 2.5 10.5651C2.5 10.566 2.5 10.567 2.5 10.568C2.5 10.5689 2.5 10.5699 2.5 10.5708C2.5 10.5718 2.5 10.5728 2.5 10.5737C2.5 10.5747 2.5 10.5756 2.5 10.5766C2.5 10.5776 2.5 10.5785 2.5 10.5795C2.5 10.5804 2.5 10.5814 2.5 10.5824C2.5 10.5833 2.5 10.5843 2.5 10.5853C2.5 10.5862 2.5 10.5872 2.5 10.5881C2.5 10.5891 2.5 10.5901 2.5 10.591C2.5 10.592 2.5 10.593 2.5 10.5939C2.5 10.5949 2.5 10.5958 2.5 10.5968C2.5 10.5978 2.5 10.5987 2.5 10.5997C2.5 10.6007 2.5 10.6016 2.5 10.6026C2.5 10.6035 2.5 10.6045 2.5 10.6055C2.5 10.6064 2.5 10.6074 2.5 10.6084C2.5 10.6093 2.5 10.6103 2.5 10.6113C2.5 10.6122 2.5 10.6132 2.5 10.6142C2.5 10.6151 2.5 10.6161 2.5 10.6171C2.5 10.618 2.5 10.619 2.5 10.6199C2.5 10.6209 2.5 10.6219 2.5 10.6228C2.5 10.6238 2.5 10.6248 2.5 10.6257C2.5 10.6267 2.5 10.6277 2.5 10.6286C2.5 10.6296 2.5 10.6306 2.5 10.6315C2.5 10.6325 2.5 10.6335 2.5 10.6344C2.5 10.6354 2.5 10.6364 2.5 10.6373C2.5 10.6383 2.5 10.6393 2.5 10.6402C2.5 10.6412 2.5 10.6422 2.5 10.6432C2.5 10.6441 2.5 10.6451 2.5 10.6461C2.5 10.647 2.5 10.648 2.5 10.649C2.5 10.6499 2.5 10.6509 2.5 10.6519C2.5 10.6528 2.5 10.6538 2.5 10.6548C2.5 10.6557 2.5 10.6567 2.5 10.6577C2.5 10.6587 2.5 10.6596 2.5 10.6606C2.5 10.6616 2.5 10.6625 2.5 10.6635C2.5 10.6645 2.5 10.6654 2.5 10.6664C2.5 10.6674 2.5 10.6684 2.5 10.6693C2.5 10.6703 2.5 10.6713 2.5 10.6722C2.5 10.6732 2.5 10.6742 2.5 10.6752C2.5 10.6761 2.5 10.6771 2.5 10.6781C2.5 10.679 2.5 10.68 2.5 10.681C2.5 10.682 2.5 10.6829 2.5 10.6839C2.5 10.6849 2.5 10.6859 2.5 10.6868C2.5 10.6878 2.5 10.6888 2.5 10.6897C2.5 10.6907 2.5 10.6917 2.5 10.6927C2.5 10.6936 2.5 10.6946 2.5 10.6956C2.5 10.6966 2.5 10.6975 2.5 10.6985C2.5 10.6995 2.5 10.7005 2.5 10.7014C2.5 10.7024 2.5 10.7034 2.5 10.7044C2.5 10.7053 2.5 10.7063 2.5 10.7073C2.5 10.7083 2.5 10.7092 2.5 10.7102C2.5 10.7112 2.5 10.7122 2.5 10.7131C2.5 10.7141 2.5 10.7151 2.5 10.7161C2.5 10.717 2.5 10.718 2.5 10.719C2.5 10.72 2.5 10.7209 2.5 10.7219C2.5 10.7229 2.5 10.7239 2.5 10.7248C2.5 10.7258 2.5 10.7268 2.5 10.7278C2.5 10.7288 2.5 10.7297 2.5 10.7307C2.5 10.7317 2.5 10.7327 2.5 10.7336C2.5 10.7346 2.5 10.7356 2.5 10.7366C2.5 10.7376 2.5 10.7385 2.5 10.7395C2.5 10.7405 2.5 10.7415 2.5 10.7424C2.5 10.7434 2.5 10.7444 2.5 10.7454C2.5 10.7464 2.5 10.7473 2.5 10.7483C2.5 10.7493 2.5 10.7503 2.5 10.7513C2.5 10.7522 2.5 10.7532 2.5 10.7542C2.5 10.7552 2.5 10.7562 2.5 10.7571C2.5 10.7581 2.5 10.7591 2.5 10.7601C2.5 10.7611 2.5 10.762 2.5 10.763C2.5 10.764 2.5 10.765 2.5 10.766C2.5 10.7669 2.5 10.7679 2.5 10.7689C2.5 10.7699 2.5 10.7709 2.5 10.7719C2.5 10.7728 2.5 10.7738 2.5 10.7748C2.5 10.7758 2.5 10.7768 2.5 10.7778C2.5 10.7787 2.5 10.7797 2.5 10.7807C2.5 10.7817 2.5 10.7827 2.5 10.7836C2.5 10.7846 2.5 10.7856 2.5 10.7866C2.5 10.7876 2.5 10.7886 2.5 10.7895C2.5 10.7905 2.5 10.7915 2.5 10.7925C2.5 10.7935 2.5 10.7945 2.5 10.7955C2.5 10.7964 2.5 10.7974 2.5 10.7984C2.5 10.7994 2.5 10.8004 2.5 10.8014C2.5 10.8023 2.5 10.8033 2.5 10.8043C2.5 10.8053 2.5 10.8063 2.5 10.8073C2.5 10.8083 2.5 10.8092 2.5 10.8102C2.5 10.8112 2.5 10.8122 2.5 10.8132C2.5 10.8142 2.5 10.8152 2.5 10.8162C2.5 10.8171 2.5 10.8181 2.5 10.8191C2.5 10.8201 2.5 10.8211 2.5 10.8221C2.5 10.8231 2.5 10.8241 2.5 10.825C2.5 10.826 2.5 10.827 2.5 10.828C2.5 10.829 2.5 10.83 2.5 10.831C2.5 10.832 2.5 10.8329 2.5 10.8339C2.5 10.8349 2.5 10.8359 2.5 10.8369C2.5 10.8379 2.5 10.8389 2.5 10.8399C2.5 10.8409 2.5 10.8418 2.5 10.8428C2.5 10.8438 2.5 10.8448 2.5 10.8458C2.5 10.8468 2.5 10.8478 2.5 10.8488C2.5 10.8498 2.5 10.8508 2.5 10.8517C2.5 10.8527 2.5 10.8537 2.5 10.8547C2.5 10.8557 2.5 10.8567 2.5 10.8577C2.5 10.8587 2.5 10.8597 2.5 10.8607C2.5 10.8617 2.5 10.8626 2.5 10.8636C2.5 10.8646 2.5 10.8656 2.5 10.8666C2.5 10.8676 2.5 10.8686 2.5 10.8696C2.5 10.8706 2.5 10.8716 2.5 10.8726C2.5 10.8736 2.5 10.8746 2.5 10.8756C2.5 10.8765 2.5 10.8775 2.5 10.8785C2.5 10.8795 2.5 10.8805 2.5 10.8815C2.5 10.8825 2.5 10.8835 2.5 10.8845C2.5 10.8855 2.5 10.8865 2.5 10.8875C2.5 10.8885 2.5 10.8895 2.5 10.8905C2.5 10.8915 2.5 10.8924 2.5 10.8934C2.5 10.8944 2.5 10.8954 2.5 10.8964C2.5 10.8974 2.5 10.8984 2.5 10.8994C2.5 10.9004 2.5 10.9014 2.5 10.9024C2.5 10.9034 2.5 10.9044 2.5 10.9054C2.5 10.9064 2.5 10.9074 2.5 10.9084C2.5 10.9094 2.5 10.9104 2.5 10.9114C2.5 10.9124 2.5 10.9134 2.5 10.9144C2.5 10.9154 2.5 10.9164 2.5 10.9174C2.5 10.9184 2.5 10.9194 2.5 10.9203C2.5 10.9213 2.5 10.9223 2.5 10.9233C2.5 10.9243 2.5 10.9253 2.5 10.9263C2.5 10.9273 2.5 10.9283 2.5 10.9293C2.5 10.9303 2.5 10.9313 2.5 10.9323C2.5 10.9333 2.5 10.9343 2.5 10.9353C2.5 10.9363 2.5 10.9373 2.5 10.9383C2.5 10.9393 2.5 10.9403 2.5 10.9413C2.5 10.9423 2.5 10.9433 2.5 10.9443C2.5 10.9453 2.5 10.9463 2.5 10.9473C2.5 10.9483 2.5 10.9493 2.5 10.9503C2.5 10.9513 2.5 10.9523 2.5 10.9533C2.5 10.9543 2.5 10.9553 2.5 10.9563C2.5 10.9573 2.5 10.9583 2.5 10.9593C2.5 10.9604 2.5 10.9614 2.5 10.9624C2.5 10.9634 2.5 10.9644 2.5 10.9654C2.5 10.9664 2.5 10.9674 2.5 10.9684C2.5 10.9694 2.5 10.9704 2.5 10.9714C2.5 10.9724 2.5 10.9734 2.5 10.9744C2.5 10.9754 2.5 10.9764 2.5 10.9774C2.5 10.9784 2.5 10.9794 2.5 10.9804C2.5 10.9814 2.5 10.9824 2.5 10.9834C2.5 10.9844 2.5 10.9854 2.5 10.9864C2.5 10.9874 2.5 10.9885 2.5 10.9895C2.5 10.9905 2.5 10.9915 2.5 10.9925C2.5 10.9935 2.5 10.9945 2.5 10.9955C2.5 10.9965 2.5 10.9975 2.5 10.9985C2.5 10.9995 2.5 11.0005 2.5 11.0015C2.5 11.0025 2.5 11.0035 2.5 11.0046C2.5 11.0056 2.5 11.0066 2.5 11.0076C2.5 11.0086 2.5 11.0096 2.5 11.0106C2.5 11.0116 2.5 11.0126 2.5 11.0136C2.5 11.0146 2.5 11.0156 2.5 11.0166C2.5 11.0176 2.5 11.0187 2.5 11.0197C2.5 11.0207 2.5 11.0217 2.5 11.0227C2.5 11.0237 2.5 11.0247 2.5 11.0257C2.5 11.0267 2.5 11.0277 2.5 11.0287C2.5 11.0298 2.5 11.0308 2.5 11.0318C2.5 11.0328 2.5 11.0338 2.5 11.0348C2.5 11.0358 2.5 11.0368 2.5 11.0378C2.5 11.0388 2.5 11.0399 2.5 11.0409C2.5 11.0419 2.5 11.0429 2.5 11.0439C2.5 11.0449 2.5 11.0459 2.5 11.0469C2.5 11.0479 2.5 11.049 2.5 11.05C2.5 11.051 2.5 11.052 2.5 11.053C2.5 11.054 2.5 11.055 2.5 11.056C2.5 11.0571 2.5 11.0581 2.5 11.0591C2.5 11.0601 2.5 11.0611 2.5 11.0621C2.5 11.0631 2.5 11.0641 2.5 11.0652C2.5 11.0662 2.5 11.0672 2.5 11.0682C2.5 11.0692 2.5 11.0702 2.5 11.0712C2.5 11.0723 2.5 11.0733 2.5 11.0743C2.5 11.0753 2.5 11.0763 2.5 11.0773C2.5 11.0783 2.5 11.0794 2.5 11.0804C2.5 11.0814 2.5 11.0824 2.5 11.0834C2.5 11.0844 2.5 11.0854 2.5 11.0865C2.5 11.0875 2.5 11.0885 2.5 11.0895C2.5 11.0905 2.5 11.0915 2.5 11.0926C2.5 11.0936 2.5 11.0946 2.5 11.0956C2.5 11.0966 2.5 11.0976 2.5 11.0987C2.5 11.0997 2.5 11.1007 2.5 11.1017C2.5 11.1027 2.5 11.1037 2.5 11.1048C2.5 11.1058 2.5 11.1068 2.5 11.1078C2.5 11.1088 2.5 11.1098 2.5 11.1109C2.5 11.1119 2.5 11.1129 2.5 11.1139C2.5 11.1149 2.5 11.116 2.5 11.117C2.5 11.118 2.5 11.119 2.5 11.12C2.5 11.1211 2.5 11.1221 2.5 11.1231C2.5 11.1241 2.5 11.1251 2.5 11.1262C2.5 11.1272 2.5 11.1282 2.5 11.1292C2.5 11.1302 2.5 11.1313 2.5 11.1323C2.5 11.1333 2.5 11.1343 2.5 11.1353C2.5 11.1364 2.5 11.1374 2.5 11.1384C2.5 11.1394 2.5 11.1404 2.5 11.1415C2.5 11.1425 2.5 11.1435 2.5 11.1445C2.5 11.1455 2.5 11.1466 2.5 11.1476C2.5 11.1486 2.5 11.1496 2.5 11.1507C2.5 11.1517 2.5 11.1527 2.5 11.1537C2.5 11.1547 2.5 11.1558 2.5 11.1568C2.5 11.1578 2.5 11.1588 2.5 11.1599C2.5 11.1609 2.5 11.1619 2.5 11.1629C2.5 11.164 2.5 11.165 2.5 11.166C2.5 11.167 2.5 11.1681 2.5 11.1691C2.5 11.1701 2.5 11.1711 2.5 11.1722C2.5 11.1732 2.5 11.1742 2.5 11.1752C2.5 11.1763 2.5 11.1773 2.5 11.1783C2.5 11.1793 2.5 11.1804 2.5 11.1814C2.5 11.1824 2.5 11.1834 2.5 11.1845C2.5 11.1855 2.5 11.1865 2.5 11.1875C2.5 11.1886 2.5 11.1896 2.5 11.1906C2.5 11.1916 2.5 11.1927 2.5 11.1937C2.5 11.1947 2.5 11.1957 2.5 11.1968C2.5 11.1978 2.5 11.1988 2.5 11.1999C2.5 11.2009 2.5 11.2019 2.5 11.2029C2.5 11.204 2.5 11.205 2.5 11.206C2.5 11.2071 2.5 11.2081 2.5 11.2091C2.5 11.2101 2.5 11.2112 2.5 11.2122C2.5 11.2132 2.5 11.2143 2.5 11.2153C2.5 11.2163 2.5 11.2173 2.5 11.2184C2.5 11.2194 2.5 11.2204 2.5 11.2215C2.5 11.2225 2.5 11.2235 2.5 11.2245C2.5 11.2256 2.5 11.2266 2.5 11.2276C2.5 11.2287 2.5 11.2297 2.5 11.2307C2.5 11.2318 2.5 11.2328 2.5 11.2338C2.5 11.2349 2.5 11.2359 2.5 11.2369C2.5 11.238 2.5 11.239 2.5 11.24C2.5 11.241 2.5 11.2421 2.5 11.2431C2.5 11.2441 2.5 11.2452 2.5 11.2462C2.5 11.2472 2.5 11.2483 2.5 11.2493C2.5 11.2503 2.5 11.2514 2.5 11.2524C2.5 11.2534 2.5 11.2545 2.5 11.2555C2.5 11.2565 2.5 11.2576 2.5 11.2586C2.5 11.2596 2.5 11.2607 2.5 11.2617C2.5 11.2627 2.5 11.2638 2.5 11.2648C2.5 11.2658 2.5 11.2669 2.5 11.2679C2.5 11.2689 2.5 11.27 2.5 11.271C2.5 11.2721 2.5 11.2731 2.5 11.2741C2.5 11.2752 2.5 11.2762 2.5 11.2772C2.5 11.2783 2.5 11.2793 2.5 11.2803C2.5 11.2814 2.5 11.2824 2.5 11.2834C2.5 11.2845 2.5 11.2855 2.5 11.2866C2.5 11.2876 2.5 11.2886 2.5 11.2897C2.5 11.2907 2.5 11.2917 2.5 11.2928C2.5 11.2938 2.5 11.2949 2.5 11.2959C2.5 11.2969 2.5 11.298 2.5 11.299C2.5 11.3 2.5 11.3011 2.5 11.3021C2.5 11.3032 2.5 11.3042 2.5 11.3052C2.5 11.3063 2.5 11.3073 2.5 11.3083C2.5 11.3094 2.5 11.3104 2.5 11.3115C2.5 11.3125 2.5 11.3135 2.5 11.3146C2.5 11.3156 2.5 11.3167 2.5 11.3177C2.5 11.3187 2.5 11.3198 2.5 11.3208C2.5 11.3219 2.5 11.3229 2.5 11.3239C2.5 11.325 2.5 11.326 2.5 11.3271C2.5 11.3281 2.5 11.3291 2.5 11.3302C2.5 11.3312 2.5 11.3323 2.5 11.3333C2.5 11.3344 2.5 11.3354 2.5 11.3364C2.5 11.3375 2.5 11.3385 2.5 11.3396C2.5 11.3406 2.5 11.3417 2.5 11.3427C2.5 11.3437 2.5 11.3448 2.5 11.3458C2.5 11.3469 2.5 11.3479 2.5 11.3489C2.5 11.35 2.5 11.351 2.5 11.3521C2.5 11.3531 2.5 11.3542 2.5 11.3552C2.5 11.3563 2.5 11.3573 2.5 11.3583C2.5 11.3594 2.5 11.3604 2.5 11.3615C2.5 11.3625 2.5 11.3636 2.5 11.3646C2.5 11.3657 2.5 11.3667 2.5 11.3677C2.5 11.3688 2.5 11.3698 2.5 11.3709C2.5 11.3719 2.5 11.373 2.5 11.374C2.5 11.3751 2.5 11.3761 2.5 11.3772C2.5 11.3782 2.5 11.3792 2.5 11.3803C2.5 11.3813 2.5 11.3824 2.5 11.3834C2.5 11.3845 2.5 11.3855 2.5 11.3866C2.5 11.3876 2.5 11.3887 2.5 11.3897C2.5 11.3908 2.5 11.3918 2.5 11.3929C2.5 11.3939 2.5 11.395 2.5 11.396C2.5 11.3971 2.5 11.3981 2.5 11.3991C2.5 11.4002 2.5 11.4012 2.5 11.4023C2.5 11.4033 2.5 11.4044 2.5 11.4054C2.5 11.4065 2.5 11.4075 2.5 11.4086C2.5 11.4096 2.5 11.4107 2.5 11.4117C2.5 11.4128 2.5 11.4138 2.5 11.4149C2.5 11.4159 2.5 11.417 2.5 11.418C2.5 11.4191 2.5 11.4201 2.5 11.4212C2.5 11.4222 2.5 11.4233 2.5 11.4243C2.5 11.4254 2.5 11.4264 2.5 11.4275C2.5 11.4285 2.5 11.4296 2.5 11.4307C2.5 11.4317 2.5 11.4328 2.5 11.4338C2.5 11.4349 2.5 11.4359 2.5 11.437C2.5 11.438 2.5 11.4391 2.5 11.4401C2.5 11.4412 2.5 11.4422 2.5 11.4433C2.5 11.4443 2.5 11.4454 2.5 11.4464C2.5 11.4475 2.5 11.4485 2.5 11.4496C2.5 11.4507 2.5 11.4517 2.5 11.4528C2.5 11.4538 2.5 11.4549 2.5 11.4559C2.5 11.457 2.5 11.458 2.5 11.4591C2.5 11.4601 2.5 11.4612 2.5 11.4623C2.5 11.4633 2.5 11.4644 2.5 11.4654C2.5 11.4665 2.5 11.4675 2.5 11.4686C2.5 11.4696 2.5 11.4707 2.5 11.4718C2.5 11.4728 2.5 11.4739 2.5 11.4749C2.5 11.476 2.5 11.477 2.5 11.4781C2.5 11.4791 2.5 11.4802 2.5 11.4813C2.5 11.4823 2.5 11.4834 2.5 11.4844C2.5 11.4855 2.5 11.4865 2.5 11.4876C2.5 11.4887 2.5 11.4897 2.5 11.4908C2.5 11.4918 2.5 11.4929 2.5 11.494C2.5 11.495 2.5 11.4961 2.5 11.4971C2.5 11.4982 2.5 11.4992 2.5 11.5003C2.5 11.5014 2.5 11.5024 2.5 11.5035C2.5 11.5045 2.5 11.5056 2.5 11.5067C2.5 11.5077 2.5 11.5088 2.5 11.5098C2.5 11.5109 2.5 11.512 2.5 11.513C2.5 11.5141 2.5 11.5151 2.5 11.5162C2.5 11.5173 2.5 11.5183 2.5 11.5194C2.5 11.5204 2.5 11.5215 2.5 11.5226C2.5 11.5236 2.5 11.5247 2.5 11.5257C2.5 11.5268 2.5 11.5279 2.5 11.5289C2.5 11.53 2.5 11.5311 2.5 11.5321C2.5 11.5332 2.5 11.5342 2.5 11.5353C2.5 11.5364 2.5 11.5374 2.5 11.5385C2.5 11.5396 2.5 11.5406 2.5 11.5417C2.5 11.5427 2.5 11.5438 2.5 11.5449C2.5 11.5459 2.5 11.547 2.5 11.5481C2.5 11.5491 2.5 11.5502 2.5 11.5513C2.5 11.5523 2.5 11.5534 2.5 11.5545C2.5 11.5555 2.5 11.5566 2.5 11.5576C2.5 11.5587 2.5 11.5598 2.5 11.5608C2.5 11.5619 2.5 11.563 2.5 11.564C2.5 11.5651 2.5 11.5662 2.5 11.5672C2.5 11.5683 2.5 11.5694 2.5 11.5704C2.5 11.5715 2.5 11.5726 2.5 11.5736C2.5 11.5747 2.5 11.5758 2.5 11.5768C2.5 11.5779 2.5 11.579 2.5 11.58C2.5 11.5811 2.5 11.5822 2.5 11.5832C2.5 11.5843 2.5 11.5854 2.5 11.5864C2.5 11.5875 2.5 11.5886 2.5 11.5896C2.5 11.5907 2.5 11.5918 2.5 11.5928C2.5 11.5939 2.5 11.595 2.5 11.5961C2.5 11.5971 2.5 11.5982 2.5 11.5993C2.5 11.6003 2.5 11.6014 2.5 11.6025C2.5 11.6035 2.5 11.6046 2.5 11.6057C2.5 11.6067 2.5 11.6078 2.5 11.6089C2.5 11.61 2.5 11.611 2.5 11.6121C2.5 11.6132 2.5 11.6142 2.5 11.6153C2.5 11.6164 2.5 11.6175 2.5 11.6185C2.5 11.6196 2.5 11.6207 2.5 11.6217C2.5 11.6228 2.5 11.6239 2.5 11.625C2.5 11.626 2.5 11.6271 2.5 11.6282C2.5 11.6292 2.5 11.6303 2.5 11.6314C2.5 11.6325 2.5 11.6335 2.5 11.6346C2.5 11.6357 2.5 11.6367 2.5 11.6378C2.5 11.6389 2.5 11.64 2.5 11.641C2.5 11.6421 2.5 11.6432 2.5 11.6443C2.5 11.6453 2.5 11.6464 2.5 11.6475C2.5 11.6486 2.5 11.6496 2.5 11.6507C2.5 11.6518 2.5 11.6529 2.5 11.6539C2.5 11.655 2.5 11.6561 2.5 11.6572C2.5 11.6582 2.5 11.6593 2.5 11.6604C2.5 11.6615 2.5 11.6625 2.5 11.6636C2.5 11.6647 2.5 11.6658 2.5 11.6668C2.5 11.6679 2.5 11.669 2.5 11.6701C2.5 11.6711 2.5 11.6722 2.5 11.6733C2.5 11.6744 2.5 11.6755 2.5 11.6765C2.5 11.6776 2.5 11.6787 2.5 11.6798C2.5 11.6808 2.5 11.6819 2.5 11.683C2.5 11.6841 2.5 11.6851 2.5 11.6862C2.5 11.6873 2.5 11.6884 2.5 11.6895C2.5 11.6905 2.5 11.6916 2.5 11.6927C2.5 11.6938 2.5 11.6949 2.5 11.6959C2.5 11.697 2.5 11.6981 2.5 11.6992C2.5 11.7003 2.5 11.7013 2.5 11.7024C2.5 11.7035 2.5 11.7046 2.5 11.7057C2.5 11.7067 2.5 11.7078 2.5 11.7089C2.5 11.71 2.5 11.7111 2.5 11.7121C2.5 11.7132 2.5 11.7143 2.5 11.7154C2.5 11.7165 2.5 11.7175 2.5 11.7186C2.5 11.7197 2.5 11.7208 2.5 11.7219C2.5 11.7229 2.5 11.724 2.5 11.7251C2.5 11.7262 2.5 11.7273 2.5 11.7284C2.5 11.7294 2.5 11.7305 2.5 11.7316C2.5 11.7327 2.5 11.7338 2.5 11.7349C2.5 11.7359 2.5 11.737 2.5 11.7381C2.5 11.7392 2.5 11.7403 2.5 11.7414C2.5 11.7424 2.5 11.7435 2.5 11.7446C2.5 11.7457 2.5 11.7468 2.5 11.7479C2.5 11.7489 2.5 11.75 2.5 11.7511C2.5 11.7522 2.5 11.7533 2.5 11.7544C2.5 11.7555 2.5 11.7565 2.5 11.7576C2.5 11.7587 2.5 11.7598 2.5 11.7609C2.5 11.762 2.5 11.7631 2.5 11.7641C2.5 11.7652 2.5 11.7663 2.5 11.7674C2.5 11.7685 2.5 11.7696 2.5 11.7707C2.5 11.7717 2.5 11.7728 2.5 11.7739C2.5 11.775 2.5 11.7761 2.5 11.7772C2.5 11.7783 2.5 11.7794 2.5 11.7804C2.5 11.7815 2.5 11.7826 2.5 11.7837C2.5 11.7848 2.5 11.7859 2.5 11.787C2.5 11.7881 2.5 11.7892 2.5 11.7902C2.5 11.7913 2.5 11.7924 2.5 11.7935C2.5 11.7946 2.5 11.7957 2.5 11.7968C2.5 11.7979 2.5 11.799 2.5 11.8C2.5 11.8011 2.5 11.8022 2.5 11.8033C2.5 11.8044 2.5 11.8055 2.5 11.8066C2.5 11.8077 2.5 11.8088 2.5 11.8099C2.5 11.8109 2.5 11.812 2.5 11.8131C2.5 11.8142 2.5 11.8153 2.5 11.8164C2.5 11.8175 2.5 11.8186 2.5 11.8197C2.5 11.8208 2.5 11.8219 2.5 11.823C2.5 11.824 2.5 11.8251 2.5 11.8262C2.5 11.8273 2.5 11.8284 2.5 11.8295C2.5 11.8306 2.5 11.8317 2.5 11.8328C2.5 11.8339 2.5 11.835 2.5 11.8361C2.5 11.8372 2.5 11.8383 2.5 11.8393C2.5 11.8404 2.5 11.8415 2.5 11.8426C2.5 11.8437 2.5 11.8448 2.5 11.8459C2.5 11.847 2.5 11.8481 2.5 11.8492C2.5 11.8503 2.5 11.8514 2.5 11.8525C2.5 11.8536 2.5 11.8547 2.5 11.8558C2.5 11.8569 2.5 11.858 2.5 11.8591C2.5 11.8602 2.5 11.8612 2.5 11.8623C2.5 11.8634 2.5 11.8645 2.5 11.8656C2.5 11.8667 2.5 11.8678 2.5 11.8689C2.5 11.87 2.5 11.8711 2.5 11.8722C2.5 11.8733 2.5 11.8744 2.5 11.8755C2.5 11.8766 2.5 11.8777 2.5 11.8788C2.5 11.8799 2.5 11.881 2.5 11.8821C2.5 11.8832 2.5 11.8843 2.5 11.8854C2.5 11.8865 2.5 11.8876 2.5 11.8887C2.5 11.8898 2.5 11.8909 2.5 11.892C2.5 11.8931 2.5 11.8942 2.5 11.8953C2.5 11.8964 2.5 11.8975 2.5 11.8986C2.5 11.8997 2.5 11.9008 2.5 11.9019C2.5 11.903 2.5 11.9041 2.5 11.9052C2.5 11.9063 2.5 11.9074 2.5 11.9085C2.5 11.9096 2.5 11.9107 2.5 11.9118C2.5 11.9129 2.5 11.914 2.5 11.9151C2.5 11.9162 2.5 11.9173 2.5 11.9184C2.5 11.9195 2.5 11.9206 2.5 11.9217C2.5 11.9228 2.5 11.9239 2.5 11.925C2.5 11.9261 2.5 11.9272 2.5 11.9283C2.5 11.9294 2.5 11.9305 2.5 11.9316C2.5 11.9327 2.5 11.9338 2.5 11.9349C2.5 11.936 2.5 11.9371 2.5 11.9382C2.5 11.9393 2.5 11.9405 2.5 11.9416C2.5 11.9427 2.5 11.9438 2.5 11.9449C2.5 11.946 2.5 11.9471 2.5 11.9482C2.5 11.9493 2.5 11.9504 2.5 11.9515C2.5 11.9526 2.5 11.9537 2.5 11.9548C2.5 11.9559 2.5 11.957 2.5 11.9581C2.5 11.9592 2.5 11.9603 2.5 11.9614C2.5 11.9626 2.5 11.9637 2.5 11.9648C2.5 11.9659 2.5 11.967 2.5 11.9681C2.5 11.9692 2.5 11.9703 2.5 11.9714C2.5 11.9725 2.5 11.9736 2.5 11.9747C2.5 11.9758 2.5 11.9769 2.5 11.9781C2.5 11.9792 2.5 11.9803 2.5 11.9814C2.5 11.9825 2.5 11.9836 2.5 11.9847C2.5 11.9858 2.5 11.9869 2.5 11.988C2.5 11.9891 2.5 11.9902 2.5 11.9914H3ZM8.26491 3.00079L8.42684 3.47385L8.99965 3.27777L8.83772 2.80472L8.6758 2.33166L8.10298 2.52774L8.26491 3.00079ZM15.1623 2.80472L15.0003 3.27777L15.5732 3.47385L15.7351 3.00079L15.897 2.52774L15.3242 2.33166L15.1623 2.80472ZM14.1014 21.5273L13.9013 21.0691C13.5334 21.2298 13.3002 21.3304 13.0384 21.3974C12.7838 21.4626 12.4832 21.5 12 21.5V22V22.5C12.536 22.5 12.9255 22.4586 13.2864 22.3662C13.6401 22.2756 13.948 22.1399 14.3016 21.9855L14.1014 21.5273ZM9.89856 21.5273L9.69841 21.9855C10.052 22.1399 10.3599 22.2756 10.7136 22.3662C11.0745 22.4586 11.4639 22.5 12 22.5V22V21.5C11.5168 21.5 11.2162 21.4626 10.9616 21.3974C10.6998 21.3304 10.4666 21.2298 10.0987 21.0691L9.89856 21.5273ZM21 10.4167H21.5C21.5 8.82422 21.5002 7.60854 21.4521 6.72495C21.428 6.2827 21.3911 5.90658 21.3317 5.59853C21.2739 5.29871 21.1866 5.01573 21.0317 4.79516L20.6225 5.08241L20.2132 5.36965C20.2472 5.41802 20.3014 5.53659 20.3498 5.78775C20.3966 6.03067 20.4304 6.35495 20.4536 6.77932C20.4998 7.629 20.5 8.81151 20.5 10.4167H21ZM15.7351 3.00079L15.5732 3.47385C17.0827 3.99055 18.1939 4.37114 18.9765 4.68907C19.3674 4.84786 19.6599 4.98457 19.8713 5.10734C20.0898 5.23428 20.1807 5.32334 20.2132 5.36965L20.6225 5.08241L21.0317 4.79516C20.8755 4.57254 20.6369 4.39558 20.3735 4.24259C20.1029 4.08545 19.7608 3.92834 19.3529 3.7626C18.5378 3.43149 17.3941 3.0402 15.897 2.52774L15.7351 3.00079ZM8.83772 2.80472L8.99965 3.27777C10.5984 2.7305 11.291 2.5 12 2.5V2V1.5C11.0862 1.5 10.2115 1.80597 8.6758 2.33166L8.83772 2.80472ZM15.1623 2.80472L15.3242 2.33166C13.7885 1.80597 12.9138 1.5 12 1.5V2V2.5C12.709 2.5 13.4016 2.7305 15.0003 3.27777L15.1623 2.80472ZM3 10.4167H3.5C3.5 8.81151 3.50018 7.629 3.54645 6.77932C3.56956 6.35495 3.60342 6.03067 3.65023 5.78775C3.69863 5.53659 3.75282 5.41802 3.78677 5.36965L3.37752 5.08241L2.96826 4.79516C2.81345 5.01573 2.72607 5.29871 2.6683 5.59853C2.60893 5.90658 2.57201 6.2827 2.54793 6.72495C2.49982 7.60854 2.5 8.82422 2.5 10.4167H3ZM8.26491 3.00079L8.10298 2.52774C6.60589 3.0402 5.46218 3.43149 4.64712 3.7626C4.23915 3.92834 3.89712 4.08545 3.62653 4.24259C3.36311 4.39558 3.12451 4.57254 2.96826 4.79516L3.37752 5.08241L3.78677 5.36965C3.81928 5.32334 3.91016 5.23428 4.12874 5.10734C4.34015 4.98457 4.63263 4.84786 5.0235 4.68907C5.80611 4.37113 6.91735 3.99055 8.42684 3.47385L8.26491 3.00079ZM9.5 12.4L9.12703 12.733L10.5556 14.333L10.9286 14L11.3015 13.667L9.87297 12.067L9.5 12.4ZM10.9286 14L11.3015 14.333L14.873 10.333L14.5 10L14.127 9.66699L10.5556 13.667L10.9286 14Z" fill="#3EAF3F"/>
</svg>
