<svg width="16" height="16" viewBox="0 0 16 16" fill="none" xmlns="http://www.w3.org/2000/svg">
<path d="M1.33334 10.8333C1.0572 10.8333 0.833344 11.0571 0.833344 11.3333C0.833344 11.6094 1.0572 11.8333 1.33334 11.8333V11.3333V10.8333ZM7.16522 9.39123L6.73647 9.13399L7.16522 9.39123ZM8.8348 6.6086L9.26355 6.86585L8.8348 6.6086ZM14.6667 4.66659L15.0202 5.02014C15.2155 4.82488 15.2155 4.50829 15.0202 4.31303L14.6667 4.66659ZM12.9798 5.64637C12.7845 5.84163 12.7845 6.15821 12.9798 6.35347C13.1751 6.54873 13.4916 6.54873 13.6869 6.35347L13.3333 5.99992L12.9798 5.64637ZM13.6869 2.9797C13.4916 2.78444 13.1751 2.78444 12.9798 2.9797C12.7845 3.17496 12.7845 3.49154 12.9798 3.68681L13.3333 3.33325L13.6869 2.9797ZM10.147 4.92619L9.90064 4.49109L9.90064 4.49109L10.147 4.92619ZM1.33334 4.16659C1.0572 4.16659 0.833344 4.39044 0.833344 4.66659C0.833344 4.94273 1.0572 5.16659 1.33334 5.16659V4.66659V4.16659ZM14.6667 11.3333L15.0202 11.6868C15.2155 11.4915 15.2155 11.175 15.0202 10.9797L14.6667 11.3333ZM13.6869 9.64637C13.4916 9.4511 13.1751 9.4511 12.9798 9.64637C12.7845 9.84163 12.7845 10.1582 12.9798 10.3535L13.3333 9.99992L13.6869 9.64637ZM12.9798 12.313C12.7845 12.5083 12.7845 12.8249 12.9798 13.0201C13.1751 13.2154 13.4916 13.2154 13.6869 13.0201L13.3333 12.6666L12.9798 12.313ZM10.7503 11.2964L10.8458 10.8056L10.8458 10.8056L10.7503 11.2964ZM9.62876 9.74267C9.48668 9.50588 9.17955 9.4291 8.94276 9.57117C8.70597 9.71325 8.62919 10.0204 8.77126 10.2572L9.20001 9.99992L9.62876 9.74267ZM9.64559 10.6709L10.0173 10.3365V10.3365L9.64559 10.6709ZM5.24974 4.70343L5.34527 4.21264L5.24974 4.70343ZM6.37126 6.25717C6.51334 6.49396 6.82047 6.57074 7.05726 6.42867C7.29405 6.28659 7.37083 5.97946 7.22876 5.74267L6.80001 5.99992L6.37126 6.25717ZM6.35443 5.32889L5.98273 5.66331L6.35443 5.32889ZM1.33334 11.3333V11.8333H3.73525V11.3333V10.8333H1.33334V11.3333ZM7.16522 9.39123L7.59397 9.64848L9.26355 6.86585L8.8348 6.6086L8.40605 6.35136L6.73647 9.13399L7.16522 9.39123ZM12.2648 4.66659V5.16659H14.6667V4.66659V4.16659H12.2648V4.66659ZM14.6667 4.66659L14.3131 4.31303L12.9798 5.64637L13.3333 5.99992L13.6869 6.35347L15.0202 5.02014L14.6667 4.66659ZM14.6667 4.66659L15.0202 4.31303L13.6869 2.9797L13.3333 3.33325L12.9798 3.68681L14.3131 5.02014L14.6667 4.66659ZM8.8348 6.6086L9.26355 6.86585C9.55303 6.38337 9.7524 6.05215 9.93423 5.80656C10.1096 5.56968 10.2461 5.44463 10.3933 5.36129L10.147 4.92619L9.90064 4.49109C9.58935 4.66734 9.35434 4.90923 9.13053 5.21152C8.91317 5.50511 8.68569 5.88529 8.40605 6.35136L8.8348 6.6086ZM12.2648 4.66659V4.16659C11.7213 4.16659 11.2782 4.16604 10.9146 4.20138C10.5403 4.23777 10.2119 4.31483 9.90064 4.49109L10.147 4.92619L10.3933 5.36129C10.5405 5.27794 10.718 5.2252 11.0114 5.19669C11.3155 5.16713 11.7021 5.16659 12.2648 5.16659V4.66659ZM3.73525 11.3333V11.8333C4.27877 11.8333 4.72181 11.8338 5.08539 11.7985C5.45975 11.7621 5.78808 11.685 6.09938 11.5088L5.85303 11.0737L5.60668 10.6386C5.45947 10.7219 5.282 10.7746 4.98865 10.8031C4.68451 10.8327 4.29791 10.8333 3.73525 10.8333V11.3333ZM7.16522 9.39123L6.73647 9.13399C6.44699 9.61647 6.24762 9.94769 6.06579 10.1933C5.89041 10.4302 5.75388 10.5552 5.60668 10.6386L5.85303 11.0737L6.09938 11.5088C6.41067 11.3325 6.64568 11.0906 6.86949 10.7883C7.08685 10.4947 7.31433 10.1145 7.59397 9.64848L7.16522 9.39123ZM1.33334 4.66659V5.16659H4.44509V4.66659V4.16659H1.33334V4.66659ZM11.5549 11.3333V11.8333H14.6667V11.3333V10.8333H11.5549V11.3333ZM14.6667 11.3333L15.0202 10.9797L13.6869 9.64637L13.3333 9.99992L12.9798 10.3535L14.3131 11.6868L14.6667 11.3333ZM14.6667 11.3333L14.3131 10.9797L12.9798 12.313L13.3333 12.6666L13.6869 13.0201L15.0202 11.6868L14.6667 11.3333ZM11.5549 11.3333V10.8333C11.1245 10.8333 10.9765 10.8311 10.8458 10.8056L10.7503 11.2964L10.6547 11.7872C10.9026 11.8354 11.1649 11.8333 11.5549 11.8333V11.3333ZM9.20001 9.99992L8.77126 10.2572C8.97193 10.5916 9.10503 10.8177 9.27389 11.0054L9.64559 10.6709L10.0173 10.3365C9.92821 10.2375 9.85023 10.1118 9.62876 9.74267L9.20001 9.99992ZM10.7503 11.2964L10.8458 10.8056C10.526 10.7434 10.2352 10.5787 10.0173 10.3365L9.64559 10.6709L9.27389 11.0054C9.63706 11.409 10.1218 11.6835 10.6547 11.7872L10.7503 11.2964ZM4.44509 4.66659V5.16659C4.87556 5.16659 5.02347 5.16877 5.15422 5.19422L5.24974 4.70343L5.34527 4.21264C5.09745 4.1644 4.83512 4.16659 4.44509 4.16659V4.66659ZM6.80001 5.99992L7.22876 5.74267C7.02809 5.40822 6.89499 5.18215 6.72613 4.99446L6.35443 5.32889L5.98273 5.66331C6.07182 5.76233 6.14979 5.88804 6.37126 6.25717L6.80001 5.99992ZM5.24974 4.70343L5.15422 5.19422C5.474 5.25646 5.76483 5.42112 5.98273 5.66331L6.35443 5.32889L6.72613 4.99446C6.36296 4.59082 5.87825 4.31638 5.34527 4.21264L5.24974 4.70343Z" fill="#2372EC"/>
</svg>
