<svg width="32" height="32" viewBox="0 0 32 32" fill="none" xmlns="http://www.w3.org/2000/svg">
<path d="M18.0003 23.3332C18.0003 24.4377 17.1049 25.3332 16.0003 25.3332C14.8958 25.3332 14.0003 24.4377 14.0003 23.3332C14.0003 22.2286 14.8958 21.3332 16.0003 21.3332C17.1049 21.3332 18.0003 22.2286 18.0003 23.3332Z" fill="#96BFFF"/>
<path d="M26.167 29.3332C26.167 29.6093 26.3909 29.8332 26.667 29.8332C26.9431 29.8332 27.167 29.6093 27.167 29.3332H26.667H26.167ZM4.83366 29.3332C4.83366 29.6093 5.05752 29.8332 5.33366 29.8332C5.6098 29.8332 5.83366 29.6093 5.83366 29.3332H5.33366H4.83366ZM19.242 14.8697C18.986 14.7661 18.6945 14.8896 18.5909 15.1456C18.4873 15.4015 18.6108 15.693 18.8668 15.7966L19.0544 15.3332L19.242 14.8697ZM21.5365 18.4664C21.6402 18.7224 21.9317 18.8459 22.1876 18.7423C22.4436 18.6387 22.5671 18.3472 22.4635 18.0912L22 18.2788L21.5365 18.4664ZM2.66699 28.8332C2.39085 28.8332 2.16699 29.057 2.16699 29.3332C2.16699 29.6093 2.39085 29.8332 2.66699 29.8332V29.3332V28.8332ZM29.3337 29.8332C29.6098 29.8332 29.8337 29.6093 29.8337 29.3332C29.8337 29.057 29.6098 28.8332 29.3337 28.8332V29.3332V29.8332ZM16.5003 2.6665C16.5003 2.39036 16.2765 2.1665 16.0003 2.1665C15.7242 2.1665 15.5003 2.39036 15.5003 2.6665H16.0003H16.5003ZM15.5003 6.6665C15.5003 6.94265 15.7242 7.1665 16.0003 7.1665C16.2765 7.1665 16.5003 6.94265 16.5003 6.6665H16.0003H15.5003ZM28.3539 8.35339C28.5491 8.15813 28.5491 7.84155 28.3539 7.64628C28.1586 7.45102 27.842 7.45102 27.6468 7.64628L28.0003 7.99984L28.3539 8.35339ZM25.6468 9.64628C25.4515 9.84155 25.4515 10.1581 25.6468 10.3534C25.842 10.5487 26.1586 10.5487 26.3539 10.3534L26.0003 9.99984L25.6468 9.64628ZM4.35388 7.64628C4.15862 7.45102 3.84203 7.45102 3.64677 7.64628C3.45151 7.84155 3.45151 8.15813 3.64677 8.35339L4.00033 7.99984L4.35388 7.64628ZM5.64677 10.3534C5.84203 10.5487 6.15862 10.5487 6.35388 10.3534C6.54914 10.1581 6.54914 9.84155 6.35388 9.64628L6.00033 9.99984L5.64677 10.3534ZM15.5003 29.3332C15.5003 29.6093 15.7242 29.8332 16.0003 29.8332C16.2765 29.8332 16.5003 29.6093 16.5003 29.3332H16.0003H15.5003ZM26.667 21.3332H26.167V29.3332H26.667H27.167V21.3332H26.667ZM5.33366 29.3332H5.83366V21.3332H5.33366H4.83366V29.3332H5.33366ZM16.0003 10.6665V11.1665C21.6152 11.1665 26.167 15.7183 26.167 21.3332H26.667H27.167C27.167 15.166 22.1675 10.1665 16.0003 10.1665V10.6665ZM16.0003 10.6665V10.1665C9.83315 10.1665 4.83366 15.166 4.83366 21.3332H5.33366H5.83366C5.83366 15.7183 10.3854 11.1665 16.0003 11.1665V10.6665ZM19.0544 15.3332L18.8668 15.7966C20.0782 16.287 21.0462 17.255 21.5365 18.4664L22 18.2788L22.4635 18.0912C21.8715 16.6288 20.7044 15.4617 19.242 14.8697L19.0544 15.3332ZM2.66699 29.3332V29.8332H29.3337V29.3332V28.8332H2.66699V29.3332ZM16.0003 2.6665H15.5003V6.6665H16.0003H16.5003V2.6665H16.0003ZM28.0003 7.99984L27.6468 7.64628L25.6468 9.64628L26.0003 9.99984L26.3539 10.3534L28.3539 8.35339L28.0003 7.99984ZM4.00033 7.99984L3.64677 8.35339L5.64677 10.3534L6.00033 9.99984L6.35388 9.64628L4.35388 7.64628L4.00033 7.99984ZM18.0003 23.3332H17.5003C17.5003 24.1616 16.8288 24.8332 16.0003 24.8332V25.3332V25.8332C17.381 25.8332 18.5003 24.7139 18.5003 23.3332H18.0003ZM16.0003 25.3332V24.8332C15.1719 24.8332 14.5003 24.1616 14.5003 23.3332H14.0003H13.5003C13.5003 24.7139 14.6196 25.8332 16.0003 25.8332V25.3332ZM14.0003 23.3332H14.5003C14.5003 22.5047 15.1719 21.8332 16.0003 21.8332V21.3332V20.8332C14.6196 20.8332 13.5003 21.9525 13.5003 23.3332H14.0003ZM16.0003 21.3332V21.8332C16.8288 21.8332 17.5003 22.5047 17.5003 23.3332H18.0003H18.5003C18.5003 21.9525 17.381 20.8332 16.0003 20.8332V21.3332ZM16.0003 25.3332H15.5003V29.3332H16.0003H16.5003V25.3332H16.0003Z" fill="#0D47A1"/>
</svg>
