<svg width="24" height="24" viewBox="0 0 24 24" fill="none" xmlns="http://www.w3.org/2000/svg">
<path d="M17.8144 15.236L17.5433 15.6939C17.3017 16.102 16.6982 16.102 16.4567 15.6939L16.1856 15.236C15.9754 14.8808 15.8702 14.7032 15.7014 14.605C15.5325 14.5068 15.32 14.5031 14.8948 14.4958C14.2671 14.4849 13.8734 14.4465 13.5433 14.3097C12.9307 14.056 12.444 13.5693 12.1903 12.9567C12 12.4973 12 11.9149 12 10.75V10.25C12 8.6133 12 7.79493 12.3684 7.19376C12.5745 6.85737 12.8574 6.57454 13.1938 6.3684C13.7949 6 14.6133 6 16.25 6H17.75C19.3867 6 20.2051 6 20.8062 6.3684C21.1426 6.57454 21.4255 6.85737 21.6316 7.19376C22 7.79493 22 8.6133 22 10.25V10.75C22 11.9149 22 12.4973 21.8097 12.9567C21.556 13.5693 21.0693 14.056 20.4567 14.3097C20.1266 14.4465 19.7329 14.4849 19.1052 14.4958C18.68 14.5031 18.4674 14.5068 18.2986 14.605C18.1297 14.7032 18.0246 14.8808 17.8144 15.236Z" fill="#F8FAFF"/>
<path d="M16.8284 20.8284L16.4749 20.4749H16.4749L16.8284 20.8284ZM16.8284 3.17157L17.182 2.81802V2.81802L16.8284 3.17157ZM13 19.5C13.2761 19.5 13.5 19.2761 13.5 19C13.5 18.7239 13.2761 18.5 13 18.5V19V19.5ZM7 18.5C6.72386 18.5 6.5 18.7239 6.5 19C6.5 19.2761 6.72386 19.5 7 19.5V19V18.5ZM18.3327 18.5726C18.3728 18.2994 18.1838 18.0454 17.9106 18.0053C17.6374 17.9652 17.3834 18.1542 17.3433 18.4274L17.838 18.5L18.3327 18.5726ZM16.9654 4.21858C17.0862 4.46694 17.3854 4.57041 17.6337 4.44969C17.8821 4.32898 17.9855 4.02978 17.8648 3.78142L17.4151 4L16.9654 4.21858ZM17.5433 15.6939L17.9736 15.9486L17.5433 15.6939ZM17.8144 15.236L17.3841 14.9813L17.8144 15.236ZM16.1856 15.236L15.7553 15.4906L16.1856 15.236ZM16.4567 15.6939L16.8869 15.4392L16.4567 15.6939ZM12.1903 12.9567L12.6522 12.7654L12.1903 12.9567ZM14.8948 14.4958L14.8862 14.9957L14.8948 14.4958ZM13.5433 14.3097L13.3519 14.7717L13.5433 14.3097ZM21.8097 12.9567L22.2716 13.1481L21.8097 12.9567ZM19.1052 14.4958L19.0966 13.9958L19.1052 14.4958ZM20.4567 14.3097L20.6481 14.7717L20.4567 14.3097ZM20.8062 6.3684L21.0675 5.94208L20.8062 6.3684ZM21.6316 7.19376L22.0579 6.93251L21.6316 7.19376ZM13.1938 6.3684L12.9325 5.94208L13.1938 6.3684ZM12.3684 7.19376L12.7947 7.45501L12.3684 7.19376ZM15.7014 14.605L15.9528 14.1727L15.9528 14.1727L15.7014 14.605ZM2 14H2.5V10H2H1.5V14H2ZM10 22V21.5C8.10025 21.5 6.72573 21.4989 5.67754 21.358C4.64373 21.219 4.00253 20.9523 3.52513 20.4749L3.17157 20.8284L2.81802 21.182C3.51219 21.8762 4.39959 22.1952 5.54429 22.3491C6.67461 22.5011 8.12852 22.5 10 22.5V22ZM2 14H1.5C1.5 15.8715 1.49894 17.3254 1.65091 18.4557C1.80481 19.6004 2.12385 20.4878 2.81802 21.182L3.17157 20.8284L3.52513 20.4749C3.04772 19.9975 2.78098 19.3563 2.64199 18.3225C2.50106 17.2743 2.5 15.8998 2.5 14H2ZM10 22V22.5C11.8715 22.5 13.3254 22.5011 14.4557 22.3491C15.6004 22.1952 16.4878 21.8762 17.182 21.182L16.8284 20.8284L16.4749 20.4749C15.9975 20.9523 15.3563 21.219 14.3225 21.358C13.2743 21.4989 11.8998 21.5 10 21.5V22ZM10 2V2.5C11.8998 2.5 13.2743 2.50106 14.3225 2.64199C15.3563 2.78098 15.9975 3.04772 16.4749 3.52513L16.8284 3.17157L17.182 2.81802C16.4878 2.12385 15.6004 1.80481 14.4557 1.65091C13.3254 1.49894 11.8715 1.5 10 1.5V2ZM10 2V1.5C8.12852 1.5 6.67461 1.49894 5.54429 1.65091C4.39959 1.80481 3.51219 2.12385 2.81802 2.81802L3.17157 3.17157L3.52513 3.52513C4.00253 3.04772 4.64373 2.78098 5.67754 2.64199C6.72573 2.50106 8.10025 2.5 10 2.5V2ZM2 10H2.5C2.5 8.10025 2.50106 6.72573 2.64199 5.67754C2.78098 4.64373 3.04772 4.00253 3.52513 3.52513L3.17157 3.17157L2.81802 2.81802C2.12385 3.51219 1.80481 4.39959 1.65091 5.54429C1.49894 6.6746 1.5 8.12852 1.5 10H2ZM13 19V18.5H7V19V19.5H13V19ZM17.838 18.5L17.3433 18.4274C17.2005 19.3997 16.9361 20.0136 16.4749 20.4749L16.8284 20.8284L17.182 21.182C17.8521 20.5118 18.1728 19.6614 18.3327 18.5726L17.838 18.5ZM17.4151 4L17.8648 3.78142C17.6891 3.41987 17.4651 3.1011 17.182 2.81802L16.8284 3.17157L16.4749 3.52513C16.6762 3.72641 16.8364 3.95302 16.9654 4.21858L17.4151 4ZM17.5433 15.6939L17.9736 15.9486L18.2447 15.4906L17.8144 15.236L17.3841 14.9813L17.1131 15.4392L17.5433 15.6939ZM16.1856 15.236L15.7553 15.4906L16.0264 15.9486L16.4567 15.6939L16.8869 15.4392L16.6159 14.9813L16.1856 15.236ZM17.5433 15.6939L17.1131 15.4392C17.0908 15.4767 17.0521 15.5 17 15.5C16.9479 15.5 16.9091 15.4767 16.8869 15.4392L16.4567 15.6939L16.0264 15.9486C16.4616 16.6838 17.5384 16.6838 17.9736 15.9486L17.5433 15.6939ZM16.25 6V6.5H17.75V6V5.5H16.25V6ZM22 10.25H21.5V10.75H22H22.5V10.25H22ZM12 10.75H12.5V10.25H12H11.5V10.75H12ZM12 10.75H11.5C11.5 11.3256 11.4997 11.7823 11.5249 12.1519C11.5505 12.5261 11.6038 12.8473 11.7284 13.1481L12.1903 12.9567L12.6522 12.7654C12.5865 12.6068 12.5447 12.4071 12.5226 12.0839C12.5003 11.7562 12.5 11.3393 12.5 10.75H12ZM14.8948 14.4958L14.9034 13.9958C14.2757 13.985 13.9683 13.9446 13.7346 13.8478L13.5433 14.3097L13.3519 14.7717C13.7785 14.9484 14.2585 14.9849 14.8862 14.9957L14.8948 14.4958ZM12.1903 12.9567L11.7284 13.1481C12.0328 13.8832 12.6169 14.4672 13.3519 14.7717L13.5433 14.3097L13.7346 13.8478C13.2446 13.6448 12.8552 13.2555 12.6522 12.7654L12.1903 12.9567ZM22 10.75H21.5C21.5 11.3393 21.4997 11.7562 21.4774 12.0839C21.4553 12.4071 21.4135 12.6068 21.3478 12.7654L21.8097 12.9567L22.2716 13.1481C22.3962 12.8473 22.4495 12.5261 22.4751 12.1519C22.5003 11.7823 22.5 11.3256 22.5 10.75H22ZM19.1052 14.4958L19.1138 14.9957C19.7414 14.9849 20.2215 14.9484 20.6481 14.7717L20.4567 14.3097L20.2654 13.8478C20.0317 13.9446 19.7243 13.985 19.0966 13.9958L19.1052 14.4958ZM21.8097 12.9567L21.3478 12.7654C21.1448 13.2555 20.7554 13.6448 20.2654 13.8478L20.4567 14.3097L20.6481 14.7717C21.3831 14.4672 21.9672 13.8832 22.2716 13.1481L21.8097 12.9567ZM17.75 6V6.5C18.578 6.5 19.164 6.50053 19.6191 6.54381C20.0669 6.58638 20.3362 6.66675 20.545 6.79472L20.8062 6.3684L21.0675 5.94208C20.6751 5.70165 20.2347 5.59783 19.7138 5.5483C19.2003 5.49947 18.5587 5.5 17.75 5.5V6ZM22 10.25H22.5C22.5 9.44134 22.5005 8.79972 22.4517 8.28623C22.4022 7.7653 22.2984 7.32486 22.0579 6.93251L21.6316 7.19376L21.2053 7.45501C21.3332 7.66383 21.4136 7.93316 21.4562 8.38089C21.4995 8.83605 21.5 9.42197 21.5 10.25H22ZM20.8062 6.3684L20.545 6.79472C20.8141 6.95963 21.0404 7.18589 21.2053 7.45501L21.6316 7.19376L22.0579 6.93251C21.8106 6.52884 21.4712 6.18945 21.0675 5.94208L20.8062 6.3684ZM16.25 6V5.5C15.4413 5.5 14.7997 5.49947 14.2862 5.5483C13.7653 5.59783 13.3249 5.70165 12.9325 5.94208L13.1938 6.3684L13.455 6.79472C13.6638 6.66675 13.9331 6.58638 14.3809 6.54381C14.836 6.50053 15.422 6.5 16.25 6.5V6ZM12 10.25H12.5C12.5 9.42197 12.5005 8.83605 12.5438 8.38088C12.5864 7.93316 12.6668 7.66383 12.7947 7.45501L12.3684 7.19376L11.9421 6.93251C11.7016 7.32486 11.5978 7.76531 11.5483 8.28623C11.4995 8.79972 11.5 9.44134 11.5 10.25H12ZM13.1938 6.3684L12.9325 5.94208C12.5288 6.18945 12.1894 6.52884 11.9421 6.93251L12.3684 7.19376L12.7947 7.45501C12.9596 7.18589 13.1859 6.95963 13.455 6.79472L13.1938 6.3684ZM16.1856 15.236L16.6159 14.9813C16.5156 14.8118 16.423 14.6544 16.332 14.5296C16.2349 14.3963 16.1182 14.2689 15.9528 14.1727L15.7014 14.605L15.45 15.0372C15.4535 15.0392 15.4737 15.0497 15.5239 15.1186C15.5803 15.1959 15.6454 15.3049 15.7553 15.4906L16.1856 15.236ZM14.8948 14.4958L14.8862 14.9957C15.108 14.9995 15.2403 15.0023 15.3392 15.0132C15.4288 15.0232 15.4482 15.0361 15.45 15.0372L15.7014 14.605L15.9528 14.1727C15.7857 14.0756 15.6144 14.0376 15.4492 14.0193C15.2933 14.0021 15.1067 13.9993 14.9034 13.9958L14.8948 14.4958ZM17.8144 15.236L18.2447 15.4906C18.3546 15.3049 18.4197 15.1959 18.4761 15.1186C18.5263 15.0497 18.5465 15.0392 18.55 15.0372L18.2986 14.605L18.0472 14.1727C17.8818 14.2689 17.7651 14.3963 17.6679 14.5296C17.577 14.6544 17.4844 14.8118 17.3841 14.9813L17.8144 15.236ZM19.1052 14.4958L19.0966 13.9958C18.8933 13.9993 18.7067 14.0021 18.5507 14.0193C18.3855 14.0376 18.2142 14.0756 18.0472 14.1727L18.2986 14.605L18.55 15.0372C18.5518 15.0361 18.5712 15.0232 18.6608 15.0132C18.7597 15.0023 18.8919 14.9995 19.1138 14.9957L19.1052 14.4958Z" fill="#2372EC"/>
</svg>
