<svg width="20" height="20" viewBox="0 0 20 20" fill="none" xmlns="http://www.w3.org/2000/svg">
<g clip-path="url(#clip0_3911_22292)">
<path d="M7.62772 4.50694C8.68326 2.6134 9.21103 1.66663 10.0001 1.66663C10.7891 1.66663 11.3169 2.6134 12.3724 4.50694L12.6455 4.99682C12.9455 5.53491 13.0955 5.80395 13.3293 5.98146C13.5631 6.15898 13.8544 6.22488 14.4368 6.35667L14.9671 6.47665C17.0169 6.94042 18.0417 7.17231 18.2856 7.9564C18.5294 8.7405 17.8307 9.55752 16.4333 11.1916L16.0718 11.6143C15.6747 12.0787 15.4762 12.3108 15.3869 12.5981C15.2975 12.8853 15.3276 13.1951 15.3876 13.8146L15.4423 14.3786C15.6535 16.5588 15.7591 17.6489 15.1208 18.1335C14.4824 18.6181 13.5229 18.1762 11.6037 17.2926L11.1072 17.064C10.5618 16.8129 10.2891 16.6873 10.0001 16.6873C9.71104 16.6873 9.43835 16.8129 8.89299 17.064L8.39648 17.2926C6.47731 18.1762 5.51773 18.6181 4.87937 18.1335C4.24102 17.6489 4.34665 16.5588 4.55791 14.3786L4.61257 13.8146C4.6726 13.1951 4.70262 12.8853 4.6133 12.5981C4.52398 12.3108 4.32544 12.0787 3.92835 11.6143L3.56683 11.1916C2.16946 9.55752 1.47077 8.7405 1.7146 7.9564C1.95843 7.17231 2.9833 6.94042 5.03303 6.47665L5.56332 6.35667C6.14579 6.22488 6.43703 6.15898 6.67087 5.98146C6.90471 5.80395 7.05469 5.53491 7.35464 4.99682L7.62772 4.50694Z" fill="#FFC31F" stroke="#BE8B00" stroke-width="1.5"/>
</g>
<defs>
<clipPath id="clip0_3911_22292">
<rect width="20" height="20" fill="white"/>
</clipPath>
</defs>
</svg>
