<svg width="32" height="32" viewBox="0 0 32 32" fill="none" xmlns="http://www.w3.org/2000/svg">
<path d="M29.3334 21.3332C29.3334 23.5423 27.5425 25.3332 25.3334 25.3332C23.1242 25.3332 21.3334 23.5423 21.3334 21.3332C21.3334 19.124 23.1242 17.3332 25.3334 17.3332C27.5425 17.3332 29.3334 19.124 29.3334 21.3332Z" fill="#96BFFF"/>
<path d="M25.61 25.4687C25.6848 25.2029 25.5299 24.9267 25.2641 24.8519C24.9983 24.7771 24.7222 24.932 24.6474 25.1978L25.1287 25.3332L25.61 25.4687ZM7.23812 4.49984C7.51426 4.49984 7.73812 4.27598 7.73812 3.99984C7.73812 3.72369 7.51426 3.49984 7.23812 3.49984V3.99984V4.49984ZM16.381 3.49984C16.1048 3.49984 15.881 3.72369 15.881 3.99984C15.881 4.27598 16.1048 4.49984 16.381 4.49984V3.99984V3.49984ZM20.9369 7.6475L20.4388 7.69154V7.69154L20.9369 7.6475ZM17.3047 4.01539L17.2607 4.51344V4.51344L17.3047 4.01539ZM6.31435 4.01539L6.2703 3.51733V3.51733L6.31435 4.01539ZM2.68224 7.6475L3.18029 7.69154V7.69154L2.68224 7.6475ZM16.5 2.6665C16.5 2.39036 16.2762 2.1665 16 2.1665C15.7239 2.1665 15.5 2.39036 15.5 2.6665H16H16.5ZM15.5 5.33317C15.5 5.60931 15.7239 5.83317 16 5.83317C16.2762 5.83317 16.5 5.60931 16.5 5.33317H16H15.5ZM8.50002 2.6665C8.50002 2.39036 8.27616 2.1665 8.00002 2.1665C7.72388 2.1665 7.50002 2.39036 7.50002 2.6665H8.00002H8.50002ZM7.50002 5.33317C7.50002 5.60931 7.72388 5.83317 8.00002 5.83317C8.27616 5.83317 8.50002 5.60931 8.50002 5.33317H8.00002H7.50002ZM12 18.9803H11.5V22.6666H12H12.5V18.9803H12ZM18.6667 29.3332V29.8332H19.8432V29.3332V28.8332H18.6667V29.3332ZM12 22.6666H11.5C11.5 26.6246 14.7086 29.8332 18.6667 29.8332V29.3332V28.8332C15.2609 28.8332 12.5 26.0723 12.5 22.6666H12ZM19.8432 29.3332V29.8332C22.5886 29.8332 24.9015 27.9867 25.61 25.4687L25.1287 25.3332L24.6474 25.1978C24.0571 27.2959 22.129 28.8332 19.8432 28.8332V29.3332ZM7.23812 3.99984V3.49984H7.11588V3.99984V4.49984H7.23812V3.99984ZM2.66669 8.44903H2.16669V9.64689H2.66669H3.16669V8.44903H2.66669ZM20.9524 10.0278H21.4524V8.44904H20.9524H20.4524V10.0278H20.9524ZM16.5032 3.99984V3.49984H16.381V3.99984V4.49984H16.5032V3.99984ZM20.9524 8.44904H21.4524C21.4524 8.04258 21.4529 7.8068 21.4349 7.60345L20.9369 7.6475L20.4388 7.69154C20.4519 7.83985 20.4524 8.02121 20.4524 8.44904H20.9524ZM16.5032 3.99984V4.49984C16.931 4.49984 17.1124 4.50033 17.2607 4.51344L17.3047 4.01539L17.3488 3.51733C17.1454 3.49935 16.9097 3.49984 16.5032 3.49984V3.99984ZM20.9369 7.6475L21.4349 7.60345C21.2428 5.43128 19.521 3.70941 17.3488 3.51733L17.3047 4.01539L17.2607 4.51344C18.9502 4.66284 20.2894 6.00207 20.4388 7.69154L20.9369 7.6475ZM20.9524 10.0278H20.4524C20.4524 14.696 16.6681 18.4803 12 18.4803V18.9803V19.4803C17.2204 19.4803 21.4524 15.2482 21.4524 10.0278H20.9524ZM2.66669 9.64689H2.16669C2.16669 15.0777 6.56922 19.4803 12 19.4803V18.9803V18.4803C7.12151 18.4803 3.16669 14.5254 3.16669 9.64689H2.66669ZM7.11588 3.99984V3.49984C6.70943 3.49984 6.47365 3.49935 6.2703 3.51733L6.31435 4.01539L6.35839 4.51344C6.5067 4.50033 6.68806 4.49984 7.11588 4.49984V3.99984ZM2.66669 8.44903H3.16669C3.16669 8.02121 3.16718 7.83985 3.18029 7.69154L2.68224 7.6475L2.18418 7.60345C2.1662 7.8068 2.16669 8.04258 2.16669 8.44903H2.66669ZM6.31435 4.01539L6.2703 3.51733C4.09813 3.70941 2.37626 5.43128 2.18418 7.60345L2.68224 7.6475L3.18029 7.69154C3.32969 6.00207 4.66892 4.66284 6.35839 4.51344L6.31435 4.01539ZM29.3334 21.3332H28.8334C28.8334 23.2662 27.2664 24.8332 25.3334 24.8332V25.3332V25.8332C27.8186 25.8332 29.8334 23.8185 29.8334 21.3332H29.3334ZM25.3334 25.3332V24.8332C23.4004 24.8332 21.8334 23.2662 21.8334 21.3332H21.3334H20.8334C20.8334 23.8185 22.8481 25.8332 25.3334 25.8332V25.3332ZM21.3334 21.3332H21.8334C21.8334 19.4002 23.4004 17.8332 25.3334 17.8332V17.3332V16.8332C22.8481 16.8332 20.8334 18.8479 20.8334 21.3332H21.3334ZM25.3334 17.3332V17.8332C27.2664 17.8332 28.8334 19.4002 28.8334 21.3332H29.3334H29.8334C29.8334 18.8479 27.8186 16.8332 25.3334 16.8332V17.3332ZM16 2.6665H15.5V5.33317H16H16.5V2.6665H16ZM8.00002 2.6665H7.50002V5.33317H8.00002H8.50002V2.6665H8.00002Z" fill="#0D47A1"/>
</svg>
