<svg width="24" height="24" viewBox="0 0 24 24" fill="none" xmlns="http://www.w3.org/2000/svg">
<path d="M22 16C22 17.6569 20.6569 19 19 19C17.3431 19 16 17.6569 16 16C16 14.3431 17.3431 13 19 13C20.6569 13 22 14.3431 22 16Z" fill="#F8FAFF"/>
<path d="M19.3278 19.1355C19.4026 18.8697 19.2478 18.5935 18.9819 18.5187C18.7161 18.444 18.44 18.5988 18.3652 18.8646L18.8465 19.0001L19.3278 19.1355ZM5.42857 3.5C5.70471 3.5 5.92857 3.27614 5.92857 3C5.92857 2.72386 5.70471 2.5 5.42857 2.5V3V3.5ZM12.2857 2.5C12.0096 2.5 11.7857 2.72386 11.7857 3C11.7857 3.27614 12.0096 3.5 12.2857 3.5V3V2.5ZM15.7026 5.73574L15.2046 5.77979V5.77979L15.7026 5.73574ZM12.9785 3.01166L12.9345 3.50972L12.9785 3.01166ZM4.73574 3.01166L4.6917 2.5136L4.73574 3.01166ZM2.01166 5.73574L2.50972 5.77979L2.01166 5.73574ZM12.5 2C12.5 1.72386 12.2761 1.5 12 1.5C11.7239 1.5 11.5 1.72386 11.5 2H12H12.5ZM11.5 4C11.5 4.27614 11.7239 4.5 12 4.5C12.2761 4.5 12.5 4.27614 12.5 4H12H11.5ZM6.5 2C6.5 1.72386 6.27614 1.5 6 1.5C5.72386 1.5 5.5 1.72386 5.5 2H6H6.5ZM5.5 4C5.5 4.27614 5.72386 4.5 6 4.5C6.27614 4.5 6.5 4.27614 6.5 4H6H5.5ZM9 14.2354H8.5V17.0001H9H9.5V14.2354H9ZM14 22.0001V22.5001H14.8824V22.0001V21.5001H14V22.0001ZM9 17.0001H8.5C8.5 20.0376 10.9624 22.5001 14 22.5001V22.0001V21.5001C11.5147 21.5001 9.5 19.4853 9.5 17.0001H9ZM14.8824 22.0001V22.5001C16.9989 22.5001 18.7817 21.0765 19.3278 19.1355L18.8465 19.0001L18.3652 18.8646C17.9372 20.3857 16.5393 21.5001 14.8824 21.5001V22.0001ZM5.42857 3V2.5H5.3369V3V3.5H5.42857V3ZM2 6.3369H1.5V7.23529H2H2.5V6.3369H2ZM15.7143 7.521H16.2143V6.3369H15.7143H15.2143V7.521H15.7143ZM12.3774 3V2.5H12.2857V3V3.5H12.3774V3ZM15.7143 6.3369H16.2143C16.2143 6.03473 16.2148 5.85109 16.2007 5.6917L15.7026 5.73574L15.2046 5.77979C15.2138 5.88414 15.2143 6.01336 15.2143 6.3369H15.7143ZM12.3774 3V3.5C12.7009 3.5 12.8301 3.50049 12.9345 3.50972L12.9785 3.01166L13.0226 2.5136C12.8632 2.49951 12.6796 2.5 12.3774 2.5V3ZM15.7026 5.73574L16.2007 5.6917C16.0513 4.00223 14.7121 2.663 13.0226 2.5136L12.9785 3.01166L12.9345 3.50972C14.1413 3.61643 15.0979 4.57302 15.2046 5.77979L15.7026 5.73574ZM15.7143 7.521H15.2143C15.2143 10.9531 12.4321 13.7354 9 13.7354V14.2354V14.7354C12.9843 14.7354 16.2143 11.5053 16.2143 7.521H15.7143ZM2 7.23529H1.5C1.5 11.3774 4.85786 14.7354 9 14.7354V14.2354V13.7354C5.41015 13.7354 2.5 10.8251 2.5 7.23529H2ZM5.3369 3V2.5C5.03473 2.5 4.85109 2.49951 4.6917 2.5136L4.73574 3.01166L4.77979 3.50972C4.88414 3.50049 5.01336 3.5 5.3369 3.5V3ZM2 6.3369H2.5C2.5 6.01336 2.50049 5.88414 2.50972 5.77979L2.01166 5.73574L1.5136 5.6917C1.49951 5.85109 1.5 6.03473 1.5 6.3369H2ZM4.73574 3.01166L4.6917 2.5136C3.00223 2.663 1.663 4.00223 1.5136 5.6917L2.01166 5.73574L2.50972 5.77979C2.61643 4.57302 3.57302 3.61643 4.77979 3.50972L4.73574 3.01166ZM22 16H21.5C21.5 17.3807 20.3807 18.5 19 18.5V19V19.5C20.933 19.5 22.5 17.933 22.5 16H22ZM19 19V18.5C17.6193 18.5 16.5 17.3807 16.5 16H16H15.5C15.5 17.933 17.067 19.5 19 19.5V19ZM16 16H16.5C16.5 14.6193 17.6193 13.5 19 13.5V13V12.5C17.067 12.5 15.5 14.067 15.5 16H16ZM19 13V13.5C20.3807 13.5 21.5 14.6193 21.5 16H22H22.5C22.5 14.067 20.933 12.5 19 12.5V13ZM12 2H11.5V4H12H12.5V2H12ZM6 2H5.5V4H6H6.5V2H6Z" fill="#2372EC"/>
</svg>
