<svg width="41" height="40" viewBox="0 0 41 40" fill="none" xmlns="http://www.w3.org/2000/svg">
<rect x="0.75" y="0.25" width="39.5" height="39.5" rx="19.75" stroke="#F2F7FF" stroke-width="0.5"/>
<path d="M33.8334 25.3333C33.8334 27.5424 32.0425 29.3333 29.8334 29.3333C27.6242 29.3333 25.8334 27.5424 25.8334 25.3333C25.8334 23.1242 27.6242 21.3333 29.8334 21.3333C32.0425 21.3333 33.8334 23.1242 33.8334 25.3333Z" fill="#96BFFF"/>
<path d="M30.3507 29.5365C30.4629 29.1378 30.2306 28.7236 29.8318 28.6114C29.4331 28.4992 29.0189 28.7315 28.9067 29.1302L29.6287 29.3334L30.3507 29.5365ZM11.7381 8.74996C12.1523 8.74996 12.4881 8.41417 12.4881 7.99996C12.4881 7.58575 12.1523 7.24996 11.7381 7.24996V7.99996V8.74996ZM20.881 7.24996C20.4668 7.24996 20.131 7.58575 20.131 7.99996C20.131 8.41417 20.4668 8.74996 20.881 8.74996V7.99996V7.24996ZM25.4369 11.6476L24.6898 11.7137V11.7137L25.4369 11.6476ZM21.8047 8.01551L21.7387 8.76259L21.8047 8.01551ZM10.8143 8.01551L10.7483 7.26842L10.8143 8.01551ZM7.18224 11.6476L7.92932 11.7137V11.7137L7.18224 11.6476ZM21.25 6.66663C21.25 6.25241 20.9142 5.91663 20.5 5.91663C20.0858 5.91663 19.75 6.25241 19.75 6.66663H20.5H21.25ZM19.75 9.33329C19.75 9.74751 20.0858 10.0833 20.5 10.0833C20.9142 10.0833 21.25 9.74751 21.25 9.33329H20.5H19.75ZM13.25 6.66663C13.25 6.25241 12.9142 5.91663 12.5 5.91663C12.0858 5.91663 11.75 6.25241 11.75 6.66663H12.5H13.25ZM11.75 9.33329C11.75 9.74751 12.0858 10.0833 12.5 10.0833C12.9142 10.0833 13.25 9.74751 13.25 9.33329H12.5H11.75ZM16.5 22.9804H15.75V26.6667H16.5H17.25V22.9804H16.5ZM23.1667 33.3334V34.0834H24.3432V33.3334V32.5834H23.1667V33.3334ZM16.5 26.6667H15.75C15.75 30.7628 19.0706 34.0834 23.1667 34.0834V33.3334V32.5834C19.899 32.5834 17.25 29.9344 17.25 26.6667H16.5ZM24.3432 33.3334V34.0834C27.2036 34.0834 29.6127 32.1595 30.3507 29.5365L29.6287 29.3334L28.9067 29.1302C28.3459 31.1234 26.5141 32.5834 24.3432 32.5834V33.3334ZM11.7381 7.99996V7.24996H11.6159V7.99996V8.74996H11.7381V7.99996ZM7.16669 12.4492H6.41669V13.647H7.16669H7.91669V12.4492H7.16669ZM25.4524 14.028H26.2024V12.4492H25.4524H24.7024V14.028H25.4524ZM21.0032 7.99996V7.24996H20.881V7.99996V8.74996H21.0032V7.99996ZM25.4524 12.4492H26.2024C26.2024 12.048 26.2031 11.7987 26.1839 11.5816L25.4369 11.6476L24.6898 11.7137C24.7017 11.8482 24.7024 12.016 24.7024 12.4492H25.4524ZM21.0032 7.99996V8.74996C21.4364 8.74996 21.6041 8.75069 21.7387 8.76259L21.8047 8.01551L21.8708 7.26842C21.6537 7.24922 21.4043 7.24996 21.0032 7.24996V7.99996ZM25.4369 11.6476L26.1839 11.5816C25.9812 9.2887 24.1637 7.47118 21.8708 7.26842L21.8047 8.01551L21.7387 8.76259C23.3075 8.90132 24.551 10.1449 24.6898 11.7137L25.4369 11.6476ZM25.4524 14.028H24.7024C24.7024 18.558 21.0301 22.2304 16.5 22.2304V22.9804V23.7304C21.8585 23.7304 26.2024 19.3864 26.2024 14.028H25.4524ZM7.16669 13.647H6.41669C6.41669 19.2159 10.9311 23.7304 16.5 23.7304V22.9804V22.2304C11.7596 22.2304 7.91669 18.3875 7.91669 13.647H7.16669ZM11.6159 7.99996V7.24996C11.2148 7.24996 10.9654 7.24922 10.7483 7.26842L10.8143 8.01551L10.8804 8.76259C11.015 8.75069 11.1827 8.74996 11.6159 8.74996V7.99996ZM7.16669 12.4492H7.91669C7.91669 12.016 7.91742 11.8482 7.92932 11.7137L7.18224 11.6476L6.43515 11.5816C6.41595 11.7987 6.41669 12.048 6.41669 12.4492H7.16669ZM10.8143 8.01551L10.7483 7.26842C8.45543 7.47118 6.63791 9.2887 6.43515 11.5816L7.18224 11.6476L7.92932 11.7137C8.06805 10.1449 9.31162 8.90132 10.8804 8.76259L10.8143 8.01551ZM33.8334 25.3333H33.0834C33.0834 27.1282 31.6283 28.5833 29.8334 28.5833V29.3333V30.0833C32.4567 30.0833 34.5834 27.9566 34.5834 25.3333H33.8334ZM29.8334 29.3333V28.5833C28.0384 28.5833 26.5834 27.1282 26.5834 25.3333H25.8334H25.0834C25.0834 27.9566 27.21 30.0833 29.8334 30.0833V29.3333ZM25.8334 25.3333H26.5834C26.5834 23.5384 28.0384 22.0833 29.8334 22.0833V21.3333V20.5833C27.21 20.5833 25.0834 22.7099 25.0834 25.3333H25.8334ZM29.8334 21.3333V22.0833C31.6283 22.0833 33.0834 23.5384 33.0834 25.3333H33.8334H34.5834C34.5834 22.7099 32.4567 20.5833 29.8334 20.5833V21.3333ZM20.5 6.66663H19.75V9.33329H20.5H21.25V6.66663H20.5ZM12.5 6.66663H11.75V9.33329H12.5H13.25V6.66663H12.5Z" fill="#0D47A1"/>
</svg>
