<svg width="32" height="32" viewBox="0 0 32 32" fill="none" xmlns="http://www.w3.org/2000/svg">
<path d="M24 16.0001C24 20.4184 20.4183 24.0001 16 24.0001C11.5817 24.0001 8 20.4184 8 16.0001C8 11.5818 11.5817 8.00008 16 8.00008C20.4183 8.00008 24 11.5818 24 16.0001Z" fill="#96BFFF"/>
<path d="M16 2.66675V4.00008M16 28.0001V29.3334M29.3333 16.0001H28M4 16.0001H2.66666M25.4277 6.57235L24.9039 7.09613M7.0957 24.9044L6.57192 25.4282M25.4277 25.4278L24.9039 24.904M7.0957 7.09578L6.57192 6.572M24 16.0001C24 20.4184 20.4183 24.0001 16 24.0001C11.5817 24.0001 8 20.4184 8 16.0001C8 11.5818 11.5817 8.00008 16 8.00008C20.4183 8.00008 24 11.5818 24 16.0001Z" stroke="#424242" stroke-linecap="round"/>
</svg>
