<svg width="32" height="32" viewBox="0 0 32 32" fill="none" xmlns="http://www.w3.org/2000/svg">
<path d="M16 8.00008C11.5817 8.00008 8 11.5818 8 16.0001C8 18.029 8.75527 19.8815 10 21.2917H22C23.2447 19.8815 24 18.029 24 16.0001C24 11.5818 20.4183 8.00008 16 8.00008Z" fill="#96BFFF"/>
<path d="M10.6667 28.8334C10.3905 28.8334 10.1667 29.0573 10.1667 29.3334C10.1667 29.6096 10.3905 29.8334 10.6667 29.8334V28.8334ZM21.3333 29.8334C21.6095 29.8334 21.8333 29.6096 21.8333 29.3334C21.8333 29.0573 21.6095 28.8334 21.3333 28.8334V29.8334ZM6.66666 24.8334C6.39052 24.8334 6.16666 25.0573 6.16666 25.3334C6.16666 25.6096 6.39052 25.8334 6.66666 25.8334V24.8334ZM25.3333 25.8334C25.6095 25.8334 25.8333 25.6096 25.8333 25.3334C25.8333 25.0573 25.6095 24.8334 25.3333 24.8334V25.8334ZM2.66666 20.8334C2.39052 20.8334 2.16666 21.0573 2.16666 21.3334C2.16666 21.6096 2.39052 21.8334 2.66666 21.8334V20.8334ZM29.3333 21.8334C29.6095 21.8334 29.8333 21.6096 29.8333 21.3334C29.8333 21.0573 29.6095 20.8334 29.3333 20.8334V21.8334ZM22 21.2917V21.7917H22.2256L22.3749 21.6226L22 21.2917ZM10 21.2917L9.62513 21.6226L9.77441 21.7917H10V21.2917ZM16 13.3334L16.3536 12.9799C16.1583 12.7846 15.8417 12.7846 15.6464 12.9799L16 13.3334ZM18.3131 16.3536C18.5084 16.5489 18.825 16.5489 19.0202 16.3536C19.2155 16.1584 19.2155 15.8418 19.0202 15.6465L18.3131 16.3536ZM12.9798 15.6465C12.7845 15.8418 12.7845 16.1584 12.9798 16.3536C13.175 16.5489 13.4916 16.5489 13.6869 16.3536L12.9798 15.6465ZM16.5 2.66675C16.5 2.39061 16.2761 2.16675 16 2.16675C15.7239 2.16675 15.5 2.39061 15.5 2.66675H16.5ZM15.5 4.00008C15.5 4.27622 15.7239 4.50008 16 4.50008C16.2761 4.50008 16.5 4.27622 16.5 4.00008H15.5ZM29.3333 16.5001C29.6095 16.5001 29.8333 16.2762 29.8333 16.0001C29.8333 15.7239 29.6095 15.5001 29.3333 15.5001V16.5001ZM28 15.5001C27.7239 15.5001 27.5 15.7239 27.5 16.0001C27.5 16.2762 27.7239 16.5001 28 16.5001V15.5001ZM4 16.5001C4.27614 16.5001 4.5 16.2762 4.5 16.0001C4.5 15.7239 4.27614 15.5001 4 15.5001V16.5001ZM2.66666 15.5001C2.39052 15.5001 2.16666 15.7239 2.16666 16.0001C2.16666 16.2762 2.39052 16.5001 2.66666 16.5001V15.5001ZM25.7813 6.9259C25.9765 6.73064 25.9765 6.41406 25.7813 6.21879C25.586 6.02353 25.2694 6.02353 25.0742 6.21879L25.7813 6.9259ZM24.5504 6.74258C24.3551 6.93784 24.3551 7.25442 24.5504 7.44968C24.7457 7.64495 25.0622 7.64495 25.2575 7.44968L24.5504 6.74258ZM6.74215 7.44934C6.93741 7.6446 7.25399 7.6446 7.44925 7.44934C7.64452 7.25408 7.64452 6.93749 7.44925 6.74223L6.74215 7.44934ZM6.92547 6.21845C6.73021 6.02319 6.41363 6.02319 6.21836 6.21845C6.0231 6.41371 6.0231 6.73029 6.21836 6.92556L6.92547 6.21845ZM10.6667 29.8334H21.3333V28.8334H10.6667V29.8334ZM6.66666 25.8334H25.3333V24.8334H6.66666V25.8334ZM2.66666 21.8334H29.3333V20.8334H2.66666V21.8334ZM8.5 16.0001C8.5 11.8579 11.8579 8.50008 16 8.50008V7.50008C11.3056 7.50008 7.5 11.3057 7.5 16.0001H8.5ZM16 8.50008C20.1421 8.50008 23.5 11.8579 23.5 16.0001H24.5C24.5 11.3057 20.6944 7.50008 16 7.50008V8.50008ZM23.5 16.0001C23.5 17.9025 22.7923 19.6384 21.6251 20.9609L22.3749 21.6226C23.6971 20.1245 24.5 18.1554 24.5 16.0001H23.5ZM10.3749 20.9609C9.20767 19.6384 8.5 17.9025 8.5 16.0001H7.5C7.5 18.1554 8.30287 20.1245 9.62513 21.6226L10.3749 20.9609ZM22 20.7917H10V21.7917H22V20.7917ZM16.5 21.3334V13.3334H15.5V21.3334H16.5ZM15.6464 13.687L18.3131 16.3536L19.0202 15.6465L16.3536 12.9799L15.6464 13.687ZM15.6464 12.9799L12.9798 15.6465L13.6869 16.3536L16.3536 13.687L15.6464 12.9799ZM15.5 2.66675V4.00008H16.5V2.66675H15.5ZM29.3333 15.5001H28V16.5001H29.3333V15.5001ZM4 15.5001H2.66666V16.5001H4V15.5001ZM25.0742 6.21879L24.5504 6.74258L25.2575 7.44968L25.7813 6.9259L25.0742 6.21879ZM7.44925 6.74223L6.92547 6.21845L6.21836 6.92556L6.74215 7.44934L7.44925 6.74223Z" fill="#424242"/>
</svg>
