<svg width="24" height="24" viewBox="0 0 24 24" fill="none" xmlns="http://www.w3.org/2000/svg">
<path d="M3.46447 20.5355L3.11091 20.8891H3.11091L3.46447 20.5355ZM20.5355 3.46447L20.8891 3.11091V3.11091L20.5355 3.46447ZM6.36207 15.4552C6.17163 15.2552 5.85514 15.2475 5.65517 15.4379C5.45521 15.6284 5.44749 15.9449 5.63793 16.1448L6 15.8L6.36207 15.4552ZM7.14286 17L6.78079 17.3448C6.87516 17.4439 7.00602 17.5 7.14286 17.5C7.2797 17.5 7.41055 17.4439 7.50493 17.3448L7.14286 17ZM10.3621 14.3448C10.5525 14.1449 10.5448 13.8284 10.3448 13.6379C10.1449 13.4475 9.82837 13.4552 9.63793 13.6552L10 14L10.3621 14.3448ZM6.36207 8.45517C6.17163 8.25521 5.85514 8.24749 5.65517 8.43793C5.45521 8.62837 5.44749 8.94486 5.63793 9.14483L6 8.8L6.36207 8.45517ZM7.14286 10L6.78079 10.3448C6.87516 10.4439 7.00602 10.5 7.14286 10.5C7.2797 10.5 7.41055 10.4439 7.50493 10.3448L7.14286 10ZM10.3621 7.34483C10.5525 7.14486 10.5448 6.82837 10.3448 6.63793C10.1449 6.44749 9.82837 6.45521 9.63793 6.65517L10 7L10.3621 7.34483ZM21.48 9.01143C21.4864 9.2875 21.7153 9.50618 21.9913 9.49987C22.2674 9.49356 22.4861 9.26464 22.4798 8.98857L21.9799 9L21.48 9.01143ZM8.98857 22.4798C9.26464 22.4861 9.49356 22.2674 9.49987 21.9913C9.50618 21.7153 9.2875 21.4864 9.01143 21.48L9 21.9799L8.98857 22.4798ZM19.4534 16.4698L19.708 16.9001L19.4534 16.4698ZM16.125 14.8549C16.125 15.1311 16.3489 15.3549 16.625 15.3549C16.9011 15.3549 17.125 15.1311 17.125 14.8549H16.625H16.125ZM18 18.9799C18 19.2561 18.2239 19.4799 18.5 19.4799C18.7761 19.4799 19 19.2561 19 18.9799H18.5H18ZM19 21.4799C19 21.2038 18.7761 20.9799 18.5 20.9799C18.2239 20.9799 18 21.2038 18 21.4799H18.5H19ZM18 21.9799C18 22.2561 18.2239 22.4799 18.5 22.4799C18.7761 22.4799 19 22.2561 19 21.9799H18.5H18ZM2 12H1.5C1.5 14.3429 1.49894 16.1504 1.68752 17.553C1.87803 18.97 2.2703 20.0485 3.11091 20.8891L3.46447 20.5355L3.81802 20.182C3.19417 19.5581 2.8542 18.7259 2.6786 17.4197C2.50106 16.0992 2.5 14.3712 2.5 12H2ZM12 2V2.5C14.3712 2.5 16.0992 2.50106 17.4197 2.6786C18.7259 2.8542 19.5581 3.19417 20.182 3.81802L20.5355 3.46447L20.8891 3.11091C20.0485 2.2703 18.97 1.87803 17.553 1.68752C16.1504 1.49894 14.3429 1.5 12 1.5V2ZM12 2V1.5C9.65711 1.5 7.84965 1.49894 6.44702 1.68752C5.03 1.87803 3.95153 2.2703 3.11091 3.11091L3.46447 3.46447L3.81802 3.81802C4.44187 3.19417 5.27414 2.8542 6.58026 2.6786C7.90077 2.50106 9.62884 2.5 12 2.5V2ZM2 12H2.5C2.5 9.62884 2.50106 7.90077 2.6786 6.58026C2.8542 5.27414 3.19417 4.44187 3.81802 3.81802L3.46447 3.46447L3.11091 3.11091C2.2703 3.95153 1.87803 5.03 1.68752 6.44702C1.49894 7.84965 1.5 9.65711 1.5 12H2ZM6 15.8L5.63793 16.1448L6.78079 17.3448L7.14286 17L7.50493 16.6552L6.36207 15.4552L6 15.8ZM7.14286 17L7.50493 17.3448L10.3621 14.3448L10 14L9.63793 13.6552L6.78079 16.6552L7.14286 17ZM6 8.8L5.63793 9.14483L6.78079 10.3448L7.14286 10L7.50493 9.65517L6.36207 8.45517L6 8.8ZM7.14286 10L7.50493 10.3448L10.3621 7.34483L10 7L9.63793 6.65517L6.78079 9.65517L7.14286 10ZM21.9799 9L22.4798 8.98857C22.4164 6.21574 22.1616 4.38341 20.8891 3.11091L20.5355 3.46447L20.182 3.81802C21.1374 4.7734 21.4158 6.20175 21.48 9.01143L21.9799 9ZM9 21.9799L9.01143 21.48C6.20175 21.4158 4.7734 21.1374 3.81802 20.182L3.46447 20.5355L3.11091 20.8891C4.38341 22.1616 6.21574 22.4164 8.98857 22.4798L9 21.9799ZM20.375 14.8549H19.875C19.875 15.3584 19.6046 15.7993 19.1988 16.0395L19.4534 16.4698L19.708 16.9001C20.4054 16.4875 20.875 15.7263 20.875 14.8549H20.375ZM16.625 14.8549H17.125C17.125 14.0955 17.7406 13.4799 18.5 13.4799V12.9799V12.4799C17.1883 12.4799 16.125 13.5432 16.125 14.8549H16.625ZM18.5 12.9799V13.4799C19.2594 13.4799 19.875 14.0955 19.875 14.8549H20.375H20.875C20.875 13.5432 19.8117 12.4799 18.5 12.4799V12.9799ZM18.5 17.7299H18V18.9799H18.5H19V17.7299H18.5ZM19.4534 16.4698L19.1988 16.0395C18.9338 16.1962 18.6449 16.4064 18.4172 16.6747C18.1875 16.9454 18 17.3006 18 17.7299H18.5H19C19 17.6069 19.0515 17.4727 19.1797 17.3217C19.3099 17.1683 19.4976 17.0246 19.708 16.9001L19.4534 16.4698ZM18.5 21.4799H18V21.9799H18.5H19V21.4799H18.5Z" fill="#2372EC"/>
</svg>
