<svg width="24" height="24" viewBox="0 0 24 24" fill="none" xmlns="http://www.w3.org/2000/svg">
<path d="M6.5 6H17.5C17.4441 6 17.4162 6 17.3909 5.99936C16.5674 5.97849 15.841 5.45491 15.5608 4.68032C15.5522 4.65656 15.5432 4.62968 15.5257 4.57697L15.4286 4.28571C15.3457 4.03708 15.3043 3.91276 15.2493 3.8072C15.03 3.38607 14.6243 3.09364 14.1554 3.01877C14.0379 3 13.9068 3 13.6447 3H10.3553C10.0932 3 9.96213 3 9.84461 3.01877C9.37574 3.09364 8.97001 3.38607 8.75071 3.8072C8.69575 3.91275 8.6543 4.03709 8.57143 4.28571L8.47434 4.57697C8.45667 4.62999 8.44784 4.65649 8.43922 4.68032C8.15902 5.45491 7.43259 5.97849 6.60915 5.99936C6.58382 6 6.55588 6 6.5 6Z" fill="#EB8B85"/>
<path d="M20.5001 6.5C20.7762 6.5 21.0001 6.27614 21.0001 6C21.0001 5.72386 20.7762 5.5 20.5001 5.5V6V6.5ZM3.5 5.5C3.22386 5.5 3 5.72386 3 6C3 6.27614 3.22386 6.5 3.5 6.5V6V5.5ZM18.3732 15.3991L17.8743 15.3659L18.3732 15.3991ZM19.3321 8.53326C19.3504 8.25773 19.142 8.01948 18.8664 8.00111C18.5909 7.98274 18.3526 8.19121 18.3343 8.46674L18.8332 8.5L19.3321 8.53326ZM5.6654 8.46674C5.64703 8.19121 5.40878 7.98274 5.13324 8.00111C4.85771 8.01948 4.64924 8.25773 4.66761 8.53326L5.1665 8.5L5.6654 8.46674ZM5.62644 15.3991L5.12755 15.4324L5.62644 15.3991ZM6.75694 20.1907L7.09854 19.8256L6.75694 20.1907ZM15.4286 4.28571L15.9029 4.1276V4.1276L15.4286 4.28571ZM15.5257 4.57697L15.0513 4.73509V4.73509L15.5257 4.57697ZM8.47434 4.57697L8 4.41886L8 4.41886L8.47434 4.57697ZM8.57143 4.28571L8.09709 4.1276V4.1276L8.57143 4.28571ZM8.43922 4.68032L8.9094 4.8504L8.9094 4.8504L8.43922 4.68032ZM6.5 5.5C6.22386 5.5 6 5.72386 6 6C6 6.27614 6.22386 6.5 6.5 6.5V6V5.5ZM6.60915 5.99936L6.62181 6.4992H6.62182L6.60915 5.99936ZM15.5608 4.68032L16.031 4.51024L16.031 4.51023L15.5608 4.68032ZM17.5 6.5C17.7761 6.5 18 6.27614 18 6C18 5.72386 17.7761 5.5 17.5 5.5V6V6.5ZM17.3909 5.99936L17.3782 6.4992H17.3782L17.3909 5.99936ZM14.1554 3.01877L14.2342 2.52502L14.1554 3.01877ZM15.2493 3.8072L15.6928 3.57627L15.6928 3.57627L15.2493 3.8072ZM9.84461 3.01877L9.76576 2.52502L9.84461 3.01877ZM8.75071 3.8072L8.30724 3.57627L8.30724 3.57627L8.75071 3.8072ZM20.5001 6V5.5H3.5V6V6.5H20.5001V6ZM11.6132 21V21.5H12.3865V21V20.5H11.6132V21ZM18.3732 15.3991L18.8721 15.4324L19.3321 8.53326L18.8332 8.5L18.3343 8.46674L17.8743 15.3659L18.3732 15.3991ZM5.1665 8.5L4.66761 8.53326L5.12755 15.4324L5.62644 15.3991L6.12534 15.3659L5.6654 8.46674L5.1665 8.5ZM12.3865 21V21.5C13.7033 21.5 14.7396 21.501 15.5529 21.3946C16.3804 21.2864 17.0458 21.0597 17.5843 20.5559L17.2427 20.1907L16.9011 19.8256C16.5747 20.131 16.1423 20.309 15.4232 20.4031C14.6898 20.499 13.7305 20.5 12.3865 20.5V21ZM18.3732 15.3991L17.8743 15.3659C17.7849 16.7069 17.7201 17.664 17.5756 18.3894C17.4339 19.1006 17.2276 19.5202 16.9011 19.8256L17.2427 20.1907L17.5843 20.5559C18.1229 20.052 18.3933 19.4032 18.5563 18.5847C18.7166 17.7803 18.7845 16.7462 18.8721 15.4324L18.3732 15.3991ZM11.6132 21V20.5C10.2691 20.5 9.30986 20.499 8.57648 20.4031C7.85737 20.309 7.42498 20.131 7.09854 19.8256L6.75694 20.1907L6.41535 20.5559C6.95392 21.0597 7.61923 21.2864 8.44678 21.3946C9.26005 21.501 10.2964 21.5 11.6132 21.5V21ZM5.62644 15.3991L5.12755 15.4324C5.21514 16.7462 5.28308 17.7803 5.44332 18.5847C5.60638 19.4032 5.87679 20.052 6.41535 20.5559L6.75694 20.1907L7.09854 19.8256C6.77209 19.5202 6.56575 19.1006 6.42405 18.3894C6.27955 17.664 6.21474 16.7069 6.12534 15.3659L5.62644 15.3991ZM10.3553 3V3.5H13.6447V3V2.5H10.3553V3ZM15.4286 4.28571L14.9542 4.44383L15.0513 4.73509L15.5257 4.57697L16 4.41886L15.9029 4.1276L15.4286 4.28571ZM8.47434 4.57697L8.94868 4.73509L9.04577 4.44383L8.57143 4.28571L8.09709 4.1276L8 4.41886L8.47434 4.57697ZM8.47434 4.57697L8 4.41886C7.98145 4.47451 7.97497 4.49381 7.96903 4.51024L8.43922 4.68032L8.9094 4.8504C8.9207 4.81917 8.93189 4.78546 8.94868 4.73509L8.47434 4.57697ZM6.5 6V6.5C6.5531 6.5 6.58862 6.50004 6.62181 6.4992L6.60915 5.99936L6.59648 5.49952C6.57902 5.49996 6.55866 5.5 6.5 5.5V6ZM8.43922 4.68032L7.96903 4.51024C7.75889 5.09118 7.21407 5.48387 6.59648 5.49952L6.60915 5.99936L6.62182 6.4992C7.65112 6.47311 8.55916 5.81864 8.9094 4.8504L8.43922 4.68032ZM15.5257 4.57697L15.0513 4.73509C15.068 4.78513 15.0793 4.81925 15.0906 4.85041L15.5608 4.68032L16.031 4.51023C16.025 4.49388 16.0185 4.47422 16 4.41886L15.5257 4.57697ZM17.5 6V5.5C17.4413 5.5 17.421 5.49996 17.4035 5.49952L17.3909 5.99936L17.3782 6.4992C17.4114 6.50004 17.4469 6.5 17.5 6.5V6ZM15.5608 4.68032L15.0906 4.8504C15.4408 5.81864 16.3489 6.47311 17.3782 6.4992L17.3909 5.99936L17.4035 5.49952C16.7859 5.48387 16.2411 5.09118 16.031 4.51024L15.5608 4.68032ZM13.6447 3V3.5C13.9243 3.5 14.0077 3.50152 14.0765 3.51251L14.1554 3.01877L14.2342 2.52502C14.0681 2.49848 13.8893 2.5 13.6447 2.5V3ZM15.4286 4.28571L15.9029 4.1276C15.8256 3.89555 15.7705 3.72553 15.6928 3.57627L15.2493 3.8072L14.8058 4.03813C14.838 4.09998 14.8658 4.1786 14.9542 4.44383L15.4286 4.28571ZM14.1554 3.01877L14.0765 3.51251C14.3891 3.56242 14.6596 3.75738 14.8058 4.03813L15.2493 3.8072L15.6928 3.57627C15.4004 3.01476 14.8594 2.62485 14.2342 2.52502L14.1554 3.01877ZM10.3553 3V2.5C10.1107 2.5 9.93195 2.49848 9.76576 2.52502L9.84461 3.01877L9.92345 3.51251C9.99231 3.50152 10.0757 3.5 10.3553 3.5V3ZM8.57143 4.28571L9.04577 4.44383C9.13418 4.17861 9.16198 4.09998 9.19419 4.03813L8.75071 3.8072L8.30724 3.57627C8.22951 3.72553 8.17443 3.89556 8.09709 4.1276L8.57143 4.28571ZM9.84461 3.01877L9.76576 2.52502C9.14061 2.62485 8.59964 3.01476 8.30724 3.57627L8.75071 3.8072L9.19419 4.03813C9.34039 3.75738 9.61088 3.56242 9.92345 3.51251L9.84461 3.01877Z" fill="#F04248"/>
</svg>
