<svg width="32" height="32" viewBox="0 0 32 32" fill="none" xmlns="http://www.w3.org/2000/svg">
<path d="M27.3333 8.75C27.7475 8.75 28.0833 8.41421 28.0833 8C28.0833 7.58579 27.7475 7.25 27.3333 7.25V8V8.75ZM4.6665 7.25C4.25229 7.25 3.9165 7.58579 3.9165 8C3.9165 8.41421 4.25229 8.75 4.6665 8.75V8V7.25ZM24.4975 20.5322L23.7491 20.4823L23.7491 20.4823L24.4975 20.5322ZM25.8591 11.3832C25.8866 10.9699 25.5739 10.6125 25.1606 10.585C24.7473 10.5574 24.3899 10.8701 24.3624 11.2834L25.1107 11.3333L25.8591 11.3832ZM7.63685 11.2834C7.60929 10.8701 7.25192 10.5574 6.83862 10.585C6.42532 10.6125 6.11262 10.9699 6.14017 11.3832L6.88851 11.3333L7.63685 11.2834ZM7.50176 20.5321L6.75342 20.582L7.50176 20.5321ZM9.0091 26.921L9.52148 26.3733L9.52148 26.3733L9.0091 26.921ZM20.5713 5.71429L21.2828 5.47711L21.2828 5.47711L20.5713 5.71429ZM20.7007 6.10263L19.9892 6.3398L19.9892 6.33981L20.7007 6.10263ZM11.299 6.10263L10.5874 5.86546L10.5874 5.86546L11.299 6.10263ZM11.4284 5.71429L10.7169 5.47711L10.7169 5.47711L11.4284 5.71429ZM11.2521 6.24043L11.9574 6.49555L11.9574 6.49554L11.2521 6.24043ZM8.6665 7.25C8.25229 7.25 7.9165 7.58579 7.9165 8C7.9165 8.41421 8.25229 8.75 8.6665 8.75V8V7.25ZM8.81204 7.99914L8.83103 8.7489L8.83104 8.7489L8.81204 7.99914ZM20.7475 6.24043L21.4528 5.98531L21.4528 5.98528L20.7475 6.24043ZM23.3332 8.75C23.7474 8.75 24.0832 8.41421 24.0832 8C24.0832 7.58579 23.7474 7.25 23.3332 7.25V8V8.75ZM23.1876 7.99914L23.1686 8.7489L23.1686 8.7489L23.1876 7.99914ZM18.8737 4.02502L18.992 3.2844L18.992 3.2844L18.8737 4.02502ZM20.3322 5.07627L20.9974 4.72987L20.9974 4.72987L20.3322 5.07627ZM13.126 4.02502L13.0077 3.2844L13.0077 3.2844L13.126 4.02502ZM11.6675 5.07627L11.0022 4.72987L11.0022 4.72987L11.6675 5.07627ZM27.3333 8V7.25H4.6665V8V8.75H27.3333V8ZM15.484 28V28.75H16.5152V28V27.25H15.484V28ZM24.4975 20.5322L25.2458 20.582L25.8591 11.3832L25.1107 11.3333L24.3624 11.2834L23.7491 20.4823L24.4975 20.5322ZM6.88851 11.3333L6.14017 11.3832L6.75342 20.582L7.50176 20.5321L8.2501 20.4823L7.63685 11.2834L6.88851 11.3333ZM16.5152 28V28.75C18.2686 28.75 19.6568 28.7515 20.7478 28.6088C21.8603 28.4633 22.7668 28.157 23.5025 27.4687L22.9901 26.921L22.4778 26.3733C22.0602 26.764 21.5031 26.9972 20.5533 27.1215C19.5821 27.2485 18.3095 27.25 16.5152 27.25V28ZM24.4975 20.5322L23.7491 20.4823C23.6298 22.2726 23.5436 23.5423 23.3523 24.5029C23.1651 25.4423 22.8953 25.9826 22.4778 26.3733L22.9901 26.921L23.5025 27.4687C24.2383 26.7803 24.6042 25.8962 24.8234 24.7959C25.0383 23.7168 25.1292 22.3316 25.2458 20.582L24.4975 20.5322ZM15.484 28V27.25C13.6897 27.25 12.4171 27.2485 11.446 27.1215C10.4962 26.9972 9.93907 26.764 9.52148 26.3733L9.0091 26.921L8.49671 27.4687C9.23247 28.157 10.139 28.4633 11.2514 28.6088C12.3424 28.7515 13.7306 28.75 15.484 28.75V28ZM7.50176 20.5321L6.75342 20.582C6.87006 22.3316 6.9609 23.7168 7.17588 24.7959C7.39507 25.8962 7.76094 26.7803 8.49671 27.4687L9.0091 26.921L9.52148 26.3733C9.1039 25.9826 8.83411 25.4423 8.64697 24.5029C8.45561 23.5423 8.36946 22.2726 8.2501 20.4823L7.50176 20.5321ZM13.8069 4V4.75H18.1928V4V3.25H13.8069V4ZM20.5713 5.71429L19.8598 5.95146L19.9892 6.3398L20.7007 6.10263L21.4122 5.86546L21.2828 5.47711L20.5713 5.71429ZM11.299 6.10263L12.0105 6.3398L12.1399 5.95146L11.4284 5.71429L10.7169 5.47711L10.5874 5.86546L11.299 6.10263ZM11.299 6.10263L10.5874 5.86546C10.5626 5.9401 10.5543 5.96464 10.5468 5.98531L11.2521 6.24043L11.9574 6.49554C11.9729 6.45268 11.9882 6.40653 12.0105 6.3398L11.299 6.10263ZM8.6665 8V8.75C8.73684 8.75 8.78546 8.75006 8.83103 8.7489L8.81204 7.99914L8.79304 7.24939C8.77106 7.24994 8.74518 7.25 8.6665 7.25V8ZM11.2521 6.24043L10.5469 5.98531C10.2783 6.72762 9.58217 7.22939 8.79304 7.24939L8.81204 7.99914L8.83104 8.7489C10.2378 8.71325 11.4787 7.8188 11.9574 6.49555L11.2521 6.24043ZM20.7007 6.10263L19.9892 6.33981C20.0113 6.40609 20.0268 6.45277 20.0423 6.49557L20.7475 6.24043L21.4528 5.98528C21.4454 5.96473 21.437 5.93972 21.4122 5.86546L20.7007 6.10263ZM23.3332 8V7.25C23.2545 7.25 23.2286 7.24994 23.2066 7.24939L23.1876 7.99914L23.1686 8.7489C23.2142 8.75006 23.2628 8.75 23.3332 8.75V8ZM20.7475 6.24043L20.0423 6.49555C20.5209 7.8188 21.7619 8.71325 23.1686 8.7489L23.1876 7.99914L23.2066 7.24939C22.4175 7.22939 21.7213 6.72762 21.4528 5.98531L20.7475 6.24043ZM18.1928 4V4.75C18.5685 4.75 18.6717 4.75227 18.7554 4.76564L18.8737 4.02502L18.992 3.2844C18.7623 3.24773 18.516 3.25 18.1928 3.25V4ZM20.5713 5.71429L21.2828 5.47711C21.1806 5.17048 21.1049 4.93617 20.9974 4.72987L20.3322 5.07627L19.667 5.42266C19.7062 5.49784 19.741 5.59506 19.8598 5.95146L20.5713 5.71429ZM18.8737 4.02502L18.7554 4.76564C19.1461 4.82803 19.4843 5.07173 19.667 5.42267L20.3322 5.07627L20.9974 4.72987C20.5954 3.9578 19.8515 3.42167 18.992 3.2844L18.8737 4.02502ZM13.8069 4V3.25C13.4836 3.25 13.2374 3.24773 13.0077 3.2844L13.126 4.02502L13.2442 4.76564C13.3279 4.75227 13.4312 4.75 13.8069 4.75V4ZM11.4284 5.71429L12.1399 5.95146C12.2587 5.59507 12.2935 5.49784 12.3327 5.42267L11.6675 5.07627L11.0022 4.72987C10.8948 4.93617 10.8191 5.17049 10.7169 5.47711L11.4284 5.71429ZM13.126 4.02502L13.0077 3.2844C12.1481 3.42167 11.4043 3.9578 11.0022 4.72987L11.6675 5.07627L12.3327 5.42267C12.5154 5.07173 12.8535 4.82803 13.2442 4.76564L13.126 4.02502Z" fill="#D6D6D6"/>
</svg>
