<svg width="187" height="44" viewBox="0 0 187 44" fill="none" xmlns="http://www.w3.org/2000/svg">
<g clip-path="url(#clip0_4359_24872)">
<path fill-rule="evenodd" clip-rule="evenodd" d="M172.3 31.9919C176.98 29.5906 180.182 24.7298 180.182 19.1248C180.182 11.1359 173.679 4.65967 165.658 4.65967C157.636 4.65967 151.134 11.1359 151.134 19.1248C151.134 27.1136 157.636 33.5898 165.658 33.5898C166.246 33.5898 166.463 33.5933 167.039 33.5246C168.898 38.4658 173.52 39.9585 177.798 37.1459C177.465 36.8042 177.201 36.396 177.027 35.9435C170.282 40.1543 168.277 31.6958 167.854 31.7335C167.133 31.7979 166.407 31.9198 165.658 31.9198C158.563 31.9198 152.811 26.1912 152.811 19.1247C152.811 12.0582 158.563 6.32954 165.658 6.32954C172.753 6.32954 178.505 12.0582 178.505 19.1247C178.505 24.225 175.509 28.6284 171.174 30.6838C170.633 30.9399 170.311 31.4829 170.62 32.0164C170.859 32.4283 171.262 32.5242 172.3 31.9917L172.3 31.9919Z" fill="white" stroke="white" stroke-width="0.7" stroke-miterlimit="22.9256"/>
<path d="M136.933 21.729H147.229V24.1556H136.933V21.729Z" fill="white"/>
<path d="M125.311 16.9931C125.966 15.6101 126.942 14.5665 128.239 13.8619C129.536 13.1574 131.141 12.8052 133.053 12.8052V15.5057L132.385 15.4666C130.211 15.4666 128.508 16.1321 127.276 17.4628C126.045 18.7935 125.429 20.6591 125.429 23.0596V33.5489H122.639V12.9618H125.311V16.9931Z" fill="white"/>
<path d="M110.498 12.8053C113.196 12.8053 115.266 13.4771 116.707 14.8209C118.148 16.1647 118.868 18.1542 118.868 20.7896V33.5489H116.196V30.3395C115.567 31.4094 114.644 32.2443 113.426 32.8444C112.207 33.4445 110.76 33.7446 109.083 33.7446C106.777 33.7446 104.944 33.1966 103.581 32.1007C102.219 31.0049 101.538 29.5567 101.538 27.7563C101.538 26.0081 102.173 24.5992 103.444 23.5293C104.714 22.4595 106.738 21.9246 109.515 21.9246H116.078V20.6722C116.078 18.8979 115.58 17.5476 114.585 16.6212C113.589 15.6949 112.135 15.2318 110.223 15.2318C108.913 15.2318 107.655 15.447 106.45 15.8776C105.245 16.3081 104.21 16.9018 103.345 17.6584L102.088 15.584C103.136 14.6969 104.393 14.0119 105.86 13.5292C107.328 13.0466 108.873 12.8052 110.498 12.8052L110.498 12.8053ZM109.515 31.5529C111.087 31.5529 112.437 31.1941 113.563 30.4765C114.69 29.759 115.528 28.7218 116.078 27.365V23.999H109.594C106.057 23.999 104.289 25.2253 104.289 27.6781C104.289 28.8783 104.747 29.8242 105.664 30.5157C106.581 31.2071 107.865 31.5528 109.515 31.5528V31.5529Z" fill="white"/>
<path d="M89.2933 12.8053C91.887 12.8053 93.9502 13.5555 95.4829 15.0558C97.0155 16.5561 97.7818 18.7414 97.7818 21.6116V33.549H94.9916V21.8856C94.9916 19.746 94.4545 18.1152 93.3803 16.9932C92.3061 15.8711 90.7735 15.3102 88.7824 15.3102C86.5555 15.3102 84.7936 15.9691 83.4968 17.2867C82.1999 18.6044 81.5515 20.4244 81.5515 22.7466V33.549H78.7612V4.50781H81.5515V16.5626C82.3112 15.3624 83.3592 14.4361 84.6954 13.7838C86.0315 13.1314 87.5642 12.8052 89.2933 12.8052V12.8053Z" fill="white"/>
<path d="M66.8135 33.7451C64.7699 33.7451 62.9425 33.3015 61.3313 32.4143C59.7201 31.5271 58.4559 30.2812 57.5389 28.6765C56.622 27.0718 56.1636 25.2649 56.1636 23.2558C56.1636 21.2467 56.622 19.4462 57.5389 17.8546C58.4559 16.263 59.7201 15.0235 61.3313 14.1364C62.9425 13.2493 64.7699 12.8057 66.8135 12.8057C68.595 12.8057 70.1866 13.1514 71.5883 13.8428C72.99 14.5343 74.0969 15.5454 74.909 16.8761L72.8262 18.2851C72.1451 17.2674 71.2805 16.5043 70.2324 15.9954C69.1845 15.4867 68.0448 15.2323 66.8135 15.2323C65.3201 15.2323 63.9774 15.565 62.7853 16.2303C61.5933 16.8957 60.6632 17.8415 59.9951 19.0679C59.327 20.2942 58.993 21.6902 58.993 23.2558C58.993 24.8474 59.327 26.2499 59.9951 27.4632C60.6632 28.6765 61.5932 29.6158 62.7853 30.2812C63.9774 30.9467 65.3201 31.2792 66.8135 31.2792C68.0448 31.2792 69.1845 31.0313 70.2324 30.5356C71.2804 30.0399 72.1451 29.2831 72.8262 28.2655L74.909 29.6744C74.0969 31.0052 72.9834 32.0163 71.5686 32.7078C70.1539 33.3992 68.5688 33.7449 66.8135 33.7449V33.7451Z" fill="white"/>
<path d="M42.2519 12.8052C44.1907 12.8052 45.946 13.2422 47.518 14.1163C49.0899 14.9904 50.3213 16.2233 51.2121 17.815C52.1029 19.4066 52.5482 21.2201 52.5482 23.2554C52.5482 25.3167 52.1029 27.1431 51.2121 28.7348C50.3213 30.3265 49.0965 31.5594 47.5376 32.4335C45.9789 33.3076 44.217 33.7447 42.252 33.7447C40.5753 33.7447 39.0623 33.399 37.713 32.7075C36.3637 32.016 35.2568 31.005 34.3923 29.6742V41.1419H31.6021V12.9618H34.2743V17.0322C35.1127 15.6754 36.2196 14.6316 37.5951 13.901C38.9705 13.1705 40.5229 12.8052 42.2519 12.8052ZM42.0555 31.2788C43.4964 31.2788 44.8063 30.9462 45.9853 30.2808C47.1642 29.6154 48.0877 28.6696 48.7559 27.4432C49.424 26.2169 49.758 24.8209 49.758 23.2554C49.758 21.6898 49.4239 20.3004 48.7559 19.0871C48.0877 17.8737 47.1642 16.9279 45.9853 16.2495C44.8064 15.5711 43.4964 15.2319 42.0555 15.2319C40.5883 15.2319 39.2717 15.5711 38.106 16.2495C36.9401 16.9279 36.0231 17.8738 35.3551 19.0871C34.6869 20.3004 34.3529 21.6898 34.3529 23.2554C34.3529 24.8209 34.687 26.2169 35.3551 27.4432C36.0232 28.6696 36.9401 29.6155 38.106 30.2808C39.2718 30.9463 40.5883 31.2788 42.0555 31.2788Z" fill="white"/>
<path fill-rule="evenodd" clip-rule="evenodd" d="M3.62172 4.68896H7.3982C7.23152 4.98835 7.13653 5.33274 7.13653 5.69917C7.13653 6.10017 7.2502 6.4747 7.44707 6.7927H5.92972C5.49143 6.7927 5.13055 7.15219 5.13055 7.58862V21.0195C5.13055 27.7313 10.2522 30.8493 15.3755 30.775C20.3496 30.703 25.176 27.6333 25.1727 21.0195L25.1659 7.59345C25.1657 7.15578 24.8045 6.7976 24.3667 6.7976H22.9824C23.1429 6.50242 23.234 6.18933 23.234 5.80546C23.234 5.42159 23.116 5.0156 22.9121 4.69387H26.6556C27.3834 4.69387 27.9786 5.28774 27.979 6.01172L27.9858 21.2587C27.9932 37.9713 2.29834 37.6809 2.29834 21.2587V6.00697C2.29834 5.28206 2.89393 4.68904 3.62164 4.68904L3.62172 4.68896Z" fill="white"/>
<path d="M9.20708 8.3663C10.7345 8.3663 11.9728 7.1331 11.9728 5.61186C11.9728 4.09063 10.7345 2.85742 9.20708 2.85742C7.67964 2.85742 6.44141 4.09063 6.44141 5.61186C6.44141 7.1331 7.67964 8.3663 9.20708 8.3663Z" fill="white" stroke="#558CF0" stroke-width="0.5" stroke-miterlimit="22.9256"/>
<path d="M21.1343 8.3663C22.6618 8.3663 23.9 7.1331 23.9 5.61186C23.9 4.09063 22.6618 2.85742 21.1343 2.85742C19.6069 2.85742 18.3687 4.09063 18.3687 5.61186C18.3687 7.1331 19.6069 8.3663 21.1343 8.3663Z" fill="white" stroke="#558CF0" stroke-width="0.5" stroke-miterlimit="22.9256"/>
<path fill-rule="evenodd" clip-rule="evenodd" d="M165.646 14.8281H165.646C166.272 14.8281 166.784 15.3381 166.784 15.9614V18.2852H169.117C169.743 18.2852 170.255 18.7952 170.255 19.4185V19.4186C170.255 20.0419 169.743 20.5519 169.117 20.5519H166.784V22.8758C166.784 23.4991 166.272 24.0091 165.646 24.0091H165.646C165.02 24.0091 164.508 23.4991 164.508 22.8758V20.5519H162.175C161.549 20.5519 161.037 20.0419 161.037 19.4186V19.4185C161.037 18.7952 161.549 18.2852 162.175 18.2852H164.508V15.9614C164.508 15.3381 165.02 14.8281 165.646 14.8281Z" fill="white"/>
<path fill-rule="evenodd" clip-rule="evenodd" d="M181.04 30.3501C183.181 30.3501 184.917 32.0791 184.917 34.2121C184.917 36.3449 183.181 38.0741 181.04 38.0741C178.898 38.0741 177.162 36.3449 177.162 34.2121C177.162 32.0791 178.898 30.3501 181.04 30.3501ZM181.04 31.535C182.524 31.535 183.728 32.7335 183.728 34.2121C183.728 35.6906 182.524 36.889 181.04 36.889C179.555 36.889 178.352 35.6906 178.352 34.2121C178.352 32.7335 179.555 31.535 181.04 31.535Z" fill="white"/>
<path d="M181.04 35.9901C182.026 35.9901 182.825 35.1941 182.825 34.2121C182.825 33.2301 182.026 32.4341 181.04 32.4341C180.054 32.4341 179.254 33.2301 179.254 34.2121C179.254 35.1941 180.054 35.9901 181.04 35.9901Z" fill="white"/>
</g>
<defs>
<clipPath id="clip0_4359_24872">
<rect width="187" height="44" fill="white"/>
</clipPath>
</defs>
</svg>
