<svg width="24" height="24" viewBox="0 0 24 24" fill="none" xmlns="http://www.w3.org/2000/svg">
<path d="M11.25 17C11.25 17.4142 11.5858 17.75 12 17.75C12.4142 17.75 12.75 17.4142 12.75 17H12H11.25ZM12 10L12.5303 9.46967C12.2374 9.17678 11.7626 9.17678 11.4697 9.46967L12 10ZM14.4697 13.5303C14.7626 13.8232 15.2374 13.8232 15.5303 13.5303C15.8232 13.2374 15.8232 12.7626 15.5303 12.4697L15 13L14.4697 13.5303ZM8.46967 12.4697C8.17678 12.7626 8.17678 13.2374 8.46967 13.5303C8.76256 13.8232 9.23744 13.8232 9.53033 13.5303L9 13L8.46967 12.4697ZM16 7.75C16.4142 7.75 16.75 7.41421 16.75 7C16.75 6.58579 16.4142 6.25 16 6.25V7V7.75ZM8 6.25C7.58579 6.25 7.25 6.58579 7.25 7C7.25 7.41421 7.58579 7.75 8 7.75V7V6.25ZM12 17H12.75V10H12H11.25V17H12ZM12 10L11.4697 10.5303L14.4697 13.5303L15 13L15.5303 12.4697L12.5303 9.46967L12 10ZM12 10L11.4697 9.46967L8.46967 12.4697L9 13L9.53033 13.5303L12.5303 10.5303L12 10ZM12 22V21.25C9.62177 21.25 7.91355 21.2484 6.61358 21.0736C5.33517 20.9018 4.56445 20.5749 3.9948 20.0052L3.46447 20.5355L2.93414 21.0659C3.82895 21.9607 4.96897 22.366 6.4137 22.5603C7.83687 22.7516 9.66418 22.75 12 22.75V22ZM2 12H1.25C1.25 14.3358 1.24841 16.1631 1.43975 17.5863C1.63399 19.031 2.03933 20.1711 2.93414 21.0659L3.46447 20.5355L3.9948 20.0052C3.42514 19.4355 3.09825 18.6648 2.92637 17.3864C2.75159 16.0864 2.75 14.3782 2.75 12H2ZM22 12H21.25C21.25 14.3782 21.2484 16.0864 21.0736 17.3864C20.9018 18.6648 20.5749 19.4355 20.0052 20.0052L20.5355 20.5355L21.0659 21.0659C21.9607 20.1711 22.366 19.031 22.5603 17.5863C22.7516 16.1631 22.75 14.3358 22.75 12H22ZM12 22V22.75C14.3358 22.75 16.1631 22.7516 17.5863 22.5603C19.031 22.366 20.1711 21.9607 21.0659 21.0659L20.5355 20.5355L20.0052 20.0052C19.4355 20.5749 18.6648 20.9018 17.3864 21.0736C16.0864 21.2484 14.3782 21.25 12 21.25V22ZM12 2V2.75C14.3782 2.75 16.0864 2.75159 17.3864 2.92637C18.6648 3.09825 19.4355 3.42514 20.0052 3.9948L20.5355 3.46447L21.0659 2.93414C20.1711 2.03933 19.031 1.63399 17.5863 1.43975C16.1631 1.24841 14.3358 1.25 12 1.25V2ZM22 12H22.75C22.75 9.66418 22.7516 7.83687 22.5603 6.41371C22.366 4.96897 21.9607 3.82895 21.0659 2.93414L20.5355 3.46447L20.0052 3.9948C20.5749 4.56445 20.9018 5.33517 21.0736 6.61358C21.2484 7.91356 21.25 9.62178 21.25 12H22ZM12 2V1.25C9.66418 1.25 7.83687 1.24841 6.4137 1.43975C4.96897 1.63399 3.82895 2.03933 2.93414 2.93414L3.46447 3.46447L3.9948 3.9948C4.56445 3.42514 5.33517 3.09825 6.61358 2.92637C7.91355 2.75159 9.62177 2.75 12 2.75V2ZM2 12H2.75C2.75 9.62178 2.75159 7.91356 2.92637 6.61358C3.09825 5.33517 3.42514 4.56445 3.9948 3.9948L3.46447 3.46447L2.93414 2.93414C2.03933 3.82895 1.63399 4.96897 1.43975 6.41371C1.24841 7.83687 1.25 9.66418 1.25 12H2ZM16 7V6.25H8V7V7.75H16V7Z" fill="white"/>
</svg>
