<svg width="32" height="32" viewBox="0 0 32 32" fill="none" xmlns="http://www.w3.org/2000/svg">
<path d="M21.3334 8.00008C21.3334 10.9456 18.9456 13.3334 16 13.3334C13.0545 13.3334 10.6667 10.9456 10.6667 8.00008C10.6667 5.05456 13.0545 2.66675 16 2.66675C18.9456 2.66675 21.3334 5.05456 21.3334 8.00008Z" fill="#96BFFF"/>
<path d="M26.6667 23.3334C26.6667 26.6471 26.6667 29.3334 16 29.3334C5.33337 29.3334 5.33337 26.6471 5.33337 23.3334C5.33337 20.0197 10.109 17.3334 16 17.3334C21.8911 17.3334 26.6667 20.0197 26.6667 23.3334Z" fill="#96BFFF"/>
<path d="M21.3334 8.00008C21.3334 10.9456 18.9456 13.3334 16 13.3334C13.0545 13.3334 10.6667 10.9456 10.6667 8.00008C10.6667 5.05456 13.0545 2.66675 16 2.66675C18.9456 2.66675 21.3334 5.05456 21.3334 8.00008Z" stroke="#0D47A1"/>
<path d="M26.6667 23.3334C26.6667 26.6471 26.6667 29.3334 16 29.3334C5.33337 29.3334 5.33337 26.6471 5.33337 23.3334C5.33337 20.0197 10.109 17.3334 16 17.3334C21.8911 17.3334 26.6667 20.0197 26.6667 23.3334Z" stroke="#0D47A1"/>
</svg>
