<svg width="32" height="32" viewBox="0 0 32 32" fill="none" xmlns="http://www.w3.org/2000/svg">
<path d="M21.3333 7.99984C21.3333 10.9454 18.9455 13.3332 16 13.3332C13.0545 13.3332 10.6667 10.9454 10.6667 7.99984C10.6667 5.05432 13.0545 2.6665 16 2.6665C18.9455 2.6665 21.3333 5.05432 21.3333 7.99984Z" fill="#96BFFF"/>
<path d="M26.6667 23.3332C26.6667 26.6469 26.6667 29.3332 16 29.3332C5.33334 29.3332 5.33334 26.6469 5.33334 23.3332C5.33334 20.0195 10.109 17.3332 16 17.3332C21.891 17.3332 26.6667 20.0195 26.6667 23.3332Z" fill="#96BFFF"/>
<path d="M21.3333 7.99984C21.3333 10.9454 18.9455 13.3332 16 13.3332C13.0545 13.3332 10.6667 10.9454 10.6667 7.99984C10.6667 5.05432 13.0545 2.6665 16 2.6665C18.9455 2.6665 21.3333 5.05432 21.3333 7.99984Z" stroke="#F2F7FF" stroke-width="1.5"/>
<path d="M26.6667 23.3332C26.6667 26.6469 26.6667 29.3332 16 29.3332C5.33334 29.3332 5.33334 26.6469 5.33334 23.3332C5.33334 20.0195 10.109 17.3332 16 17.3332C21.891 17.3332 26.6667 20.0195 26.6667 23.3332Z" stroke="#F2F7FF" stroke-width="1.5"/>
</svg>
