<svg width="29" height="30" viewBox="0 0 29 30" fill="none" xmlns="http://www.w3.org/2000/svg">
<path d="M14.5 28.3333H21.1667V6.99996C21.1667 4.4858 21.1667 3.22872 20.3856 2.44767C19.6046 1.66663 18.3475 1.66663 15.8333 1.66663H13.1667C10.6525 1.66663 9.39542 1.66663 8.61437 2.44767C7.83332 3.22872 7.83332 4.4858 7.83332 6.99996V6.99996V28.3333H14.5Z" fill="#96BFFF"/>
<path d="M27.8333 29.0833C28.2475 29.0833 28.5833 28.7475 28.5833 28.3333C28.5833 27.9191 28.2475 27.5833 27.8333 27.5833V28.3333V29.0833ZM1.16666 27.5833C0.752443 27.5833 0.416656 27.9191 0.416656 28.3333C0.416656 28.7475 0.752443 29.0833 1.16666 29.0833V28.3333V27.5833ZM8.61437 2.44767L9.1447 2.978V2.978L8.61437 2.44767ZM25.3148 6.11604L25.7315 5.49244L25.3148 6.11604ZM26.0506 6.85177L25.427 7.26845L25.427 7.26845L26.0506 6.85177ZM3.68514 6.11604L3.26846 5.49244L3.68514 6.11604ZM2.9494 6.85177L3.57301 7.26845L3.57301 7.26845L2.9494 6.85177ZM15.25 24.3333C15.25 23.9191 14.9142 23.5833 14.5 23.5833C14.0858 23.5833 13.75 23.9191 13.75 24.3333H14.5H15.25ZM13.75 15C13.75 15.4142 14.0858 15.75 14.5 15.75C14.9142 15.75 15.25 15.4142 15.25 15H14.5H13.75ZM15.25 9.66663C15.25 9.25241 14.9142 8.91663 14.5 8.91663C14.0858 8.91663 13.75 9.25241 13.75 9.66663H14.5H15.25ZM17.1667 13.0833C17.5809 13.0833 17.9167 12.7475 17.9167 12.3333C17.9167 11.9191 17.5809 11.5833 17.1667 11.5833V12.3333V13.0833ZM11.8333 11.5833C11.4191 11.5833 11.0833 11.9191 11.0833 12.3333C11.0833 12.7475 11.4191 13.0833 11.8333 13.0833V12.3333V11.5833ZM27.8333 28.3333V27.5833H26.5V28.3333V29.0833H27.8333V28.3333ZM26.5 28.3333V27.5833H21.1667V28.3333V29.0833H26.5V28.3333ZM21.1667 28.3333V27.5833H14.5V28.3333V29.0833H21.1667V28.3333ZM14.5 28.3333V27.5833H7.83332V28.3333V29.0833H14.5V28.3333ZM7.83332 28.3333V27.5833H2.49999V28.3333V29.0833H7.83332V28.3333ZM2.49999 28.3333V27.5833H1.16666V28.3333V29.0833H2.49999V28.3333ZM13.1667 1.66663V2.41663H15.8333V1.66663V0.916626H13.1667V1.66663ZM21.1667 6.99996H20.4167V28.3333H21.1667H21.9167V6.99996H21.1667ZM7.83332 28.3333H8.58332V6.99996H7.83332H7.08332V28.3333H7.83332ZM15.8333 1.66663V2.41663C17.1116 2.41663 17.9949 2.41822 18.6594 2.50757C19.3025 2.59402 19.6273 2.75006 19.8553 2.978L20.3856 2.44767L20.9159 1.91734C20.3628 1.36424 19.6687 1.12976 18.8593 1.02094C18.0716 0.915033 17.0692 0.916626 15.8333 0.916626V1.66663ZM21.1667 6.99996H21.9167C21.9167 5.76408 21.9182 4.76173 21.8123 3.97397C21.7035 3.16463 21.469 2.47045 20.9159 1.91734L20.3856 2.44767L19.8553 2.978C20.0832 3.20595 20.2393 3.53083 20.3257 4.17384C20.4151 4.83842 20.4167 5.72168 20.4167 6.99996H21.1667ZM13.1667 1.66663V0.916626C11.9308 0.916626 10.9284 0.915033 10.1407 1.02094C9.33133 1.12976 8.63714 1.36424 8.08404 1.91734L8.61437 2.44767L9.1447 2.978C9.37265 2.75006 9.69753 2.59402 10.3405 2.50757C11.0051 2.41822 11.8884 2.41663 13.1667 2.41663V1.66663ZM7.83332 6.99996H8.58332V6.99996H7.83332H7.08332V6.99996H7.83332ZM7.83332 6.99996H8.58332C8.58332 5.72168 8.58492 4.83841 8.67427 4.17384C8.76072 3.53083 8.91675 3.20595 9.1447 2.978L8.61437 2.44767L8.08404 1.91734C7.53094 2.47045 7.29645 3.16463 7.18764 3.97396C7.08173 4.76173 7.08332 5.76408 7.08332 6.99996H7.83332ZM26.5 10.3333H25.75V28.3333H26.5H27.25V10.3333H26.5ZM21.8333 5.66663V6.41663C22.7852 6.41663 23.4427 6.41753 23.9482 6.46895C24.4411 6.5191 24.7056 6.611 24.8982 6.73964L25.3148 6.11604L25.7315 5.49244C25.2515 5.17167 24.7115 5.03886 24.1 4.97665C23.501 4.91572 22.754 4.91663 21.8333 4.91663V5.66663ZM26.5 10.3333H27.25C27.25 9.41259 27.2509 8.66562 27.19 8.06662C27.1278 7.45509 26.995 6.91516 26.6742 6.43509L26.0506 6.85177L25.427 7.26845C25.5556 7.46098 25.6475 7.7255 25.6977 8.21843C25.7491 8.72389 25.75 9.38138 25.75 10.3333H26.5ZM25.3148 6.11604L24.8982 6.73964C25.1074 6.87948 25.2871 7.05917 25.427 7.26845L26.0506 6.85177L26.6742 6.4351C26.4249 6.06203 26.1046 5.74171 25.7315 5.49244L25.3148 6.11604ZM2.49999 10.3333H1.74999V28.3333H2.49999H3.24999V10.3333H2.49999ZM7.16666 5.66663V4.91663C6.24596 4.91663 5.49898 4.91572 4.89998 4.97665C4.28845 5.03886 3.74853 5.17167 3.26846 5.49244L3.68514 6.11604L4.10181 6.73964C4.29434 6.611 4.55887 6.5191 5.05179 6.46895C5.55725 6.41753 6.21474 6.41663 7.16666 6.41663V5.66663ZM2.49999 10.3333H3.24999C3.24999 9.38138 3.2509 8.72389 3.30232 8.21843C3.35246 7.7255 3.44437 7.46098 3.57301 7.26845L2.9494 6.85177L2.3258 6.43509C2.00503 6.91516 1.87223 7.45509 1.81002 8.06662C1.74908 8.66562 1.74999 9.41259 1.74999 10.3333H2.49999ZM3.68514 6.11604L3.26846 5.49244C2.89539 5.74171 2.57508 6.06203 2.3258 6.4351L2.9494 6.85177L3.57301 7.26845C3.71284 7.05917 3.89253 6.87948 4.10181 6.73964L3.68514 6.11604ZM14.5 28.3333H15.25V24.3333H14.5H13.75V28.3333H14.5ZM14.5 15H15.25V12.3333H14.5H13.75V15H14.5ZM14.5 12.3333H15.25V9.66663H14.5H13.75V12.3333H14.5ZM17.1667 12.3333V11.5833H14.5V12.3333V13.0833H17.1667V12.3333ZM14.5 12.3333V11.5833H11.8333V12.3333V13.0833H14.5V12.3333Z" fill="#0D47A1"/>
</svg>
