<svg width="18" height="18" viewBox="0 0 18 18" fill="none" xmlns="http://www.w3.org/2000/svg">
<path d="M16.75 9.50007C17.1642 9.50007 17.5 9.16428 17.5 8.75007C17.5 8.33585 17.1642 8.00007 16.75 8.00007V8.75007V9.50007ZM0.75 8.00007C0.335786 8.00007 0 8.33585 0 8.75007C0 9.16428 0.335786 9.50007 0.75 9.50007V8.75007V8.00007ZM9.5 0.75C9.5 0.335787 9.16421 1.31674e-07 8.75 0C8.33579 -1.31674e-07 8 0.335786 8 0.75L8.75 0.75L9.5 0.75ZM8 16.75C8 17.1642 8.33578 17.5 8.75 17.5C9.16421 17.5 9.5 17.1642 9.5 16.75H8.75H8ZM16.75 8.75007V8.00007H8.75V8.75007V9.50007H16.75V8.75007ZM8.75 8.75007V8.00007H0.75V8.75007V9.50007H8.75V8.75007ZM8.75 0.75L8 0.75L8 8.75007L8.75 8.75007L9.5 8.75007L9.5 0.75L8.75 0.75ZM8.75 8.75007H8V16.75H8.75H9.5V8.75007H8.75Z" fill="#424242"/>
</svg>
