<svg width="20" height="20" viewBox="0 0 20 20" fill="none" xmlns="http://www.w3.org/2000/svg">
<path d="M7.49666 1.60609C8.06053 1.12556 8.34247 0.885299 8.63725 0.744405C9.31904 0.418532 10.1116 0.418532 10.7934 0.744405C11.0882 0.885299 11.3702 1.12556 11.934 1.60609C12.1584 1.79734 12.2707 1.89297 12.3905 1.97329C12.6652 2.15742 12.9737 2.28521 13.2982 2.34926C13.4397 2.37721 13.5867 2.38894 13.8806 2.41239C14.6191 2.47132 14.9884 2.50079 15.2964 2.6096C16.009 2.86128 16.5694 3.42173 16.8211 4.13426C16.9299 4.44233 16.9594 4.81158 17.0183 5.55008C17.0418 5.84401 17.0535 5.99097 17.0814 6.13251C17.1455 6.45696 17.2733 6.76547 17.4574 7.04019C17.5377 7.16003 17.6333 7.27224 17.8246 7.49666C18.3051 8.06053 18.5454 8.34247 18.6863 8.63725C19.0122 9.31904 19.0122 10.1116 18.6863 10.7934C18.5454 11.0882 18.3051 11.3702 17.8246 11.934C17.6333 12.1584 17.5377 12.2707 17.4574 12.3905C17.2733 12.6652 17.1455 12.9737 17.0814 13.2982C17.0535 13.4397 17.0418 13.5867 17.0183 13.8806C16.9594 14.6191 16.9299 14.9884 16.8211 15.2964C16.5694 16.009 16.009 16.5694 15.2964 16.8211C14.9884 16.9299 14.6191 16.9594 13.8806 17.0183C13.5867 17.0418 13.4397 17.0535 13.2982 17.0814C12.9737 17.1455 12.6652 17.2733 12.3905 17.4574C12.2707 17.5377 12.1584 17.6333 11.934 17.8246C11.3702 18.3051 11.0882 18.5454 10.7934 18.6863C10.1116 19.0122 9.31904 19.0122 8.63725 18.6863C8.34247 18.5454 8.06053 18.3051 7.49666 17.8246C7.27224 17.6333 7.16003 17.5377 7.04019 17.4574C6.76547 17.2733 6.45696 17.1455 6.13251 17.0814C5.99097 17.0535 5.84401 17.0418 5.55008 17.0183C4.81158 16.9594 4.44233 16.9299 4.13426 16.8211C3.42173 16.5694 2.86128 16.009 2.6096 15.2964C2.50079 14.9884 2.47132 14.6191 2.41239 13.8806C2.38894 13.5867 2.37721 13.4397 2.34926 13.2982C2.28521 12.9737 2.15742 12.6652 1.97329 12.3905C1.89297 12.2707 1.79734 12.1584 1.60609 11.934C1.12556 11.3702 0.885299 11.0882 0.744405 10.7934C0.418532 10.1116 0.418532 9.31904 0.744405 8.63725C0.885299 8.34247 1.12556 8.06053 1.60609 7.49666C1.79734 7.27224 1.89297 7.16003 1.97329 7.04019C2.15742 6.76547 2.28521 6.45696 2.34926 6.13251C2.37721 5.99097 2.38894 5.84401 2.41239 5.55008C2.47132 4.81158 2.50079 4.44233 2.6096 4.13426C2.86128 3.42173 3.42173 2.86128 4.13426 2.6096C4.44233 2.50079 4.81158 2.47132 5.55008 2.41239C5.84401 2.38894 5.99097 2.37721 6.13251 2.34926C6.45696 2.28521 6.76547 2.15742 7.04019 1.97329C7.16003 1.89297 7.27224 1.79734 7.49666 1.60609Z" fill="#2372EC"/>
<path d="M5.55008 2.41239L5.51031 1.91398L5.55008 2.41239ZM6.13251 2.34926L6.22935 2.8398L6.13251 2.34926ZM7.49666 1.60609L7.82097 1.98665V1.98665L7.49666 1.60609ZM7.04019 1.97329L6.76181 1.55796L7.04019 1.97329ZM2.41239 5.55008L1.91398 5.51031L2.41239 5.55008ZM2.6096 4.13426L2.13815 3.96774L2.6096 4.13426ZM4.13426 2.6096L3.96774 2.13815L4.13426 2.6096ZM1.60609 7.49666L1.98665 7.82097L1.60609 7.49666ZM1.97329 7.04019L1.55796 6.76181L1.97329 7.04019ZM2.34926 6.13251L2.8398 6.22935L2.34926 6.13251ZM1.60609 11.934L1.98665 11.6097H1.98665L1.60609 11.934ZM0.744405 10.7934L1.19552 10.5778L0.744405 10.7934ZM0.744405 8.63725L1.19552 8.85287L0.744405 8.63725ZM2.41239 13.8806L1.91398 13.9204L2.41239 13.8806ZM2.34926 13.2982L2.8398 13.2013L2.34926 13.2982ZM1.97329 12.3905L1.55796 12.6689L1.97329 12.3905ZM5.55008 17.0183L5.58986 16.5199L5.55008 17.0183ZM4.13426 16.8211L3.96774 17.2925L4.13426 16.8211ZM2.6096 15.2964L2.13815 15.463L2.6096 15.2964ZM7.49666 17.8246L7.82097 17.444L7.49666 17.8246ZM7.04019 17.4574L6.76181 17.8727L7.04019 17.4574ZM6.13251 17.0814L6.03567 17.572L6.13251 17.0814ZM11.934 17.8246L11.6097 17.444L11.934 17.8246ZM10.7934 18.6863L10.5778 18.2352L10.7934 18.6863ZM8.63725 18.6863L8.85287 18.2352L8.63725 18.6863ZM13.8806 17.0183L13.8408 16.5199L13.8806 17.0183ZM13.2982 17.0814L13.395 17.572L13.2982 17.0814ZM12.3905 17.4574L12.6689 17.8727L12.3905 17.4574ZM17.0183 13.8806L16.5199 13.8408L17.0183 13.8806ZM16.8211 15.2964L17.2925 15.463L16.8211 15.2964ZM15.2964 16.8211L15.463 17.2925L15.2964 16.8211ZM17.8246 11.934L17.444 11.6097L17.8246 11.934ZM17.4574 12.3905L17.8727 12.6689L17.4574 12.3905ZM17.0814 13.2982L17.572 13.395L17.0814 13.2982ZM17.8246 7.49666L17.444 7.82097L17.8246 7.49666ZM18.6863 8.63725L18.2352 8.85287L18.6863 8.63725ZM18.6863 10.7934L18.2352 10.5778L18.6863 10.7934ZM17.0183 5.55008L17.5167 5.51031L17.0183 5.55008ZM17.0814 6.13251L17.572 6.03567L17.0814 6.13251ZM17.4574 7.04019L17.8727 6.76181L17.4574 7.04019ZM13.8806 2.41239L13.8408 2.91081L13.8806 2.41239ZM15.2964 2.6096L15.463 2.13815L15.2964 2.6096ZM16.8211 4.13426L17.2925 3.96774L16.8211 4.13426ZM11.934 1.60609L11.6097 1.98665L11.934 1.60609ZM12.3905 1.97329L12.6689 1.55796L12.3905 1.97329ZM13.2982 2.34926L13.2013 2.8398L13.2982 2.34926ZM10.7934 0.744405L10.5778 1.19552L10.7934 0.744405ZM8.63725 0.744405L8.85287 1.19552L8.63725 0.744405ZM6.56889 9.86178C6.37362 9.66652 6.05704 9.66652 5.86178 9.86178C5.66652 10.057 5.66652 10.3736 5.86178 10.5689L6.21533 10.2153L6.56889 9.86178ZM8.21533 12.2153L7.86178 12.5689C8.05704 12.7641 8.37362 12.7641 8.56889 12.5689L8.21533 12.2153ZM13.5689 7.56889C13.7641 7.37362 13.7641 7.05704 13.5689 6.86178C13.3736 6.66652 13.057 6.66652 12.8618 6.86178L13.2153 7.21533L13.5689 7.56889ZM5.55008 2.41239L5.58986 2.91081C5.87258 2.88825 6.05299 2.87462 6.22935 2.8398L6.13251 2.34926L6.03567 1.85873C5.92896 1.8798 5.81544 1.88963 5.51031 1.91398L5.55008 2.41239ZM7.49666 1.60609L7.17235 1.22553C6.93937 1.42408 6.85216 1.4974 6.76181 1.55796L7.04019 1.97329L7.31856 2.38863C7.4679 2.28854 7.6051 2.17061 7.82097 1.98665L7.49666 1.60609ZM6.13251 2.34926L6.22935 2.8398C6.61869 2.76293 6.98891 2.60958 7.31856 2.38863L7.04019 1.97329L6.76181 1.55796C6.54204 1.70526 6.29522 1.80749 6.03567 1.85873L6.13251 2.34926ZM2.41239 5.55008L2.91081 5.58986C2.97216 4.82108 2.99938 4.53203 3.08106 4.30078L2.6096 4.13426L2.13815 3.96774C2.0022 4.35263 1.97049 4.80208 1.91398 5.51031L2.41239 5.55008ZM5.55008 2.41239L5.51031 1.91398C4.80208 1.97049 4.35263 2.0022 3.96774 2.13815L4.13426 2.6096L4.30078 3.08106C4.53203 2.99938 4.82108 2.97216 5.58986 2.91081L5.55008 2.41239ZM2.6096 4.13426L3.08106 4.30078C3.2824 3.73076 3.73076 3.2824 4.30078 3.08106L4.13426 2.6096L3.96774 2.13815C3.1127 2.44016 2.44016 3.1127 2.13815 3.96774L2.6096 4.13426ZM1.60609 7.49666L1.98665 7.82097C2.17061 7.6051 2.28854 7.4679 2.38863 7.31856L1.97329 7.04019L1.55796 6.76181C1.4974 6.85216 1.42408 6.93937 1.22553 7.17235L1.60609 7.49666ZM2.41239 5.55008L1.91398 5.51031C1.88963 5.81544 1.8798 5.92896 1.85873 6.03567L2.34926 6.13251L2.8398 6.22935C2.87462 6.05299 2.88825 5.87258 2.91081 5.58986L2.41239 5.55008ZM1.97329 7.04019L2.38863 7.31856C2.60958 6.98891 2.76293 6.61869 2.8398 6.22935L2.34926 6.13251L1.85873 6.03567C1.80749 6.29522 1.70526 6.54204 1.55796 6.76181L1.97329 7.04019ZM1.60609 11.934L1.98665 11.6097C1.48642 11.0227 1.30128 10.7991 1.19552 10.5778L0.744405 10.7934L0.293286 11.0091C0.469314 11.3773 0.764705 11.7176 1.22553 12.2583L1.60609 11.934ZM1.60609 7.49666L1.22553 7.17235C0.764706 7.71311 0.469314 8.05334 0.293286 8.42163L0.744405 8.63725L1.19552 8.85287C1.30128 8.6316 1.48642 8.40796 1.98665 7.82097L1.60609 7.49666ZM0.744405 10.7934L1.19552 10.5778C0.934825 10.0324 0.934825 9.3983 1.19552 8.85287L0.744405 8.63725L0.293286 8.42163C-0.0977621 9.23978 -0.0977621 10.1909 0.293286 11.0091L0.744405 10.7934ZM2.41239 13.8806L2.91081 13.8408C2.88825 13.5581 2.87462 13.3777 2.8398 13.2013L2.34926 13.2982L1.85873 13.395C1.8798 13.5017 1.88963 13.6152 1.91398 13.9204L2.41239 13.8806ZM1.60609 11.934L1.22553 12.2583C1.42408 12.4913 1.4974 12.5785 1.55796 12.6689L1.97329 12.3905L2.38863 12.1121C2.28854 11.9628 2.17061 11.8256 1.98665 11.6097L1.60609 11.934ZM2.34926 13.2982L2.8398 13.2013C2.76293 12.812 2.60958 12.4418 2.38863 12.1121L1.97329 12.3905L1.55796 12.6689C1.70526 12.8887 1.80749 13.1355 1.85873 13.395L2.34926 13.2982ZM5.55008 17.0183L5.58986 16.5199C4.82108 16.4585 4.53203 16.4313 4.30078 16.3496L4.13426 16.8211L3.96774 17.2925C4.35263 17.4285 4.80208 17.4602 5.51031 17.5167L5.55008 17.0183ZM2.41239 13.8806L1.91398 13.9204C1.97049 14.6286 2.0022 15.0781 2.13815 15.463L2.6096 15.2964L3.08106 15.1299C2.99938 14.8987 2.97216 14.6096 2.91081 13.8408L2.41239 13.8806ZM4.13426 16.8211L4.30078 16.3496C3.73076 16.1483 3.2824 15.6999 3.08106 15.1299L2.6096 15.2964L2.13815 15.463C2.44016 16.318 3.1127 16.9905 3.96774 17.2925L4.13426 16.8211ZM7.49666 17.8246L7.82097 17.444C7.6051 17.2601 7.4679 17.1421 7.31856 17.0421L7.04019 17.4574L6.76181 17.8727C6.85216 17.9333 6.93937 18.0066 7.17235 18.2052L7.49666 17.8246ZM5.55008 17.0183L5.51031 17.5167C5.81544 17.5411 5.92896 17.5509 6.03567 17.572L6.13251 17.0814L6.22935 16.5909C6.05299 16.5561 5.87258 16.5424 5.58986 16.5199L5.55008 17.0183ZM7.04019 17.4574L7.31856 17.0421C6.98891 16.8211 6.61869 16.6678 6.22935 16.5909L6.13251 17.0814L6.03567 17.572C6.29523 17.6232 6.54204 17.7254 6.76181 17.8727L7.04019 17.4574ZM11.934 17.8246L11.6097 17.444C11.0227 17.9443 10.7991 18.1294 10.5778 18.2352L10.7934 18.6863L11.0091 19.1374C11.3773 18.9614 11.7176 18.666 12.2583 18.2052L11.934 17.8246ZM7.49666 17.8246L7.17235 18.2052C7.71311 18.666 8.05334 18.9614 8.42163 19.1374L8.63725 18.6863L8.85287 18.2352C8.6316 18.1294 8.40796 17.9443 7.82097 17.444L7.49666 17.8246ZM10.7934 18.6863L10.5778 18.2352C10.0324 18.4959 9.3983 18.4959 8.85287 18.2352L8.63725 18.6863L8.42163 19.1374C9.23978 19.5285 10.1909 19.5285 11.0091 19.1374L10.7934 18.6863ZM13.8806 17.0183L13.8408 16.5199C13.5581 16.5424 13.3777 16.5561 13.2013 16.5909L13.2982 17.0814L13.395 17.572C13.5017 17.5509 13.6152 17.5411 13.9204 17.5167L13.8806 17.0183ZM11.934 17.8246L12.2583 18.2052C12.4913 18.0066 12.5785 17.9333 12.6689 17.8727L12.3905 17.4574L12.1121 17.0421C11.9628 17.1421 11.8256 17.2601 11.6097 17.444L11.934 17.8246ZM13.2982 17.0814L13.2013 16.5909C12.812 16.6678 12.4418 16.8211 12.1121 17.0421L12.3905 17.4574L12.6689 17.8727C12.8887 17.7254 13.1355 17.6232 13.395 17.572L13.2982 17.0814ZM17.0183 13.8806L16.5199 13.8408C16.4585 14.6096 16.4313 14.8987 16.3496 15.1299L16.8211 15.2964L17.2925 15.463C17.4285 15.0781 17.4602 14.6286 17.5167 13.9204L17.0183 13.8806ZM13.8806 17.0183L13.9204 17.5167C14.6286 17.4602 15.0781 17.4285 15.463 17.2925L15.2964 16.8211L15.1299 16.3496C14.8987 16.4313 14.6096 16.4585 13.8408 16.5199L13.8806 17.0183ZM16.8211 15.2964L16.3496 15.1299C16.1483 15.6999 15.6999 16.1483 15.1299 16.3496L15.2964 16.8211L15.463 17.2925C16.318 16.9905 16.9905 16.318 17.2925 15.463L16.8211 15.2964ZM17.8246 11.934L17.444 11.6097C17.2601 11.8256 17.1421 11.9628 17.0421 12.1121L17.4574 12.3905L17.8727 12.6689C17.9333 12.5785 18.0066 12.4913 18.2052 12.2583L17.8246 11.934ZM17.0183 13.8806L17.5167 13.9204C17.5411 13.6152 17.5509 13.5017 17.572 13.395L17.0814 13.2982L16.5909 13.2013C16.5561 13.3777 16.5424 13.5581 16.5199 13.8408L17.0183 13.8806ZM17.4574 12.3905L17.0421 12.1121C16.8211 12.4418 16.6678 12.812 16.5909 13.2013L17.0814 13.2982L17.572 13.395C17.6232 13.1355 17.7254 12.8887 17.8727 12.6689L17.4574 12.3905ZM17.8246 7.49666L17.444 7.82097C17.9443 8.40796 18.1294 8.6316 18.2352 8.85287L18.6863 8.63725L19.1374 8.42163C18.9614 8.05334 18.666 7.71311 18.2052 7.17235L17.8246 7.49666ZM17.8246 11.934L18.2052 12.2583C18.666 11.7176 18.9614 11.3773 19.1374 11.0091L18.6863 10.7934L18.2352 10.5778C18.1294 10.7991 17.9443 11.0227 17.444 11.6097L17.8246 11.934ZM18.6863 8.63725L18.2352 8.85287C18.4959 9.3983 18.4959 10.0324 18.2352 10.5778L18.6863 10.7934L19.1374 11.0091C19.5285 10.1909 19.5285 9.23978 19.1374 8.42163L18.6863 8.63725ZM17.0183 5.55008L16.5199 5.58986C16.5424 5.87258 16.5561 6.05299 16.5909 6.22935L17.0814 6.13251L17.572 6.03567C17.5509 5.92896 17.5411 5.81544 17.5167 5.51031L17.0183 5.55008ZM17.8246 7.49666L18.2052 7.17235C18.0066 6.93937 17.9333 6.85216 17.8727 6.76181L17.4574 7.04019L17.0421 7.31856C17.1421 7.4679 17.2601 7.6051 17.444 7.82097L17.8246 7.49666ZM17.0814 6.13251L16.5909 6.22935C16.6678 6.61869 16.8211 6.98891 17.0421 7.31856L17.4574 7.04019L17.8727 6.76181C17.7254 6.54204 17.6232 6.29523 17.572 6.03567L17.0814 6.13251ZM13.8806 2.41239L13.8408 2.91081C14.6096 2.97216 14.8987 2.99938 15.1299 3.08106L15.2964 2.6096L15.463 2.13815C15.0781 2.0022 14.6286 1.97049 13.9204 1.91398L13.8806 2.41239ZM17.0183 5.55008L17.5167 5.51031C17.4602 4.80208 17.4285 4.35263 17.2925 3.96774L16.8211 4.13426L16.3496 4.30078C16.4313 4.53203 16.4585 4.82108 16.5199 5.58986L17.0183 5.55008ZM15.2964 2.6096L15.1299 3.08106C15.6999 3.2824 16.1483 3.73076 16.3496 4.30078L16.8211 4.13426L17.2925 3.96774C16.9905 3.1127 16.318 2.44016 15.463 2.13815L15.2964 2.6096ZM11.934 1.60609L11.6097 1.98665C11.8256 2.17061 11.9628 2.28854 12.1121 2.38863L12.3905 1.97329L12.6689 1.55796C12.5785 1.4974 12.4913 1.42408 12.2583 1.22553L11.934 1.60609ZM13.8806 2.41239L13.9204 1.91398C13.6152 1.88963 13.5017 1.8798 13.395 1.85873L13.2982 2.34926L13.2013 2.8398C13.3777 2.87462 13.5581 2.88825 13.8408 2.91081L13.8806 2.41239ZM12.3905 1.97329L12.1121 2.38863C12.4418 2.60958 12.812 2.76293 13.2013 2.8398L13.2982 2.34926L13.395 1.85873C13.1355 1.80749 12.8887 1.70526 12.6689 1.55796L12.3905 1.97329ZM11.934 1.60609L12.2583 1.22553C11.7176 0.764705 11.3773 0.469314 11.0091 0.293286L10.7934 0.744405L10.5778 1.19552C10.7991 1.30128 11.0227 1.48642 11.6097 1.98665L11.934 1.60609ZM7.49666 1.60609L7.82097 1.98665C8.40796 1.48642 8.6316 1.30128 8.85287 1.19552L8.63725 0.744405L8.42163 0.293286C8.05334 0.469314 7.71311 0.764705 7.17235 1.22553L7.49666 1.60609ZM10.7934 0.744405L11.0091 0.293286C10.1909 -0.0977621 9.23978 -0.0977621 8.42163 0.293286L8.63725 0.744405L8.85287 1.19552C9.3983 0.934825 10.0324 0.934825 10.5778 1.19552L10.7934 0.744405ZM6.21533 10.2153L5.86178 10.5689L7.86178 12.5689L8.21533 12.2153L8.56889 11.8618L6.56889 9.86178L6.21533 10.2153ZM8.21533 12.2153L8.56889 12.5689L13.5689 7.56889L13.2153 7.21533L12.8618 6.86178L7.86178 11.8618L8.21533 12.2153Z" fill="white"/>
</svg>
