<svg width="16" height="16" viewBox="0 0 16 16" fill="none" xmlns="http://www.w3.org/2000/svg">
<path d="M5.22317 3.13137L5.18339 2.63296L5.22317 3.13137ZM5.61145 3.08929L5.7083 3.57982L5.61145 3.08929ZM6.52089 2.59384L6.84519 2.9744L6.84519 2.9744L6.52089 2.59384ZM6.21657 2.83864L5.93819 2.4233L6.21657 2.83864ZM3.13137 5.22317L2.63296 5.18339L3.13137 5.22317ZM3.26285 4.27929L2.79139 4.11276L3.26285 4.27929ZM4.27929 3.26285L4.11276 2.79139L4.27929 3.26285ZM2.59384 6.52089L2.9744 6.84519L2.59384 6.52089ZM2.83864 6.21657L2.4233 5.93819L2.83864 6.21657ZM3.08929 5.61145L3.57982 5.7083L3.08929 5.61145ZM2.59384 9.47913L2.9744 9.15482L2.9744 9.15482L2.59384 9.47913ZM2.01938 8.71874L2.4705 8.50312L2.01938 8.71874ZM2.01938 7.28128L2.4705 7.4969L2.01938 7.28128ZM3.13137 10.7768L2.63296 10.8166L3.13137 10.7768ZM3.08929 10.3886L3.57982 10.2917L3.08929 10.3886ZM2.83864 9.78345L2.4233 10.0618L2.83864 9.78345ZM5.22317 12.8686L5.26294 12.3702L5.22317 12.8686ZM4.27929 12.7372L4.11276 13.2086L4.27929 12.7372ZM3.26285 11.7207L2.79139 11.8873L3.26285 11.7207ZM6.52089 13.4062L6.84519 13.0256L6.84519 13.0256L6.52089 13.4062ZM6.21657 13.1614L5.93819 13.5767L5.93819 13.5767L6.21657 13.1614ZM5.61145 12.9107L5.51461 13.4013L5.61145 12.9107ZM9.47913 13.4062L9.15482 13.0256L9.47913 13.4062ZM8.71874 13.9806L8.50312 13.5295L8.50312 13.5295L8.71874 13.9806ZM7.28128 13.9806L7.4969 13.5295L7.4969 13.5295L7.28128 13.9806ZM10.7768 12.8686L10.7371 12.3702L10.7768 12.8686ZM10.3886 12.9107L10.4854 13.4013L10.3886 12.9107ZM9.78345 13.1614L10.0618 13.5767L10.0618 13.5767L9.78345 13.1614ZM12.8686 10.7768L12.3702 10.7371L12.8686 10.7768ZM12.7372 11.7207L13.2086 11.8873L12.7372 11.7207ZM11.7207 12.7372L11.8873 13.2086L11.7207 12.7372ZM13.4062 9.47913L13.0256 9.15482L13.0256 9.15482L13.4062 9.47913ZM13.1614 9.78345L13.5767 10.0618L13.5767 10.0618L13.1614 9.78345ZM12.9107 10.3886L13.4013 10.4854L12.9107 10.3886ZM13.4062 6.52089L13.0256 6.84519L13.4062 6.52089ZM13.9806 7.28128L13.5295 7.4969L13.5295 7.4969L13.9806 7.28128ZM13.9806 8.71874L13.5295 8.50312L13.5295 8.50312L13.9806 8.71874ZM12.8686 5.22317L13.3671 5.18339L12.8686 5.22317ZM12.9107 5.61145L13.4013 5.51461L12.9107 5.61145ZM13.1614 6.21657L13.5767 5.93819L13.5767 5.93819L13.1614 6.21657ZM10.7768 3.13137L10.7371 3.62979L10.7768 3.13137ZM11.7207 3.26285L11.8873 2.79139L11.7207 3.26285ZM12.7372 4.27929L13.2086 4.11276L12.7372 4.27929ZM9.47913 2.59384L9.15482 2.9744L9.47913 2.59384ZM9.78345 2.83864L10.0618 2.4233L9.78345 2.83864ZM10.3886 3.08929L10.2917 3.57982L10.3886 3.08929ZM8.71874 2.01938L8.50312 2.4705L8.71874 2.01938ZM7.28128 2.01938L7.4969 2.4705L7.28128 2.01938ZM6.02022 7.97978C5.82496 7.78452 5.50838 7.78452 5.31311 7.97978C5.11785 8.17504 5.11785 8.49162 5.31311 8.68689L5.66667 8.33333L6.02022 7.97978ZM7 9.66667L6.64645 10.0202C6.84171 10.2155 7.15829 10.2155 7.35355 10.0202L7 9.66667ZM10.6869 6.68689C10.8821 6.49162 10.8821 6.17504 10.6869 5.97978C10.4916 5.78452 10.175 5.78452 9.97978 5.97978L10.3333 6.33333L10.6869 6.68689ZM5.22317 3.13137L5.26294 3.62979C5.44768 3.61505 5.57911 3.60533 5.7083 3.57982L5.61145 3.08929L5.51461 2.59876C5.45508 2.61051 5.39055 2.61643 5.18339 2.63296L5.22317 3.13137ZM6.52089 2.59384L6.19658 2.21328C6.03841 2.34808 5.98859 2.38952 5.93819 2.4233L6.21657 2.83864L6.49495 3.25398C6.60433 3.18066 6.70414 3.09461 6.84519 2.9744L6.52089 2.59384ZM5.61145 3.08929L5.7083 3.57982C5.98948 3.52431 6.25686 3.41355 6.49495 3.25398L6.21657 2.83864L5.93819 2.4233C5.80999 2.50923 5.66602 2.56886 5.51461 2.59876L5.61145 3.08929ZM3.13137 5.22317L3.62979 5.26294C3.67149 4.74033 3.6889 4.57436 3.7343 4.44581L3.26285 4.27929L2.79139 4.11276C2.69172 4.39496 2.66983 4.72133 2.63296 5.18339L3.13137 5.22317ZM5.22317 3.13137L5.18339 2.63296C4.72133 2.66983 4.39496 2.69172 4.11276 2.79139L4.27929 3.26285L4.44581 3.7343C4.57436 3.6889 4.74033 3.67149 5.26294 3.62979L5.22317 3.13137ZM3.26285 4.27929L3.7343 4.44581C3.85175 4.1133 4.1133 3.85175 4.44581 3.7343L4.27929 3.26285L4.11276 2.79139C3.49524 3.00951 3.00951 3.49524 2.79139 4.11276L3.26285 4.27929ZM2.59384 6.52089L2.9744 6.84519C3.09461 6.70414 3.18066 6.60433 3.25398 6.49495L2.83864 6.21657L2.4233 5.93819C2.38952 5.98859 2.34808 6.03841 2.21328 6.19658L2.59384 6.52089ZM3.13137 5.22317L2.63296 5.18339C2.61643 5.39055 2.61051 5.45508 2.59876 5.51461L3.08929 5.61145L3.57982 5.7083C3.60533 5.57911 3.61505 5.44768 3.62979 5.26294L3.13137 5.22317ZM2.83864 6.21657L3.25398 6.49495C3.41355 6.25686 3.52431 5.98948 3.57982 5.7083L3.08929 5.61145L2.59876 5.51461C2.56886 5.66602 2.50923 5.80999 2.4233 5.93819L2.83864 6.21657ZM2.59384 9.47913L2.9744 9.15482C2.63434 8.75579 2.5293 8.62613 2.4705 8.50312L2.01938 8.71874L1.56826 8.93436C1.69733 9.20438 1.91263 9.45064 2.21328 9.80344L2.59384 9.47913ZM2.59384 6.52089L2.21328 6.19658C1.91263 6.54938 1.69733 6.79563 1.56826 7.06566L2.01938 7.28128L2.4705 7.4969C2.5293 7.37389 2.63434 7.24423 2.9744 6.84519L2.59384 6.52089ZM2.01938 8.71874L2.4705 8.50312C2.31843 8.18495 2.31843 7.81507 2.4705 7.4969L2.01938 7.28128L1.56826 7.06566C1.28584 7.65654 1.28584 8.34347 1.56826 8.93436L2.01938 8.71874ZM3.13137 10.7768L3.62979 10.7371C3.61505 10.5523 3.60533 10.4209 3.57982 10.2917L3.08929 10.3886L2.59876 10.4854C2.61051 10.5449 2.61643 10.6095 2.63296 10.8166L3.13137 10.7768ZM2.59384 9.47913L2.21328 9.80344C2.34808 9.96161 2.38952 10.0114 2.4233 10.0618L2.83864 9.78345L3.25398 9.50507C3.18066 9.39568 3.09461 9.29588 2.9744 9.15482L2.59384 9.47913ZM3.08929 10.3886L3.57982 10.2917C3.52431 10.0105 3.41355 9.74315 3.25398 9.50507L2.83864 9.78345L2.4233 10.0618C2.50923 10.19 2.56886 10.334 2.59876 10.4854L3.08929 10.3886ZM5.22317 12.8686L5.26294 12.3702C4.74033 12.3285 4.57436 12.3111 4.44581 12.2657L4.27929 12.7372L4.11276 13.2086C4.39496 13.3083 4.72133 13.3302 5.18339 13.3671L5.22317 12.8686ZM3.13137 10.7768L2.63296 10.8166C2.66983 11.2787 2.69172 11.6051 2.79139 11.8873L3.26285 11.7207L3.7343 11.5542C3.6889 11.4257 3.67149 11.2597 3.62979 10.7371L3.13137 10.7768ZM4.27929 12.7372L4.44581 12.2657C4.1133 12.1483 3.85175 11.8867 3.7343 11.5542L3.26285 11.7207L2.79139 11.8873C3.00951 12.5048 3.49524 12.9905 4.11276 13.2086L4.27929 12.7372ZM6.52089 13.4062L6.84519 13.0256C6.70414 12.9054 6.60433 12.8194 6.49495 12.746L6.21657 13.1614L5.93819 13.5767C5.98859 13.6105 6.03841 13.6519 6.19658 13.7867L6.52089 13.4062ZM5.22317 12.8686L5.18339 13.3671C5.39055 13.3836 5.45508 13.3895 5.51461 13.4013L5.61145 12.9107L5.7083 12.4202C5.57911 12.3947 5.44769 12.385 5.26294 12.3702L5.22317 12.8686ZM6.21657 13.1614L6.49495 12.746C6.25686 12.5865 5.98948 12.4757 5.7083 12.4202L5.61145 12.9107L5.51461 13.4013C5.66602 13.4312 5.80999 13.4908 5.93819 13.5767L6.21657 13.1614ZM9.47913 13.4062L9.15482 13.0256C8.75579 13.3657 8.62613 13.4707 8.50312 13.5295L8.71874 13.9806L8.93436 14.4318C9.20438 14.3027 9.45064 14.0874 9.80344 13.7867L9.47913 13.4062ZM6.52089 13.4062L6.19658 13.7867C6.54938 14.0874 6.79563 14.3027 7.06566 14.4318L7.28128 13.9806L7.4969 13.5295C7.37389 13.4707 7.24423 13.3657 6.84519 13.0256L6.52089 13.4062ZM8.71874 13.9806L8.50312 13.5295C8.18495 13.6816 7.81507 13.6816 7.4969 13.5295L7.28128 13.9806L7.06566 14.4318C7.65655 14.7142 8.34347 14.7142 8.93436 14.4318L8.71874 13.9806ZM10.7768 12.8686L10.7371 12.3702C10.5523 12.385 10.4209 12.3947 10.2917 12.4202L10.3886 12.9107L10.4854 13.4013C10.5449 13.3895 10.6095 13.3836 10.8166 13.3671L10.7768 12.8686ZM9.47913 13.4062L9.80344 13.7867C9.96161 13.6519 10.0114 13.6105 10.0618 13.5767L9.78345 13.1614L9.50507 12.746C9.39568 12.8194 9.29588 12.9054 9.15482 13.0256L9.47913 13.4062ZM10.3886 12.9107L10.2917 12.4202C10.0105 12.4757 9.74315 12.5865 9.50507 12.746L9.78345 13.1614L10.0618 13.5767C10.19 13.4908 10.334 13.4312 10.4854 13.4013L10.3886 12.9107ZM12.8686 10.7768L12.3702 10.7371C12.3285 11.2597 12.3111 11.4257 12.2657 11.5542L12.7372 11.7207L13.2086 11.8873C13.3083 11.6051 13.3302 11.2787 13.3671 10.8166L12.8686 10.7768ZM10.7768 12.8686L10.8166 13.3671C11.2787 13.3302 11.6051 13.3083 11.8873 13.2086L11.7207 12.7372L11.5542 12.2657C11.4257 12.3111 11.2597 12.3285 10.7371 12.3702L10.7768 12.8686ZM12.7372 11.7207L12.2657 11.5542C12.1483 11.8867 11.8867 12.1483 11.5542 12.2657L11.7207 12.7372L11.8873 13.2086C12.5048 12.9905 12.9905 12.5048 13.2086 11.8873L12.7372 11.7207ZM13.4062 9.47913L13.0256 9.15482C12.9054 9.29588 12.8194 9.39568 12.746 9.50507L13.1614 9.78345L13.5767 10.0618C13.6105 10.0114 13.6519 9.96161 13.7867 9.80344L13.4062 9.47913ZM12.8686 10.7768L13.3671 10.8166C13.3836 10.6095 13.3895 10.5449 13.4013 10.4854L12.9107 10.3886L12.4202 10.2917C12.3947 10.4209 12.385 10.5523 12.3702 10.7371L12.8686 10.7768ZM13.1614 9.78345L12.746 9.50507C12.5865 9.74315 12.4757 10.0105 12.4202 10.2917L12.9107 10.3886L13.4013 10.4854C13.4312 10.334 13.4908 10.19 13.5767 10.0618L13.1614 9.78345ZM13.4062 6.52089L13.0256 6.84519C13.3657 7.24423 13.4707 7.37389 13.5295 7.4969L13.9806 7.28128L14.4318 7.06566C14.3027 6.79563 14.0874 6.54938 13.7867 6.19658L13.4062 6.52089ZM13.4062 9.47913L13.7867 9.80344C14.0874 9.45064 14.3027 9.20438 14.4318 8.93436L13.9806 8.71874L13.5295 8.50312C13.4707 8.62613 13.3657 8.75579 13.0256 9.15482L13.4062 9.47913ZM13.9806 7.28128L13.5295 7.4969C13.6816 7.81507 13.6816 8.18495 13.5295 8.50312L13.9806 8.71874L14.4318 8.93436C14.7142 8.34347 14.7142 7.65655 14.4318 7.06566L13.9806 7.28128ZM12.8686 5.22317L12.3702 5.26294C12.385 5.44769 12.3947 5.57911 12.4202 5.7083L12.9107 5.61145L13.4013 5.51461C13.3895 5.45508 13.3836 5.39055 13.3671 5.18339L12.8686 5.22317ZM13.4062 6.52089L13.7867 6.19658C13.6519 6.03841 13.6105 5.98859 13.5767 5.93819L13.1614 6.21657L12.746 6.49495C12.8194 6.60433 12.9054 6.70414 13.0256 6.84519L13.4062 6.52089ZM12.9107 5.61145L12.4202 5.7083C12.4757 5.98948 12.5865 6.25686 12.746 6.49495L13.1614 6.21657L13.5767 5.93819C13.4908 5.80999 13.4312 5.66602 13.4013 5.51461L12.9107 5.61145ZM10.7768 3.13137L10.7371 3.62979C11.2597 3.67149 11.4257 3.6889 11.5542 3.7343L11.7207 3.26285L11.8873 2.79139C11.6051 2.69172 11.2787 2.66983 10.8166 2.63296L10.7768 3.13137ZM12.8686 5.22317L13.3671 5.18339C13.3302 4.72133 13.3083 4.39496 13.2086 4.11276L12.7372 4.27929L12.2657 4.44581C12.3111 4.57436 12.3285 4.74033 12.3702 5.26294L12.8686 5.22317ZM11.7207 3.26285L11.5542 3.7343C11.8867 3.85175 12.1483 4.1133 12.2657 4.44581L12.7372 4.27929L13.2086 4.11276C12.9905 3.49524 12.5048 3.00951 11.8873 2.79139L11.7207 3.26285ZM9.47913 2.59384L9.15482 2.9744C9.29588 3.09461 9.39568 3.18066 9.50507 3.25398L9.78345 2.83864L10.0618 2.4233C10.0114 2.38952 9.96161 2.34808 9.80344 2.21328L9.47913 2.59384ZM10.7768 3.13137L10.8166 2.63296C10.6095 2.61643 10.5449 2.61051 10.4854 2.59876L10.3886 3.08929L10.2917 3.57982C10.4209 3.60533 10.5523 3.61505 10.7371 3.62979L10.7768 3.13137ZM9.78345 2.83864L9.50507 3.25398C9.74315 3.41355 10.0105 3.52431 10.2917 3.57982L10.3886 3.08929L10.4854 2.59876C10.334 2.56886 10.19 2.50923 10.0618 2.4233L9.78345 2.83864ZM9.47913 2.59384L9.80344 2.21328C9.45064 1.91263 9.20438 1.69733 8.93436 1.56826L8.71874 2.01938L8.50312 2.4705C8.62613 2.5293 8.75579 2.63434 9.15482 2.9744L9.47913 2.59384ZM6.52089 2.59384L6.84519 2.9744C7.24423 2.63434 7.37389 2.5293 7.4969 2.4705L7.28128 2.01938L7.06566 1.56826C6.79563 1.69733 6.54938 1.91263 6.19658 2.21328L6.52089 2.59384ZM8.71874 2.01938L8.93436 1.56826C8.34347 1.28584 7.65654 1.28584 7.06566 1.56826L7.28128 2.01938L7.4969 2.4705C7.81507 2.31843 8.18495 2.31843 8.50312 2.4705L8.71874 2.01938ZM5.66667 8.33333L5.31311 8.68689L6.64645 10.0202L7 9.66667L7.35355 9.31311L6.02022 7.97978L5.66667 8.33333ZM7 9.66667L7.35355 10.0202L10.6869 6.68689L10.3333 6.33333L9.97978 5.97978L6.64645 9.31311L7 9.66667Z" fill="#6DDB72"/>
</svg>
