<svg width="156" height="64" viewBox="0 0 156 64" fill="none" xmlns="http://www.w3.org/2000/svg">
<rect width="156" height="64" rx="8" fill="white" fill-opacity="0.6"/>
<rect x="8.25" y="8.25" width="47.5" height="47.5" rx="23.75" fill="#E59C6C"/>
<rect x="8.25" y="8.25" width="47.5" height="47.5" rx="23.75" stroke="#E4EFFF" stroke-width="0.5"/>
<path opacity="0.5" fill-rule="evenodd" clip-rule="evenodd" d="M45.3333 32.0003C45.3333 39.3641 39.3637 45.3337 32 45.3337C24.6362 45.3337 18.6667 39.3641 18.6667 32.0003C18.6667 24.6365 24.6362 18.667 32 18.667C39.3637 18.667 45.3333 24.6365 45.3333 32.0003Z" fill="white"/>
<path fill-rule="evenodd" clip-rule="evenodd" d="M32 23C32.5523 23 33 23.4477 33 24V24.4223C35.1739 24.8116 37 26.4448 37 28.6667C37 29.2189 36.5523 29.6667 36 29.6667C35.4477 29.6667 35 29.2189 35 28.6667C35 27.7621 34.2479 26.8045 33 26.4633V31.0889C35.1739 31.4783 37 33.1115 37 35.3333C37 37.5552 35.1739 39.1884 33 39.5777V40C33 40.5523 32.5523 41 32 41C31.4477 41 31 40.5523 31 40V39.5777C28.8261 39.1884 27 37.5552 27 35.3333C27 34.7811 27.4477 34.3333 28 34.3333C28.5523 34.3333 29 34.7811 29 35.3333C29 36.238 29.7521 37.1955 31 37.5367V32.9111C28.8261 32.5217 27 30.8885 27 28.6667C27 26.4448 28.8261 24.8116 31 24.4223V24C31 23.4477 31.4477 23 32 23ZM31 26.4633C29.7521 26.8045 29 27.7621 29 28.6667C29 29.5713 29.7521 30.5288 31 30.87V26.4633ZM35 35.3333C35 34.4287 34.2479 33.4712 33 33.13V37.5367C34.2479 37.1955 35 36.238 35 35.3333Z" fill="white"/>
<path d="M128 32H144M144 32L138 26M144 32L138 38" stroke="white" stroke-linecap="round" stroke-linejoin="round"/>
</svg>
